<?xml version="1.0" standalone="no"?>
<!DOCTYPE svg PUBLIC "-//W3C//DTD SVG 1.1//EN" "http://www.w3.org/Graphics/SVG/1.1/DTD/svg11.dtd" >
<svg xmlns="http://www.w3.org/2000/svg" xmlns:xlink="http://www.w3.org/1999/xlink" version="1.1">
<metadata>
Created by FontForge 20170731 at Tue Jul  5 19:48:16 2022
 By Aleksey,,,
Copyright 2015 Electrolux. This typeface is for exclusive use by Electrolux only. All rights reserved.
</metadata>
<defs>
<font id="ElectroluxSans-SemiBold" horiz-adv-x="1193" >
  <font-face 
    font-family="Electrolux Sans SemiBold"
    font-weight="600"
    font-stretch="normal"
    units-per-em="2048"
    panose-1="2 11 7 0 2 0 0 0 0 0"
    ascent="1653"
    descent="-395"
    x-height="1032"
    cap-height="1427"
    bbox="-70 -451 2456 2154"
    underline-thickness="102"
    underline-position="-491"
    unicode-range="U+000D-FB04"
  />
<missing-glyph horiz-adv-x="1501" 
d="M23 0v1427h1458v-1427h-1458zM195 168h1112v1092h-1112v-1092zM311 393l320 320l-320 319l119 121l322 -322l319 322l119 -121l-320 -319l320 -320l-119 -121l-319 322l-322 -322z" />
    <glyph glyph-name="ff" unicode="ff" horiz-adv-x="1245" 
d="M127 0v1081q0 117 28 187t87 118q52 42 115 55t141 13h96v-207h-92q-71 0 -103 -32.5t-32 -110.5v-72h356v49q0 118 27.5 188t87.5 117q52 42 115 55t141 13h104v-207h-100q-72 0 -104.5 -32.5t-32.5 -110.5v-72h206v-225h-204v-807h-240v807h-354v-807h-242z" />
    <glyph glyph-name="fi" unicode="fi" horiz-adv-x="1089" 
d="M129 0v1081q0 119 27.5 188.5t87.5 114.5q59 44 130 57t163 13h172v-209h-142q-104 0 -151 -33.5t-47 -111.5v-68h594v-1032h-246v807h-346v-807h-242z" />
    <glyph glyph-name="fl" unicode="fl" horiz-adv-x="1148" 
d="M127 0v1081q0 117 28 187t87 118q52 42 115 55t141 13h106v-207h-92q-72 0 -104.5 -32.5t-32.5 -110.5v-72h196v-225h-196v-807h-248zM774 0v1427h250v-1427h-250z" />
    <glyph glyph-name="ffi" unicode="ffi" horiz-adv-x="1675" 
d="M127 0v1081q0 117 28 187t87 118q52 42 115 55t141 13h96v-207h-92q-71 0 -103 -32.5t-32 -110.5v-72h356v49q0 118 27.5 188t87.5 117q52 42 115 55t141 13h209v-207h-205q-71 0 -104 -32.5t-33 -110.5v-72h595v-1032h-245v807h-348v-807h-240v807h-354v-807h-242z" />
    <glyph glyph-name="ffl" unicode="ffl" horiz-adv-x="1712" 
d="M127 0v1081q0 117 28 187t87 118q52 42 115 55t141 13h96v-207h-92q-71 0 -103 -32.5t-32 -110.5v-72h356v49q0 118 27.5 188t87.5 117q52 42 115 55t141 13h104v-207h-100q-72 0 -104.5 -32.5t-32.5 -110.5v-72h206v-225h-204v-807h-240v807h-354v-807h-242zM1350 0
v1427h237v-1427h-237z" />
    <glyph glyph-name="fj" unicode="fj" horiz-adv-x="1085" 
d="M129 0v1081q0 119 27.5 188.5t87.5 114.5q59 44 130 57t163 13h172v-209h-142q-104 0 -151 -33.5t-47 -111.5v-68h594v-1087q0 -69 -13.5 -126t-35 -95.5t-54 -67.5t-65.5 -46t-74.5 -27t-76.5 -13.5t-75 -3.5h-51v225h12q95 0 141 39.5t46 132.5v844h-346v-807h-242z
" />
    <glyph glyph-name="ffj" unicode="ffj" horiz-adv-x="1671" 
d="M127 0v1081q0 117 28 187t87 118q52 42 115 55t141 13h96v-207h-92q-71 0 -103 -32.5t-32 -110.5v-72h356v49q0 118 27.5 188t87.5 117q52 42 115 55t141 13h211v-207h-207q-71 0 -104 -32.5t-33 -110.5v-72h598v-1087q0 -69 -13.5 -126t-35 -95.5t-54 -67.5t-65.5 -46
t-74.5 -27t-76.5 -13.5t-75 -3.5h-53v225h12q95 0 141 39.5t46 132.5v844h-346v-807h-242v807h-354v-807h-242z" />
    <glyph glyph-name=".notdef" horiz-adv-x="1501" 
d="M23 0v1427h1458v-1427h-1458zM195 168h1112v1092h-1112v-1092zM311 393l320 320l-320 319l119 121l322 -322l319 322l119 -121l-320 -319l320 -320l-119 -121l-319 322l-322 -322z" />
    <glyph glyph-name=".null" horiz-adv-x="0" 
 />
    <glyph glyph-name=".null" horiz-adv-x="0" 
 />
    <glyph glyph-name="nonmarkingreturn" horiz-adv-x="682" 
 />
    <glyph glyph-name="CR" unicode="&#xd;" horiz-adv-x="0" 
 />
    <glyph glyph-name="space" unicode=" " horiz-adv-x="708" 
 />
    <glyph glyph-name="exclam" unicode="!" horiz-adv-x="598" 
d="M193 362l-43 1065h301l-43 -1065h-215zM158 117q0 59 42.5 100t100.5 41t99.5 -41t41.5 -100q0 -61 -41.5 -102.5t-99.5 -41.5t-100.5 41.5t-42.5 102.5z" />
    <glyph glyph-name="quotedbl" unicode="&#x22;" horiz-adv-x="770" 
d="M475 911l-35 516h232l-33 -516h-164zM137 911l-35 516h232l-35 -516h-162z" />
    <glyph glyph-name="numbersign" unicode="#" horiz-adv-x="1296" 
d="M209 190l51 205h-178v209h229l51 203h-178v209h232l49 201h211l-51 -201h206l52 201h209l-50 -201h177v-209h-228l-51 -203h178v-209h-229l-53 -205h-209l51 205h-209l-51 -205h-209zM522 604h205l53 203h-207z" />
    <glyph glyph-name="dollar" unicode="$" horiz-adv-x="1210" 
d="M70 303l202 127q40 -86 113 -143.5t170 -75.5v438q-73 27 -126 51.5t-107.5 61.5t-88 79t-54.5 101t-21 131q0 161 112.5 264t282.5 115v201h145v-207q117 -18 205.5 -75.5t145.5 -143.5l-185 -129q-62 97 -168 119v-371q237 -85 334.5 -186t97.5 -265
q0 -173 -110 -285.5t-320 -129.5v-197h-145v199q-174 14 -296.5 99.5t-186.5 221.5zM555 899v326q-69 -9 -109 -48.5t-40 -101.5q0 -65 35.5 -104t113.5 -72zM696 211q54 5 92 24.5t56 47.5t25.5 53.5t7.5 52.5q0 76 -43 120t-138 87v-385z" />
    <glyph glyph-name="percent" unicode="%" horiz-adv-x="1583" 
d="M408 821q-134 0 -229 92t-95 224t95 224.5t229 92.5q135 0 230 -92.5t95 -224.5t-95 -224t-230 -92zM199 0l956 1427h231l-954 -1427h-233zM408 997q55 0 94 40.5t39 99.5q0 58 -39.5 99.5t-93.5 41.5q-55 0 -93.5 -41t-38.5 -100q0 -60 38 -100t94 -40zM854 291
q0 131 95 223t229 92q135 0 229 -91.5t94 -223.5t-94 -225t-229 -93q-134 0 -229 93t-95 225zM1047 291q0 -60 37.5 -100.5t93.5 -40.5t95.5 40.5t39.5 100.5q0 58 -39.5 98.5t-95.5 40.5q-55 0 -93 -40t-38 -99z" />
    <glyph glyph-name="ampersand" unicode="&#x26;" horiz-adv-x="1671" 
d="M98 457q0 148 73 259t212 179q-43 88 -43 176q0 169 116 278t306 109q171 0 278 -95t107 -237q0 -89 -49 -141h504v-227h-265v-84q0 -230 -102 -398l264 -276h-319l-103 111q-163 -142 -432 -142q-245 0 -396 135.5t-151 352.5zM719 807l332 -352q47 77 47 247v56h-285
v153q53 12 88 59t35 111q0 72 -51 120t-127 48q-68 0 -122 -48t-54 -136q0 -67 35.5 -129t101.5 -129zM352 457q0 -120 78.5 -190t214.5 -70q164 0 242 90q-116 124 -196 207.5t-99.5 103.5t-34.5 36.5t-45 55.5q-160 -74 -160 -233z" />
    <glyph glyph-name="quotesingle" unicode="'" horiz-adv-x="434" 
d="M137 911l-35 516h232l-35 -516h-162z" />
    <glyph glyph-name="parenleft" unicode="(" horiz-adv-x="688" 
d="M575 -352q-233 198 -351 449t-118 536q0 281 119.5 530.5t349.5 450.5l115 -125q-178 -184 -267 -389t-89 -467q0 -267 88 -470.5t268 -391.5z" />
    <glyph glyph-name="parenright" unicode=")" horiz-adv-x="688" 
d="M0 -229q178 190 266 393t88 469q0 260 -89 465.5t-265 390.5l115 125q229 -201 347 -450.5t118 -530.5q0 -285 -117.5 -536t-347.5 -449z" />
    <glyph glyph-name="asterisk" unicode="*" horiz-adv-x="821" 
d="M293 819l-137 101l147 165l-215 56l55 157l201 -90l-20 219h174l-19 -219l203 90l53 -157l-213 -56l148 -165l-142 -101l-118 185z" />
    <glyph glyph-name="plus" unicode="+" horiz-adv-x="1005" 
d="M383 309v295h-272v217h272v297h240v-297h276v-217h-276v-295h-240z" />
    <glyph glyph-name="comma" unicode="," horiz-adv-x="499" 
d="M141 227h265l-259 -489h-188z" />
    <glyph glyph-name="hyphen" unicode="-" horiz-adv-x="897" 
d="M104 446v228h687v-228h-687z" />
    <glyph glyph-name="period" unicode="." horiz-adv-x="462" 
d="M88 125q0 59 43.5 100t101.5 41t100 -41t42 -100t-42 -100t-100 -41t-101.5 41t-43.5 100z" />
    <glyph glyph-name="slash" unicode="/" horiz-adv-x="948" 
d="M-4 -279l657 1760h226l-660 -1760h-223z" />
    <glyph glyph-name="zero" unicode="0" horiz-adv-x="1236" 
d="M111 412q-7 79 -7 303q0 222 7 301q13 123 83.5 223.5t182 157.5t241.5 57t242 -57t182.5 -157.5t83.5 -223.5q7 -79 7 -301q0 -224 -7 -303q-13 -123 -83.5 -223.5t-182.5 -158t-242 -57.5q-198 0 -342.5 125.5t-164.5 313.5zM362 438q9 -99 81.5 -164t174.5 -65
t174.5 65t81.5 164q7 62 7 277q0 217 -4 270q-11 100 -84.5 167t-174.5 67t-174 -67t-84 -167q-4 -53 -4 -270q0 -224 6 -277z" />
    <glyph glyph-name="one" unicode="1" horiz-adv-x="733" 
d="M297 0v1194h-203v233h461v-1427h-258z" />
    <glyph glyph-name="two" unicode="2" horiz-adv-x="1148" 
d="M8 0l668 819q84 108 84 199q0 82 -57 141.5t-140 59.5q-86 0 -145.5 -67t-59.5 -163h-258q0 193 136 329t327 136q188 0 321.5 -128.5t133.5 -309.5q0 -49 -5.5 -87t-33 -99.5t-78.5 -122.5l-387 -474h543v-233h-1049z" />
    <glyph glyph-name="three" unicode="3" horiz-adv-x="1200" 
d="M33 268l207 115q40 -82 124 -127t197 -45q128 0 210.5 71.5t82.5 186.5q0 118 -87 190t-232 72q-163 0 -261 -33l392 496h-502v233h944l-406 -505h3q168 -9 284.5 -139.5t116.5 -307.5q0 -217 -149 -358.5t-392 -141.5q-183 0 -324 79t-208 214z" />
    <glyph glyph-name="four" unicode="4" horiz-adv-x="1273" 
d="M74 287l530 1140h275l-426 -911h409v283h252v-799h-252v287h-788z" />
    <glyph glyph-name="five" unicode="5" horiz-adv-x="1181" 
d="M59 264l211 121q37 -79 115 -126.5t172 -47.5q115 0 197 77.5t82 190.5q0 119 -89 194t-223 75q-99 0 -194.5 -25t-165.5 -68l133 772h696v-233h-499l-43 -240q62 19 129 19q212 0 361 -146t149 -348q0 -138 -71.5 -254t-194.5 -183t-267 -67q-164 0 -297.5 79
t-200.5 210z" />
    <glyph glyph-name="six" unicode="6" horiz-adv-x="1212" 
d="M84 489q0 58 13.5 113t46 117t61 107.5t82.5 125.5q3 4 311 475h287l-305 -456q36 8 77 8q83 0 167 -34.5t153 -95.5t112.5 -154.5t43.5 -200.5q0 -141 -70.5 -259t-191 -185.5t-263.5 -67.5q-142 0 -262.5 67t-191 184t-70.5 256zM342 487q0 -115 76.5 -192.5
t189.5 -77.5q110 0 190.5 80.5t80.5 189.5t-80.5 189t-190.5 80q-115 0 -190.5 -77t-75.5 -192z" />
    <glyph glyph-name="seven" unicode="7" horiz-adv-x="1175" 
d="M207 0l565 1194h-688v233h1063l-670 -1427h-270z" />
    <glyph glyph-name="eight" unicode="8" horiz-adv-x="1200" 
d="M92 455q0 127 61 222.5t160 145.5q-56 41 -88 103t-32 137q0 161 120.5 276t288.5 115q167 0 287.5 -115t120.5 -276q0 -152 -119 -240q98 -48 159.5 -144.5t61.5 -223.5q0 -197 -149.5 -338.5t-360.5 -141.5t-360.5 141.5t-149.5 338.5zM602 891q71 0 120.5 50.5
t49.5 121.5q0 68 -49 116t-121 48q-71 0 -121.5 -48.5t-50.5 -115.5q0 -71 51 -121.5t121 -50.5zM350 455q0 -101 74 -172.5t178 -71.5q103 0 178.5 72t75.5 172q0 99 -75.5 171t-178.5 72q-104 0 -178 -71t-74 -172z" />
    <glyph glyph-name="nine" unicode="9" horiz-adv-x="1208" 
d="M315 0l324 479q-35 -12 -82 -12q-63 0 -129 20.5t-126.5 61.5t-108.5 97.5t-76.5 135t-28.5 166.5q0 138 70 254t189 183t259 67q145 0 264 -67.5t185.5 -182t66.5 -250.5q0 -61 -14.5 -119t-49.5 -125t-66.5 -117.5t-90.5 -137.5l-299 -453h-287zM606 686
q120 0 193 76.5t73 189.5q0 109 -78.5 187t-187.5 78t-186.5 -78t-77.5 -187q0 -110 77.5 -188t186.5 -78z" />
    <glyph glyph-name="colon" unicode=":" horiz-adv-x="479" 
d="M242 651q-58 0 -101 42.5t-43 101.5t43 100t101 41t100.5 -41t42.5 -100t-42.5 -101.5t-100.5 -42.5zM242 100q-58 0 -101 41.5t-43 100.5q0 58 43 99.5t101 41.5t100.5 -41.5t42.5 -99.5q0 -59 -42.5 -100.5t-100.5 -41.5z" />
    <glyph glyph-name="semicolon" unicode=";" horiz-adv-x="544" 
d="M276 649q-59 0 -102 42t-43 102q0 59 43 100t102 41q58 0 100 -41t42 -100t-42 -101.5t-100 -42.5zM150 227h264l-258 -489h-189z" />
    <glyph glyph-name="less" unicode="&#x3c;" horiz-adv-x="960" 
d="M41 729l797 516v-256l-408 -260l408 -260v-254z" />
    <glyph glyph-name="equal" unicode="=" horiz-adv-x="1064" 
d="M113 815v217h839v-217h-839zM113 410v217h839v-217h-839z" />
    <glyph glyph-name="greater" unicode="&#x3e;" horiz-adv-x="960" 
d="M125 215v254l405 260l-405 260v256l795 -516z" />
    <glyph glyph-name="question" unicode="?" horiz-adv-x="907" 
d="M487 340q-138 0 -223.5 78t-85.5 205q0 169 205 299q10 7 36 23.5t35.5 22.5t29.5 20.5t28 22.5t20.5 22t17.5 26t9 28t4 33q0 11 -5 25t-18 33.5t-44 32t-74 12.5q-158 0 -307 -142v269q139 104 317 104q96 0 172.5 -28t121.5 -74.5t68 -100t23 -110.5q0 -92 -28 -156
t-82.5 -113.5t-157.5 -111.5q-63 -37 -94 -66.5t-31 -68.5q0 -80 96 -80q91 0 152 39v-207q-78 -37 -185 -37zM303 104q0 59 41.5 99.5t99.5 40.5t99 -40.5t41 -99.5q0 -58 -41 -97.5t-99 -39.5t-99.5 39.5t-41.5 97.5z" />
    <glyph glyph-name="at" unicode="@" horiz-adv-x="1689" 
d="M94 598q0 203 101 375t274 272.5t377 100.5q152 0 291 -56.5t239.5 -152t160.5 -228t60 -278.5q0 -213 -93.5 -329t-258.5 -116q-87 0 -149.5 40.5t-85.5 111.5q-32 -43 -84.5 -66.5t-114.5 -23.5q-140 0 -234 99.5t-94 246.5q0 146 94 246t234 100q118 0 178 -80v66h195
v-463q0 -58 23 -80.5t53 -22.5q19 0 36 5.5t36.5 23t33.5 46t23.5 79t9.5 117.5q0 144 -74.5 265t-202 191t-276.5 70q-112 0 -215 -44t-177.5 -119t-118.5 -178.5t-44 -217.5q0 -113 44.5 -216t119 -178t177 -119t214.5 -44q125 0 241 61l82 -170q-149 -79 -323 -79
q-155 0 -294.5 59t-239.5 159t-159 238t-59 289zM682 594q0 -68 45.5 -114t112.5 -46q66 0 111.5 46.5t45.5 113.5q0 70 -45 116t-112 46q-68 0 -113 -46t-45 -116z" />
    <glyph glyph-name="A" unicode="A" horiz-adv-x="1538" 
d="M63 0l709 1497l707 -1497h-277l-125 274h-614l-127 -274h-273zM561 498h418l-209 460z" />
    <glyph glyph-name="B" unicode="B" horiz-adv-x="1302" 
d="M180 0v1427h518q169 0 284.5 -103.5t115.5 -260.5q0 -103 -48.5 -179t-134.5 -108q138 -26 212.5 -121.5t74.5 -232.5q0 -182 -123.5 -302t-310.5 -120h-588zM438 852h226q81 0 131.5 49.5t50.5 126.5q0 70 -51 118t-129 48h-228v-342zM438 233h287q96 0 158.5 58
t62.5 145t-62 144t-161 57h-285v-404z" />
    <glyph glyph-name="C" unicode="C" horiz-adv-x="1503" 
d="M104 713q0 209 102 379t276 265t382 95q167 0 313.5 -67.5t252.5 -188.5l-177 -152q-73 83 -173.5 129t-215.5 46q-215 0 -358.5 -144.5t-143.5 -361.5t143.5 -360.5t358.5 -143.5q117 0 219 46.5t174 131.5l175 -151q-104 -123 -252 -192t-316 -69q-156 0 -296 56
t-242 153t-162 234.5t-60 294.5z" />
    <glyph glyph-name="D" unicode="D" horiz-adv-x="1546" 
d="M180 0v1427h512q178 0 320.5 -53t236 -148.5t143.5 -226.5t50 -288q0 -158 -49.5 -288.5t-143 -224.5t-235.5 -146t-320 -52h-514zM438 233h238q110 0 196.5 24t144.5 66.5t96 103t54.5 131t16.5 153.5q0 107 -27.5 192.5t-85.5 152t-158.5 102.5t-238.5 36h-236v-961z
" />
    <glyph glyph-name="E" unicode="E" 
d="M168 455v972h891v-233h-633v-336h592v-233h-592v-176q0 -62 20.5 -107t53.5 -67.5t65.5 -32t65.5 -9.5h442v-233h-455q-224 0 -337 117t-113 338z" />
    <glyph glyph-name="F" unicode="F" horiz-adv-x="1155" 
d="M180 0v1427h869v-233h-611v-356h557v-234h-557v-604h-258z" />
    <glyph glyph-name="G" unicode="G" horiz-adv-x="1572" 
d="M104 713q0 209 102 379t276 265t382 95q155 0 291 -55.5t240 -159.5l-172 -158q-69 68 -162 104t-197 36q-215 0 -358.5 -145t-143.5 -361q0 -217 143.5 -360.5t358.5 -143.5q201 0 340 123v260h-397v229h641v-577q-102 -125 -254.5 -197t-329.5 -72q-156 0 -296 56
t-242 153t-162 234.5t-60 294.5z" />
    <glyph glyph-name="H" unicode="H" horiz-adv-x="1558" 
d="M180 0v1427h258v-555h684v555h256v-1427h-256v637h-684v-637h-258z" />
    <glyph glyph-name="I" unicode="I" horiz-adv-x="634" 
d="M188 0v1427h258v-1427h-258z" />
    <glyph glyph-name="J" unicode="J" horiz-adv-x="747" 
d="M45 -4v233h96q31 0 61 9t60.5 29.5t49 62t18.5 98.5v999h258v-989q0 -214 -107.5 -328t-324.5 -114h-111z" />
    <glyph glyph-name="K" unicode="K" horiz-adv-x="1413" 
d="M180 0v1427h258v-682l602 682h308l-555 -628l571 -799h-303l-443 614l-180 -198v-416h-258z" />
    <glyph glyph-name="L" unicode="L" horiz-adv-x="1091" 
d="M180 0v1427h258v-1194h568v-233h-826z" />
    <glyph glyph-name="M" unicode="M" horiz-adv-x="1820" 
d="M180 0v1475l731 -881l729 881v-1475h-254v805l-475 -578l-477 578v-805h-254z" />
    <glyph glyph-name="N" unicode="N" horiz-adv-x="1589" 
d="M180 0v1481l973 -951v897h258v-1480l-973 946v-893h-258z" />
    <glyph glyph-name="O" unicode="O" horiz-adv-x="1716" 
d="M104 711q0 206 101 376.5t274.5 267.5t380.5 97t380.5 -97t274.5 -267.5t101 -376.5t-101 -376.5t-274.5 -267t-380.5 -96.5t-380.5 96.5t-274.5 267t-101 376.5zM360 711q0 -215 143 -360.5t357 -145.5q212 0 355 146t143 360q0 213 -143.5 360.5t-354.5 147.5
q-140 0 -255 -67t-180 -183.5t-65 -257.5z" />
    <glyph glyph-name="P" unicode="P" horiz-adv-x="1284" 
d="M180 0v1427h547q86 0 169 -32.5t149.5 -90.5t107.5 -147t41 -194q0 -132 -67.5 -240.5t-174 -166.5t-225.5 -58h-289v-498h-258zM438 731h277q53 0 102 24t84 78.5t35 129.5q0 112 -67.5 171.5t-153.5 59.5h-277v-463z" />
    <glyph glyph-name="Q" unicode="Q" horiz-adv-x="1716" 
d="M104 713q0 154 60 292t162 235.5t241.5 154.5t294.5 57q207 0 379.5 -96.5t273.5 -266.5t101 -376q0 -282 -191 -486l140 -166l-174 -145l-144 170q-165 -109 -385 -109q-207 0 -380.5 96t-275.5 265.5t-102 374.5zM360 713q0 -214 144 -358t358 -144q126 0 223 57
l-198 236l174 147l201 -239q96 123 96 301q0 213 -143 359.5t-353 146.5q-213 0 -357.5 -146.5t-144.5 -359.5z" />
    <glyph glyph-name="R" unicode="R" horiz-adv-x="1347" 
d="M180 0v1427h557q126 0 232.5 -58.5t169.5 -163t63 -230.5q0 -139 -71.5 -248.5t-188.5 -157.5l346 -569h-293l-303 506h-4h-250v-506h-258zM438 737h273q104 0 168.5 65.5t64.5 168.5q0 97 -60.5 160t-152.5 63h-293v-457z" />
    <glyph glyph-name="S" unicode="S" horiz-adv-x="1208" 
d="M66 301l194 123q52 -101 142.5 -159t215.5 -58q70 0 120 18.5t74.5 48t35 58.5t10.5 59q0 38 -15 69t-36.5 53t-64.5 45.5t-78 38t-99 38.5q-78 29 -131.5 54t-109.5 62.5t-89.5 79.5t-55 102t-21.5 134q0 115 60.5 203.5t161 135t222.5 46.5q292 0 440 -231l-182 -127
q-81 127 -254 127q-84 0 -139 -42.5t-55 -107.5q0 -24 6 -44.5t14.5 -36t27.5 -31t34.5 -25.5t47.5 -24.5t54 -23t67 -26t74 -29.5q202 -81 290.5 -178t88.5 -256q0 -189 -128.5 -305.5t-371.5 -116.5q-200 0 -341 87t-209 239z" />
    <glyph glyph-name="T" unicode="T" horiz-adv-x="1157" 
d="M451 0v1194h-388v233h1033v-233h-387v-1194h-258z" />
    <glyph glyph-name="U" unicode="U" horiz-adv-x="1495" 
d="M168 549v878h258v-852q0 -184 86 -274t238 -90q149 0 234 90t85 274v852h258v-878q0 -140 -44.5 -250.5t-123.5 -180t-183 -105.5t-226 -36q-123 0 -228 36t-184.5 105.5t-124.5 180t-45 250.5z" />
    <glyph glyph-name="V" unicode="V" horiz-adv-x="1505" 
d="M754 -61l-688 1488h274l414 -925l415 925h275z" />
    <glyph glyph-name="W" unicode="W" horiz-adv-x="2025" 
d="M567 -55l-501 1482h264l282 -849l404 874l397 -872l287 847h262l-504 -1484l-442 960z" />
    <glyph glyph-name="X" unicode="X" horiz-adv-x="1415" 
d="M76 0l473 735l-449 692h287l324 -501l319 501h283l-445 -694l475 -733h-284l-352 545l-353 -545h-278z" />
    <glyph glyph-name="Y" unicode="Y" horiz-adv-x="1400" 
d="M575 0v553l-516 874h281l365 -626l364 626h277l-515 -874v-553h-256z" />
    <glyph glyph-name="Z" unicode="Z" horiz-adv-x="1368" 
d="M61 0l805 1194h-655v233h1094l-803 -1194h772v-233h-1213z" />
    <glyph glyph-name="bracketleft" unicode="[" horiz-adv-x="759" 
d="M414 -225h323v-221h-567v1873h567v-221h-323v-1431z" />
    <glyph glyph-name="backslash" unicode="\" horiz-adv-x="948" 
d="M719 -279l-662 1760h224l661 -1760h-223z" />
    <glyph glyph-name="bracketright" unicode="]" horiz-adv-x="759" 
d="M27 -225h321v1431h-321v221h563v-1873h-563v221z" />
    <glyph glyph-name="asciicircum" unicode="^" horiz-adv-x="1124" 
d="M55 717l508 766l508 -766h-246l-262 403l-264 -403h-244z" />
    <glyph glyph-name="underscore" unicode="_" horiz-adv-x="806" 
d="M20 -172h771v-201h-771v201z" />
    <glyph glyph-name="grave" unicode="`" horiz-adv-x="1122" 
d="M508 1130l-199 297h283l104 -297h-188z" />
    <glyph glyph-name="a" unicode="a" horiz-adv-x="1304" 
d="M86 516q0 150 68 274t186.5 194.5t261.5 70.5q126 0 214.5 -48.5t115.5 -123.5v149h248v-1032h-248v150q-27 -75 -115.5 -124t-214.5 -49q-143 0 -261.5 70.5t-186.5 194.5t-68 274zM334 516q0 -134 86.5 -223.5t216.5 -89.5q132 0 222.5 90t90.5 223t-90.5 223
t-222.5 90q-130 0 -216.5 -89.5t-86.5 -223.5z" />
    <glyph glyph-name="b" unicode="b" horiz-adv-x="1306" 
d="M131 0v1427h250v-544q27 75 115 123.5t213 48.5q143 0 261.5 -70.5t186.5 -194.5t68 -274t-68 -274t-186.5 -194.5t-261.5 -70.5q-125 0 -213 49t-115 124v-150h-250zM362 516q0 -133 90 -223t224 -90q129 0 216 90t87 223t-87 223t-216 90q-134 0 -224 -90t-90 -223z
" />
    <glyph glyph-name="c" unicode="c" horiz-adv-x="1124" 
d="M86 518q0 154 75.5 280t204.5 196.5t283 70.5q247 0 414 -178l-154 -160q-110 113 -260 113q-135 0 -225 -92t-90 -230t90 -229.5t225 -91.5q151 0 260 112l154 -159q-168 -179 -414 -179q-154 0 -283 70.5t-204.5 196.5t-75.5 280z" />
    <glyph glyph-name="d" unicode="d" horiz-adv-x="1306" 
d="M86 516q0 150 68 274t186.5 194.5t261.5 70.5q126 0 214.5 -48.5t115.5 -123.5v544h248v-1427h-248v150q-27 -75 -115.5 -124t-214.5 -49q-143 0 -261.5 70.5t-186.5 194.5t-68 274zM334 516q0 -134 86.5 -223.5t216.5 -89.5q132 0 222.5 90t90.5 223t-90.5 223
t-222.5 90q-130 0 -216.5 -89.5t-86.5 -223.5z" />
    <glyph glyph-name="e" unicode="e" horiz-adv-x="1214" 
d="M86 508v8q0 245 153.5 395t389.5 150q113 0 209 -40.5t161.5 -111t102.5 -165.5t37 -203q0 -45 -4 -86h-801q6 -123 89.5 -196t219.5 -73q90 0 153.5 29t123.5 90l149 -145q-95 -100 -202 -142.5t-232 -42.5q-245 0 -397 146t-152 387zM340 627h547q0 92 -76 157.5
t-182 65.5q-115 0 -198 -64.5t-91 -158.5z" />
    <glyph glyph-name="f" unicode="f" horiz-adv-x="645" 
d="M127 0v1081q0 117 28 187t87 118q52 42 115 55t141 13h106v-207h-92q-72 0 -104.5 -32.5t-32.5 -110.5v-72h196v-225h-196v-807h-248z" />
    <glyph glyph-name="g" unicode="g" horiz-adv-x="1304" 
d="M86 520q0 148 68 271t186.5 193.5t261.5 70.5q126 0 214.5 -48.5t115.5 -123.5v149h248v-950q0 -107 -30.5 -199.5t-94 -169t-173.5 -120.5t-257 -44q-173 0 -304.5 76t-187.5 197l217 108q28 -71 100 -115t168 -44q320 0 320 303v69q-36 -65 -124.5 -108t-211.5 -43
q-219 0 -367.5 151.5t-148.5 376.5zM334 520q0 -132 86.5 -220.5t216.5 -88.5q132 0 222.5 88.5t90.5 220.5q0 130 -90.5 219.5t-222.5 89.5q-130 0 -216.5 -89t-86.5 -220z" />
    <glyph glyph-name="h" unicode="h" horiz-adv-x="1179" 
d="M131 0v1427h248v-538q35 74 114.5 119t184.5 45q180 0 279.5 -111t99.5 -303v-639h-248v604q0 104 -54 165.5t-151 61.5q-100 0 -162.5 -66.5t-62.5 -170.5v-594h-248z" />
    <glyph glyph-name="i" unicode="i" horiz-adv-x="507" 
d="M254 1151q-60 0 -104 43t-44 104t43.5 103.5t104.5 42.5q59 0 103 -42.5t44 -103.5t-44 -104t-103 -43zM129 0v1032h250v-1032h-250z" />
    <glyph glyph-name="j" unicode="j" horiz-adv-x="501" 
d="M-70 -434v225h11q95 0 140.5 39.5t45.5 132.5v1069h250v-1087q0 -69 -13.5 -126t-35.5 -95.5t-54 -67.5t-65.5 -46t-75 -27t-76.5 -13.5t-75 -3.5h-52zM252 1149q-60 0 -104 43t-44 104t43.5 103.5t104.5 42.5q59 0 103 -42.5t44 -103.5t-44 -104t-103 -43z" />
    <glyph glyph-name="k" unicode="k" horiz-adv-x="1101" 
d="M131 0v1427h248v-831l379 436h284l-403 -461l446 -571h-280l-326 414l-100 -113v-301h-248z" />
    <glyph glyph-name="l" unicode="l" horiz-adv-x="507" 
d="M131 0v1427h250v-1427h-250z" />
    <glyph glyph-name="m" unicode="m" horiz-adv-x="1759" 
d="M131 0v1032h248v-147q33 76 106 122t170 46q212 0 289 -181q45 93 133.5 137t204.5 44q170 0 265 -111t95 -303v-639h-249v604q0 105 -47.5 166t-135.5 61q-89 0 -145.5 -66.5t-56.5 -170.5v-594h-248v604q0 105 -47 166t-135 61q-87 0 -143 -66.5t-56 -170.5v-594h-248z
" />
    <glyph glyph-name="n" unicode="n" horiz-adv-x="1200" 
d="M131 0v1032h248v-147q36 75 119.5 121.5t191.5 46.5q186 0 289.5 -111t103.5 -303v-639h-249v604q0 104 -57.5 165.5t-160.5 61.5q-104 0 -170.5 -66.5t-66.5 -170.5v-594h-248z" />
    <glyph glyph-name="o" unicode="o" horiz-adv-x="1298" 
d="M86 516q0 152 75.5 278t205.5 197.5t284 71.5t283 -71.5t204.5 -197.5t75.5 -278t-75.5 -278t-204.5 -197.5t-283 -71.5t-284 71.5t-205.5 197.5t-75.5 278zM334 516q0 -136 90.5 -228.5t226.5 -92.5q134 0 226 93t92 228t-92.5 228.5t-225.5 93.5q-136 0 -226.5 -93
t-90.5 -229z" />
    <glyph glyph-name="p" unicode="p" horiz-adv-x="1306" 
d="M131 -395v1427h250v-149q27 75 115 123.5t213 48.5q143 0 261.5 -70.5t186.5 -194.5t68 -274t-68 -274t-186.5 -194.5t-261.5 -70.5q-125 0 -213 49t-115 124v-545h-250zM362 516q0 -133 90 -223t224 -90q129 0 216 90t87 223t-87 223t-216 90q-134 0 -224 -90t-90 -223z
" />
    <glyph glyph-name="q" unicode="q" horiz-adv-x="1300" 
d="M86 516q0 150 68 274t186.5 194.5t261.5 70.5q126 0 214.5 -48.5t115.5 -123.5v149h248v-1427h-248v545q-27 -75 -115.5 -124t-214.5 -49q-143 0 -261.5 70.5t-186.5 194.5t-68 274zM334 516q0 -134 86.5 -223.5t216.5 -89.5q132 0 222.5 90t90.5 223t-90.5 223
t-222.5 90q-130 0 -216.5 -89.5t-86.5 -223.5z" />
    <glyph glyph-name="r" unicode="r" horiz-adv-x="843" 
d="M131 0v1032h248v-153q37 81 117.5 127.5t189.5 46.5q44 0 74 -6v-240q-48 10 -103 10q-128 0 -203 -74.5t-75 -201.5v-541h-248z" />
    <glyph glyph-name="s" unicode="s" horiz-adv-x="966" 
d="M51 180l160 137q34 -56 105.5 -92.5t166.5 -36.5q96 0 139.5 32.5t43.5 78.5q0 18 -6.5 33t-22 27.5t-32 22t-44.5 20.5t-51 18.5t-61.5 20t-65.5 22.5q-124 45 -189 112t-65 179q0 96 51 167.5t133.5 106.5t182.5 35q218 0 335 -152l-139 -147q-68 86 -200 86
q-58 0 -90.5 -25t-32.5 -65q0 -17 4.5 -29.5t17 -24t25.5 -19t38.5 -18t46 -17.5t59.5 -20t69 -24q144 -52 210 -124t66 -183q0 -143 -108 -235.5t-318 -92.5q-156 0 -266 56t-162 151z" />
    <glyph glyph-name="t" unicode="t" horiz-adv-x="663" 
d="M127 432v995h248v-395h227v-225h-227v-356q0 -114 57 -168t158 -54h12v-233h-51q-56 0 -110 11t-112.5 41.5t-102 77.5t-71.5 126t-28 180z" />
    <glyph glyph-name="u" unicode="u" horiz-adv-x="1183" 
d="M119 410v622h250v-602q0 -115 61 -172t162 -57t162 57.5t61 173.5v600h250v-616q0 -109 -37.5 -195t-103.5 -139.5t-151 -81t-183 -27.5t-182 27.5t-149 80t-102.5 137.5t-37.5 192z" />
    <glyph glyph-name="v" unicode="v" horiz-adv-x="1165" 
d="M586 -66l-557 1098h260l297 -610l299 610h256z" />
    <glyph glyph-name="w" unicode="w" horiz-adv-x="1576" 
d="M463 -66l-424 1098h246l217 -577l289 602l284 -602l219 577h244l-424 -1098l-323 668z" />
    <glyph glyph-name="x" unicode="x" horiz-adv-x="1146" 
d="M47 0l391 545l-356 487h270l223 -307l222 307h272l-356 -485l391 -547h-268l-261 362l-260 -362h-268z" />
    <glyph glyph-name="y" unicode="y" horiz-adv-x="1173" 
d="M258 -221h45q56 0 90 22q35 21 60 86l26 74l-434 1071h252l301 -776l285 776h250l-463 -1200q-49 -131 -113 -192q-84 -78 -248 -78h-51v217z" />
    <glyph glyph-name="z" unicode="z" horiz-adv-x="1110" 
d="M8 0l617 811h-512v221h946l-615 -811h586v-221h-1022z" />
    <glyph glyph-name="braceleft" unicode="{" horiz-adv-x="757" 
d="M248 -115v385q0 123 -82 166q-20 11 -43 18t-36 8l-13 1v127q47 1 92 24q82 43 82 166v385q0 114 69.5 188t176.5 74h163v-198h-73q-55 0 -80 -35.5t-25 -85.5v-311q0 -150 -84 -215q-45 -39 -98 -58q53 -16 98 -55q84 -65 84 -215v-311q0 -50 25 -85.5t80 -35.5h73v-199
h-163q-107 0 -176.5 74t-69.5 188z" />
    <glyph glyph-name="bar" unicode="|" horiz-adv-x="593" 
d="M178 -53v1534h238v-1534h-238z" />
    <glyph glyph-name="braceright" unicode="}" horiz-adv-x="757" 
d="M100 -178h74q54 0 79.5 36t25.5 85v311q0 152 83 215q44 38 97 55q-53 20 -97 58q-83 63 -83 215v311q0 49 -25.5 85t-79.5 36h-74v198h164q107 0 176.5 -74t69.5 -188v-385q0 -123 82 -166q20 -10 43 -16t36 -7l13 -1v-127q-47 -2 -92 -27q-82 -43 -82 -166v-385
q0 -114 -69.5 -188t-176.5 -74h-164v199z" />
    <glyph glyph-name="asciitilde" unicode="~" horiz-adv-x="962" 
d="M76 606q16 113 80.5 183.5t165.5 70.5q60 0 118 -21t109 -42t92 -21q78 0 104 84l142 -18q-33 -267 -250 -267q-61 0 -119.5 21t-109.5 42t-93 21q-80 0 -96 -71z" />
    <glyph glyph-name="exclamdown" unicode="&#xa1;" horiz-adv-x="598" 
d="M301 766q-58 0 -100.5 41t-42.5 100t42.5 100.5t100.5 41.5t99.5 -41.5t41.5 -100.5t-41.5 -100t-99.5 -41zM150 -406l43 1068h215l43 -1068h-301z" />
    <glyph glyph-name="cent" unicode="&#xa2;" horiz-adv-x="1140" 
d="M414 0l43 207q-164 57 -266.5 194.5t-102.5 319.5q0 130 51.5 237t134 173t180.5 101.5t197 35.5h19l30 159h156l-37 -184q144 -40 248 -147l-152 -154q-56 59 -139 84l-129 -629q1 0 11 -2t18 -2q140 8 239 107l152 -156q-167 -170 -416 -170q-29 0 -45 4l-37 -178h-155
zM504 428l123 616h-2q-129 -8 -214 -99.5t-85 -223.5q0 -99 48 -176.5t130 -116.5z" />
    <glyph glyph-name="sterling" unicode="&#xa3;" horiz-adv-x="1259" 
d="M92 0v190h19q98 0 168.5 24t106 64.5t50.5 83t15 91.5q0 55 -43 139h-224v184h121q-86 154 -86 258q0 175 132 299.5t319 124.5q183 0 310.5 -126t127.5 -306h-227q0 79 -61.5 139t-147.5 60q-85 0 -145 -61t-60 -146t100 -242h328v-184h-227q32 -80 32 -139
q0 -87 -28 -147t-72 -89h569v-217h-1077z" />
    <glyph glyph-name="currency" unicode="&#xa4;" horiz-adv-x="1392" 
d="M129 270l170 152q-86 116 -86 260q0 145 86 264l-170 150l154 153l153 -176q120 74 264 74q143 0 263 -74l155 176l154 -153l-172 -150q86 -123 86 -264q0 -140 -86 -260l172 -152l-154 -151l-155 174q-120 -74 -263 -74q-144 0 -264 74l-153 -174zM700 408q113 0 192 80
t79 194t-79.5 195t-191.5 81q-113 0 -191.5 -80.5t-78.5 -195.5q0 -114 78 -194t192 -80z" />
    <glyph glyph-name="yen" unicode="&#xa5;" horiz-adv-x="1404" 
d="M573 0v342h-423v211h423l-77 133h-346v211h221l-312 530h279l367 -626l366 626h279l-314 -530h224v-211h-347l-77 -133h424v-211h-424v-342h-263z" />
    <glyph glyph-name="brokenbar" unicode="&#xa6;" horiz-adv-x="593" 
d="M178 850v577h238v-577h-238zM178 0v602h238v-602h-238z" />
    <glyph glyph-name="section" unicode="&#xa7;" horiz-adv-x="1153" 
d="M156 -20h243q9 -191 172 -191q68 0 117 39t49 109q0 60 -33.5 95.5t-113.5 82.5q-43 27 -144 75.5t-137 71.5q-227 121 -227 320q0 182 160 284q-88 88 -88 224q0 163 120.5 265.5t292.5 102.5q133 0 229 -56t142.5 -146t46.5 -203h-244q-9 190 -172 190q-68 0 -118 -39
t-50 -108q0 -63 34 -100t114 -81q40 -23 141.5 -72.5t140.5 -72.5q109 -61 167.5 -138t58.5 -181q0 -186 -158 -285q88 -88 88 -223q0 -110 -58 -195.5t-152 -129.5t-204 -44q-197 0 -307 114.5t-110 291.5zM645 346q54 -29 74 -41q94 33 94 127q0 17 -4.5 33t-15.5 32
t-22.5 28.5t-33 28.5t-37.5 27t-46 27.5t-49.5 27.5t-56.5 30.5t-59 31.5q-53 29 -73 43q-94 -36 -94 -127q0 -17 4.5 -33t16 -32t21.5 -28.5t32.5 -29t37 -27t46.5 -28.5t49.5 -27.5t57 -31t58.5 -31.5z" />
    <glyph glyph-name="dieresis" unicode="&#xa8;" horiz-adv-x="1206" 
d="M815 1161q-53 0 -92 37t-39 90t39 90t92 37t92 -37t39 -90t-39 -90t-92 -37zM389 1161q-53 0 -91 37t-38 90t38 90t91 37q54 0 92.5 -36.5t38.5 -90.5t-38.5 -90.5t-92.5 -36.5z" />
    <glyph glyph-name="copyright" unicode="&#xa9;" horiz-adv-x="1703" 
d="M98 713q0 148 58.5 285t158 239.5t240.5 163.5t299 61q148 0 286.5 -58t241.5 -157t164.5 -239t61.5 -295q0 -148 -59 -286t-158.5 -240t-240.5 -163t-296 -61q-148 0 -286 58t-241.5 156.5t-166 239t-62.5 296.5zM262 713q0 -160 79.5 -296t216 -215t296.5 -79
q159 0 294.5 79t214.5 215t79 296t-79 295.5t-214 213.5t-295 78q-161 0 -297 -78t-215.5 -213.5t-79.5 -295.5zM449 719q0 173 121 289t296 116q185 0 318 -141l-137 -137q-79 76 -181 76q-86 0 -145 -58.5t-59 -144.5q0 -90 58.5 -148.5t145.5 -58.5q106 0 181 78
l137 -139q-132 -140 -318 -140q-175 0 -296 116.5t-121 291.5z" />
    <glyph glyph-name="ordfeminine" unicode="&#xaa;" horiz-adv-x="985" 
d="M115 868q0 225 325 248q88 7 123 22.5t35 59.5q0 29 -20 47.5t-45 24.5t-54 6q-121 0 -205 -100l-122 104q119 162 325 162q146 0 228.5 -66t82.5 -180v-346q0 -34 19 -47q12 -8 47 -8v-127q-41 -21 -84 -21q-64 0 -94 27q-18 16 -35 55q-71 -88 -250 -88
q-124 0 -200 61.5t-76 165.5zM305 889q0 -37 30 -57.5t85 -20.5q84 0 130 33.5t46 97.5v72q-31 -24 -154 -33q-137 -10 -137 -92z" />
    <glyph glyph-name="guillemotleft" unicode="&#xab;" horiz-adv-x="1085" 
d="M745 145l-237 373l237 373h256l-241 -373l241 -373h-256zM328 145l-238 373l238 373h256l-242 -373l242 -373h-256z" />
    <glyph glyph-name="logicalnot" unicode="&#xac;" horiz-adv-x="1288" 
d="M113 788v218h1063v-605h-240v387h-823z" />
    <glyph glyph-name="registered" unicode="&#xae;" horiz-adv-x="876" 
d="M440 768q-148 0 -252 100t-104 246q0 145 103.5 244.5t252.5 99.5q148 0 252.5 -99.5t104.5 -244.5q0 -146 -105 -246t-252 -100zM440 866q106 0 178 70.5t72 177.5q0 108 -71.5 178t-178.5 70t-179.5 -70t-72.5 -178q0 -107 72.5 -177.5t179.5 -70.5zM315 948v342h140
q51 0 83.5 -32t32.5 -80q0 -69 -53 -99l80 -131h-100l-66 113h-31v-113h-86zM401 1128h48q18 0 29 12.5t11 33.5q0 16 -10.5 27t-27.5 11h-50v-84z" />
    <glyph glyph-name="macron" unicode="&#xaf;" horiz-adv-x="1222" 
d="M295 1225v176h631v-176h-631z" />
    <glyph glyph-name="degree" unicode="&#xb0;" horiz-adv-x="854" 
d="M430 813q-134 0 -227.5 91.5t-93.5 221.5q0 128 94 219t227 91q131 0 225.5 -91.5t94.5 -218.5q0 -130 -94.5 -221.5t-225.5 -91.5zM430 991q52 0 89.5 39.5t37.5 95.5q0 53 -37.5 91t-89.5 38q-54 0 -91.5 -38t-37.5 -91q0 -56 37.5 -95.5t91.5 -39.5z" />
    <glyph glyph-name="plusminus" unicode="&#xb1;" horiz-adv-x="1013" 
d="M387 393v295h-274v217h274v297h242v-297h276v-217h-276v-295h-242zM113 0v217h792v-217h-792z" />
    <glyph glyph-name="twosuperior" unicode="&#xb2;" horiz-adv-x="722" 
d="M57 672l359 436q41 51 41 88q0 38 -24.5 64t-61.5 26q-38 0 -65 -32t-27 -76h-166q0 110 75.5 187t182.5 77q105 0 179.5 -69.5t74.5 -170.5q0 -90 -66 -166l-170 -198h256v-166h-588z" />
    <glyph glyph-name="threesuperior" unicode="&#xb3;" horiz-adv-x="743" 
d="M342 657q-96 0 -172.5 45t-114.5 119l142 84q49 -84 143 -84q58 0 96.5 30.5t38.5 80.5q0 53 -39 84t-108 31q-81 0 -142 -17l183 234h-246v163h534l-211 -260q13 0 41 -8q74 -22 120 -85t46 -142q0 -118 -85.5 -196.5t-225.5 -78.5z" />
    <glyph glyph-name="acute" unicode="&#xb4;" horiz-adv-x="1122" 
d="M428 1130l104 297h281l-199 -297h-186z" />
    <glyph glyph-name="mu" unicode="&#xb5;" horiz-adv-x="1181" 
d="M123 -446v1478h237v-596q0 -117 64 -181.5t172 -64.5t168.5 63.5t60.5 180.5v598h238v-616q0 -210 -113 -325.5t-307 -115.5q-178 0 -283 123v-544h-237z" />
    <glyph glyph-name="paragraph" unicode="&#xb6;" horiz-adv-x="1368" 
d="M524 0v483q-191 9 -323.5 145t-132.5 326q0 196 140.5 334.5t338.5 138.5h782v-233h-139v-1194h-252v1194h-158v-1194h-256z" />
    <glyph glyph-name="periodcentered" unicode="&#xb7;" horiz-adv-x="462" 
d="M233 375q-58 0 -101.5 41.5t-43.5 101.5q0 58 43.5 99.5t101.5 41.5q57 0 99.5 -41.5t42.5 -99.5q0 -61 -42 -102t-100 -41z" />
    <glyph glyph-name="cedilla" unicode="&#xb8;" horiz-adv-x="1112" 
d="M344 -379l53 109q54 -31 103 -31q34 0 57 19t23 49q0 45 -31.5 61t-97.5 16h-2l65 156h150l-46 -94h3q57 0 96 -41.5t39 -108.5q0 -93 -62.5 -139.5t-173.5 -46.5q-49 0 -98 15t-78 36z" />
    <glyph glyph-name="onesuperior" unicode="&#xb9;" horiz-adv-x="522" 
d="M207 672v592h-119v163h289v-755h-170z" />
    <glyph glyph-name="ordmasculine" unicode="&#xba;" horiz-adv-x="993" 
d="M496 647q-171 0 -292.5 117.5t-121.5 282.5q0 166 122 283.5t292 117.5q171 0 293 -118t122 -283t-122 -282.5t-293 -117.5zM496 852q79 0 136.5 58.5t57.5 136.5q0 77 -57.5 135.5t-136.5 58.5q-81 0 -138 -58t-57 -136q0 -79 57 -137t138 -58z" />
    <glyph glyph-name="guillemotright" unicode="&#xbb;" horiz-adv-x="1085" 
d="M506 145l242 373l-242 373h256l237 -373l-237 -373h-256zM88 145l242 373l-242 373h256l238 -373l-238 -373h-256z" />
    <glyph glyph-name="onequarter" unicode="&#xbc;" horiz-adv-x="1501" 
d="M150 0l882 1427h228l-881 -1427h-229zM229 672v592h-116v163h288v-755h-172zM768 137l279 621h176l-215 -471h202v151h166v-438h-166v137h-442z" />
    <glyph glyph-name="onehalf" unicode="&#xbd;" horiz-adv-x="1521" 
d="M133 0l883 1427h227l-881 -1427h-229zM229 672v592h-116v163h288v-755h-172zM834 0l358 436q41 51 41 88q0 38 -25.5 64t-62.5 26q-38 0 -65 -32t-27 -76h-164q0 110 75 187t181 77q105 0 179.5 -69.5t74.5 -170.5q0 -89 -64 -165l-172 -199h258v-166h-587z" />
    <glyph glyph-name="threequarters" unicode="&#xbe;" horiz-adv-x="1630" 
d="M285 0l882 1427h230l-883 -1427h-229zM352 657q-96 0 -171.5 45t-114.5 119l143 84q46 -84 143 -84q58 0 95.5 30.5t37.5 80.5q0 53 -38.5 84t-106.5 31q-82 0 -143 -17l182 234h-244v163h535l-211 -260q13 0 41 -8q74 -22 120 -85t46 -142q0 -118 -86 -196.5t-228 -78.5
zM897 137l277 621h176l-215 -471h204v151h166v-438h-166v137h-442z" />
    <glyph glyph-name="questiondown" unicode="&#xbf;" horiz-adv-x="907" 
d="M463 772q-58 0 -99.5 40t-41.5 99q0 58 41.5 98t99.5 40q57 0 98 -40t41 -98q0 -59 -40.5 -99t-98.5 -40zM420 676q138 0 222.5 -78t84.5 -205q0 -170 -203 -299q-8 -5 -33 -20.5t-32.5 -20.5t-27 -18.5t-26 -20t-20 -19t-18.5 -21.5t-12 -22t-9 -27t-2 -29q0 -11 5 -25
t18 -33.5t44 -32t74 -12.5q161 0 306 141v-268q-136 -104 -316 -104q-96 0 -172.5 28t-122 74.5t-69 100.5t-23.5 110q0 133 58 211t210 170q64 38 95.5 67t31.5 68q0 80 -98 80q-91 0 -152 -39v207q81 37 187 37z" />
    <glyph glyph-name="Agrave" unicode="&#xc0;" horiz-adv-x="1538" 
d="M723 1526l-199 297h283l104 -297h-188zM63 0l709 1497l707 -1497h-277l-125 274h-614l-127 -274h-273zM561 498h418l-209 460z" />
    <glyph glyph-name="Aacute" unicode="&#xc1;" horiz-adv-x="1538" 
d="M649 1526l105 297h280l-200 -297h-185zM63 0l709 1497l707 -1497h-277l-125 274h-614l-127 -274h-273zM561 498h418l-209 460z" />
    <glyph glyph-name="Acircumflex" unicode="&#xc2;" horiz-adv-x="1538" 
d="M403 1565l369 309l367 -309h-238l-129 127l-131 -127h-238zM63 0l709 1497l707 -1497h-277l-125 274h-614l-127 -274h-273zM561 498h418l-209 460z" />
    <glyph glyph-name="Atilde" unicode="&#xc3;" horiz-adv-x="1538" 
d="M393 1559q14 105 77 171t161 66q52 0 102.5 -20.5t94.5 -41t81 -20.5t59.5 19.5t32.5 64.5l144 -20q-29 -248 -240 -248q-53 0 -104 21t-95 42t-81 21q-72 0 -86 -72zM63 0l709 1497l707 -1497h-277l-125 274h-614l-127 -274h-273zM561 498h418l-209 460z" />
    <glyph glyph-name="Adieresis" unicode="&#xc4;" horiz-adv-x="1538" 
d="M1016 1473q-53 0 -91 37.5t-38 91.5q0 52 38 88t91 36q56 0 93.5 -35t37.5 -89t-38 -91.5t-93 -37.5zM524 1473q-54 0 -93.5 37.5t-39.5 91.5q0 52 39 88t94 36q54 0 92.5 -35.5t38.5 -88.5t-39 -91t-92 -38zM63 0l709 1497l707 -1497h-277l-125 274h-614l-127 -274h-273
zM561 498h418l-209 460z" />
    <glyph glyph-name="Aring" unicode="&#xc5;" horiz-adv-x="1538" 
d="M63 0l623 1325q-64 25 -104.5 81.5t-40.5 125.5q0 91 68 156t163 65q94 0 160.5 -65t66.5 -156q0 -71 -40 -127t-105 -80l625 -1325h-277l-125 274h-614l-127 -274h-273zM772 1446q35 0 59.5 26t24.5 60q0 35 -24.5 59.5t-59.5 24.5t-60.5 -24.5t-25.5 -59.5
q0 -34 25.5 -60t60.5 -26zM561 498h418l-209 467z" />
    <glyph glyph-name="AE" unicode="&#xc6;" horiz-adv-x="1927" 
d="M-35 0l1129 1427h698v-233h-508v-338h469v-233h-469v-390h524v-233h-778v283h-543l-221 -283h-301zM655 496h375v485z" />
    <glyph glyph-name="Ccedilla" unicode="&#xc7;" horiz-adv-x="1503" 
d="M555 -379l53 109q54 -31 103 -31q34 0 57 19t23 49q0 44 -32 60.5t-97 16.5h-3l60 144q-267 47 -441 247t-174 478q0 209 102 379t276 265t382 95q167 0 313.5 -67.5t252.5 -188.5l-177 -152q-73 83 -173.5 129t-215.5 46q-215 0 -358.5 -144.5t-143.5 -361.5
t143.5 -360.5t358.5 -143.5q117 0 219 46.5t174 131.5l175 -151q-104 -123 -252 -192t-316 -69h-4l-31 -69h2q57 0 95.5 -41.5t38.5 -108.5q0 -93 -62.5 -139.5t-171.5 -46.5q-49 0 -98 15t-78 36z" />
    <glyph glyph-name="Egrave" unicode="&#xc8;" 
d="M578 1526l-191 297h262l109 -297h-180zM168 455v972h891v-233h-633v-336h592v-233h-592v-176q0 -62 20.5 -107t53.5 -67.5t65.5 -32t65.5 -9.5h442v-233h-455q-224 0 -337 117t-113 338z" />
    <glyph glyph-name="Eacute" unicode="&#xc9;" 
d="M512 1526l104 297h283l-201 -297h-186zM168 455v972h891v-233h-633v-336h592v-233h-592v-176q0 -62 20.5 -107t53.5 -67.5t65.5 -32t65.5 -9.5h442v-233h-455q-224 0 -337 117t-113 338z" />
    <glyph glyph-name="Ecircumflex" unicode="&#xca;" 
d="M254 1565l371 309l368 -309h-237l-131 127l-131 -127h-240zM168 455v972h891v-233h-633v-336h592v-233h-592v-176q0 -62 20.5 -107t53.5 -67.5t65.5 -32t65.5 -9.5h442v-233h-455q-224 0 -337 117t-113 338z" />
    <glyph glyph-name="Edieresis" unicode="&#xcb;" 
d="M840 1538q-53 0 -92 36.5t-39 88.5q0 53 39 91t92 38t92 -37t39 -92q0 -52 -39 -88.5t-92 -36.5zM416 1538q-54 0 -93.5 36.5t-39.5 88.5q0 54 39.5 91.5t93.5 37.5q53 0 91 -37t38 -92q0 -52 -38 -88.5t-91 -36.5zM168 455v972h891v-233h-633v-336h592v-233h-592v-176
q0 -62 20.5 -107t53.5 -67.5t65.5 -32t65.5 -9.5h442v-233h-455q-224 0 -337 117t-113 338z" />
    <glyph glyph-name="Igrave" unicode="&#xcc;" horiz-adv-x="634" 
d="M244 1526l-199 297h281l104 -297h-186zM186 0v1427h258v-1427h-258z" />
    <glyph glyph-name="Iacute" unicode="&#xcd;" horiz-adv-x="634" 
d="M203 1526l104 297h283l-199 -297h-188zM188 0v1427h258v-1427h-258z" />
    <glyph glyph-name="Icircumflex" unicode="&#xce;" horiz-adv-x="634" 
d="M-51 1554l368 320l371 -320h-237l-134 136l-129 -136h-239zM188 0v1427h258v-1427h-258z" />
    <glyph glyph-name="Idieresis" unicode="&#xcf;" horiz-adv-x="634" 
d="M518 1538q-53 0 -91 36.5t-38 88.5q0 54 38 91.5t91 37.5q55 0 93 -37t38 -92q0 -52 -38.5 -88.5t-92.5 -36.5zM119 1538q-54 0 -93.5 36.5t-39.5 88.5q0 54 39.5 91.5t93.5 37.5q53 0 92 -37t39 -92q0 -52 -39 -88.5t-92 -36.5zM188 0v1427h258v-1427h-258z" />
    <glyph glyph-name="Eth" unicode="&#xd0;" horiz-adv-x="1554" 
d="M182 0v608h-114v234h114v585h510q178 0 320.5 -53t236 -148.5t143.5 -226.5t50 -288q0 -158 -49.5 -288.5t-143 -224.5t-235.5 -146t-320 -52h-512zM440 233h236q110 0 196.5 24t144.5 66.5t96 103t54.5 131t16.5 153.5q0 107 -27.5 192.5t-85.5 152t-158.5 102.5
t-238.5 36h-234v-352h293v-234h-293v-375z" />
    <glyph glyph-name="Ntilde" unicode="&#xd1;" horiz-adv-x="1589" 
d="M420 1559q14 105 75 171t158 66q53 0 104.5 -20.5t96 -41t80.5 -20.5q37 0 59.5 19.5t32.5 64.5l143 -20q-33 -248 -239 -248q-53 0 -105 21t-96.5 42t-81.5 21q-70 0 -86 -72zM180 0v1481l973 -951v897h258v-1480l-973 946v-893h-258z" />
    <glyph glyph-name="Ograve" unicode="&#xd2;" horiz-adv-x="1716" 
d="M774 1526l-196 297h280l107 -297h-191zM104 711q0 206 101 376.5t274.5 267.5t380.5 97t380.5 -97t274.5 -267.5t101 -376.5t-101 -376.5t-274.5 -267t-380.5 -96.5t-380.5 96.5t-274.5 267t-101 376.5zM360 711q0 -215 143 -360.5t357 -145.5q212 0 355 146t143 360
q0 213 -143.5 360.5t-354.5 147.5q-140 0 -255 -67t-180 -183.5t-65 -257.5z" />
    <glyph glyph-name="Oacute" unicode="&#xd3;" horiz-adv-x="1716" 
d="M756 1526l104 297h281l-199 -297h-186zM104 711q0 206 101 376.5t274.5 267.5t380.5 97t380.5 -97t274.5 -267.5t101 -376.5t-101 -376.5t-274.5 -267t-380.5 -96.5t-380.5 96.5t-274.5 267t-101 376.5zM360 711q0 -215 143 -360.5t357 -145.5q212 0 355 146t143 360
q0 213 -143.5 360.5t-354.5 147.5q-140 0 -255 -67t-180 -183.5t-65 -257.5z" />
    <glyph glyph-name="Ocircumflex" unicode="&#xd4;" horiz-adv-x="1716" 
d="M494 1554l370 320l369 -320h-240l-129 136l-131 -136h-239zM104 711q0 206 101 376.5t274.5 267.5t380.5 97t380.5 -97t274.5 -267.5t101 -376.5t-101 -376.5t-274.5 -267t-380.5 -96.5t-380.5 96.5t-274.5 267t-101 376.5zM360 711q0 -215 143 -360.5t357 -145.5
q212 0 355 146t143 360q0 213 -143.5 360.5t-354.5 147.5q-140 0 -255 -67t-180 -183.5t-65 -257.5z" />
    <glyph glyph-name="Otilde" unicode="&#xd5;" horiz-adv-x="1716" 
d="M494 1559q12 105 74 171t159 66q53 0 104.5 -20.5t95.5 -41t81 -20.5t59.5 19.5t32.5 64.5l141 -20q-29 -248 -235 -248q-54 0 -106 21t-97.5 42t-81.5 21q-72 0 -86 -72zM104 711q0 206 101 376.5t274.5 267.5t380.5 97t380.5 -97t274.5 -267.5t101 -376.5t-101 -376.5
t-274.5 -267t-380.5 -96.5t-380.5 96.5t-274.5 267t-101 376.5zM360 711q0 -215 143 -360.5t357 -145.5q212 0 355 146t143 360q0 213 -143.5 360.5t-354.5 147.5q-140 0 -255 -67t-180 -183.5t-65 -257.5z" />
    <glyph glyph-name="Odieresis" unicode="&#xd6;" horiz-adv-x="1716" 
d="M1081 1516q-55 0 -94 36t-39 88q0 54 39.5 91.5t93.5 37.5q53 0 91 -37.5t38 -91.5q0 -52 -38 -88t-91 -36zM655 1516q-54 0 -92.5 36t-38.5 88q0 54 38.5 91.5t92.5 37.5t92.5 -37.5t38.5 -91.5q0 -52 -38.5 -88t-92.5 -36zM104 711q0 206 101 376.5t274.5 267.5
t380.5 97t380.5 -97t274.5 -267.5t101 -376.5t-101 -376.5t-274.5 -267t-380.5 -96.5t-380.5 96.5t-274.5 267t-101 376.5zM360 711q0 -215 143 -360.5t357 -145.5q212 0 355 146t143 360q0 213 -143.5 360.5t-354.5 147.5q-140 0 -255 -67t-180 -183.5t-65 -257.5z" />
    <glyph glyph-name="multiply" unicode="&#xd7;" horiz-adv-x="933" 
d="M248 313l-148 152l217 219l-217 217l148 150l219 -220l219 220l150 -150l-218 -217l218 -219l-150 -152l-219 219z" />
    <glyph glyph-name="Oslash" unicode="&#xd8;" horiz-adv-x="1716" 
d="M217 27l115 151q-108 100 -168 238t-60 295q0 206 101 376.5t274.5 267.5t380.5 97q192 0 373 -96l125 164l176 -131l-125 -164q98 -103 152.5 -234t54.5 -280q0 -206 -101 -376.5t-274.5 -267t-380.5 -96.5q-183 0 -350 82l-121 -159zM485 373l602 790q-112 56 -227 56
q-140 0 -255 -67t-180 -183.5t-65 -257.5q0 -201 125 -338zM659 248q87 -43 201 -43q212 0 355 146t143 360q0 181 -107 313z" />
    <glyph glyph-name="Ugrave" unicode="&#xd9;" horiz-adv-x="1495" 
d="M676 1526l-199 297h281l106 -297h-188zM168 549v878h258v-852q0 -184 86 -274t238 -90q149 0 234 90t85 274v852h258v-878q0 -140 -44.5 -250.5t-123.5 -180t-183 -105.5t-226 -36q-123 0 -228 36t-184.5 105.5t-124.5 180t-45 250.5z" />
    <glyph glyph-name="Uacute" unicode="&#xda;" horiz-adv-x="1495" 
d="M647 1526l105 297h280l-198 -297h-187zM168 549v878h258v-852q0 -184 86 -274t238 -90q149 0 234 90t85 274v852h258v-878q0 -140 -44.5 -250.5t-123.5 -180t-183 -105.5t-226 -36q-123 0 -228 36t-184.5 105.5t-124.5 180t-45 250.5z" />
    <glyph glyph-name="Ucircumflex" unicode="&#xdb;" horiz-adv-x="1495" 
d="M379 1554l371 320l368 -320h-239l-129 136l-129 -136h-242zM168 549v878h258v-852q0 -184 86 -274t238 -90q149 0 234 90t85 274v852h258v-878q0 -140 -44.5 -250.5t-123.5 -180t-183 -105.5t-226 -36q-123 0 -228 36t-184.5 105.5t-124.5 180t-45 250.5z" />
    <glyph glyph-name="Udieresis" unicode="&#xdc;" horiz-adv-x="1495" 
d="M963 1516q-55 0 -94.5 36t-39.5 88q0 54 40 91.5t94 37.5q53 0 91 -37.5t38 -91.5q0 -52 -38 -88t-91 -36zM537 1516q-53 0 -92 36t-39 88q0 53 39 91t92 38t92 -38t39 -91q0 -52 -39 -88t-92 -36zM168 549v878h258v-852q0 -184 86 -274t238 -90q149 0 234 90t85 274v852
h258v-878q0 -140 -44.5 -250.5t-123.5 -180t-183 -105.5t-226 -36q-123 0 -228 36t-184.5 105.5t-124.5 180t-45 250.5z" />
    <glyph glyph-name="Yacute" unicode="&#xdd;" horiz-adv-x="1400" 
d="M600 1526l105 297h282l-203 -297h-184zM575 0v553l-516 874h281l365 -626l364 626h277l-515 -874v-553h-256z" />
    <glyph glyph-name="Thorn" unicode="&#xde;" horiz-adv-x="1126" 
d="M180 0v1427h258v-274h129q106 0 195.5 -34.5t150 -94.5t94 -142t33.5 -175q0 -188 -128.5 -313.5t-336.5 -125.5h-137v-268h-258zM438 502h129q103 0 161 57t58 152q0 94 -58.5 151.5t-162.5 57.5h-127v-418z" />
    <glyph glyph-name="germandbls" unicode="&#xdf;" horiz-adv-x="1232" 
d="M129 0v1087q0 156 113 263.5t278 107.5q161 0 274 -106t113 -258q0 -108 -63 -179l-2 -2q128 -39 219.5 -154.5t91.5 -281.5q0 -141 -65.5 -256.5t-183.5 -182.5t-265 -67q-49 0 -121 11v233q44 -16 105 -16q117 0 199.5 81.5t82.5 196.5q0 113 -82.5 193t-199.5 80h-2
q-47 0 -103 -17v180q74 11 115 53.5t41 110.5q0 62 -43.5 108t-104.5 46q-62 0 -104.5 -46.5t-42.5 -111.5v-1073h-250z" />
    <glyph glyph-name="agrave" unicode="&#xe0;" horiz-adv-x="1304" 
d="M590 1130l-199 297h283l104 -297h-188zM86 516q0 150 68 274t186.5 194.5t261.5 70.5q126 0 214.5 -48.5t115.5 -123.5v149h248v-1032h-248v150q-27 -75 -115.5 -124t-214.5 -49q-143 0 -261.5 70.5t-186.5 194.5t-68 274zM334 516q0 -134 86.5 -223.5t216.5 -89.5
q132 0 222.5 90t90.5 223t-90.5 223t-222.5 90q-130 0 -216.5 -89.5t-86.5 -223.5z" />
    <glyph glyph-name="aacute" unicode="&#xe1;" horiz-adv-x="1304" 
d="M563 1130l105 297h282l-202 -297h-185zM86 516q0 150 68 274t186.5 194.5t261.5 70.5q126 0 214.5 -48.5t115.5 -123.5v149h248v-1032h-248v150q-27 -75 -115.5 -124t-214.5 -49q-143 0 -261.5 70.5t-186.5 194.5t-68 274zM334 516q0 -134 86.5 -223.5t216.5 -89.5
q132 0 222.5 90t90.5 223t-90.5 223t-222.5 90q-130 0 -216.5 -89.5t-86.5 -223.5z" />
    <glyph glyph-name="acircumflex" unicode="&#xe2;" horiz-adv-x="1304" 
d="M315 1159l369 311l371 -311h-240l-131 127l-129 -127h-240zM86 516q0 150 68 274t186.5 194.5t261.5 70.5q126 0 214.5 -48.5t115.5 -123.5v149h248v-1032h-248v150q-27 -75 -115.5 -124t-214.5 -49q-143 0 -261.5 70.5t-186.5 194.5t-68 274zM334 516
q0 -134 86.5 -223.5t216.5 -89.5q132 0 222.5 90t90.5 223t-90.5 223t-222.5 90q-130 0 -216.5 -89.5t-86.5 -223.5z" />
    <glyph glyph-name="atilde" unicode="&#xe3;" horiz-adv-x="1304" 
d="M295 1204q12 102 74.5 167t160.5 65q52 0 103.5 -21.5t96 -43t81.5 -21.5q70 0 90 86l146 -19q-14 -115 -74 -180.5t-166 -65.5q-54 0 -105.5 21.5t-96.5 43t-81 21.5q-71 0 -84 -71zM86 516q0 150 68 274t186.5 194.5t261.5 70.5q126 0 214.5 -48.5t115.5 -123.5v149
h248v-1032h-248v150q-27 -75 -115.5 -124t-214.5 -49q-143 0 -261.5 70.5t-186.5 194.5t-68 274zM334 516q0 -134 86.5 -223.5t216.5 -89.5q132 0 222.5 90t90.5 223t-90.5 223t-222.5 90q-130 0 -216.5 -89.5t-86.5 -223.5z" />
    <glyph glyph-name="adieresis" unicode="&#xe4;" horiz-adv-x="1304" 
d="M891 1161q-53 0 -92 37t-39 90t39 90t92 37t92 -37t39 -90t-39 -90t-92 -37zM465 1161q-53 0 -92 37t-39 90t39 90t92 37t92 -37t39 -90t-39 -90t-92 -37zM86 516q0 150 68 274t186.5 194.5t261.5 70.5q126 0 214.5 -48.5t115.5 -123.5v149h248v-1032h-248v150
q-27 -75 -115.5 -124t-214.5 -49q-143 0 -261.5 70.5t-186.5 194.5t-68 274zM334 516q0 -134 86.5 -223.5t216.5 -89.5q132 0 222.5 90t90.5 223t-90.5 223t-222.5 90q-130 0 -216.5 -89.5t-86.5 -223.5z" />
    <glyph glyph-name="aring" unicode="&#xe5;" horiz-adv-x="1304" 
d="M680 1128q-95 0 -162 65t-67 157t67 156.5t162 64.5t162 -64.5t67 -156.5t-67 -157t-162 -65zM680 1266q35 0 59.5 25t24.5 59q0 35 -24.5 60.5t-59.5 25.5q-34 0 -60 -25.5t-26 -60.5q0 -34 26 -59t60 -25zM86 516q0 150 68 274t186.5 194.5t261.5 70.5
q126 0 214.5 -48.5t115.5 -123.5v149h248v-1032h-248v150q-27 -75 -115.5 -124t-214.5 -49q-143 0 -261.5 70.5t-186.5 194.5t-68 274zM334 516q0 -134 86.5 -223.5t216.5 -89.5q132 0 222.5 90t90.5 223t-90.5 223t-222.5 90q-130 0 -216.5 -89.5t-86.5 -223.5z" />
    <glyph glyph-name="ae" unicode="&#xe6;" horiz-adv-x="1843" 
d="M88 289q0 154 104.5 244t305.5 90h100q101 0 138.5 26t37.5 76q0 38 -18.5 64t-50 38.5t-62 17.5t-65.5 5q-167 0 -277 -133l-149 127q73 105 181.5 160t241.5 55q124 0 218 -44.5t129 -119.5q66 78 156.5 121t195.5 43q210 0 349.5 -154t139.5 -385q0 -34 -4 -65h-766
q6 -124 86 -196.5t213 -72.5q85 0 145 29t119 90l150 -145q-95 -102 -196.5 -144.5t-221.5 -42.5q-248 0 -385 170q-125 -172 -428 -172q-181 0 -284 87t-103 231zM330 311q0 -65 43 -94t131 -29q128 0 199 49.5t71 133.5v51v43q-30 -18 -106 -21l-117 -4q-51 -3 -87 -9
t-68.5 -19.5t-49 -38.5t-16.5 -62zM1001 631h512q-12 98 -78.5 160.5t-160.5 62.5q-104 0 -180 -63t-93 -160z" />
    <glyph glyph-name="ccedilla" unicode="&#xe7;" horiz-adv-x="1124" 
d="M367 -379l53 109q54 -31 102 -31q34 0 57 19t23 49q0 44 -32 60.5t-97 16.5h-2l57 140q-192 37 -317 184.5t-125 349.5q0 154 75.5 280t204.5 196.5t283 70.5q247 0 414 -178l-154 -160q-110 113 -260 113q-135 0 -225 -92t-90 -230t90 -229.5t225 -91.5q151 0 260 112
l154 -159q-158 -169 -393 -179h-2l-29 -65h2q57 0 96 -41.5t39 -108.5q0 -93 -62 -139.5t-171 -46.5q-49 0 -98 15t-78 36z" />
    <glyph glyph-name="egrave" unicode="&#xe8;" horiz-adv-x="1214" 
d="M559 1130l-197 297h281l105 -297h-189zM86 508v8q0 245 153.5 395t389.5 150q113 0 209 -40.5t161.5 -111t102.5 -165.5t37 -203q0 -45 -4 -86h-801q6 -123 89.5 -196t219.5 -73q90 0 153.5 29t123.5 90l149 -145q-95 -100 -202 -142.5t-232 -42.5q-245 0 -397 146
t-152 387zM340 627h547q0 92 -76 157.5t-182 65.5q-115 0 -198 -64.5t-91 -158.5z" />
    <glyph glyph-name="eacute" unicode="&#xe9;" horiz-adv-x="1214" 
d="M518 1130l105 297h280l-198 -297h-187zM86 508v8q0 245 153.5 395t389.5 150q113 0 209 -40.5t161.5 -111t102.5 -165.5t37 -203q0 -45 -4 -86h-801q6 -123 89.5 -196t219.5 -73q90 0 153.5 29t123.5 90l149 -145q-95 -100 -202 -142.5t-232 -42.5q-245 0 -397 146
t-152 387zM340 627h547q0 92 -76 157.5t-182 65.5q-115 0 -198 -64.5t-91 -158.5z" />
    <glyph glyph-name="ecircumflex" unicode="&#xea;" horiz-adv-x="1214" 
d="M262 1159l371 311l368 -311h-237l-131 127l-131 -127h-240zM86 508v8q0 245 153.5 395t389.5 150q113 0 209 -40.5t161.5 -111t102.5 -165.5t37 -203q0 -45 -4 -86h-801q6 -123 89.5 -196t219.5 -73q90 0 153.5 29t123.5 90l149 -145q-95 -100 -202 -142.5t-232 -42.5
q-245 0 -397 146t-152 387zM340 627h547q0 92 -76 157.5t-182 65.5q-115 0 -198 -64.5t-91 -158.5z" />
    <glyph glyph-name="edieresis" unicode="&#xeb;" horiz-adv-x="1214" 
d="M842 1161q-52 0 -91.5 37t-39.5 90t39.5 90t91.5 37q54 0 92.5 -36.5t38.5 -90.5t-38.5 -90.5t-92.5 -36.5zM418 1161q-53 0 -93 37t-40 90t40 90t93 37t92 -37t39 -90t-39 -90t-92 -37zM86 508v8q0 245 153.5 395t389.5 150q113 0 209 -40.5t161.5 -111t102.5 -165.5
t37 -203q0 -45 -4 -86h-801q6 -123 89.5 -196t219.5 -73q90 0 153.5 29t123.5 90l149 -145q-95 -100 -202 -142.5t-232 -42.5q-245 0 -397 146t-152 387zM340 627h547q0 92 -76 157.5t-182 65.5q-115 0 -198 -64.5t-91 -158.5z" />
    <glyph glyph-name="igrave" unicode="&#xec;" horiz-adv-x="507" 
d="M178 1130l-194 297h280l101 -297h-187zM131 0v1032h248v-1032h-248z" />
    <glyph glyph-name="iacute" unicode="&#xed;" horiz-adv-x="507" 
d="M137 1130l101 297h280l-194 -297h-187zM133 0v1032h248v-1032h-248z" />
    <glyph glyph-name="icircumflex" unicode="&#xee;" horiz-adv-x="563" 
d="M-43 1130l324 312l325 -312h-233l-92 130l-86 -130h-238zM158 0v1032h250v-1032h-250z" />
    <glyph glyph-name="idieresis" unicode="&#xef;" horiz-adv-x="550" 
d="M442 1167q-53 0 -91 35.5t-38 87.5t38 88.5t91 36.5q52 0 89.5 -36.5t37.5 -88.5t-37.5 -87.5t-89.5 -35.5zM111 1167q-53 0 -91 35.5t-38 87.5t38 88.5t91 36.5q52 0 89.5 -36.5t37.5 -88.5t-37.5 -87.5t-89.5 -35.5zM154 0v1032h247v-1032h-247z" />
    <glyph glyph-name="eth" unicode="&#xf0;" horiz-adv-x="1150" 
d="M86 449q0 196 136 331t327 135q85 0 155.5 -30t108.5 -82q-31 82 -91 160t-122 122l-133 -131l-148 136l111 114q-108 59 -225 82l61 205q167 -36 316 -127l153 154l148 -138l-135 -135q224 -198 290 -469q31 -127 31 -239q0 -259 -134.5 -411.5t-365.5 -152.5
q-131 0 -242 62.5t-176 172t-65 241.5zM332 449q0 -103 70.5 -174.5t175.5 -71.5q104 0 174.5 71.5t70.5 174.5q0 104 -70.5 175.5t-174.5 71.5q-105 0 -175.5 -71t-70.5 -176z" />
    <glyph glyph-name="ntilde" unicode="&#xf1;" horiz-adv-x="1200" 
d="M244 1204q12 102 74.5 167t160.5 65q52 0 103 -21.5t95 -43t81 -21.5t59.5 20.5t32.5 65.5l143 -19q-14 -116 -72.5 -181t-164.5 -65q-54 0 -105.5 21.5t-96.5 43t-81 21.5q-73 0 -86 -71zM131 0v1032h248v-147q36 75 119.5 121.5t191.5 46.5q186 0 289.5 -111
t103.5 -303v-639h-249v604q0 104 -57.5 165.5t-160.5 61.5q-104 0 -170.5 -66.5t-66.5 -170.5v-594h-248z" />
    <glyph glyph-name="ograve" unicode="&#xf2;" horiz-adv-x="1298" 
d="M565 1130l-198 297h282l105 -297h-189zM86 516q0 152 75.5 278t205.5 197.5t284 71.5t283 -71.5t204.5 -197.5t75.5 -278t-75.5 -278t-204.5 -197.5t-283 -71.5t-284 71.5t-205.5 197.5t-75.5 278zM334 516q0 -136 90.5 -228.5t226.5 -92.5q134 0 226 93t92 228
t-92.5 228.5t-225.5 93.5q-136 0 -226.5 -93t-90.5 -229z" />
    <glyph glyph-name="oacute" unicode="&#xf3;" horiz-adv-x="1298" 
d="M553 1130l104 297h281l-199 -297h-186zM86 516q0 152 75.5 278t205.5 197.5t284 71.5t283 -71.5t204.5 -197.5t75.5 -278t-75.5 -278t-204.5 -197.5t-283 -71.5t-284 71.5t-205.5 197.5t-75.5 278zM334 516q0 -136 90.5 -228.5t226.5 -92.5q134 0 226 93t92 228
t-92.5 228.5t-225.5 93.5q-136 0 -226.5 -93t-90.5 -229z" />
    <glyph glyph-name="ocircumflex" unicode="&#xf4;" horiz-adv-x="1298" 
d="M281 1159l370 311l369 -311h-240l-129 127l-129 -127h-241zM86 516q0 152 75.5 278t205.5 197.5t284 71.5t283 -71.5t204.5 -197.5t75.5 -278t-75.5 -278t-204.5 -197.5t-283 -71.5t-284 71.5t-205.5 197.5t-75.5 278zM334 516q0 -136 90.5 -228.5t226.5 -92.5
q134 0 226 93t92 228t-92.5 228.5t-225.5 93.5q-136 0 -226.5 -93t-90.5 -229z" />
    <glyph glyph-name="otilde" unicode="&#xf5;" horiz-adv-x="1298" 
d="M272 1204q14 102 76 167t158 65q53 0 104.5 -21.5t96 -43t81.5 -21.5q71 0 91 86l143 -19q-14 -115 -73 -180.5t-165 -65.5q-54 0 -105.5 21.5t-96.5 43t-82 21.5q-71 0 -84 -71zM86 516q0 152 75.5 278t205.5 197.5t284 71.5t283 -71.5t204.5 -197.5t75.5 -278
t-75.5 -278t-204.5 -197.5t-283 -71.5t-284 71.5t-205.5 197.5t-75.5 278zM334 516q0 -136 90.5 -228.5t226.5 -92.5q134 0 226 93t92 228t-92.5 228.5t-225.5 93.5q-136 0 -226.5 -93t-90.5 -229z" />
    <glyph glyph-name="odieresis" unicode="&#xf6;" horiz-adv-x="1298" 
d="M862 1161q-54 0 -92.5 36.5t-38.5 90.5t38.5 90.5t92.5 36.5t92.5 -36.5t38.5 -90.5t-38.5 -90.5t-92.5 -36.5zM438 1161q-56 0 -94.5 36.5t-38.5 90.5t38.5 90.5t94.5 36.5q53 0 91 -37t38 -90t-38 -90t-91 -37zM86 516q0 152 75.5 278t205.5 197.5t284 71.5t283 -71.5
t204.5 -197.5t75.5 -278t-75.5 -278t-204.5 -197.5t-283 -71.5t-284 71.5t-205.5 197.5t-75.5 278zM334 516q0 -136 90.5 -228.5t226.5 -92.5q134 0 226 93t92 228t-92.5 228.5t-225.5 93.5q-136 0 -226.5 -93t-90.5 -229z" />
    <glyph glyph-name="divide" unicode="&#xf7;" horiz-adv-x="1054" 
d="M528 911q-58 0 -100.5 41.5t-42.5 102.5q0 58 42.5 98.5t100.5 40.5q59 0 101.5 -40.5t42.5 -98.5q0 -61 -42.5 -102.5t-101.5 -41.5zM111 604v217h837v-217h-837zM528 231q-58 0 -100.5 41.5t-42.5 100.5t42.5 100t100.5 41q59 0 101.5 -41t42.5 -100t-42.5 -100.5
t-101.5 -41.5z" />
    <glyph glyph-name="oslash" unicode="&#xf8;" horiz-adv-x="1298" 
d="M162 12l86 115q-162 159 -162 389q0 152 75.5 278t205.5 197.5t284 71.5q134 0 248 -57l84 110l150 -108l-82 -105q163 -157 163 -387q0 -152 -75.5 -278t-204.5 -197.5t-283 -71.5q-132 0 -250 56l-90 -121zM399 322l359 487q-52 27 -107 27q-137 0 -228 -92.5
t-91 -227.5q0 -115 67 -194zM545 221q43 -24 106 -24q135 0 227.5 92t92.5 227q0 109 -68 193z" />
    <glyph glyph-name="ugrave" unicode="&#xf9;" horiz-adv-x="1183" 
d="M516 1130l-201 297h283l104 -297h-186zM119 410v622h250v-602q0 -115 61 -172t162 -57t162 57.5t61 173.5v600h250v-616q0 -109 -37.5 -195t-103.5 -139.5t-151 -81t-183 -27.5t-182 27.5t-149 80t-102.5 137.5t-37.5 192z" />
    <glyph glyph-name="uacute" unicode="&#xfa;" horiz-adv-x="1183" 
d="M475 1130l107 297h280l-198 -297h-189zM119 410v622h250v-602q0 -115 61 -172t162 -57t162 57.5t61 173.5v600h250v-616q0 -109 -37.5 -195t-103.5 -139.5t-151 -81t-183 -27.5t-182 27.5t-149 80t-102.5 137.5t-37.5 192z" />
    <glyph glyph-name="ucircumflex" unicode="&#xfb;" horiz-adv-x="1183" 
d="M225 1159l369 311l369 -311h-240l-129 127l-131 -127h-238zM119 410v622h250v-602q0 -115 61 -172t162 -57t162 57.5t61 173.5v600h250v-616q0 -109 -37.5 -195t-103.5 -139.5t-151 -81t-183 -27.5t-182 27.5t-149 80t-102.5 137.5t-37.5 192z" />
    <glyph glyph-name="udieresis" unicode="&#xfc;" horiz-adv-x="1183" 
d="M805 1161q-53 0 -91 37t-38 90t38 90t91 37q54 0 92.5 -36.5t38.5 -90.5t-38.5 -90.5t-92.5 -36.5zM381 1161q-53 0 -92 37t-39 90t39 90t92 37t91 -37t38 -90t-38 -90t-91 -37zM119 410v622h250v-602q0 -115 61 -172t162 -57t162 57.5t61 173.5v600h250v-616
q0 -109 -37.5 -195t-103.5 -139.5t-151 -81t-183 -27.5t-182 27.5t-149 80t-102.5 137.5t-37.5 192z" />
    <glyph glyph-name="yacute" unicode="&#xfd;" horiz-adv-x="1171" 
d="M485 1130l105 297h282l-202 -297h-185zM258 -221h45q56 0 90 22q35 21 60 86l26 74l-434 1071h252l301 -776l285 776h250l-463 -1200q-49 -131 -113 -192q-84 -78 -248 -78h-51v217z" />
    <glyph glyph-name="thorn" unicode="&#xfe;" horiz-adv-x="1306" 
d="M131 -395v1822h250v-544q27 75 115 123.5t213 48.5q143 0 261.5 -70.5t186.5 -194.5t68 -274t-68 -274t-186.5 -194.5t-261.5 -70.5q-125 0 -213 49t-115 124v-545h-250zM362 516q0 -133 90 -223t224 -90q129 0 216 90t87 223t-87 223t-216 90q-134 0 -224 -90t-90 -223z
" />
    <glyph glyph-name="ydieresis" unicode="&#xff;" horiz-adv-x="1171" 
d="M813 1161q-53 0 -91 37t-38 90t38 90t91 37q55 0 94 -37t39 -90t-39 -90t-94 -37zM387 1161q-52 0 -90.5 37t-38.5 90t38.5 90t90.5 37q55 0 94 -37t39 -90t-39 -90t-94 -37zM258 -221h45q56 0 90 22q35 21 60 86l26 74l-434 1071h252l301 -776l285 776h250l-463 -1200
q-49 -131 -113 -192q-84 -78 -248 -78h-51v217z" />
    <glyph glyph-name="Amacron" unicode="&#x100;" horiz-adv-x="1538" 
d="M455 1559v174h630v-174h-630zM63 0l709 1497l707 -1497h-277l-125 274h-614l-127 -274h-273zM561 498h418l-209 460z" />
    <glyph glyph-name="amacron" unicode="&#x101;" horiz-adv-x="1304" 
d="M379 1194v174h631v-174h-631zM86 516q0 150 68 274t186.5 194.5t261.5 70.5q126 0 214.5 -48.5t115.5 -123.5v149h248v-1032h-248v150q-27 -75 -115.5 -124t-214.5 -49q-143 0 -261.5 70.5t-186.5 194.5t-68 274zM334 516q0 -134 86.5 -223.5t216.5 -89.5q132 0 222.5 90
t90.5 223t-90.5 223t-222.5 90q-130 0 -216.5 -89.5t-86.5 -223.5z" />
    <glyph glyph-name="Abreve" unicode="&#x102;" horiz-adv-x="1538" 
d="M772 1534q-141 0 -234.5 82.5t-111.5 208.5h188q40 -119 158 -119q116 0 156 119h188q-18 -125 -111.5 -208t-232.5 -83zM63 0l709 1497l707 -1497h-277l-125 274h-614l-127 -274h-273zM561 498h418l-209 460z" />
    <glyph glyph-name="abreve" unicode="&#x103;" horiz-adv-x="1304" 
d="M666 1139q-139 0 -232.5 83t-111.5 208h188q40 -119 156 -119q117 0 157 119h189q-18 -126 -111 -208.5t-235 -82.5zM86 516q0 150 68 274t186.5 194.5t261.5 70.5q126 0 214.5 -48.5t115.5 -123.5v149h248v-1032h-248v150q-27 -75 -115.5 -124t-214.5 -49
q-143 0 -261.5 70.5t-186.5 194.5t-68 274zM334 516q0 -134 86.5 -223.5t216.5 -89.5q132 0 222.5 90t90.5 223t-90.5 223t-222.5 90q-130 0 -216.5 -89.5t-86.5 -223.5z" />
    <glyph glyph-name="Aogonek" unicode="&#x104;" horiz-adv-x="1585" 
d="M63 0l709 1497l707 -1497q-57 -27 -105.5 -79.5t-48.5 -106.5q0 -39 29.5 -59.5t72.5 -20.5q56 0 119 26l-37 -161q-60 -29 -116 -29q-95 0 -168.5 57.5t-73.5 149.5q0 69 47.5 126.5t120.5 96.5h-117l-125 274h-614l-127 -274h-273zM561 498h418l-209 460z" />
    <glyph glyph-name="aogonek" unicode="&#x105;" horiz-adv-x="1304" 
d="M86 516q0 150 68 274t186.5 194.5t261.5 70.5q126 0 214.5 -48.5t115.5 -123.5v149h248v-1032q-148 -96 -148 -186q0 -39 30 -59.5t73 -20.5q58 0 118 26l-34 -161q-60 -29 -117 -29q-96 0 -168 57t-72 150q0 128 154 223h-84v150q-27 -75 -115.5 -124t-214.5 -49
q-143 0 -261.5 70.5t-186.5 194.5t-68 274zM334 516q0 -134 86.5 -223.5t216.5 -89.5q132 0 222.5 90t90.5 223t-90.5 223t-222.5 90q-130 0 -216.5 -89.5t-86.5 -223.5z" />
    <glyph glyph-name="Cacute" unicode="&#x106;" horiz-adv-x="1503" 
d="M745 1526l105 297h283l-201 -297h-187zM104 713q0 209 102 379t276 265t382 95q167 0 313.5 -67.5t252.5 -188.5l-177 -152q-73 83 -173.5 129t-215.5 46q-215 0 -358.5 -144.5t-143.5 -361.5t143.5 -360.5t358.5 -143.5q117 0 219 46.5t174 131.5l175 -151
q-104 -123 -252 -192t-316 -69q-156 0 -296 56t-242 153t-162 234.5t-60 294.5z" />
    <glyph glyph-name="cacute" unicode="&#x107;" horiz-adv-x="1124" 
d="M545 1130l106 297h281l-199 -297h-188zM86 518q0 154 75.5 280t204.5 196.5t283 70.5q247 0 414 -178l-154 -160q-110 113 -260 113q-135 0 -225 -92t-90 -230t90 -229.5t225 -91.5q151 0 260 112l154 -159q-168 -179 -414 -179q-154 0 -283 70.5t-204.5 196.5t-75.5 280
z" />
    <glyph glyph-name="Ccircumflex" unicode="&#x108;" horiz-adv-x="1503" 
d="M494 1565l370 309l367 -309h-238l-129 127l-131 -127h-239zM104 713q0 209 102 379t276 265t382 95q167 0 313.5 -67.5t252.5 -188.5l-177 -152q-73 83 -173.5 129t-215.5 46q-215 0 -358.5 -144.5t-143.5 -361.5t143.5 -360.5t358.5 -143.5q117 0 219 46.5t174 131.5
l175 -151q-104 -123 -252 -192t-316 -69q-156 0 -296 56t-242 153t-162 234.5t-60 294.5z" />
    <glyph glyph-name="ccircumflex" unicode="&#x109;" horiz-adv-x="1124" 
d="M283 1159l370 311l369 -311h-240l-129 127l-131 -127h-239zM86 518q0 154 75.5 280t204.5 196.5t283 70.5q247 0 414 -178l-154 -160q-110 113 -260 113q-135 0 -225 -92t-90 -230t90 -229.5t225 -91.5q151 0 260 112l154 -159q-168 -179 -414 -179q-154 0 -283 70.5
t-204.5 196.5t-75.5 280z" />
    <glyph glyph-name="Cdotaccent" unicode="&#x10a;" horiz-adv-x="1503" 
d="M856 1538q-55 0 -94 37t-39 92q0 53 39 90t94 37t94 -37t39 -90q0 -55 -39 -92t-94 -37zM104 713q0 209 102 379t276 265t382 95q167 0 313.5 -67.5t252.5 -188.5l-177 -152q-73 83 -173.5 129t-215.5 46q-215 0 -358.5 -144.5t-143.5 -361.5t143.5 -360.5t358.5 -143.5
q117 0 219 46.5t174 131.5l175 -151q-104 -123 -252 -192t-316 -69q-156 0 -296 56t-242 153t-162 234.5t-60 294.5z" />
    <glyph glyph-name="cdotaccent" unicode="&#x10b;" horiz-adv-x="1124" 
d="M643 1149q-54 0 -93.5 37.5t-39.5 91.5t39.5 91.5t93.5 37.5t93.5 -37.5t39.5 -91.5t-39.5 -91.5t-93.5 -37.5zM86 518q0 154 75.5 280t204.5 196.5t283 70.5q247 0 414 -178l-154 -160q-110 113 -260 113q-135 0 -225 -92t-90 -230t90 -229.5t225 -91.5q151 0 260 112
l154 -159q-168 -179 -414 -179q-154 0 -283 70.5t-204.5 196.5t-75.5 280z" />
    <glyph glyph-name="Ccaron" unicode="&#x10c;" horiz-adv-x="1503" 
d="M864 1513l-368 310h239l129 -129l129 129h242zM104 713q0 209 102 379t276 265t382 95q167 0 313.5 -67.5t252.5 -188.5l-177 -152q-73 83 -173.5 129t-215.5 46q-215 0 -358.5 -144.5t-143.5 -361.5t143.5 -360.5t358.5 -143.5q117 0 219 46.5t174 131.5l175 -151
q-104 -123 -252 -192t-316 -69q-156 0 -296 56t-242 153t-162 234.5t-60 294.5z" />
    <glyph glyph-name="ccaron" unicode="&#x10d;" horiz-adv-x="1124" 
d="M641 1124l-371 310h240l131 -129l127 129h240zM86 518q0 154 75.5 280t204.5 196.5t283 70.5q247 0 414 -178l-154 -160q-110 113 -260 113q-135 0 -225 -92t-90 -230t90 -229.5t225 -91.5q151 0 260 112l154 -159q-168 -179 -414 -179q-154 0 -283 70.5t-204.5 196.5
t-75.5 280z" />
    <glyph glyph-name="Dcaron" unicode="&#x10e;" horiz-adv-x="1546" 
d="M711 1513l-371 310h240l131 -129l131 129h237zM180 0v1427h512q178 0 320.5 -53t236 -148.5t143.5 -226.5t50 -288q0 -158 -49.5 -288.5t-143 -224.5t-235.5 -146t-320 -52h-514zM438 233h238q110 0 196.5 24t144.5 66.5t96 103t54.5 131t16.5 153.5q0 107 -27.5 192.5
t-85.5 152t-158.5 102.5t-238.5 36h-236v-961z" />
    <glyph glyph-name="dcaron" unicode="&#x10f;" horiz-adv-x="1689" 
d="M1233 1130l106 297h281l-199 -297h-188zM86 516q0 150 68 274t186.5 194.5t261.5 70.5q126 0 214.5 -48.5t115.5 -123.5v544h248v-1427h-248v150q-27 -75 -115.5 -124t-214.5 -49q-143 0 -261.5 70.5t-186.5 194.5t-68 274zM334 516q0 -134 86.5 -223.5t216.5 -89.5
q132 0 222.5 90t90.5 223t-90.5 223t-222.5 90q-130 0 -216.5 -89.5t-86.5 -223.5z" />
    <glyph glyph-name="Dcroat" unicode="&#x110;" horiz-adv-x="1554" 
d="M182 0v608h-114v234h114v585h510q178 0 320.5 -53t236 -148.5t143.5 -226.5t50 -288q0 -158 -49.5 -288.5t-143 -224.5t-235.5 -146t-320 -52h-512zM440 233h236q110 0 196.5 24t144.5 66.5t96 103t54.5 131t16.5 153.5q0 107 -27.5 192.5t-85.5 152t-158.5 102.5
t-238.5 36h-234v-352h293v-234h-293v-375z" />
    <glyph glyph-name="dcroat" unicode="&#x111;" horiz-adv-x="1306" 
d="M86 516q0 150 68 274t186.5 194.5t261.5 70.5q126 0 214.5 -48.5t115.5 -123.5v241h-367v193h367v110h248v-110h92v-193h-92v-1124h-248v150q-27 -75 -115.5 -124t-214.5 -49q-143 0 -261.5 70.5t-186.5 194.5t-68 274zM334 516q0 -134 86.5 -223.5t216.5 -89.5
q132 0 222.5 90t90.5 223t-90.5 223t-222.5 90q-130 0 -216.5 -89.5t-86.5 -223.5z" />
    <glyph glyph-name="Emacron" unicode="&#x112;" 
d="M307 1559v174h631v-174h-631zM168 455v972h891v-233h-633v-336h592v-233h-592v-176q0 -62 20.5 -107t53.5 -67.5t65.5 -32t65.5 -9.5h442v-233h-455q-224 0 -337 117t-113 338z" />
    <glyph glyph-name="emacron" unicode="&#x113;" horiz-adv-x="1214" 
d="M317 1194v174h631v-174h-631zM86 508v8q0 245 153.5 395t389.5 150q113 0 209 -40.5t161.5 -111t102.5 -165.5t37 -203q0 -45 -4 -86h-801q6 -123 89.5 -196t219.5 -73q90 0 153.5 29t123.5 90l149 -145q-95 -100 -202 -142.5t-232 -42.5q-245 0 -397 146t-152 387z
M340 627h547q0 92 -76 157.5t-182 65.5q-115 0 -198 -64.5t-91 -158.5z" />
    <glyph glyph-name="Ebreve" unicode="&#x114;" 
d="M629 1534q-141 0 -234.5 82.5t-111.5 208.5h188q40 -119 158 -119q117 0 157 119h187q-18 -125 -111.5 -208t-232.5 -83zM168 455v972h891v-233h-633v-336h592v-233h-592v-176q0 -62 20.5 -107t53.5 -67.5t65.5 -32t65.5 -9.5h442v-233h-455q-224 0 -337 117t-113 338z
" />
    <glyph glyph-name="ebreve" unicode="&#x115;" horiz-adv-x="1214" 
d="M629 1139q-141 0 -234.5 82.5t-111.5 208.5h190q40 -119 156 -119q117 0 157 119h189q-18 -125 -112.5 -208t-233.5 -83zM86 508v8q0 245 153.5 395t389.5 150q113 0 209 -40.5t161.5 -111t102.5 -165.5t37 -203q0 -45 -4 -86h-801q6 -123 89.5 -196t219.5 -73
q90 0 153.5 29t123.5 90l149 -145q-95 -100 -202 -142.5t-232 -42.5q-245 0 -397 146t-152 387zM340 627h547q0 92 -76 157.5t-182 65.5q-115 0 -198 -64.5t-91 -158.5z" />
    <glyph glyph-name="Edotaccent" unicode="&#x116;" 
d="M629 1538q-55 0 -95 37t-40 92q0 53 40 90t95 37q53 0 92 -37t39 -90q0 -55 -39 -92t-92 -37zM168 455v972h891v-233h-633v-336h592v-233h-592v-176q0 -62 20.5 -107t53.5 -67.5t65.5 -32t65.5 -9.5h442v-233h-455q-224 0 -337 117t-113 338z" />
    <glyph glyph-name="edotaccent" unicode="&#x117;" horiz-adv-x="1214" 
d="M631 1161q-55 0 -95 38t-40 91t40 91t95 38q53 0 92 -38t39 -91t-39 -91t-92 -38zM86 508v8q0 245 153.5 395t389.5 150q113 0 209 -40.5t161.5 -111t102.5 -165.5t37 -203q0 -45 -4 -86h-801q6 -123 89.5 -196t219.5 -73q90 0 153.5 29t123.5 90l149 -145
q-95 -100 -202 -142.5t-232 -42.5q-245 0 -397 146t-152 387zM340 627h547q0 92 -76 157.5t-182 65.5q-115 0 -198 -64.5t-91 -158.5z" />
    <glyph glyph-name="Eogonek" unicode="&#x118;" 
d="M168 455v972h891v-233h-633v-338h592v-233h-592v-174q0 -62 20.5 -107t53.5 -67.5t65.5 -32t65.5 -9.5h442v-233q-147 -95 -147 -186q0 -39 29.5 -59.5t72.5 -20.5q59 0 119 26l-35 -161q-60 -29 -117 -29q-96 0 -168.5 57t-72.5 150q0 128 153 223h-289q-224 0 -337 117
t-113 338z" />
    <glyph glyph-name="eogonek" unicode="&#x119;" horiz-adv-x="1214" 
d="M86 508v8q0 245 153.5 395t389.5 150q113 0 209 -40.5t161.5 -111t102.5 -165.5t37 -203q0 -45 -4 -86h-801q6 -123 89.5 -196t219.5 -73q90 0 153.5 29t123.5 90l149 -145q-62 -62 -139 -111q-41 -25 -65 -41.5t-63.5 -49.5t-60 -69t-20.5 -73q0 -39 29 -59.5t69 -20.5
q57 0 117 26l-35 -161q-60 -29 -115 -29q-94 0 -165.5 57t-71.5 150q0 110 113 196h-11q-255 0 -410 143t-155 390zM340 627h547q0 92 -76 157.5t-182 65.5q-115 0 -198 -64.5t-91 -158.5z" />
    <glyph glyph-name="Ecaron" unicode="&#x11a;" 
d="M631 1513l-371 310h240l131 -129l129 129h239zM168 455v972h891v-233h-633v-336h592v-233h-592v-176q0 -62 20.5 -107t53.5 -67.5t65.5 -32t65.5 -9.5h442v-233h-455q-224 0 -337 117t-113 338z" />
    <glyph glyph-name="ecaron" unicode="&#x11b;" horiz-adv-x="1214" 
d="M629 1124l-371 310h240l131 -129l131 129h237zM86 508v8q0 245 153.5 395t389.5 150q113 0 209 -40.5t161.5 -111t102.5 -165.5t37 -203q0 -45 -4 -86h-801q6 -123 89.5 -196t219.5 -73q90 0 153.5 29t123.5 90l149 -145q-95 -100 -202 -142.5t-232 -42.5
q-245 0 -397 146t-152 387zM340 627h547q0 92 -76 157.5t-182 65.5q-115 0 -198 -64.5t-91 -158.5z" />
    <glyph glyph-name="Gcircumflex" unicode="&#x11c;" horiz-adv-x="1572" 
d="M494 1565l370 309l369 -309h-242l-127 127l-131 -127h-239zM104 713q0 209 102 379t276 265t382 95q155 0 291 -55.5t240 -159.5l-172 -158q-69 68 -162 104t-197 36q-215 0 -358.5 -145t-143.5 -361q0 -217 143.5 -360.5t358.5 -143.5q201 0 340 123v260h-397v229h641
v-577q-102 -125 -254.5 -197t-329.5 -72q-156 0 -296 56t-242 153t-162 234.5t-60 294.5z" />
    <glyph glyph-name="gcircumflex" unicode="&#x11d;" horiz-adv-x="1304" 
d="M301 1159l369 311l366 -311h-237l-129 127l-131 -127h-238zM86 520q0 148 68 271t186.5 193.5t261.5 70.5q126 0 214.5 -48.5t115.5 -123.5v149h248v-950q0 -107 -30.5 -199.5t-94 -169t-173.5 -120.5t-257 -44q-173 0 -304.5 76t-187.5 197l217 108q28 -71 100 -115
t168 -44q320 0 320 303v69q-36 -65 -124.5 -108t-211.5 -43q-219 0 -367.5 151.5t-148.5 376.5zM334 520q0 -132 86.5 -220.5t216.5 -88.5q132 0 222.5 88.5t90.5 220.5q0 130 -90.5 219.5t-222.5 89.5q-130 0 -216.5 -89t-86.5 -220z" />
    <glyph glyph-name="Gbreve" unicode="&#x11e;" horiz-adv-x="1572" 
d="M856 1534q-141 0 -234.5 82.5t-111.5 208.5h188q40 -119 158 -119q117 0 154 119h190q-18 -125 -111.5 -208t-232.5 -83zM104 713q0 209 102 379t276 265t382 95q155 0 291 -55.5t240 -159.5l-172 -158q-69 68 -162 104t-197 36q-215 0 -358.5 -145t-143.5 -361
q0 -217 143.5 -360.5t358.5 -143.5q201 0 340 123v260h-397v229h641v-577q-102 -125 -254.5 -197t-329.5 -72q-156 0 -296 56t-242 153t-162 234.5t-60 294.5z" />
    <glyph glyph-name="gbreve" unicode="&#x11f;" horiz-adv-x="1304" 
d="M657 1139q-139 0 -232.5 83t-111.5 208h189q40 -119 155 -119q118 0 158 119h189q-18 -125 -112 -208t-235 -83zM86 520q0 148 68 271t186.5 193.5t261.5 70.5q126 0 214.5 -48.5t115.5 -123.5v149h248v-950q0 -107 -30.5 -199.5t-94 -169t-173.5 -120.5t-257 -44
q-173 0 -304.5 76t-187.5 197l217 108q28 -71 100 -115t168 -44q320 0 320 303v69q-36 -65 -124.5 -108t-211.5 -43q-219 0 -367.5 151.5t-148.5 376.5zM334 520q0 -132 86.5 -220.5t216.5 -88.5q132 0 222.5 88.5t90.5 220.5q0 130 -90.5 219.5t-222.5 89.5
q-130 0 -216.5 -89t-86.5 -220z" />
    <glyph glyph-name="Gdotaccent" unicode="&#x120;" horiz-adv-x="1572" 
d="M860 1538q-56 0 -95.5 37t-39.5 92q0 54 39.5 90.5t95.5 36.5q55 0 94 -37t39 -90q0 -55 -39 -92t-94 -37zM104 713q0 209 102 379t276 265t382 95q155 0 291 -55.5t240 -159.5l-172 -158q-69 68 -162 104t-197 36q-215 0 -358.5 -145t-143.5 -361q0 -217 143.5 -360.5
t358.5 -143.5q201 0 340 123v260h-397v229h641v-577q-102 -125 -254.5 -197t-329.5 -72q-156 0 -296 56t-242 153t-162 234.5t-60 294.5z" />
    <glyph glyph-name="gdotaccent" unicode="&#x121;" horiz-adv-x="1304" 
d="M674 1161q-54 0 -93.5 37.5t-39.5 91.5t39.5 91.5t93.5 37.5q53 0 93 -38t40 -91t-40 -91t-93 -38zM86 520q0 148 68 271t186.5 193.5t261.5 70.5q126 0 214.5 -48.5t115.5 -123.5v149h248v-950q0 -107 -30.5 -199.5t-94 -169t-173.5 -120.5t-257 -44q-173 0 -304.5 76
t-187.5 197l217 108q28 -71 100 -115t168 -44q320 0 320 303v69q-36 -65 -124.5 -108t-211.5 -43q-219 0 -367.5 151.5t-148.5 376.5zM334 520q0 -132 86.5 -220.5t216.5 -88.5q132 0 222.5 88.5t90.5 220.5q0 130 -90.5 219.5t-222.5 89.5q-130 0 -216.5 -89t-86.5 -220z
" />
    <glyph glyph-name="Gcommaaccent" unicode="&#x122;" horiz-adv-x="1572" 
d="M104 713q0 209 102 379t276 265t382 95q155 0 291 -55.5t240 -159.5l-172 -158q-69 68 -162 104t-197 36q-215 0 -358.5 -145t-143.5 -361q0 -217 143.5 -360.5t358.5 -143.5q201 0 340 123v260h-397v229h641v-577q-102 -125 -254.5 -197t-329.5 -72q-156 0 -296 56
t-242 153t-162 234.5t-60 294.5zM618 -395l107 297h283l-199 -297h-191z" />
    <glyph glyph-name="gcommaaccent" unicode="&#x123;" horiz-adv-x="1304" 
d="M553 1130l106 297h281l-199 -297h-188zM86 520q0 148 68 271t186.5 193.5t261.5 70.5q126 0 214.5 -48.5t115.5 -123.5v149h248v-950q0 -107 -30.5 -199.5t-94 -169t-173.5 -120.5t-257 -44q-173 0 -304.5 76t-187.5 197l217 108q28 -71 100 -115t168 -44q320 0 320 303
v69q-36 -65 -124.5 -108t-211.5 -43q-219 0 -367.5 151.5t-148.5 376.5zM334 520q0 -132 86.5 -220.5t216.5 -88.5q132 0 222.5 88.5t90.5 220.5q0 130 -90.5 219.5t-222.5 89.5q-130 0 -216.5 -89t-86.5 -220z" />
    <glyph glyph-name="Hcircumflex" unicode="&#x124;" horiz-adv-x="1558" 
d="M416 1565l370 309l369 -309h-237l-132 127l-129 -127h-241zM180 0v1427h258v-555h684v555h256v-1427h-256v637h-684v-637h-258z" />
    <glyph glyph-name="hcircumflex" unicode="&#x125;" horiz-adv-x="1179" 
d="M-70 1552l326 312l326 -312h-234l-92 127l-88 -127h-238zM131 0v1427h248v-538q35 74 114.5 119t184.5 45q180 0 279.5 -111t99.5 -303v-639h-248v604q0 104 -54 165.5t-151 61.5q-100 0 -162.5 -66.5t-62.5 -170.5v-594h-248z" />
    <glyph glyph-name="Hbar" unicode="&#x126;" horiz-adv-x="1566" 
d="M186 0v1028h-110v203h110v196h256v-196h684v196h256v-196h109v-203h-109v-1028h-256v637h-684v-637h-256zM442 870h684v158h-684v-158z" />
    <glyph glyph-name="hbar" unicode="&#x127;" horiz-adv-x="1179" 
d="M129 0v1124h-82v193h82v110h248v-110h375v-193h-375v-235q35 74 114.5 119t184.5 45q180 0 279.5 -111t99.5 -303v-639h-248v604q0 104 -54 165.5t-151 61.5q-100 0 -162.5 -66.5t-62.5 -170.5v-594h-248z" />
    <glyph glyph-name="Itilde" unicode="&#x128;" horiz-adv-x="634" 
d="M90 1542l-143 17q12 105 74.5 171t160.5 66q50 0 100 -20.5t93.5 -41t79.5 -20.5q37 0 59.5 19.5t32.5 64.5l143 -20q-29 -248 -237 -248q-53 0 -103.5 21t-94 42t-79.5 21q-72 0 -86 -72zM188 0v1427h258v-1427h-258z" />
    <glyph glyph-name="itilde" unicode="&#x129;" horiz-adv-x="567" 
d="M100 1188l-139 18q13 101 65.5 165.5t135.5 64.5q41 0 84.5 -21.5t79.5 -43t59 -21.5q32 0 52 20.5t30 65.5l139 -19q-27 -241 -205 -241q-42 0 -86 21t-80 42t-59 21q-62 0 -76 -72zM162 0v1032h248v-1032h-248z" />
    <glyph glyph-name="Imacron" unicode="&#x12a;" horiz-adv-x="634" 
d="M14 1559v174h607v-174h-607zM186 0v1427h258v-1427h-258z" />
    <glyph glyph-name="imacron" unicode="&#x12b;" horiz-adv-x="526" 
d="M-2 1194v174h528v-174h-528zM139 0v1032h248v-1032h-248z" />
    <glyph glyph-name="Ibreve" unicode="&#x12c;" horiz-adv-x="634" 
d="M315 1534q-141 0 -233.5 82.5t-110.5 208.5h189q40 -119 155 -119q118 0 158 119h189q-18 -125 -112 -208t-235 -83zM186 0v1427h258v-1427h-258z" />
    <glyph glyph-name="ibreve" unicode="&#x12d;" horiz-adv-x="542" 
d="M270 1145q-131 0 -211.5 80.5t-89.5 204.5h187q17 -111 114 -111q100 0 117 111h188q-9 -125 -90 -205t-215 -80zM150 0v1032h245v-1032h-245z" />
    <glyph glyph-name="Iogonek" unicode="&#x12e;" horiz-adv-x="634" 
d="M186 0v1427h258v-1427q-53 -26 -101 -79.5t-48 -106.5q0 -39 29.5 -59.5t72.5 -20.5q56 0 119 26l-39 -161q-60 -29 -117 -29q-96 0 -167.5 57t-71.5 150q0 69 45 126.5t115 96.5h-95z" />
    <glyph glyph-name="iogonek" unicode="&#x12f;" horiz-adv-x="507" 
d="M254 1149q-61 0 -104.5 42.5t-43.5 104.5q0 61 43.5 103.5t104.5 42.5q59 0 103 -42.5t44 -103.5q0 -62 -43.5 -104.5t-103.5 -42.5zM129 0v1032h250v-1032q-60 -36 -106 -85t-46 -101q0 -39 30.5 -59.5t72.5 -20.5q59 0 119 26l-33 -161q-60 -29 -117 -29
q-99 0 -171.5 57t-72.5 150q0 68 44.5 125.5t111.5 97.5h-82z" />
    <glyph glyph-name="Idotaccent" unicode="&#x130;" horiz-adv-x="634" 
d="M317 1538q-54 0 -93.5 37.5t-39.5 91.5q0 53 40 90t93 37q56 0 95 -36.5t39 -90.5q0 -55 -39 -92t-95 -37zM188 0v1427h258v-1427h-258z" />
    <glyph glyph-name="dotlessi" unicode="&#x131;" horiz-adv-x="507" 
d="M131 0v1032h250v-1032h-250z" />
    <glyph glyph-name="IJ" unicode="&#x132;" horiz-adv-x="1091" 
d="M195 350v1077h258v-1077h-258zM195 -4v233h274q31 0 61.5 9t61 29.5t49 62t18.5 98.5v999h256v-989q0 -214 -107.5 -328t-326.5 -114h-286z" />
    <glyph glyph-name="ij" unicode="&#x133;" horiz-adv-x="903" 
d="M659 1153q-59 0 -101 41.5t-42 101.5t42 101t101 41q58 0 100 -41.5t42 -100.5t-42 -101t-100 -42zM250 1153q-59 0 -101.5 41.5t-42.5 101.5q0 59 42.5 100.5t101.5 41.5q58 0 100.5 -41.5t42.5 -100.5t-42.5 -101t-100.5 -42zM129 330v702h240v-702h-240zM131 -6v225
h219q97 0 143 39.5t46 132.5v641h239v-659q0 -69 -13.5 -126t-35 -95.5t-53.5 -67.5t-65.5 -46t-74.5 -27t-76 -13.5t-75 -3.5h-254z" />
    <glyph glyph-name="Jcircumflex" unicode="&#x134;" horiz-adv-x="747" 
d="M82 1554l367 320l372 -320h-241l-131 136l-127 -136h-240zM45 -4v233h96q31 0 61 9t60.5 29.5t49 62t18.5 98.5v999h258v-989q0 -214 -107.5 -328t-324.5 -114h-111z" />
    <glyph glyph-name="jcircumflex" unicode="&#x135;" horiz-adv-x="550" 
d="M-33 1159l324 311l325 -311h-233l-92 127l-88 -127h-236zM-33 -434v225h10q96 0 142.5 40t46.5 132v1069h248v-1087q0 -379 -394 -379h-53z" />
    <glyph glyph-name="Kcommaaccent" unicode="&#x136;" horiz-adv-x="1413" 
d="M180 0v1427h258v-682l602 682h308l-555 -628l571 -799h-303l-443 614l-180 -198v-416h-258zM481 -395l105 297h282l-200 -297h-187z" />
    <glyph glyph-name="kcommaaccent" unicode="&#x137;" horiz-adv-x="1101" 
d="M131 0v1427h248v-831l379 436h284l-403 -461l446 -571h-280l-326 414l-100 -113v-301h-248zM332 -395l106 297h281l-199 -297h-188z" />
    <glyph glyph-name="Lacute" unicode="&#x139;" horiz-adv-x="1091" 
d="M207 1526l104 297h283l-199 -297h-188zM180 0v1427h258v-1194h568v-233h-826z" />
    <glyph glyph-name="lacute" unicode="&#x13a;" horiz-adv-x="507" 
d="M135 1479l105 297h282l-200 -297h-187zM131 0v1427h250v-1427h-250z" />
    <glyph glyph-name="Lcommaaccent" unicode="&#x13b;" horiz-adv-x="1091" 
d="M180 0v1427h258v-1194h568v-233h-826zM365 -395l104 297h283l-199 -297h-188z" />
    <glyph glyph-name="lcommaaccent" unicode="&#x13c;" horiz-adv-x="507" 
d="M129 0v1427h250v-1427h-250zM127 -98h281l-199 -297h-184z" />
    <glyph glyph-name="Lcaron" unicode="&#x13d;" horiz-adv-x="1091" 
d="M180 0v1427h258v-1194h568v-233h-826zM569 1130l105 297h282l-200 -297h-187z" />
    <glyph glyph-name="lcaron" unicode="&#x13e;" horiz-adv-x="817" 
d="M440 1130l105 297h282l-198 -297h-189zM131 0v1427h250v-1427h-250z" />
    <glyph glyph-name="Ldot" unicode="&#x13f;" horiz-adv-x="1091" 
d="M180 0v1427h258v-1194h568v-233h-826zM748 672q-56 0 -95 37.5t-39 93.5q0 54 39 91.5t95 37.5q54 0 92.5 -37.5t38.5 -91.5q0 -56 -38 -93.5t-93 -37.5z" />
    <glyph glyph-name="ldot" unicode="&#x140;" horiz-adv-x="806" 
d="M131 0v1427h250v-1427h-250zM582 618q-55 0 -94 37.5t-39 92.5q0 54 39.5 91.5t93.5 37.5q53 0 92 -38t39 -91q0 -55 -39 -92.5t-92 -37.5z" />
    <glyph glyph-name="Lslash" unicode="&#x141;" horiz-adv-x="1110" 
d="M199 0v520l-131 -69v239l131 70v667h258v-550l280 147v-242l-280 -145v-404h567v-233h-825z" />
    <glyph glyph-name="lslash" unicode="&#x142;" horiz-adv-x="593" 
d="M166 0v565l-139 -80v244l139 78v620h248v-491l176 98v-241l-176 -101v-692h-248z" />
    <glyph glyph-name="Nacute" unicode="&#x143;" horiz-adv-x="1589" 
d="M668 1526l104 297h283l-201 -297h-186zM180 0v1481l973 -951v897h258v-1480l-973 946v-893h-258z" />
    <glyph glyph-name="nacute" unicode="&#x144;" horiz-adv-x="1200" 
d="M512 1130l106 297h283l-199 -297h-190zM131 0v1032h248v-147q36 75 119.5 121.5t191.5 46.5q186 0 289.5 -111t103.5 -303v-639h-249v604q0 104 -57.5 165.5t-160.5 61.5q-104 0 -170.5 -66.5t-66.5 -170.5v-594h-248z" />
    <glyph glyph-name="Ncommaaccent" unicode="&#x145;" horiz-adv-x="1589" 
d="M180 0v1481l973 -951v897h258v-1480l-973 946v-893h-258zM598 -395l104 297h283l-199 -297h-188z" />
    <glyph glyph-name="ncommaaccent" unicode="&#x146;" horiz-adv-x="1200" 
d="M131 0v1032h248v-147q36 75 119.5 121.5t191.5 46.5q186 0 289.5 -111t103.5 -303v-639h-249v604q0 104 -57.5 165.5t-160.5 61.5q-104 0 -170.5 -66.5t-66.5 -170.5v-594h-248zM381 -395l104 297h281l-199 -297h-186z" />
    <glyph glyph-name="Ncaron" unicode="&#x147;" horiz-adv-x="1589" 
d="M791 1509l-369 314h240l129 -133l129 133h239zM180 0v1481l973 -951v897h258v-1480l-973 946v-893h-258z" />
    <glyph glyph-name="ncaron" unicode="&#x148;" horiz-adv-x="1200" 
d="M627 1124l-371 310h242l129 -129l129 129h239zM131 0v1032h248v-147q36 75 119.5 121.5t191.5 46.5q186 0 289.5 -111t103.5 -303v-639h-249v604q0 104 -57.5 165.5t-160.5 61.5q-104 0 -170.5 -66.5t-66.5 -170.5v-594h-248z" />
    <glyph glyph-name="Eng" unicode="&#x14a;" horiz-adv-x="1576" 
d="M180 0v1481l953 -1092v1038h251v-1404q0 -214 -108 -328.5t-326 -114.5h-110v236h104q31 0 60.5 8.5t60 28.5t49 61t19.5 98v17l-699 798v-827h-254z" />
    <glyph glyph-name="eng" unicode="&#x14b;" horiz-adv-x="1183" 
d="M131 0v1032h248v-153q43 84 122 129t185 45q179 0 280 -111t101 -303v-717q0 -356 -352 -356h-111v221h78q72 0 104.5 37t32.5 123v655q0 106 -55.5 167.5t-155.5 61.5q-99 0 -164 -67t-65 -172v-592h-248z" />
    <glyph glyph-name="Omacron" unicode="&#x14c;" horiz-adv-x="1716" 
d="M551 1561v174h633v-174h-633zM104 711q0 206 101 376.5t274.5 267.5t380.5 97t380.5 -97t274.5 -267.5t101 -376.5t-101 -376.5t-274.5 -267t-380.5 -96.5t-380.5 96.5t-274.5 267t-101 376.5zM360 711q0 -215 143 -360.5t357 -145.5q212 0 355 146t143 360
q0 213 -143.5 360.5t-354.5 147.5q-140 0 -255 -67t-180 -183.5t-65 -257.5z" />
    <glyph glyph-name="omacron" unicode="&#x14d;" horiz-adv-x="1298" 
d="M336 1194v174h633v-174h-633zM86 516q0 152 75.5 278t205.5 197.5t284 71.5t283 -71.5t204.5 -197.5t75.5 -278t-75.5 -278t-204.5 -197.5t-283 -71.5t-284 71.5t-205.5 197.5t-75.5 278zM334 516q0 -136 90.5 -228.5t226.5 -92.5q134 0 226 93t92 228t-92.5 228.5
t-225.5 93.5q-136 0 -226.5 -93t-90.5 -229z" />
    <glyph glyph-name="Obreve" unicode="&#x14e;" horiz-adv-x="1716" 
d="M866 1534q-141 0 -234.5 82.5t-111.5 208.5h191q37 -119 155 -119q116 0 156 119h188q-18 -125 -111.5 -208t-232.5 -83zM104 711q0 206 101 376.5t274.5 267.5t380.5 97t380.5 -97t274.5 -267.5t101 -376.5t-101 -376.5t-274.5 -267t-380.5 -96.5t-380.5 96.5
t-274.5 267t-101 376.5zM360 711q0 -215 143 -360.5t357 -145.5q212 0 355 146t143 360q0 213 -143.5 360.5t-354.5 147.5q-140 0 -255 -67t-180 -183.5t-65 -257.5z" />
    <glyph glyph-name="obreve" unicode="&#x14f;" horiz-adv-x="1298" 
d="M651 1139q-141 0 -235.5 83t-112.5 208h191q40 -119 157 -119q116 0 156 119h188q-18 -125 -111.5 -208t-232.5 -83zM86 516q0 152 75.5 278t205.5 197.5t284 71.5t283 -71.5t204.5 -197.5t75.5 -278t-75.5 -278t-204.5 -197.5t-283 -71.5t-284 71.5t-205.5 197.5
t-75.5 278zM334 516q0 -136 90.5 -228.5t226.5 -92.5q134 0 226 93t92 228t-92.5 228.5t-225.5 93.5q-136 0 -226.5 -93t-90.5 -229z" />
    <glyph glyph-name="Ohungarumlaut" unicode="&#x150;" horiz-adv-x="1716" 
d="M948 1526l142 297h264l-232 -297h-174zM598 1526l139 297h267l-230 -297h-176zM104 711q0 206 101 376.5t274.5 267.5t380.5 97t380.5 -97t274.5 -267.5t101 -376.5t-101 -376.5t-274.5 -267t-380.5 -96.5t-380.5 96.5t-274.5 267t-101 376.5zM360 711q0 -215 143 -360.5
t357 -145.5q212 0 355 146t143 360q0 213 -143.5 360.5t-354.5 147.5q-140 0 -255 -67t-180 -183.5t-65 -257.5z" />
    <glyph glyph-name="ohungarumlaut" unicode="&#x151;" horiz-adv-x="1298" 
d="M723 1130l137 297h266l-229 -297h-174zM373 1130l137 297h266l-229 -297h-174zM86 516q0 152 75.5 278t205.5 197.5t284 71.5t283 -71.5t204.5 -197.5t75.5 -278t-75.5 -278t-204.5 -197.5t-283 -71.5t-284 71.5t-205.5 197.5t-75.5 278zM334 516q0 -136 90.5 -228.5
t226.5 -92.5q134 0 226 93t92 228t-92.5 228.5t-225.5 93.5q-136 0 -226.5 -93t-90.5 -229z" />
    <glyph glyph-name="OE" unicode="&#x152;" horiz-adv-x="2246" 
d="M104 713q0 206 101 376t273.5 266.5t379.5 96.5q156 0 281.5 -59t206.5 -166v200h765v-233h-509v-338h471v-231h-471v-392h524v-233h-780v203q-78 -109 -204.5 -168.5t-283.5 -59.5q-207 0 -379.5 96t-273.5 266t-101 376zM365 713q0 -215 144.5 -360.5t358.5 -145.5
q139 0 255 66.5t182.5 183t66.5 256.5q0 213 -145.5 359.5t-358.5 146.5q-141 0 -256.5 -66.5t-181 -182.5t-65.5 -257z" />
    <glyph glyph-name="oe" unicode="&#x153;" horiz-adv-x="2082" 
d="M86 516q0 152 75.5 278t205.5 197.5t284 71.5q134 0 244.5 -58t179.5 -159q67 100 177.5 158.5t248.5 58.5q222 0 371 -156t149 -387q0 -34 -2 -67h-823q6 -123 89.5 -193t223.5 -70q185 0 295 113l152 -151q-183 -183 -457 -183q-144 0 -253.5 54t-172.5 155
q-70 -98 -179.5 -153.5t-242.5 -55.5q-154 0 -284 71.5t-205.5 197.5t-75.5 278zM1204 627h565q-17 100 -95 163.5t-185 63.5q-109 0 -187.5 -63t-97.5 -164zM334 516q0 -136 90.5 -228.5t226.5 -92.5q134 0 226 93t92 228t-92.5 228.5t-225.5 93.5q-136 0 -226.5 -93
t-90.5 -229z" />
    <glyph glyph-name="Racute" unicode="&#x154;" horiz-adv-x="1347" 
d="M528 1526l103 297h280l-198 -297h-185zM180 0v1427h557q126 0 232.5 -58.5t169.5 -163t63 -230.5q0 -139 -71.5 -248.5t-188.5 -157.5l346 -569h-293l-303 506h-4h-250v-506h-258zM438 737h273q104 0 168.5 65.5t64.5 168.5q0 97 -60.5 160t-152.5 63h-293v-457z" />
    <glyph glyph-name="racute" unicode="&#x155;" horiz-adv-x="843" 
d="M283 1130l104 297h281l-199 -297h-186zM131 0v1032h248v-153q37 81 117.5 127.5t189.5 46.5q44 0 74 -6v-240q-48 10 -103 10q-128 0 -203 -74.5t-75 -201.5v-541h-248z" />
    <glyph glyph-name="Rcommaaccent" unicode="&#x156;" horiz-adv-x="1347" 
d="M180 0v1427h557q126 0 232.5 -58.5t169.5 -163t63 -230.5q0 -139 -71.5 -248.5t-188.5 -157.5l346 -569h-293l-303 506h-4h-250v-506h-258zM438 737h273q104 0 168.5 65.5t64.5 168.5q0 97 -60.5 160t-152.5 63h-293v-457zM473 -395l105 297h280l-199 -297h-186z" />
    <glyph glyph-name="rcommaaccent" unicode="&#x157;" horiz-adv-x="843" 
d="M129 -98h281l-199 -297h-186zM129 0v1032h248v-153q37 81 117.5 127.5t189.5 46.5q44 0 74 -6v-240q-48 10 -103 10q-128 0 -203 -74.5t-75 -201.5v-541h-248z" />
    <glyph glyph-name="Rcaron" unicode="&#x158;" horiz-adv-x="1347" 
d="M647 1513l-371 310h240l131 -129l131 129h236zM180 0v1427h557q126 0 232.5 -58.5t169.5 -163t63 -230.5q0 -139 -71.5 -248.5t-188.5 -157.5l346 -569h-293l-303 506h-4h-250v-506h-258zM438 737h273q104 0 168.5 65.5t64.5 168.5q0 97 -60.5 160t-152.5 63h-293v-457z
" />
    <glyph glyph-name="rcaron" unicode="&#x159;" horiz-adv-x="843" 
d="M428 1124l-369 310h240l129 -129l131 129h240zM129 0v1032h248v-153q37 81 117.5 127.5t189.5 46.5q44 0 74 -6v-240q-48 10 -103 10q-128 0 -203 -74.5t-75 -201.5v-541h-248z" />
    <glyph glyph-name="Sacute" unicode="&#x15a;" horiz-adv-x="1208" 
d="M498 1526l106 297h281l-199 -297h-188zM66 301l194 123q52 -101 142.5 -159t215.5 -58q70 0 120 18.5t74.5 48t35 58.5t10.5 59q0 38 -15 69t-36.5 53t-64.5 45.5t-78 38t-99 38.5q-78 29 -131.5 54t-109.5 62.5t-89.5 79.5t-55 102t-21.5 134q0 115 60.5 203.5t161 135
t222.5 46.5q292 0 440 -231l-182 -127q-81 127 -254 127q-84 0 -139 -42.5t-55 -107.5q0 -24 6 -44.5t14.5 -36t27.5 -31t34.5 -25.5t47.5 -24.5t54 -23t67 -26t74 -29.5q202 -81 290.5 -178t88.5 -256q0 -189 -128.5 -305.5t-371.5 -116.5q-200 0 -341 87t-209 239z" />
    <glyph glyph-name="sacute" unicode="&#x15b;" horiz-adv-x="966" 
d="M356 1130l107 297h280l-200 -297h-187zM51 180l160 137q34 -56 105.5 -92.5t166.5 -36.5q96 0 139.5 32.5t43.5 78.5q0 18 -6.5 33t-22 27.5t-32 22t-44.5 20.5t-51 18.5t-61.5 20t-65.5 22.5q-124 45 -189 112t-65 179q0 96 51 167.5t133.5 106.5t182.5 35
q218 0 335 -152l-139 -147q-68 86 -200 86q-58 0 -90.5 -25t-32.5 -65q0 -17 4.5 -29.5t17 -24t25.5 -19t38.5 -18t46 -17.5t59.5 -20t69 -24q144 -52 210 -124t66 -183q0 -143 -108 -235.5t-318 -92.5q-156 0 -266 56t-162 151z" />
    <glyph glyph-name="Scircumflex" unicode="&#x15c;" horiz-adv-x="1208" 
d="M244 1554l368 320l371 -320h-238l-133 136l-129 -136h-239zM66 301l194 123q52 -101 142.5 -159t215.5 -58q70 0 120 18.5t74.5 48t35 58.5t10.5 59q0 38 -15 69t-36.5 53t-64.5 45.5t-78 38t-99 38.5q-78 29 -131.5 54t-109.5 62.5t-89.5 79.5t-55 102t-21.5 134
q0 115 60.5 203.5t161 135t222.5 46.5q292 0 440 -231l-182 -127q-81 127 -254 127q-84 0 -139 -42.5t-55 -107.5q0 -24 6 -44.5t14.5 -36t27.5 -31t34.5 -25.5t47.5 -24.5t54 -23t67 -26t74 -29.5q202 -81 290.5 -178t88.5 -256q0 -189 -128.5 -305.5t-371.5 -116.5
q-200 0 -341 87t-209 239z" />
    <glyph glyph-name="scircumflex" unicode="&#x15d;" horiz-adv-x="966" 
d="M115 1159l368 311l369 -311h-238l-131 127l-131 -127h-237zM51 180l160 137q34 -56 105.5 -92.5t166.5 -36.5q96 0 139.5 32.5t43.5 78.5q0 18 -6.5 33t-22 27.5t-32 22t-44.5 20.5t-51 18.5t-61.5 20t-65.5 22.5q-124 45 -189 112t-65 179q0 96 51 167.5t133.5 106.5
t182.5 35q218 0 335 -152l-139 -147q-68 86 -200 86q-58 0 -90.5 -25t-32.5 -65q0 -17 4.5 -29.5t17 -24t25.5 -19t38.5 -18t46 -17.5t59.5 -20t69 -24q144 -52 210 -124t66 -183q0 -143 -108 -235.5t-318 -92.5q-156 0 -266 56t-162 151z" />
    <glyph glyph-name="Scedilla" unicode="&#x15e;" horiz-adv-x="1208" 
d="M66 301l194 123q52 -101 142.5 -159t215.5 -58q70 0 120 18.5t74.5 48t35 58.5t10.5 59q0 38 -15 69t-36.5 53t-64.5 45.5t-78 38t-99 38.5q-78 29 -131.5 54t-109.5 62.5t-89.5 79.5t-55 102t-21.5 134q0 115 60.5 203.5t161 135t222.5 46.5q292 0 440 -231l-182 -127
q-81 127 -254 127q-84 0 -139 -42.5t-55 -107.5q0 -24 6 -44.5t14.5 -36t27.5 -31t34.5 -25.5t47.5 -24.5t54 -23t67 -26t74 -29.5q202 -81 290.5 -178t88.5 -256q0 -180 -116.5 -295t-337.5 -125l-33 -71h2q57 0 96 -41.5t39 -108.5q0 -93 -62.5 -139.5t-171.5 -46.5
q-49 0 -98 15t-78 36l54 109q54 -31 102 -31q34 0 57 19t23 49q0 45 -31.5 61t-97.5 16h-2l57 138q-164 20 -279 103.5t-173 215.5z" />
    <glyph glyph-name="scedilla" unicode="&#x15f;" horiz-adv-x="966" 
d="M248 -379l53 109q54 -31 102 -31q34 0 57 19t23 49q0 44 -32 60.5t-97 16.5h-2l56 133q-128 12 -220.5 66.5t-136.5 136.5l160 137q34 -56 105.5 -92.5t166.5 -36.5q96 0 139.5 32.5t43.5 78.5q0 18 -6.5 33t-22 27.5t-32 22t-44.5 20.5t-51 18.5t-61.5 20t-65.5 22.5
q-124 45 -189 112t-65 179q0 96 51 167.5t133.5 106.5t182.5 35q218 0 335 -152l-139 -147q-68 86 -200 86q-58 0 -90.5 -25t-32.5 -65q0 -17 4.5 -29.5t17 -24t25.5 -19t38.5 -18t46 -17.5t59.5 -20t69 -24q144 -52 210 -124t66 -183q0 -129 -88.5 -218.5t-261.5 -105.5
l-35 -71h2q57 0 96 -41.5t39 -108.5q0 -93 -62 -139.5t-171 -46.5q-49 0 -98 15t-78 36z" />
    <glyph glyph-name="Scaron" unicode="&#x160;" horiz-adv-x="1208" 
d="M627 1513l-371 310h242l129 -129l129 129h239zM66 301l194 123q52 -101 142.5 -159t215.5 -58q70 0 120 18.5t74.5 48t35 58.5t10.5 59q0 38 -15 69t-36.5 53t-64.5 45.5t-78 38t-99 38.5q-78 29 -131.5 54t-109.5 62.5t-89.5 79.5t-55 102t-21.5 134q0 115 60.5 203.5
t161 135t222.5 46.5q292 0 440 -231l-182 -127q-81 127 -254 127q-84 0 -139 -42.5t-55 -107.5q0 -24 6 -44.5t14.5 -36t27.5 -31t34.5 -25.5t47.5 -24.5t54 -23t67 -26t74 -29.5q202 -81 290.5 -178t88.5 -256q0 -189 -128.5 -305.5t-371.5 -116.5q-200 0 -341 87t-209 239
z" />
    <glyph glyph-name="scaron" unicode="&#x161;" horiz-adv-x="966" 
d="M485 1124l-368 310h237l131 -129l129 129h240zM51 180l160 137q34 -56 105.5 -92.5t166.5 -36.5q96 0 139.5 32.5t43.5 78.5q0 18 -6.5 33t-22 27.5t-32 22t-44.5 20.5t-51 18.5t-61.5 20t-65.5 22.5q-124 45 -189 112t-65 179q0 96 51 167.5t133.5 106.5t182.5 35
q218 0 335 -152l-139 -147q-68 86 -200 86q-58 0 -90.5 -25t-32.5 -65q0 -17 4.5 -29.5t17 -24t25.5 -19t38.5 -18t46 -17.5t59.5 -20t69 -24q144 -52 210 -124t66 -183q0 -143 -108 -235.5t-318 -92.5q-156 0 -266 56t-162 151z" />
    <glyph glyph-name="Tcommaaccent" unicode="&#x162;" horiz-adv-x="1150" 
d="M451 0v1194h-388v233h1033v-233h-387v-1194h-258zM438 -98h283l-201 -297h-186z" />
    <glyph glyph-name="tcommaaccent" unicode="&#x163;" horiz-adv-x="663" 
d="M195 -98h280l-199 -297h-186zM127 432v995h248v-395h227v-225h-227v-356q0 -114 57 -168t158 -54h12v-233h-51q-56 0 -110 11t-112.5 41.5t-102 77.5t-71.5 126t-28 180z" />
    <glyph glyph-name="Tcaron" unicode="&#x164;" horiz-adv-x="1150" 
d="M578 1513l-371 310h239l132 -129l131 129h235zM451 0v1194h-388v233h1033v-233h-387v-1194h-258z" />
    <glyph glyph-name="tcaron" unicode="&#x165;" horiz-adv-x="808" 
d="M455 1130l104 297h281l-199 -297h-186zM127 432v995h248v-395h227v-225h-227v-356q0 -114 57 -168t158 -54h12v-233h-51q-56 0 -110 11t-112.5 41.5t-102 77.5t-71.5 126t-28 180z" />
    <glyph glyph-name="Tbar" unicode="&#x166;" horiz-adv-x="1150" 
d="M451 0v696h-238v213h238v285h-388v233h1033v-233h-387v-285h237v-213h-237v-696h-258z" />
    <glyph glyph-name="tbar" unicode="&#x167;" horiz-adv-x="667" 
d="M127 432v995h248v-395h227v-225h-227v-94h227v-209h-227v-55q3 -220 215 -220h12v-233h-51q-56 0 -110 11t-112.5 41.5t-102 77.5t-71.5 126t-28 180z" />
    <glyph glyph-name="Utilde" unicode="&#x168;" horiz-adv-x="1495" 
d="M381 1559q12 105 73.5 171t159.5 66q52 0 103.5 -20.5t96 -41t81.5 -20.5t59.5 19.5t32.5 64.5l143 -20q-29 -248 -237 -248q-54 0 -106 21t-97 42t-82 21q-70 0 -86 -72zM168 549v878h258v-852q0 -184 86 -274t238 -90q149 0 234 90t85 274v852h258v-878
q0 -140 -44.5 -250.5t-123.5 -180t-183 -105.5t-226 -36q-123 0 -228 36t-184.5 105.5t-124.5 180t-45 250.5z" />
    <glyph glyph-name="utilde" unicode="&#x169;" horiz-adv-x="1183" 
d="M217 1204q14 102 76 167t160 65q52 0 103 -21.5t95 -43t80 -21.5q37 0 59.5 20.5t32.5 65.5l146 -19q-33 -246 -242 -246q-53 0 -104.5 21.5t-95.5 43t-81 21.5q-70 0 -86 -71zM119 410v622h250v-602q0 -115 61 -172t162 -57t162 57.5t61 173.5v600h250v-616
q0 -109 -37.5 -195t-103.5 -139.5t-151 -81t-183 -27.5t-182 27.5t-149 80t-102.5 137.5t-37.5 192z" />
    <glyph glyph-name="Umacron" unicode="&#x16a;" horiz-adv-x="1495" 
d="M434 1561v174h631v-174h-631zM168 549v878h258v-852q0 -184 86 -274t238 -90q149 0 234 90t85 274v852h258v-878q0 -140 -44.5 -250.5t-123.5 -180t-183 -105.5t-226 -36q-123 0 -228 36t-184.5 105.5t-124.5 180t-45 250.5z" />
    <glyph glyph-name="umacron" unicode="&#x16b;" horiz-adv-x="1183" 
d="M276 1194v174h631v-174h-631zM119 410v622h250v-602q0 -115 61 -172t162 -57t162 57.5t61 173.5v600h250v-616q0 -109 -37.5 -195t-103.5 -139.5t-151 -81t-183 -27.5t-182 27.5t-149 80t-102.5 137.5t-37.5 192z" />
    <glyph glyph-name="Ubreve" unicode="&#x16c;" horiz-adv-x="1495" 
d="M750 1534q-142 0 -236.5 82.5t-112.5 208.5h191q40 -119 158 -119q115 0 155 119h189q-18 -125 -111.5 -208t-232.5 -83zM168 549v878h258v-852q0 -184 86 -274t238 -90q149 0 234 90t85 274v852h258v-878q0 -140 -44.5 -250.5t-123.5 -180t-183 -105.5t-226 -36
q-123 0 -228 36t-184.5 105.5t-124.5 180t-45 250.5z" />
    <glyph glyph-name="ubreve" unicode="&#x16d;" horiz-adv-x="1183" 
d="M594 1139q-139 0 -233.5 83t-112.5 208h188q40 -119 158 -119q116 0 156 119h188q-18 -125 -111.5 -208t-232.5 -83zM119 410v622h250v-602q0 -115 61 -172t162 -57t162 57.5t61 173.5v600h250v-616q0 -109 -37.5 -195t-103.5 -139.5t-151 -81t-183 -27.5t-182 27.5
t-149 80t-102.5 137.5t-37.5 192z" />
    <glyph glyph-name="Uring" unicode="&#x16e;" horiz-adv-x="1495" 
d="M750 1456q-96 0 -165 64.5t-69 156.5t69 158t165 66q94 0 161.5 -66t67.5 -158t-67 -156.5t-162 -64.5zM750 1591q35 0 60.5 25.5t25.5 60.5q0 34 -25.5 59t-60.5 25q-34 0 -60 -25t-26 -59q0 -35 26 -60.5t60 -25.5zM168 549v878h258v-852q0 -184 86 -274t238 -90
q149 0 234 90t85 274v852h258v-878q0 -140 -44.5 -250.5t-123.5 -180t-183 -105.5t-226 -36q-123 0 -228 36t-184.5 105.5t-124.5 180t-45 250.5z" />
    <glyph glyph-name="uring" unicode="&#x16f;" horiz-adv-x="1183" 
d="M594 1081q-96 0 -164 65.5t-68 158.5q0 91 68 157t164 66q93 0 160 -66t67 -157q0 -93 -66 -158.5t-161 -65.5zM594 1221q34 0 59 25t25 59q0 33 -25 57t-59 24q-35 0 -60.5 -23.5t-25.5 -57.5t25.5 -59t60.5 -25zM119 410v622h250v-602q0 -115 61 -172t162 -57t162 57.5
t61 173.5v600h250v-616q0 -109 -37.5 -195t-103.5 -139.5t-151 -81t-183 -27.5t-182 27.5t-149 80t-102.5 137.5t-37.5 192z" />
    <glyph glyph-name="Uhungarumlaut" unicode="&#x170;" horiz-adv-x="1495" 
d="M827 1526l138 297h268l-234 -297h-172zM475 1526l137 297h269l-230 -297h-176zM168 549v878h258v-852q0 -184 86 -274t238 -90q149 0 234 90t85 274v852h258v-878q0 -140 -44.5 -250.5t-123.5 -180t-183 -105.5t-226 -36q-123 0 -228 36t-184.5 105.5t-124.5 180
t-45 250.5z" />
    <glyph glyph-name="uhungarumlaut" unicode="&#x171;" horiz-adv-x="1183" 
d="M659 1130l138 297h268l-231 -297h-175zM307 1130l139 297h267l-230 -297h-176zM119 410v622h250v-602q0 -115 61 -172t162 -57t162 57.5t61 173.5v600h250v-616q0 -109 -37.5 -195t-103.5 -139.5t-151 -81t-183 -27.5t-182 27.5t-149 80t-102.5 137.5t-37.5 192z" />
    <glyph glyph-name="Uogonek" unicode="&#x172;" horiz-adv-x="1495" 
d="M168 549v878h258v-852q0 -184 86 -274t238 -90q149 0 234 90t85 274v852h258v-878q0 -312 -213 -467q-19 -14 -58 -37t-71 -43t-65 -46.5t-51.5 -59t-18.5 -68.5q0 -41 28.5 -62.5t73.5 -21.5q57 0 119 27l-33 -164q-60 -29 -116 -29q-97 0 -169.5 57.5t-72.5 151.5
q0 107 113 193q-15 -3 -43 -3q-123 0 -228 36t-184.5 105.5t-124.5 180t-45 250.5z" />
    <glyph glyph-name="uogonek" unicode="&#x173;" horiz-adv-x="1183" 
d="M119 410v622h250v-602q0 -115 61 -172t162 -57t162 57.5t61 173.5v600h250v-614q0 -141 -62.5 -241t-185.5 -175q-35 -22 -56 -36.5t-52 -41t-46.5 -54.5t-15.5 -58q0 -39 29.5 -58.5t73.5 -19.5q62 0 118 24l-34 -161q-60 -29 -117 -29q-96 0 -169 57t-73 150
q0 60 35.5 112t87.5 86h-16q-95 0 -177.5 27.5t-147 80t-101.5 137.5t-37 192z" />
    <glyph glyph-name="Wcircumflex" unicode="&#x174;" horiz-adv-x="2025" 
d="M645 1554l369 320l368 -320h-237l-131 136l-129 -136h-240zM567 -55l-501 1482h264l282 -849l404 874l397 -872l287 847h262l-504 -1484l-442 960z" />
    <glyph glyph-name="wcircumflex" unicode="&#x175;" horiz-adv-x="1576" 
d="M418 1159l370 311l369 -311h-242l-127 127l-131 -127h-239zM463 -66l-424 1098h246l217 -577l289 602l284 -602l219 577h244l-424 -1098l-323 668z" />
    <glyph glyph-name="Ycircumflex" unicode="&#x176;" horiz-adv-x="1400" 
d="M334 1554l366 320l371 -320h-240l-131 136l-129 -136h-237zM575 0v553l-516 874h281l365 -626l364 626h277l-515 -874v-553h-256z" />
    <glyph glyph-name="ycircumflex" unicode="&#x177;" horiz-adv-x="1171" 
d="M233 1159l369 311l371 -311h-240l-131 127l-129 -127h-240zM258 -221h45q56 0 90 22q35 21 60 86l26 74l-434 1071h252l301 -776l285 776h250l-463 -1200q-49 -131 -113 -192q-84 -78 -248 -78h-51v217z" />
    <glyph glyph-name="Ydieresis" unicode="&#x178;" horiz-adv-x="1400" 
d="M913 1513q-53 0 -91 37t-38 90q0 52 38 90.5t91 38.5t92 -38t39 -91t-39 -90t-92 -37zM489 1513q-54 0 -92.5 36.5t-38.5 90.5q0 53 38.5 91t92.5 38q53 0 91 -37.5t38 -91.5q0 -53 -38 -90t-91 -37zM575 0v553l-516 874h281l365 -626l364 626h277l-515 -874v-553h-256z
" />
    <glyph glyph-name="Zacute" unicode="&#x179;" horiz-adv-x="1368" 
d="M635 1526l106 297h281l-199 -297h-188zM61 0l805 1194h-655v233h1094l-803 -1194h772v-233h-1213z" />
    <glyph glyph-name="zacute" unicode="&#x17a;" horiz-adv-x="1110" 
d="M451 1130l106 297h281l-201 -297h-186zM8 0l617 811h-512v221h946l-615 -811h586v-221h-1022z" />
    <glyph glyph-name="Zdotaccent" unicode="&#x17b;" horiz-adv-x="1368" 
d="M770 1538q-56 0 -95.5 37t-39.5 92q0 54 39.5 90.5t95.5 36.5q53 0 92 -37t39 -90q0 -55 -39 -92t-92 -37zM61 0l805 1194h-655v233h1094l-803 -1194h772v-233h-1213z" />
    <glyph glyph-name="zdotaccent" unicode="&#x17c;" horiz-adv-x="1110" 
d="M590 1161q-54 0 -92.5 37.5t-38.5 91.5t38.5 91.5t92.5 37.5t92.5 -37.5t38.5 -91.5t-38.5 -91.5t-92.5 -37.5zM8 0l617 811h-512v221h946l-615 -811h586v-221h-1022z" />
    <glyph glyph-name="Zcaron" unicode="&#x17d;" horiz-adv-x="1368" 
d="M768 1513l-369 310h238l131 -129l129 129h240zM61 0l805 1194h-655v233h1094l-803 -1194h772v-233h-1213z" />
    <glyph glyph-name="zcaron" unicode="&#x17e;" horiz-adv-x="1110" 
d="M575 1124l-368 310h237l131 -129l130 129h239zM8 0l617 811h-512v221h946l-615 -811h586v-221h-1022z" />
    <glyph glyph-name="florin" unicode="&#x192;" horiz-adv-x="913" 
d="M51 -207l201 922h-150l45 200h148q1 3 16 69t15 69q47 214 156 310.5t302 96.5q79 0 136 -14l-50 -221q-52 8 -114 8q-81 0 -123 -42.5t-62 -127.5q0 -3 -14.5 -74t-15.5 -74h202l-45 -200h-200l-197 -922h-250z" />
    <glyph glyph-name="Aringacute" unicode="&#x1fa;" horiz-adv-x="1538" 
d="M694 1858l105 296h280l-198 -296h-187zM63 0l623 1325q-64 25 -104.5 81.5t-40.5 125.5q0 91 68 156t163 65q94 0 160.5 -65t66.5 -156q0 -71 -40 -127t-105 -80l625 -1325h-277l-125 274h-614l-127 -274h-273zM772 1446q35 0 59.5 26t24.5 60q0 35 -24.5 59.5
t-59.5 24.5t-60.5 -24.5t-25.5 -59.5q0 -34 25.5 -60t60.5 -26zM561 498h418l-209 467z" />
    <glyph glyph-name="aringacute" unicode="&#x1fb;" horiz-adv-x="1304" 
d="M580 1640l104 297h283l-201 -297h-186zM676 1128q-97 0 -165.5 65t-68.5 157t68.5 156.5t165.5 64.5q93 0 160 -64.5t67 -156.5t-66.5 -157t-160.5 -65zM676 1266q34 0 58 25t24 59q0 35 -24 60.5t-58 25.5q-35 0 -61.5 -25.5t-26.5 -60.5q0 -34 26.5 -59t61.5 -25z
M86 516q0 150 68 274t186.5 194.5t261.5 70.5q126 0 214.5 -48.5t115.5 -123.5v149h248v-1032h-248v150q-27 -75 -115.5 -124t-214.5 -49q-143 0 -261.5 70.5t-186.5 194.5t-68 274zM334 516q0 -134 86.5 -223.5t216.5 -89.5q132 0 222.5 90t90.5 223t-90.5 223t-222.5 90
q-130 0 -216.5 -89.5t-86.5 -223.5z" />
    <glyph glyph-name="AEacute" unicode="&#x1fc;" horiz-adv-x="1927" 
d="M1036 1526l105 297h282l-200 -297h-187zM-35 0l1129 1427h698v-233h-508v-338h469v-233h-469v-390h524v-233h-778v283h-543l-221 -283h-301zM655 496h375v485z" />
    <glyph glyph-name="aeacute" unicode="&#x1fd;" horiz-adv-x="1843" 
d="M817 1130l105 297h282l-198 -297h-189zM88 289q0 154 104.5 244t305.5 90h100q101 0 138.5 26t37.5 76q0 38 -18.5 64t-50 38.5t-62 17.5t-65.5 5q-167 0 -277 -133l-149 127q73 105 181.5 160t241.5 55q124 0 218 -44.5t129 -119.5q66 78 156.5 121t195.5 43
q210 0 349.5 -154t139.5 -385q0 -34 -4 -65h-766q6 -124 86 -196.5t213 -72.5q85 0 145 29t119 90l150 -145q-95 -102 -196.5 -144.5t-221.5 -42.5q-248 0 -385 170q-125 -172 -428 -172q-181 0 -284 87t-103 231zM330 311q0 -65 43 -94t131 -29q128 0 199 49.5t71 133.5v57
v37q-30 -18 -106 -21l-117 -4q-51 -3 -87 -9t-68.5 -19.5t-49 -38.5t-16.5 -62zM1001 631h512q-12 98 -78.5 160.5t-160.5 62.5q-104 0 -180 -63t-93 -160z" />
    <glyph glyph-name="Oslashacute" unicode="&#x1fe;" horiz-adv-x="1716" 
d="M778 1526l105 297h280l-198 -297h-187zM217 27l115 151q-108 100 -168 238t-60 295q0 206 101 376.5t274.5 267.5t380.5 97q192 0 373 -96l125 164l176 -131l-125 -164q98 -103 152.5 -234t54.5 -280q0 -206 -101 -376.5t-274.5 -267t-380.5 -96.5q-183 0 -350 82
l-121 -159zM485 373l602 790q-112 56 -227 56q-140 0 -255 -67t-180 -183.5t-65 -257.5q0 -201 125 -338zM659 248q87 -43 201 -43q212 0 355 146t143 360q0 181 -107 313z" />
    <glyph glyph-name="oslashacute" unicode="&#x1ff;" horiz-adv-x="1298" 
d="M571 1130l107 297h280l-198 -297h-189zM162 12l86 115q-162 159 -162 389q0 152 75.5 278t205.5 197.5t284 71.5q134 0 248 -57l84 110l150 -108l-82 -105q163 -157 163 -387q0 -152 -75.5 -278t-204.5 -197.5t-283 -71.5q-132 0 -250 56l-90 -121zM399 322l359 487
q-52 27 -107 27q-137 0 -228 -92.5t-91 -227.5q0 -115 67 -194zM545 221q43 -24 106 -24q135 0 227.5 92t92.5 227q0 109 -68 193z" />
    <glyph glyph-name="Scommaaccent" unicode="&#x218;" horiz-adv-x="1208" 
d="M66 301l194 123q52 -101 142.5 -159t215.5 -58q70 0 120 18.5t74.5 48t35 58.5t10.5 59q0 38 -15 69t-36.5 53t-64.5 45.5t-78 38t-99 38.5q-78 29 -131.5 54t-109.5 62.5t-89.5 79.5t-55 102t-21.5 134q0 115 60.5 203.5t161 135t222.5 46.5q292 0 440 -231l-182 -127
q-81 127 -254 127q-84 0 -139 -42.5t-55 -107.5q0 -24 6 -44.5t14.5 -36t27.5 -31t34.5 -25.5t47.5 -24.5t54 -23t67 -26t74 -29.5q202 -81 290.5 -178t88.5 -256q0 -189 -128.5 -305.5t-371.5 -116.5q-200 0 -341 87t-209 239zM367 -395l104 297h281l-199 -297h-186z" />
    <glyph glyph-name="scommaaccent" unicode="&#x219;" horiz-adv-x="966" 
d="M51 180l160 137q34 -56 105.5 -92.5t166.5 -36.5q96 0 139.5 32.5t43.5 78.5q0 18 -6.5 33t-22 27.5t-32 22t-44.5 20.5t-51 18.5t-61.5 20t-65.5 22.5q-124 45 -189 112t-65 179q0 96 51 167.5t133.5 106.5t182.5 35q218 0 335 -152l-139 -147q-68 86 -200 86
q-58 0 -90.5 -25t-32.5 -65q0 -17 4.5 -29.5t17 -24t25.5 -19t38.5 -18t46 -17.5t59.5 -20t69 -24q144 -52 210 -124t66 -183q0 -143 -108 -235.5t-318 -92.5q-156 0 -266 56t-162 151zM213 -395l106 297h281l-199 -297h-188z" />
    <glyph glyph-name="circumflex" unicode="&#x2c6;" horiz-adv-x="1210" 
d="M238 1159l366 311l371 -311h-240l-131 127l-129 -127h-237z" />
    <glyph glyph-name="caron" unicode="&#x2c7;" horiz-adv-x="1210" 
d="M604 1124l-366 310h235l131 -129l131 129h238z" />
    <glyph glyph-name="breve" unicode="&#x2d8;" horiz-adv-x="1206" 
d="M602 1145q-130 0 -217.5 79.5t-105.5 202.5h186q28 -106 137 -106q105 0 141 106h183q-15 -123 -104 -202.5t-220 -79.5z" />
    <glyph glyph-name="dotaccent" unicode="&#x2d9;" horiz-adv-x="1107" 
d="M557 1161q-56 0 -95.5 37.5t-39.5 91.5t39.5 91.5t95.5 37.5q54 0 93.5 -37.5t39.5 -91.5t-39.5 -91.5t-93.5 -37.5z" />
    <glyph glyph-name="ring" unicode="&#x2da;" horiz-adv-x="761" 
d="M381 1081q-97 0 -165.5 66t-68.5 158q0 91 69 157t165 66q92 0 158.5 -66t66.5 -157q0 -93 -66 -158.5t-159 -65.5zM381 1221q34 0 58 25t24 59t-24 57.5t-58 23.5q-36 0 -62 -24t-26 -57q0 -34 26.5 -59t61.5 -25z" />
    <glyph glyph-name="ogonek" unicode="&#x2db;" horiz-adv-x="1107" 
d="M348 -223q0 128 154 223h164q-148 -96 -148 -186q0 -39 30 -59.5t73 -20.5q58 0 118 26l-34 -161q-60 -29 -117 -29q-96 0 -168 57t-72 150z" />
    <glyph glyph-name="tilde" unicode="&#x2dc;" horiz-adv-x="1175" 
d="M215 1229q12 103 75.5 168t160.5 65q52 0 102.5 -21.5t95.5 -43t82 -21.5q36 0 58 20.5t34 65.5l142 -18q-30 -246 -238 -246q-54 0 -105.5 21t-96.5 42t-81 21q-70 0 -86 -72z" />
    <glyph glyph-name="hungarumlaut" unicode="&#x2dd;" horiz-adv-x="1179" 
d="M610 1130l138 297h268l-230 -297h-176zM258 1130l139 297h267l-230 -297h-176z" />
    <glyph glyph-name="pi" unicode="&#x3c0;" horiz-adv-x="1282" 
d="M262 0q85 192 117.5 368t32.5 439h-35q-93 0 -135 -98l-179 98q42 101 133.5 163t204.5 62h859l-56 -225h-119v-498q0 -56 21.5 -74t77.5 -18v-215q-42 -10 -105 -10q-241 0 -241 291v524h-168q-15 -605 -146 -807h-262z" />
    <glyph glyph-name="Wgrave" unicode="&#x1e80;" horiz-adv-x="2025" 
d="M958 1526l-198 297h280l107 -297h-189zM567 -55l-501 1482h264l282 -849l404 874l397 -872l287 847h262l-504 -1484l-442 960z" />
    <glyph glyph-name="wgrave" unicode="&#x1e81;" horiz-adv-x="1576" 
d="M748 1130l-199 297h282l105 -297h-188zM463 -66l-424 1098h246l217 -577l289 602l284 -602l219 577h244l-424 -1098l-323 668z" />
    <glyph glyph-name="Wacute" unicode="&#x1e82;" horiz-adv-x="2025" 
d="M883 1526l106 297h281l-199 -297h-188zM567 -55l-501 1482h264l282 -849l404 874l397 -872l287 847h262l-504 -1484l-442 960z" />
    <glyph glyph-name="wacute" unicode="&#x1e83;" horiz-adv-x="1576" 
d="M662 1130l104 297h281l-197 -297h-188zM463 -66l-424 1098h246l217 -577l289 602l284 -602l219 577h244l-424 -1098l-323 668z" />
    <glyph glyph-name="Wdieresis" unicode="&#x1e84;" horiz-adv-x="2025" 
d="M1227 1516q-53 0 -91 36t-38 88q0 54 38 91.5t91 37.5t92 -38t39 -91q0 -52 -39 -88t-92 -36zM803 1516q-55 0 -94 36t-39 88q0 54 39.5 91.5t93.5 37.5q53 0 91 -37.5t38 -91.5q0 -52 -38 -88t-91 -36zM567 -55l-501 1482h264l282 -849l404 874l397 -872l287 847h262
l-504 -1484l-442 960z" />
    <glyph glyph-name="wdieresis" unicode="&#x1e85;" horiz-adv-x="1576" 
d="M1004 1161q-56 0 -95 36.5t-39 90.5t39 90.5t95 36.5q53 0 91 -37t38 -90t-38 -90t-91 -37zM578 1161q-54 0 -93 36.5t-39 90.5t39 90.5t93 36.5q53 0 91 -37t38 -90t-38 -90t-91 -37zM463 -66l-424 1098h246l217 -577l289 602l284 -602l219 577h244l-424 -1098l-323 668
z" />
    <glyph glyph-name="Ygrave" unicode="&#x1ef2;" horiz-adv-x="1400" 
d="M641 1526l-201 297h281l104 -297h-184zM575 0v553l-516 874h281l365 -626l364 626h277l-515 -874v-553h-256z" />
    <glyph glyph-name="ygrave" unicode="&#x1ef3;" horiz-adv-x="1171" 
d="M537 1130l-199 297h283l106 -297h-190zM258 -221h45q56 0 90 22q35 21 60 86l26 74l-434 1071h252l301 -776l285 776h250l-463 -1200q-49 -131 -113 -192q-84 -78 -248 -78h-51v217z" />
    <glyph glyph-name="endash" unicode="&#x2013;" horiz-adv-x="1089" 
d="M102 446v228h887v-228h-887z" />
    <glyph glyph-name="emdash" unicode="&#x2014;" horiz-adv-x="1533" 
d="M102 446v228h1330v-228h-1330z" />
    <glyph glyph-name="quoteleft" unicode="&#x2018;" horiz-adv-x="509" 
d="M45 922l264 505h189l-187 -505h-266z" />
    <glyph glyph-name="quoteright" unicode="&#x2019;" horiz-adv-x="520" 
d="M37 922l186 505h266l-264 -505h-188z" />
    <glyph glyph-name="quotesinglbase" unicode="&#x201a;" horiz-adv-x="495" 
d="M141 227h265l-259 -489h-188z" />
    <glyph glyph-name="quotedblleft" unicode="&#x201c;" horiz-adv-x="872" 
d="M410 922l262 505h190l-188 -505h-264zM45 922l264 505h189l-187 -505h-266z" />
    <glyph glyph-name="quotedblright" unicode="&#x201d;" horiz-adv-x="882" 
d="M399 922l189 505h264l-264 -505h-189zM37 922l186 505h266l-264 -505h-188z" />
    <glyph glyph-name="quotedblbase" unicode="&#x201e;" horiz-adv-x="849" 
d="M322 -262l182 489h266l-258 -489h-190zM-41 -262l182 489h265l-259 -489h-188z" />
    <glyph glyph-name="dagger" unicode="&#x2020;" horiz-adv-x="667" 
d="M242 616l10 465l-166 -6v174l162 -6l-6 184h184l-6 -184l162 6v-174l-166 6l10 -465h-184z" />
    <glyph glyph-name="daggerdbl" unicode="&#x2021;" horiz-adv-x="667" 
d="M242 616l6 181l-162 -6v170l166 -7v136l-166 -7v170l162 -6l-6 180h184l-6 -180l162 6v-170l-166 7v-136l166 7v-170l-162 6l6 -181h-184z" />
    <glyph glyph-name="bullet" unicode="&#x2022;" horiz-adv-x="702" 
d="M352 301q-87 0 -151 63.5t-64 153.5t64 152.5t151 62.5t151 -62.5t64 -152.5q0 -92 -62.5 -154.5t-152.5 -62.5z" />
    <glyph glyph-name="ellipsis" unicode="&#x2026;" horiz-adv-x="1290" 
d="M920 125q0 59 42 100t101 41q58 0 100.5 -41t42.5 -100t-42.5 -100t-100.5 -41q-59 0 -101 41t-42 100zM504 125q0 59 42.5 100t100.5 41q59 0 101.5 -41t42.5 -100t-42.5 -100t-101.5 -41q-58 0 -100.5 41t-42.5 100zM88 125q0 59 43.5 100t101.5 41t100 -41t42 -100
t-42 -100t-100 -41t-101.5 41t-43.5 100z" />
    <glyph glyph-name="perthousand" unicode="&#x2030;" horiz-adv-x="2355" 
d="M408 821q-134 0 -229 92t-95 224t95 224.5t229 92.5q135 0 230 -92.5t95 -224.5t-95 -224t-230 -92zM199 0l956 1427h231l-954 -1427h-233zM408 997q55 0 94 40.5t39 99.5q0 58 -39.5 99.5t-93.5 41.5q-55 0 -93.5 -41t-38.5 -100q0 -60 38 -100t94 -40zM1628 291
q0 132 94 223.5t228 91.5q135 0 229 -91.5t94 -223.5t-94 -225t-229 -93q-134 0 -228 93t-94 225zM854 291q0 131 95 223t229 92q135 0 229 -91.5t94 -223.5t-94 -225t-229 -93q-134 0 -229 93t-95 225zM1819 291q0 -60 37.5 -100.5t93.5 -40.5t94.5 40.5t38.5 100.5
q0 58 -38.5 98.5t-94.5 40.5q-55 0 -93 -40t-38 -99zM1047 291q0 -60 37.5 -100.5t93.5 -40.5t95.5 40.5t39.5 100.5q0 58 -39.5 98.5t-95.5 40.5q-55 0 -93 -40t-38 -99z" />
    <glyph glyph-name="guilsinglleft" unicode="&#x2039;" horiz-adv-x="669" 
d="M328 145l-238 373l238 373h256l-242 -373l242 -373h-256z" />
    <glyph glyph-name="guilsinglright" unicode="&#x203a;" horiz-adv-x="669" 
d="M88 145l242 373l-242 373h256l238 -373l-238 -373h-256z" />
    <glyph glyph-name="fraction" unicode="&#x2044;" horiz-adv-x="1167" 
d="M-8 0l954 1427h232l-953 -1427h-233z" />
    <glyph glyph-name="zerosuperior" unicode="&#x2070;" horiz-adv-x="786" 
d="M111 895q-2 33 -2 156q0 122 2 153q12 102 93 170t191 68q109 0 190 -68.5t93 -169.5q2 -31 2 -153q-2 -86 -2 -156q-12 -100 -93.5 -169t-189.5 -69q-110 0 -191 69t-93 169zM287 913q6 -43 36.5 -69.5t71.5 -26.5q39 0 70 27t37 69q2 25 2 138q0 42 -1 84t-1 49
q-6 42 -37.5 69t-69.5 27q-41 0 -71.5 -26.5t-36.5 -69.5q-2 -25 -2 -133q0 -113 2 -138z" />
    <glyph glyph-name="foursuperior" unicode="&#x2074;" horiz-adv-x="765" 
d="M485 670v137h-442l279 620h176l-215 -471h202v152h166v-438h-166z" />
    <glyph glyph-name="fivesuperior" unicode="&#x2075;" horiz-adv-x="714" 
d="M340 657q-93 0 -170 45.5t-121 120.5l141 82q19 -36 56 -59t76 -23q52 0 88 31t36 80q0 55 -40.5 86t-106.5 31q-89 0 -190 -33l63 409h403v-163h-266l-16 -95q32 9 78 9q106 0 181 -74t75 -178q0 -110 -84.5 -189.5t-202.5 -79.5z" />
    <glyph glyph-name="sixsuperior" unicode="&#x2076;" horiz-adv-x="759" 
d="M381 657q-123 0 -208 80.5t-85 196.5q0 42 16.5 86.5t33.5 73t57 88.5l161 245h203l-162 -233h25q101 0 175.5 -76t74.5 -182q0 -117 -84.5 -198t-206.5 -81zM381 817q47 0 82 35t35 82t-35 82t-82 35q-51 0 -85 -33.5t-34 -83.5t34.5 -83.5t84.5 -33.5z" />
    <glyph glyph-name="sevensuperior" unicode="&#x2077;" horiz-adv-x="733" 
d="M162 672l282 592h-342v163h594l-354 -755h-180z" />
    <glyph glyph-name="eightsuperior" unicode="&#x2078;" horiz-adv-x="759" 
d="M383 657q-122 0 -205.5 75.5t-83.5 182.5q0 61 32 114t81 79q-57 41 -57 117q0 91 67.5 154t165.5 63q97 0 164 -63t67 -154q0 -76 -57 -117q49 -26 81 -79t32 -114q0 -107 -83 -182.5t-204 -75.5zM383 1143q31 0 51.5 22t20.5 54q0 29 -20.5 50t-51.5 21
q-32 0 -53 -20.5t-21 -50.5q0 -32 21 -54t53 -22zM383 817q44 0 76.5 31t32.5 74q0 44 -32.5 76t-76.5 32q-46 0 -78.5 -32t-32.5 -76q0 -43 32.5 -74t78.5 -31z" />
    <glyph glyph-name="ninesuperior" unicode="&#x2079;" horiz-adv-x="763" 
d="M199 672l170 241q-13 -2 -25 -2q-99 0 -174.5 75t-75.5 183q0 113 86 193t207 80q118 0 201.5 -79t83.5 -192q0 -60 -25 -113t-80 -134l-168 -252h-200zM387 1055q51 0 83 33t32 81q0 47 -34.5 80t-80.5 33q-49 0 -83 -33t-34 -80t34 -80.5t83 -33.5z" />
    <glyph glyph-name="zero.inferior" unicode="&#x2080;" horiz-adv-x="786" 
d="M111 223q-2 33 -2 156q0 122 2 153q12 102 93 170t191 68q109 0 190 -68.5t93 -169.5q2 -31 2 -153q-2 -86 -2 -156q-12 -100 -93.5 -168.5t-189.5 -68.5q-110 0 -191 68.5t-93 168.5zM287 242q6 -43 36.5 -70t71.5 -27q39 0 70 27.5t37 69.5q2 25 2 137q0 42 -1 84
t-1 49q-6 42 -37.5 69t-69.5 27q-41 0 -71.5 -26.5t-36.5 -69.5q-2 -25 -2 -133q0 -112 2 -137z" />
    <glyph glyph-name="one.inferior" unicode="&#x2081;" horiz-adv-x="522" 
d="M207 0v592h-119v164h289v-756h-170z" />
    <glyph glyph-name="two.inferior" unicode="&#x2082;" horiz-adv-x="722" 
d="M57 0l359 436q41 51 41 88q0 38 -24.5 64t-61.5 26q-38 0 -65 -32t-27 -76h-166q0 110 75.5 187t182.5 77q105 0 179.5 -69.5t74.5 -170.5q0 -89 -66 -165l-170 -199h256v-166h-588z" />
    <glyph glyph-name="three.inferior" unicode="&#x2083;" horiz-adv-x="743" 
d="M55 150l142 83q49 -83 143 -83q58 0 96.5 30t38.5 80q0 53 -39 84t-108 31q-81 0 -142 -17l183 234h-246v164h534l-211 -260q10 0 41 -9q74 -22 120 -85t46 -142q0 -118 -85.5 -196t-225.5 -78q-96 0 -172.5 45t-114.5 119z" />
    <glyph glyph-name="four.inferior" unicode="&#x2084;" horiz-adv-x="765" 
d="M43 137l279 621h176l-215 -471h202v151h166v-438h-166v137h-442z" />
    <glyph glyph-name="five.inferior" unicode="&#x2085;" horiz-adv-x="714" 
d="M49 152l141 81q19 -35 55.5 -58t76.5 -23q52 0 88 30.5t36 79.5q0 55 -40.5 86t-106.5 31q-89 0 -190 -33l63 410h403v-164h-266l-16 -94q28 8 78 8q106 0 181 -74t75 -178q0 -110 -84.5 -189t-202.5 -79q-93 0 -170 45.5t-121 120.5z" />
    <glyph glyph-name="six.inferior" unicode="&#x2086;" horiz-adv-x="759" 
d="M88 262q0 42 16.5 86.5t33.5 73t57 88.5l161 246h203l-162 -234h25q101 0 175.5 -76t74.5 -182q0 -117 -84.5 -197.5t-206.5 -80.5q-123 0 -208 80t-85 196zM262 262q0 -50 34.5 -83.5t84.5 -33.5q47 0 82 35t35 82t-35 82t-82 35q-51 0 -85 -33.5t-34 -83.5z" />
    <glyph glyph-name="seven.inferior" unicode="&#x2087;" horiz-adv-x="733" 
d="M162 0l282 592h-342v164h594l-354 -756h-180z" />
    <glyph glyph-name="eight.inferior" unicode="&#x2088;" horiz-adv-x="761" 
d="M94 244q0 61 32 113.5t81 78.5q-57 41 -57 117q0 91 67.5 154t165.5 63q97 0 164 -63t67 -154q0 -76 -57 -117q49 -26 81 -78.5t32 -113.5q0 -107 -83 -182.5t-204 -75.5q-122 0 -205.5 75.5t-83.5 182.5zM383 471q31 0 51.5 22t20.5 54q0 29 -20.5 50t-51.5 21
q-32 0 -53 -20.5t-21 -50.5q0 -32 21 -54t53 -22zM272 250q0 -43 32.5 -74t78.5 -31q44 0 76.5 31t32.5 74q0 44 -32.5 76t-76.5 32q-46 0 -78.5 -32t-32.5 -76z" />
    <glyph glyph-name="nine.inferior" unicode="&#x2089;" horiz-adv-x="749" 
d="M190 0l170 242q-12 -2 -24 -2q-99 0 -173.5 75t-74.5 183q0 113 85 192.5t206 79.5q118 0 202.5 -78.5t84.5 -191.5q0 -60 -25 -113.5t-80 -134.5l-168 -252h-203zM379 383q51 0 84 33.5t33 81.5q0 47 -34.5 79.5t-82.5 32.5q-49 0 -83 -32.5t-34 -79.5q0 -48 34 -81.5
t83 -33.5z" />
    <glyph glyph-name="Euro" unicode="&#x20ac;" horiz-adv-x="1591" 
d="M35 502l67 147h152q-2 20 -2 64q0 28 4 86h-180l65 147h135q69 226 254 366t418 140q153 0 288 -64.5t234 -177.5l-178 -153q-64 76 -153.5 119t-190.5 43q-133 0 -239.5 -74t-161.5 -199h518l-66 -147h-485q-8 -39 -8 -86q0 -44 6 -64h426l-68 -147h-335
q52 -134 162.5 -214.5t250.5 -80.5q105 0 197 44t158 122l178 -152q-99 -117 -237 -181.5t-296 -64.5q-242 0 -429.5 145.5t-250.5 381.5h-233z" />
    <glyph glyph-name="uni2113" unicode="&#x2113;" horiz-adv-x="1112" 
d="M100 217l-75 164q33 24 98 66.5t94 62.5v475q0 134 30 231t84 150.5t118.5 77.5t144.5 24q149 0 237.5 -101.5t88.5 -264.5q0 -189 -113 -355t-340 -337v-17q3 -205 188 -205q129 0 246 150l139 -141q-164 -234 -446 -234q-82 0 -150.5 27.5t-113.5 73.5t-71.5 104.5
t-31.5 122.5q-101 -62 -127 -74zM463 657q107 98 164 212t57 227q0 149 -104 149q-49 0 -83 -51.5t-34 -151.5v-385z" />
    <glyph glyph-name="uni2116" unicode="&#x2116;" horiz-adv-x="2590" 
d="M180 0v1481l891 -938v884h254v-1480l-891 927v-874h-254zM1550 971q0 185 132.5 309.5t320.5 124.5q187 0 320 -124.5t133 -309.5q0 -123 -61.5 -225t-165.5 -159t-226 -57q-188 0 -320.5 127t-132.5 314zM1792 971q0 -88 61 -152.5t150 -64.5t149 64.5t60 152.5
q0 85 -60 148t-149 63t-150 -63t-61 -148zM1571 172v221h872v-221h-872z" />
    <glyph glyph-name="trademark" unicode="&#x2122;" horiz-adv-x="1849" 
d="M854 668v759h109l335 -358l334 358h105v-759h-221v360l-218 -242l-223 242v-360h-221zM297 668v540h-227v219h686v-219h-226v-540h-233z" />
    <glyph glyph-name="Omega" unicode="&#x2126;" horiz-adv-x="1691" 
d="M121 0v233h194q-93 93 -145.5 222.5t-52.5 277.5q0 200 98 365.5t265.5 259.5t365.5 94q148 0 282 -55.5t231.5 -150.5t155.5 -229t58 -284q0 -148 -53 -277.5t-146 -222.5h197v-233h-653q71 43 136 102.5t126 141.5t98 191.5t37 228.5q0 155 -56.5 280.5t-164.5 200
t-248 74.5t-248 -74.5t-164.5 -200t-56.5 -280.5q0 -119 37 -228.5t98 -191.5t126 -141.5t136 -102.5h-653z" />
    <glyph glyph-name="estimated" unicode="&#x212e;" horiz-adv-x="1882" 
d="M420 209q106 -90 239.5 -140.5t282.5 -50.5q177 0 332 70t262 191h61q-115 -140 -287.5 -222t-369.5 -82q-171 0 -326.5 62t-268 167t-179 250t-66.5 304t66.5 304t179 249.5t268 166.5t326.5 62t326.5 -62t268.5 -166.5t180 -249.5t67 -304v-23h-1362v-526zM420 778
h1040v531q-222 186 -518 186q-149 0 -283 -50t-239 -140v-527z" />
    <glyph glyph-name="onethird" unicode="&#x2153;" horiz-adv-x="1603" 
d="M137 0l883 1427h227l-880 -1427h-230zM229 672v592h-116v163h288v-755h-172zM903 150l141 83q49 -83 144 -83q59 0 97 30t38 80q0 53 -38.5 84t-106.5 31q-83 0 -144 -17l183 234h-244v164h532l-209 -260q10 0 37 -9q75 -22 121.5 -85.5t46.5 -141.5q0 -118 -85.5 -196
t-225.5 -78q-96 0 -172.5 45t-114.5 119z" />
    <glyph glyph-name="twothirds" unicode="&#x2154;" horiz-adv-x="1765" 
d="M80 672l358 436q41 51 41 88q0 38 -25.5 64t-62.5 26t-63.5 -32t-26.5 -76h-166q0 110 75 187t181 77t181 -69.5t75 -170.5q0 -91 -65 -166l-172 -198h258v-166h-588zM336 0l881 1427h229l-883 -1427h-227zM1067 150l141 83q49 -83 144 -83q58 0 96.5 30t38.5 80
q0 53 -39.5 84t-108.5 31q-82 0 -143 -17l182 234h-243v164h534l-211 -260q10 0 41 -9q74 -22 120 -85t46 -142q0 -118 -85.5 -196t-227.5 -78q-94 0 -170 45t-115 119z" />
    <glyph glyph-name="arrowleft" unicode="&#x2190;" horiz-adv-x="1406" 
d="M580 14l-512 514l512 512l161 -159l-237 -236h819v-233h-819l237 -236z" />
    <glyph glyph-name="arrowup" unicode="&#x2191;" horiz-adv-x="1497" 
d="M623 0v768l-230 -236l-155 160l503 506l508 -506l-159 -160l-228 236v-768h-239z" />
    <glyph glyph-name="arrowright" unicode="&#x2192;" horiz-adv-x="1406" 
d="M84 412v233h819l-237 236l161 159l514 -512l-514 -514l-161 162l239 236h-821z" />
    <glyph glyph-name="arrowdown" unicode="&#x2193;" horiz-adv-x="1497" 
d="M238 358l155 160l230 -233v747h239v-747l228 233l159 -160l-508 -505z" />
    <glyph glyph-name="arrowboth" unicode="&#x2194;" horiz-adv-x="1957" 
d="M580 14l-512 514l512 512l161 -159l-237 -236h950l-237 236l161 159l514 -512l-514 -514l-161 162l239 236h-952l237 -236z" />
    <glyph glyph-name="arrowupdn" unicode="&#x2195;" horiz-adv-x="1497" 
d="M266 238l160 157l199 -200v698l-199 -203l-160 160l477 471l480 -471l-158 -160l-201 203v-698l201 200l158 -157l-480 -471z" />
    <glyph glyph-name="arrownorthwest" unicode="&#x2196;" horiz-adv-x="1497" 
d="M311 242v743h742v-229h-346l565 -563l-166 -166l-559 561v-346h-236z" />
    <glyph glyph-name="arrownortheast" unicode="&#x2197;" horiz-adv-x="1497" 
d="M227 193l566 563h-347v229h742v-743h-236v346l-561 -561z" />
    <glyph glyph-name="arrowsoutheast" unicode="&#x2198;" horiz-adv-x="1497" 
d="M498 55v230h346l-568 567l166 164l559 -559v344h236v-746h-739z" />
    <glyph glyph-name="arrowsouthwest" unicode="&#x2199;" horiz-adv-x="1497" 
d="M311 55v746h236v-344l559 559l166 -164l-565 -567h346v-230h-742z" />
    <glyph glyph-name="partialdiff" unicode="&#x2202;" horiz-adv-x="1140" 
d="M92 442q0 125 58.5 236t168 181.5t244.5 70.5q68 0 130.5 -25.5t97.5 -75.5v2q0 49 -6 97.5t-24 104.5t-46.5 98t-78.5 70t-114 28q-129 0 -207 -78l-145 166q31 27 50.5 41.5t68 42.5t112 42.5t138.5 14.5q138 0 244.5 -68t170.5 -200q82 -170 82 -428q0 -397 -141 -598
q-66 -91 -168 -143t-213 -52q-102 0 -184 39t-133 105.5t-78 150.5t-27 178zM340 424q0 -90 48.5 -155.5t139.5 -65.5q65 0 119 38.5t84 102.5q35 63 35 150q0 92 -55 152.5t-144 60.5q-90 0 -158.5 -77t-68.5 -206z" />
    <glyph glyph-name="Delta" unicode="&#x2206;" horiz-adv-x="1361" 
d="M57 0l627 1458l621 -1458h-1248zM395 227h576l-287 709z" />
    <glyph glyph-name="product" unicode="&#x220f;" horiz-adv-x="1456" 
d="M289 0v1198h-213v229h1308v-229h-213v-1198h-249v1198h-383v-1198h-250z" />
    <glyph glyph-name="summation" unicode="&#x2211;" horiz-adv-x="1224" 
d="M45 0l508 750l-485 677h1026v-239h-598l333 -453l-348 -502h635v-233h-1071z" />
    <glyph glyph-name="minus" unicode="&#x2212;" horiz-adv-x="1005" 
d="M111 604v217h788v-217h-788z" />
    <glyph glyph-name="radical" unicode="&#x221a;" horiz-adv-x="1466" 
d="M141 567l-73 170l385 162l276 -641l447 1380h231l-649 -1980l-428 991z" />
    <glyph glyph-name="infinity" unicode="&#x221e;" horiz-adv-x="1705" 
d="M459 311q-157 0 -258 99.5t-101 251.5q0 145 108 250.5t269 105.5q47 0 93 -14.5t77.5 -31t75 -52.5t63 -55.5t62.5 -63.5q94 101 190.5 159t214.5 58q155 0 255 -99t100 -257q0 -141 -109 -246t-270 -105q-55 0 -104 16t-97.5 52t-78 63t-81.5 80q-98 -98 -195 -154.5
t-214 -56.5zM993 657q63 -63 114.5 -98t106.5 -35q67 0 110.5 40t43.5 98q0 66 -41.5 105.5t-107.5 39.5q-31 0 -61.5 -12.5t-61 -37.5t-52.5 -46t-51 -54zM496 524q38 0 82.5 26t73 53t69.5 71q-129 133 -221 133q-70 0 -115 -41.5t-45 -103.5q0 -61 43 -99.5t113 -38.5z
" />
    <glyph glyph-name="integral" unicode="&#x222b;" horiz-adv-x="712" 
d="M57 14q37 -12 90 -12q33 0 56 15.5t35.5 40t19.5 69.5t8.5 87t1.5 110q0 85 -18.5 379t-18.5 438q0 131 23 224.5t67.5 147.5t102 78.5t133.5 24.5q48 0 98 -12v-205q-27 10 -67 10q-32 0 -54.5 -16.5t-35.5 -42t-20 -67.5t-9 -81.5t-2 -95.5q0 -123 20.5 -441.5
t20.5 -412.5q0 -251 -83 -356t-245 -105q-56 0 -123 19v204z" />
    <glyph glyph-name="approxequal" unicode="&#x2248;" horiz-adv-x="978" 
d="M82 797q12 113 76.5 183.5t167.5 70.5q60 0 118 -21t109 -42t92 -21q80 0 105 86l141 -21q-32 -266 -248 -266q-62 0 -121 21t-110 42t-93 21q-80 0 -96 -72zM88 436q14 114 78.5 184t167.5 70q59 0 116.5 -20.5t108.5 -41t92 -20.5t66.5 19.5t40.5 64.5l141 -18
q-33 -268 -250 -268q-62 0 -120.5 21t-109 41.5t-91.5 20.5q-80 0 -99 -71z" />
    <glyph glyph-name="notequal" unicode="&#x2260;" horiz-adv-x="1101" 
d="M168 258l94 160h-149v217h276l103 172h-379v215h512l149 250l164 -96l-90 -154h145v-215h-276l-103 -172h379v-217h-508l-151 -258z" />
    <glyph glyph-name="lessequal" unicode="&#x2264;" horiz-adv-x="940" 
d="M49 793l766 487v-248l-379 -239l379 -234v-254zM86 0v217h729v-217h-729z" />
    <glyph glyph-name="greaterequal" unicode="&#x2265;" horiz-adv-x="940" 
d="M125 305v254l377 234l-377 239v248l766 -487zM125 0v217h729v-217h-729z" />
    <glyph glyph-name="triagup" unicode="&#x25b2;" 
d="M172 244l414 727l438 -727h-852z" />
    <glyph glyph-name="triagrt" unicode="&#x25ba;" 
d="M279 104v854l727 -413z" />
    <glyph glyph-name="triagdn" unicode="&#x25bc;" 
d="M586 113l-414 727h852z" />
    <glyph glyph-name="triaglf" unicode="&#x25c4;" 
d="M190 545l728 413v-854z" />
    <glyph glyph-name="lozenge" unicode="&#x25ca;" horiz-adv-x="1171" 
d="M586 -72l-520 787l520 764l522 -764zM586 307l262 404l-262 399l-260 -399z" />
    <glyph glyph-name="uni25E2" unicode="&#x25e2;" 
d="M154 367l604 604l221 -809z" />
    <glyph glyph-name="uni25E3" unicode="&#x25e3;" 
d="M217 162l225 809l600 -604z" />
    <glyph glyph-name="uni25E4" unicode="&#x25e4;" 
d="M434 102l-215 816l815 -216z" />
    <glyph glyph-name="uni25E5" unicode="&#x25e5;" 
d="M170 694l807 224l-203 -826z" />
    <glyph glyph-name="space.frac" horiz-adv-x="53" 
 />
    <glyph glyph-name="a.alt" horiz-adv-x="1179" 
d="M92 285q0 157 109 240.5t338 103.5q130 11 182.5 35t52.5 84q0 47 -42.5 78.5t-127.5 31.5q-164 0 -276 -135l-154 131q73 104 182.5 157.5t243.5 53.5q193 0 304.5 -88.5t111.5 -245.5v-455q0 -28 6 -45t20 -24t25.5 -8.5t34.5 -1.5h3h3v-193q-38 -22 -115 -22
q-82 0 -131 49q-26 24 -39 67q-107 -127 -350 -127q-170 0 -275.5 86t-105.5 228zM334 305q0 -59 46.5 -91t131.5 -32q122 0 192 53.5t70 149.5v115q-23 -28 -72.5 -39.5t-154.5 -22.5q-102 -12 -157.5 -42t-55.5 -91z" />
    <glyph glyph-name="l.alt" horiz-adv-x="638" 
d="M127 307v1120h250v-1087q0 -76 28 -109.5t95 -33.5q42 0 73 8v-221q-50 -13 -118 -13q-47 0 -86 6t-86 26.5t-79.5 55.5t-54.5 98.5t-22 149.5z" />
    <glyph glyph-name="agrave.alt" horiz-adv-x="1179" 
d="M520 1130l-198 297h280l105 -297h-187zM92 285q0 157 109 240.5t338 103.5q130 11 182.5 35t52.5 84q0 47 -42.5 78.5t-127.5 31.5q-164 0 -276 -135l-154 131q73 104 182.5 157.5t243.5 53.5q193 0 304.5 -88.5t111.5 -245.5v-455q0 -28 6 -45t20 -24t25.5 -8.5
t34.5 -1.5h3h3v-193q-38 -22 -115 -22q-82 0 -131 49q-26 24 -39 67q-107 -127 -350 -127q-170 0 -275.5 86t-105.5 228zM334 305q0 -59 46.5 -91t131.5 -32q122 0 192 53.5t70 149.5v115q-23 -28 -72.5 -39.5t-154.5 -22.5q-102 -12 -157.5 -42t-55.5 -91z" />
    <glyph glyph-name="aacute.alt" horiz-adv-x="1179" 
d="M467 1130l104 297h283l-199 -297h-188zM92 285q0 157 109 240.5t338 103.5q130 11 182.5 35t52.5 84q0 47 -42.5 78.5t-127.5 31.5q-164 0 -276 -135l-154 131q73 104 182.5 157.5t243.5 53.5q193 0 304.5 -88.5t111.5 -245.5v-455q0 -28 6 -45t20 -24t25.5 -8.5
t34.5 -1.5h3h3v-193q-38 -22 -115 -22q-82 0 -131 49q-26 24 -39 67q-107 -127 -350 -127q-170 0 -275.5 86t-105.5 228zM334 305q0 -59 46.5 -91t131.5 -32q122 0 192 53.5t70 149.5v115q-23 -28 -72.5 -39.5t-154.5 -22.5q-102 -12 -157.5 -42t-55.5 -91z" />
    <glyph glyph-name="acircumflex.alt" horiz-adv-x="1179" 
d="M219 1159l371 311l366 -311h-237l-129 127l-131 -127h-240zM92 285q0 157 109 240.5t338 103.5q130 11 182.5 35t52.5 84q0 47 -42.5 78.5t-127.5 31.5q-164 0 -276 -135l-154 131q73 104 182.5 157.5t243.5 53.5q193 0 304.5 -88.5t111.5 -245.5v-455q0 -28 6 -45
t20 -24t25.5 -8.5t34.5 -1.5h3h3v-193q-38 -22 -115 -22q-82 0 -131 49q-26 24 -39 67q-107 -127 -350 -127q-170 0 -275.5 86t-105.5 228zM334 305q0 -59 46.5 -91t131.5 -32q122 0 192 53.5t70 149.5v115q-23 -28 -72.5 -39.5t-154.5 -22.5q-102 -12 -157.5 -42t-55.5 -91
z" />
    <glyph glyph-name="atilde.alt" horiz-adv-x="1179" 
d="M217 1204q14 102 76 167t160 65q52 0 103 -21.5t95 -43t80 -21.5q37 0 59.5 20.5t34.5 65.5l144 -19q-33 -246 -240 -246q-53 0 -105 21.5t-96.5 43t-81.5 21.5q-70 0 -86 -71zM92 285q0 157 109 240.5t338 103.5q130 11 182.5 35t52.5 84q0 47 -42.5 78.5t-127.5 31.5
q-164 0 -276 -135l-154 131q73 104 182.5 157.5t243.5 53.5q193 0 304.5 -88.5t111.5 -245.5v-455q0 -28 6 -45t20 -24t25.5 -8.5t34.5 -1.5h3h3v-193q-38 -22 -115 -22q-82 0 -131 49q-26 24 -39 67q-107 -127 -350 -127q-170 0 -275.5 86t-105.5 228zM334 305
q0 -59 46.5 -91t131.5 -32q122 0 192 53.5t70 149.5v115q-23 -28 -72.5 -39.5t-154.5 -22.5q-102 -12 -157.5 -42t-55.5 -91z" />
    <glyph glyph-name="adieresis.alt" horiz-adv-x="1179" 
d="M809 1161q-53 0 -92 37t-39 90t39 90t92 37t92 -37t39 -90t-39 -90t-92 -37zM385 1161q-55 0 -94 37t-39 90t39 90t94 37q53 0 91 -37t38 -90t-38 -90t-91 -37zM92 285q0 157 109 240.5t338 103.5q130 11 182.5 35t52.5 84q0 47 -42.5 78.5t-127.5 31.5q-164 0 -276 -135
l-154 131q73 104 182.5 157.5t243.5 53.5q193 0 304.5 -88.5t111.5 -245.5v-455q0 -28 6 -45t20 -24t25.5 -8.5t34.5 -1.5h3h3v-193q-38 -22 -115 -22q-82 0 -131 49q-26 24 -39 67q-107 -127 -350 -127q-170 0 -275.5 86t-105.5 228zM334 305q0 -59 46.5 -91t131.5 -32
q122 0 192 53.5t70 149.5v115q-23 -28 -72.5 -39.5t-154.5 -22.5q-102 -12 -157.5 -42t-55.5 -91z" />
    <glyph glyph-name="amacron.alt" horiz-adv-x="1179" 
d="M283 1194v174h630v-174h-630zM92 285q0 157 109 240.5t338 103.5q130 11 182.5 35t52.5 84q0 47 -42.5 78.5t-127.5 31.5q-164 0 -276 -135l-154 131q73 104 182.5 157.5t243.5 53.5q193 0 304.5 -88.5t111.5 -245.5v-455q0 -28 6 -45t20 -24t25.5 -8.5t34.5 -1.5h3h3
v-193q-38 -22 -115 -22q-82 0 -131 49q-26 24 -39 67q-107 -127 -350 -127q-170 0 -275.5 86t-105.5 228zM334 305q0 -59 46.5 -91t131.5 -32q122 0 192 53.5t70 149.5v115q-23 -28 -72.5 -39.5t-154.5 -22.5q-102 -12 -157.5 -42t-55.5 -91z" />
    <glyph glyph-name="abreve.alt" horiz-adv-x="1179" 
d="M590 1139q-141 0 -233.5 82.5t-110.5 208.5h186q43 -119 158 -119t155 119h189q-18 -125 -111.5 -208t-232.5 -83zM92 285q0 157 109 240.5t338 103.5q130 11 182.5 35t52.5 84q0 47 -42.5 78.5t-127.5 31.5q-164 0 -276 -135l-154 131q73 104 182.5 157.5t243.5 53.5
q193 0 304.5 -88.5t111.5 -245.5v-455q0 -28 6 -45t20 -24t25.5 -8.5t34.5 -1.5h3h3v-193q-38 -22 -115 -22q-82 0 -131 49q-26 24 -39 67q-107 -127 -350 -127q-170 0 -275.5 86t-105.5 228zM334 305q0 -59 46.5 -91t131.5 -32q122 0 192 53.5t70 149.5v115
q-23 -28 -72.5 -39.5t-154.5 -22.5q-102 -12 -157.5 -42t-55.5 -91z" />
    <glyph glyph-name="aring.alt" horiz-adv-x="1179" 
d="M594 1128q-97 0 -165.5 65t-68.5 157t68.5 156.5t165.5 64.5q94 0 160.5 -64.5t66.5 -156.5t-66 -157t-161 -65zM594 1266q34 0 58 25t24 59q0 35 -24 60.5t-58 25.5q-35 0 -60.5 -25.5t-25.5 -60.5q0 -34 25.5 -59t60.5 -25zM92 285q0 157 109 240.5t338 103.5
q130 11 182.5 35t52.5 84q0 47 -42.5 78.5t-127.5 31.5q-164 0 -276 -135l-154 131q73 104 182.5 157.5t243.5 53.5q193 0 304.5 -88.5t111.5 -245.5v-455q0 -28 6 -45t20 -24t25.5 -8.5t34.5 -1.5h3h3v-193q-38 -22 -115 -22q-82 0 -131 49q-26 24 -39 67
q-107 -127 -350 -127q-170 0 -275.5 86t-105.5 228zM334 305q0 -59 46.5 -91t131.5 -32q122 0 192 53.5t70 149.5v115q-23 -28 -72.5 -39.5t-154.5 -22.5q-102 -12 -157.5 -42t-55.5 -91z" />
    <glyph glyph-name="aringacute.alt" horiz-adv-x="1179" 
d="M494 1640l104 297h281l-199 -297h-186zM594 1128q-96 0 -165 65t-69 157t69 156.5t165 64.5q95 0 162 -64.5t67 -156.5t-67 -157t-162 -65zM594 1266q35 0 59.5 25t24.5 59q0 35 -24.5 60.5t-59.5 25.5q-34 0 -60 -25.5t-26 -60.5q0 -34 26 -59t60 -25zM92 285
q0 157 109 240.5t338 103.5q130 11 182.5 35t52.5 84q0 47 -42.5 78.5t-127.5 31.5q-164 0 -276 -135l-154 131q73 104 182.5 157.5t243.5 53.5q193 0 304.5 -88.5t111.5 -245.5v-455q0 -28 6 -45t20 -24t25.5 -8.5t34.5 -1.5h3h3v-193q-38 -22 -115 -22q-82 0 -131 49
q-26 24 -39 67q-107 -127 -350 -127q-170 0 -275.5 86t-105.5 228zM334 305q0 -59 46.5 -91t131.5 -32q122 0 192 53.5t70 149.5v115q-23 -28 -72.5 -39.5t-154.5 -22.5q-102 -12 -157.5 -42t-55.5 -91z" />
    <glyph glyph-name="aogonek.alt" horiz-adv-x="1179" 
d="M92 285q0 157 109 240.5t338 103.5q134 12 184.5 34t50.5 85q0 47 -42.5 78.5t-127.5 31.5q-164 0 -276 -135l-154 131q73 104 182.5 157.5t243.5 53.5q193 0 304.5 -88.5t111.5 -245.5v-455q0 -28 6 -45t20 -24t25.5 -8.5t34.5 -1.5h3h3v-193q-154 -97 -154 -190
q0 -39 30.5 -59.5t72.5 -20.5q59 0 119 26l-33 -161q-60 -29 -117 -29q-98 0 -171 57t-73 150q0 121 144 211q-24 7 -47 22q-42 27 -56 88q-107 -127 -350 -127q-170 0 -275.5 86t-105.5 228zM334 305q0 -59 46.5 -91t131.5 -32q122 0 192 53.5t70 149.5v115
q-23 -28 -72.5 -39.5t-154.5 -22.5q-102 -12 -157.5 -42t-55.5 -91z" />
    <glyph glyph-name="lacute.alt" horiz-adv-x="638" 
d="M131 1479l105 297h282l-201 -297h-186zM127 307v1120h250v-1087q0 -76 28 -109.5t95 -33.5q42 0 73 8v-221q-50 -13 -118 -13q-47 0 -86 6t-86 26.5t-79.5 55.5t-54.5 98.5t-22 149.5z" />
    <glyph glyph-name="lcaron.alt" horiz-adv-x="827" 
d="M127 307v1120h250v-1087q0 -76 28 -109.5t95 -33.5q42 0 73 8v-221q-50 -13 -118 -13q-47 0 -86 6t-86 26.5t-79.5 55.5t-54.5 98.5t-22 149.5zM436 1130l105 297h282l-198 -297h-189z" />
    <glyph glyph-name="lcommaaccent.alt" horiz-adv-x="638" 
d="M125 307v1120h250v-1087q0 -76 28 -109.5t95 -33.5q42 0 73 8v-221q-50 -13 -118 -13q-47 0 -86 6t-86 26.5t-79.5 55.5t-54.5 98.5t-22 149.5zM61 -395l105 297h283l-201 -297h-187z" />
    <glyph glyph-name="ldot.alt" horiz-adv-x="806" 
d="M127 307v1120h250v-1087q0 -76 28 -109.5t95 -33.5q42 0 73 8v-221q-50 -13 -118 -13q-47 0 -86 6t-86 26.5t-79.5 55.5t-54.5 98.5t-22 149.5zM598 618q-55 0 -94 37.5t-39 92.5q0 54 39.5 91.5t93.5 37.5t92.5 -37.5t38.5 -91.5q0 -55 -38.5 -92.5t-92.5 -37.5z" />
    <glyph glyph-name="lslash.alt" horiz-adv-x="686" 
d="M170 307v260l-139 -78v240l139 78v620h246v-493l178 100v-237l-178 -103v-354q0 -75 28.5 -109t94.5 -34q42 0 73 8v-221q-44 -13 -118 -13q-46 0 -85 6t-85 26.5t-78 55.5t-54 98.5t-22 149.5z" />
    <glyph glyph-name="C.alt" horiz-adv-x="1458" 
d="M104 713q0 209 102 379t276 265t382 95q257 0 445 -149v-275q-188 191 -445 191q-215 0 -358.5 -144.5t-143.5 -361.5t143.5 -360.5t358.5 -143.5q258 0 445 190v-274q-185 -150 -445 -150q-156 0 -296 56t-242 153t-162 234.5t-60 294.5z" />
    <glyph glyph-name="G.alt" horiz-adv-x="1572" 
d="M104 713q0 209 102 379t276 265t382 95q248 0 432 -127v-260q-181 154 -432 154q-215 0 -358.5 -144.5t-143.5 -361.5t143.5 -360.5t358.5 -143.5q202 0 340 129v250h-397v233h641v-577q-100 -125 -253.5 -197t-330.5 -72q-156 0 -296 56t-242 153t-162 234.5t-60 294.5z
" />
    <glyph glyph-name="K.alt" horiz-adv-x="1374" 
d="M180 0v1427h258v-649l555 649h314l-609 -696l631 -731h-317l-574 668v-668h-258z" />
    <glyph glyph-name="M.alt" horiz-adv-x="1796" 
d="M63 0l250 1491l586 -1079l588 1079l248 -1491h-244l-131 788l-461 -841l-461 841l-131 -788h-244z" />
    <glyph glyph-name="Q.alt" horiz-adv-x="1716" 
d="M104 713q0 206 101.5 376t274.5 266.5t380 96.5t380 -96.5t274.5 -266.5t101.5 -376q0 -148 -53.5 -277t-149.5 -227l182 -209h-284l-70 82q-175 -107 -381 -107q-207 0 -380 96t-274.5 266t-101.5 376zM360 713q0 -215 144 -360.5t356 -145.5q114 0 215 53l-311 363h285
l198 -236q113 131 113 326q0 140 -65.5 256t-180.5 183t-254 67t-254 -67t-180.5 -183t-65.5 -256z" />
    <glyph glyph-name="S.alt" 
d="M106 121v276q193 -190 465 -190q128 0 200.5 51.5t72.5 122.5q0 38 -13 68t-34 53t-65.5 48.5t-87 45t-120.5 51.5q-88 37 -150.5 73.5t-117.5 87t-83 116.5t-28 147q0 115 63.5 202.5t172.5 133t246 45.5q202 0 348 -98v-262q-144 125 -342 125q-108 0 -169 -40.5
t-61 -105.5q0 -24 7.5 -45t27 -40t36 -32.5t51.5 -31.5t55.5 -27.5t66.5 -29.5t66 -29q101 -45 169.5 -87.5t120 -96t75.5 -120t24 -151.5q0 -174 -135.5 -290t-380.5 -116q-273 0 -480 146z" />
    <glyph glyph-name="W.alt" horiz-adv-x="2050" 
d="M702 -61l-647 1488h260l398 -913l174 389l-234 524h248l125 -288l127 288h250l-234 -524l172 -389l398 913h260l-647 -1488l-326 729z" />
    <glyph glyph-name="Cacute.alt" horiz-adv-x="1458" 
d="M754 1526l104 297h283l-199 -297h-188zM104 713q0 209 102 379t276 265t382 95q257 0 445 -149v-275q-188 191 -445 191q-215 0 -358.5 -144.5t-143.5 -361.5t143.5 -360.5t358.5 -143.5q258 0 445 190v-274q-185 -150 -445 -150q-156 0 -296 56t-242 153t-162 234.5
t-60 294.5z" />
    <glyph glyph-name="Ccircumflex.alt" horiz-adv-x="1458" 
d="M498 1554l370 320l369 -320h-240l-129 136l-129 -136h-241zM104 713q0 209 102 379t276 265t382 95q257 0 445 -149v-275q-188 191 -445 191q-215 0 -358.5 -144.5t-143.5 -361.5t143.5 -360.5t358.5 -143.5q258 0 445 190v-274q-185 -150 -445 -150q-156 0 -296 56
t-242 153t-162 234.5t-60 294.5z" />
    <glyph glyph-name="Ccaron.alt" horiz-adv-x="1458" 
d="M864 1513l-368 310h239l129 -129l129 129h242zM104 713q0 209 102 379t276 265t382 95q257 0 445 -149v-275q-188 191 -445 191q-215 0 -358.5 -144.5t-143.5 -361.5t143.5 -360.5t358.5 -143.5q258 0 445 190v-274q-185 -150 -445 -150q-156 0 -296 56t-242 153
t-162 234.5t-60 294.5z" />
    <glyph glyph-name="Cdotaccent.alt" horiz-adv-x="1458" 
d="M856 1538q-56 0 -95.5 37t-39.5 92q0 54 39.5 90.5t95.5 36.5q53 0 92 -37t39 -90q0 -55 -39 -92t-92 -37zM104 713q0 209 102 379t276 265t382 95q257 0 445 -149v-275q-188 191 -445 191q-215 0 -358.5 -144.5t-143.5 -361.5t143.5 -360.5t358.5 -143.5q258 0 445 190
v-274q-185 -150 -445 -150q-156 0 -296 56t-242 153t-162 234.5t-60 294.5z" />
    <glyph glyph-name="Ccedilla.alt" horiz-adv-x="1458" 
d="M563 -379l53 109q54 -31 103 -31q34 0 57 19t23 49q0 45 -31.5 61t-97.5 16h-2l59 144q-132 21 -246.5 84.5t-198 157t-131 219t-47.5 264.5q0 209 102 379t276 265t382 95q257 0 445 -149v-275q-188 191 -445 191q-215 0 -358.5 -144.5t-143.5 -361.5t143.5 -360.5
t358.5 -143.5q258 0 445 190v-274q-178 -147 -441 -150h-2l-30 -69h2q57 0 96 -41.5t39 -108.5q0 -93 -62.5 -139.5t-171.5 -46.5q-49 0 -98 15t-78 36z" />
    <glyph glyph-name="Gcircumflex.alt" horiz-adv-x="1572" 
d="M494 1565l370 309l369 -309h-242l-127 127l-131 -127h-239zM104 713q0 209 102 379t276 265t382 95q248 0 432 -127v-260q-181 154 -432 154q-215 0 -358.5 -144.5t-143.5 -361.5t143.5 -360.5t358.5 -143.5q202 0 340 129v250h-397v233h641v-577q-100 -125 -253.5 -197
t-330.5 -72q-156 0 -296 56t-242 153t-162 234.5t-60 294.5z" />
    <glyph glyph-name="Gbreve.alt" horiz-adv-x="1572" 
d="M860 1534q-142 0 -236 82.5t-112 208.5h190q40 -119 158 -119q114 0 154 119h190q-18 -125 -111.5 -208t-232.5 -83zM104 713q0 209 102 379t276 265t382 95q248 0 432 -127v-260q-181 154 -432 154q-215 0 -358.5 -144.5t-143.5 -361.5t143.5 -360.5t358.5 -143.5
q202 0 340 129v250h-397v233h641v-577q-100 -125 -253.5 -197t-330.5 -72q-156 0 -296 56t-242 153t-162 234.5t-60 294.5z" />
    <glyph glyph-name="Gdotaccent.alt" horiz-adv-x="1572" 
d="M856 1538q-55 0 -94 37t-39 92q0 53 39 90t94 37t94 -37t39 -90q0 -55 -39 -92t-94 -37zM104 713q0 209 102 379t276 265t382 95q248 0 432 -127v-260q-181 154 -432 154q-215 0 -358.5 -144.5t-143.5 -361.5t143.5 -360.5t358.5 -143.5q202 0 340 129v250h-397v233h641
v-577q-100 -125 -253.5 -197t-330.5 -72q-156 0 -296 56t-242 153t-162 234.5t-60 294.5z" />
    <glyph glyph-name="Gcommaaccent.alt" horiz-adv-x="1572" 
d="M104 713q0 209 102 379t276 265t382 95q248 0 432 -127v-260q-181 154 -432 154q-215 0 -358.5 -144.5t-143.5 -361.5t143.5 -360.5t358.5 -143.5q202 0 340 129v250h-397v233h641v-577q-100 -125 -253.5 -197t-330.5 -72q-156 0 -296 56t-242 153t-162 234.5t-60 294.5z
M623 -395l104 297h283l-199 -297h-188z" />
    <glyph glyph-name="Kcommaaccent.alt" horiz-adv-x="1361" 
d="M180 0v1427h258v-649l555 649h314l-609 -696l631 -731h-317l-574 668v-668h-258zM475 -395l105 297h282l-200 -297h-187z" />
    <glyph glyph-name="Sacute.alt" 
d="M504 1526l104 297h283l-201 -297h-186zM106 121v276q193 -190 465 -190q128 0 200.5 51.5t72.5 122.5q0 38 -13 68t-34 53t-65.5 48.5t-87 45t-120.5 51.5q-88 37 -150.5 73.5t-117.5 87t-83 116.5t-28 147q0 115 63.5 202.5t172.5 133t246 45.5q202 0 348 -98v-262
q-144 125 -342 125q-108 0 -169 -40.5t-61 -105.5q0 -24 7.5 -45t27 -40t36 -32.5t51.5 -31.5t55.5 -27.5t66.5 -29.5t66 -29q101 -45 169.5 -87.5t120 -96t75.5 -120t24 -151.5q0 -174 -135.5 -290t-380.5 -116q-273 0 -480 146z" />
    <glyph glyph-name="Scircumflex.alt" 
d="M250 1554l371 320l366 -320h-235l-131 136l-132 -136h-239zM106 121v276q193 -190 465 -190q128 0 200.5 51.5t72.5 122.5q0 38 -13 68t-34 53t-65.5 48.5t-87 45t-120.5 51.5q-88 37 -150.5 73.5t-117.5 87t-83 116.5t-28 147q0 115 63.5 202.5t172.5 133t246 45.5
q202 0 348 -98v-262q-144 125 -342 125q-108 0 -169 -40.5t-61 -105.5q0 -24 7.5 -45t27 -40t36 -32.5t51.5 -31.5t55.5 -27.5t66.5 -29.5t66 -29q101 -45 169.5 -87.5t120 -96t75.5 -120t24 -151.5q0 -174 -135.5 -290t-380.5 -116q-273 0 -480 146z" />
    <glyph glyph-name="Scaron.alt" 
d="M637 1513l-371 310h240l131 -129l129 129h240zM106 121v276q193 -190 465 -190q128 0 200.5 51.5t72.5 122.5q0 38 -13 68t-34 53t-65.5 48.5t-87 45t-120.5 51.5q-88 37 -150.5 73.5t-117.5 87t-83 116.5t-28 147q0 115 63.5 202.5t172.5 133t246 45.5q202 0 348 -98
v-262q-144 125 -342 125q-108 0 -169 -40.5t-61 -105.5q0 -24 7.5 -45t27 -40t36 -32.5t51.5 -31.5t55.5 -27.5t66.5 -29.5t66 -29q101 -45 169.5 -87.5t120 -96t75.5 -120t24 -151.5q0 -174 -135.5 -290t-380.5 -116q-273 0 -480 146z" />
    <glyph glyph-name="Scommaaccent.alt" 
d="M106 121v276q193 -190 465 -190q128 0 200.5 51.5t72.5 122.5q0 38 -13 68t-34 53t-65.5 48.5t-87 45t-120.5 51.5q-88 37 -150.5 73.5t-117.5 87t-83 116.5t-28 147q0 115 63.5 202.5t172.5 133t246 45.5q202 0 348 -98v-262q-144 125 -342 125q-108 0 -169 -40.5
t-61 -105.5q0 -24 7.5 -45t27 -40t36 -32.5t51.5 -31.5t55.5 -27.5t66.5 -29.5t66 -29q101 -45 169.5 -87.5t120 -96t75.5 -120t24 -151.5q0 -174 -135.5 -290t-380.5 -116q-273 0 -480 146zM369 -395l104 297h281l-199 -297h-186z" />
    <glyph glyph-name="Scedilla.alt" 
d="M348 -379l53 109q54 -31 103 -31q34 0 56 19t22 49q0 44 -30 60.5t-93 16.5h-6l55 136q-229 17 -402 141v276q193 -190 465 -190q128 0 200.5 51.5t72.5 122.5q0 38 -13 68t-34 53t-65.5 48.5t-87 45t-120.5 51.5q-88 37 -150.5 73.5t-117.5 87t-83 116.5t-28 147
q0 115 63.5 202.5t172.5 133t246 45.5q202 0 348 -98v-262q-144 125 -342 125q-108 0 -169 -40.5t-61 -105.5q0 -24 7.5 -45t27 -40t36 -32.5t51.5 -31.5t55.5 -27.5t66.5 -29.5t66 -29q101 -45 169.5 -87.5t120 -96t75.5 -120t24 -151.5q0 -162 -116.5 -273t-330.5 -128
l-34 -74h2q57 0 96 -41.5t39 -108.5q0 -93 -62.5 -139.5t-171.5 -46.5q-49 0 -98 15t-78 36z" />
    <glyph glyph-name="Wgrave.alt" horiz-adv-x="2050" 
d="M942 1526l-199 297h281l104 -297h-186zM702 -61l-647 1488h260l398 -913l174 389l-234 524h248l125 -288l127 288h250l-234 -524l172 -389l398 913h260l-647 -1488l-326 729z" />
    <glyph glyph-name="Wacute.alt" horiz-adv-x="2050" 
d="M924 1526l102 297h283l-201 -297h-184zM702 -61l-647 1488h260l398 -913l174 389l-234 524h248l125 -288l127 288h250l-234 -524l172 -389l398 913h260l-647 -1488l-326 729z" />
    <glyph glyph-name="Wcircumflex.alt" horiz-adv-x="2050" 
d="M659 1554l367 320l371 -320h-240l-131 136l-129 -136h-238zM702 -61l-647 1488h260l398 -913l174 389l-234 524h248l125 -288l127 288h250l-234 -524l172 -389l398 913h260l-647 -1488l-326 729z" />
    <glyph glyph-name="Wdieresis.alt" horiz-adv-x="2050" 
d="M1249 1516q-54 0 -92.5 36t-38.5 88q0 54 38.5 91.5t92.5 37.5q52 0 90.5 -38t38.5 -91q0 -52 -38.5 -88t-90.5 -36zM803 1516q-53 0 -92 36t-39 88q0 53 39 91t92 38t91 -37.5t38 -91.5q0 -52 -38 -88t-91 -36zM702 -61l-647 1488h260l398 -913l174 389l-234 524h248
l125 -288l127 288h250l-234 -524l172 -389l398 913h260l-647 -1488l-326 729z" />
    <glyph glyph-name="c.alt" horiz-adv-x="1077" 
d="M86 518q0 155 73.5 280.5t203 196t288.5 70.5q198 0 330 -104v-248q-133 127 -315 127q-144 0 -238 -91.5t-94 -230.5q0 -138 94 -229.5t238 -91.5q185 0 315 127v-248q-129 -105 -330 -105q-159 0 -288.5 70.5t-203 196t-73.5 280.5z" />
    <glyph glyph-name="e.alt" horiz-adv-x="1204" 
d="M86 506v10q0 244 151.5 392.5t385.5 148.5q148 0 263.5 -69t177.5 -186.5t62 -260.5q0 -47 -4 -88h-788q6 -123 88.5 -195t220.5 -72q243 0 371 119v-231q-76 -54 -163.5 -79.5t-217.5 -25.5q-244 0 -395.5 147t-151.5 390zM340 627h534q0 91 -73.5 155t-177.5 64
q-114 0 -195.5 -63.5t-87.5 -155.5z" />
    <glyph glyph-name="g.alt" horiz-adv-x="1304" 
d="M86 520q0 148 68 271t186.5 193.5t261.5 70.5q126 0 214.5 -48.5t115.5 -123.5v149h248v-860q0 -65 -1.5 -108t-7 -96.5t-17.5 -92t-30.5 -79t-48.5 -74.5t-71 -64q-70 -52 -167.5 -80.5t-205.5 -28.5q-134 0 -254.5 29.5t-202.5 87.5v236q72 -70 183 -105t235 -35
q161 0 246 62q41 29 64.5 74.5t29.5 86.5t6 95v63q-38 -66 -125.5 -108.5t-210.5 -42.5q-219 0 -367.5 151.5t-148.5 376.5zM334 520q0 -132 86.5 -220.5t216.5 -88.5q132 0 222.5 88.5t90.5 220.5q0 130 -90.5 219.5t-222.5 89.5q-130 0 -216.5 -89t-86.5 -220z" />
    <glyph glyph-name="j.alt" horiz-adv-x="503" 
d="M252 1149q-59 0 -102.5 43t-43.5 104t43.5 103.5t102.5 42.5t103 -42.5t44 -103.5t-44 -104t-103 -43zM129 -395v1427h248v-1427h-248z" />
    <glyph glyph-name="k.alt" horiz-adv-x="1060" 
d="M131 0v1427h248v-835l346 440h281l-390 -493l422 -539h-288l-371 477v-477h-248z" />
    <glyph glyph-name="r.alt" horiz-adv-x="776" 
d="M127 0v711q0 350 385 350q100 0 180 -17v-221q-63 13 -129 13q-96 0 -142 -35.5t-46 -138.5v-662h-248z" />
    <glyph glyph-name="s.alt" horiz-adv-x="948" 
d="M90 84v244q151 -138 383 -138q82 0 128 26t46 71q0 21 -12.5 39.5t-32 32t-52 28.5t-62 26.5t-73 28.5t-75.5 31q-219 96 -219 291q0 138 106.5 218.5t266.5 80.5q164 0 280 -70v-225q-125 78 -270 78q-69 0 -109.5 -22t-40.5 -64q0 -10 2.5 -19t9 -17.5t12 -14.5t18 -13
t20.5 -11.5t25 -11.5t27 -11t30.5 -11.5t31.5 -11.5q53 -21 79 -31.5t71.5 -32t68.5 -38t54 -44t46.5 -55t26.5 -65.5t11 -82q0 -60 -23.5 -115t-71 -101.5t-131 -74t-192.5 -27.5q-217 0 -379 111z" />
    <glyph glyph-name="t.alt" horiz-adv-x="733" 
d="M201 0v807h-133v225h133v395h248v-395h225v-225h-225v-807h-248z" />
    <glyph glyph-name="u.alt" horiz-adv-x="1165" 
d="M119 393v639h248v-604q0 -105 54 -166t152 -61t161 66.5t63 170.5v594h250v-1032h-250v143q-34 -74 -113.5 -118.5t-183.5 -44.5q-181 0 -281 110.5t-100 302.5z" />
    <glyph glyph-name="w.alt" horiz-adv-x="1675" 
d="M573 -66l-544 1098h254l305 -631l123 228l-203 403h223l109 -215l108 215h226l-203 -403l121 -228l305 631h254l-545 -1098l-266 508z" />
    <glyph glyph-name="y.alt" horiz-adv-x="1202" 
d="M467 -14l-426 1046h256l299 -751l309 751h254l-606 -1429h-252z" />
    <glyph glyph-name="cacute.alt" horiz-adv-x="1077" 
d="M543 1130l104 297h283l-201 -297h-186zM86 518q0 155 73.5 280.5t203 196t288.5 70.5q198 0 330 -104v-248q-133 127 -315 127q-144 0 -238 -91.5t-94 -230.5q0 -138 94 -229.5t238 -91.5q185 0 315 127v-248q-129 -105 -330 -105q-159 0 -288.5 70.5t-203 196
t-73.5 280.5z" />
    <glyph glyph-name="ccircumflex.alt" horiz-adv-x="1077" 
d="M283 1159l370 311l369 -311h-240l-129 127l-131 -127h-239zM86 518q0 155 73.5 280.5t203 196t288.5 70.5q198 0 330 -104v-248q-133 127 -315 127q-144 0 -238 -91.5t-94 -230.5q0 -138 94 -229.5t238 -91.5q185 0 315 127v-248q-129 -105 -330 -105q-159 0 -288.5 70.5
t-203 196t-73.5 280.5z" />
    <glyph glyph-name="ccaron.alt" horiz-adv-x="1077" 
d="M649 1124l-370 310h239l131 -129l129 129h240zM86 518q0 155 73.5 280.5t203 196t288.5 70.5q198 0 330 -104v-248q-133 127 -315 127q-144 0 -238 -91.5t-94 -230.5q0 -138 94 -229.5t238 -91.5q185 0 315 127v-248q-129 -105 -330 -105q-159 0 -288.5 70.5t-203 196
t-73.5 280.5z" />
    <glyph glyph-name="cdotaccent.alt" horiz-adv-x="1077" 
d="M649 1161q-53 0 -93 38t-40 91t40 91t93 38q54 0 93.5 -37.5t39.5 -91.5t-39.5 -91.5t-93.5 -37.5zM86 518q0 155 73.5 280.5t203 196t288.5 70.5q198 0 330 -104v-248q-133 127 -315 127q-144 0 -238 -91.5t-94 -230.5q0 -138 94 -229.5t238 -91.5q185 0 315 127v-248
q-129 -105 -330 -105q-159 0 -288.5 70.5t-203 196t-73.5 280.5z" />
    <glyph glyph-name="ccedilla.alt" horiz-adv-x="1077" 
d="M348 -379l53 109q54 -31 103 -31q34 0 57 19t23 49q0 45 -31 61t-96 16h-4l61 144q-191 42 -309.5 186.5t-118.5 343.5q0 155 73.5 280.5t203 196t288.5 70.5q198 0 330 -104v-248q-133 127 -315 127q-144 0 -238 -91.5t-94 -230.5q0 -138 94 -229.5t238 -91.5
q185 0 315 127v-248q-122 -102 -328 -105h-2l-28 -65h2q57 0 96 -41.5t39 -108.5q0 -93 -62.5 -139.5t-171.5 -46.5q-49 0 -99 15t-79 36z" />
    <glyph glyph-name="egrave.alt" horiz-adv-x="1204" 
d="M553 1130l-199 297h281l104 -297h-186zM86 506v10q0 244 151.5 392.5t385.5 148.5q148 0 263.5 -69t177.5 -186.5t62 -260.5q0 -47 -4 -88h-788q6 -123 88.5 -195t220.5 -72q243 0 371 119v-231q-76 -54 -163.5 -79.5t-217.5 -25.5q-244 0 -395.5 147t-151.5 390z
M340 627h534q0 91 -73.5 155t-177.5 64q-114 0 -195.5 -63.5t-87.5 -155.5z" />
    <glyph glyph-name="eacute.alt" horiz-adv-x="1204" 
d="M510 1130l106 297h281l-199 -297h-188zM86 506v10q0 244 151.5 392.5t385.5 148.5q148 0 263.5 -69t177.5 -186.5t62 -260.5q0 -47 -4 -88h-788q6 -123 88.5 -195t220.5 -72q243 0 371 119v-231q-76 -54 -163.5 -79.5t-217.5 -25.5q-244 0 -395.5 147t-151.5 390z
M340 627h534q0 91 -73.5 155t-177.5 64q-114 0 -195.5 -63.5t-87.5 -155.5z" />
    <glyph glyph-name="ecircumflex.alt" horiz-adv-x="1204" 
d="M252 1159l369 311l368 -311h-239l-129 127l-129 -127h-240zM86 506v10q0 244 151.5 392.5t385.5 148.5q148 0 263.5 -69t177.5 -186.5t62 -260.5q0 -47 -4 -88h-788q6 -123 88.5 -195t220.5 -72q243 0 371 119v-231q-76 -54 -163.5 -79.5t-217.5 -25.5q-244 0 -395.5 147
t-151.5 390zM340 627h534q0 91 -73.5 155t-177.5 64q-114 0 -195.5 -63.5t-87.5 -155.5z" />
    <glyph glyph-name="ecaron.alt" horiz-adv-x="1204" 
d="M627 1124l-371 310h242l129 -129l129 129h239zM86 506v10q0 244 151.5 392.5t385.5 148.5q148 0 263.5 -69t177.5 -186.5t62 -260.5q0 -47 -4 -88h-788q6 -123 88.5 -195t220.5 -72q243 0 371 119v-231q-76 -54 -163.5 -79.5t-217.5 -25.5q-244 0 -395.5 147t-151.5 390z
M340 627h534q0 91 -73.5 155t-177.5 64q-114 0 -195.5 -63.5t-87.5 -155.5z" />
    <glyph glyph-name="edieresis.alt" horiz-adv-x="1204" 
d="M834 1161q-53 0 -92.5 37t-39.5 90t39.5 90t92.5 37t92 -37t39 -90t-39 -90t-92 -37zM410 1161q-55 0 -94.5 37t-39.5 90t39.5 90t94.5 37q53 0 92 -37t39 -90t-39 -90t-92 -37zM86 506v10q0 244 151.5 392.5t385.5 148.5q148 0 263.5 -69t177.5 -186.5t62 -260.5
q0 -47 -4 -88h-788q6 -123 88.5 -195t220.5 -72q243 0 371 119v-231q-76 -54 -163.5 -79.5t-217.5 -25.5q-244 0 -395.5 147t-151.5 390zM340 627h534q0 91 -73.5 155t-177.5 64q-114 0 -195.5 -63.5t-87.5 -155.5z" />
    <glyph glyph-name="emacron.alt" horiz-adv-x="1204" 
d="M305 1194v174h631v-174h-631zM86 506v10q0 244 151.5 392.5t385.5 148.5q148 0 263.5 -69t177.5 -186.5t62 -260.5q0 -47 -4 -88h-788q6 -123 88.5 -195t220.5 -72q243 0 371 119v-231q-76 -54 -163.5 -79.5t-217.5 -25.5q-244 0 -395.5 147t-151.5 390zM340 627h534
q0 91 -73.5 155t-177.5 64q-114 0 -195.5 -63.5t-87.5 -155.5z" />
    <glyph glyph-name="ebreve.alt" horiz-adv-x="1204" 
d="M625 1139q-141 0 -234.5 82.5t-111.5 208.5h190q40 -119 156 -119q118 0 155 119h189q-18 -125 -111.5 -208t-232.5 -83zM86 506v10q0 244 151.5 392.5t385.5 148.5q148 0 263.5 -69t177.5 -186.5t62 -260.5q0 -47 -4 -88h-788q6 -123 88.5 -195t220.5 -72q243 0 371 119
v-231q-76 -54 -163.5 -79.5t-217.5 -25.5q-244 0 -395.5 147t-151.5 390zM340 627h534q0 91 -73.5 155t-177.5 64q-114 0 -195.5 -63.5t-87.5 -155.5z" />
    <glyph glyph-name="edotaccent.alt" horiz-adv-x="1204" 
d="M621 1161q-54 0 -94 37.5t-40 91.5t40 91.5t94 37.5t93.5 -37.5t39.5 -91.5t-39.5 -91.5t-93.5 -37.5zM86 506v10q0 244 151.5 392.5t385.5 148.5q148 0 263.5 -69t177.5 -186.5t62 -260.5q0 -47 -4 -88h-788q6 -123 88.5 -195t220.5 -72q243 0 371 119v-231
q-76 -54 -163.5 -79.5t-217.5 -25.5q-244 0 -395.5 147t-151.5 390zM340 627h534q0 91 -73.5 155t-177.5 64q-114 0 -195.5 -63.5t-87.5 -155.5z" />
    <glyph glyph-name="eogonek.alt" horiz-adv-x="1204" 
d="M86 506v10q0 244 151.5 392.5t385.5 148.5q148 0 263.5 -69t177.5 -186.5t62 -260.5q0 -47 -4 -88h-788q6 -123 88.5 -195t220.5 -72q243 0 371 119v-223q-34 -24 -70 -43q-111 -58 -157 -101q-63 -60 -64 -122q0 -39 29 -59.5t69 -20.5q55 0 115 26l-35 -163
q-56 -29 -113 -29q-96 0 -166.5 57t-70.5 150q0 109 115 198q-14 -2 -33 -2q-244 0 -395.5 146.5t-151.5 386.5zM340 627h534q0 91 -73.5 155t-177.5 64q-114 0 -195.5 -63.5t-87.5 -155.5z" />
    <glyph glyph-name="gcircumflex.alt" horiz-adv-x="1304" 
d="M301 1159l369 311l370 -311h-239l-131 127l-129 -127h-240zM86 520q0 148 68 271t186.5 193.5t261.5 70.5q126 0 214.5 -48.5t115.5 -123.5v149h248v-860q0 -65 -1.5 -108t-7 -96.5t-17.5 -92t-30.5 -79t-48.5 -74.5t-71 -64q-70 -52 -167.5 -80.5t-205.5 -28.5
q-134 0 -254.5 29.5t-202.5 87.5v236q72 -70 183 -105t235 -35q161 0 246 62q41 29 64.5 74.5t29.5 86.5t6 95v63q-38 -66 -125.5 -108.5t-210.5 -42.5q-219 0 -367.5 151.5t-148.5 376.5zM334 520q0 -132 86.5 -220.5t216.5 -88.5q132 0 222.5 88.5t90.5 220.5
q0 130 -90.5 219.5t-222.5 89.5q-130 0 -216.5 -89t-86.5 -220z" />
    <glyph glyph-name="gbreve.alt" horiz-adv-x="1304" 
d="M662 1139q-141 0 -235 83t-112 208h187q43 -119 160 -119q115 0 155 119h189q-18 -125 -111.5 -208t-232.5 -83zM86 520q0 148 68 271t186.5 193.5t261.5 70.5q126 0 214.5 -48.5t115.5 -123.5v149h248v-860q0 -65 -1.5 -108t-7 -96.5t-17.5 -92t-30.5 -79t-48.5 -74.5
t-71 -64q-70 -52 -167.5 -80.5t-205.5 -28.5q-134 0 -254.5 29.5t-202.5 87.5v236q72 -70 183 -105t235 -35q161 0 246 62q41 29 64.5 74.5t29.5 86.5t6 95v63q-38 -66 -125.5 -108.5t-210.5 -42.5q-219 0 -367.5 151.5t-148.5 376.5zM334 520q0 -132 86.5 -220.5
t216.5 -88.5q132 0 222.5 88.5t90.5 220.5q0 130 -90.5 219.5t-222.5 89.5q-130 0 -216.5 -89t-86.5 -220z" />
    <glyph glyph-name="gdotaccent.alt" horiz-adv-x="1304" 
d="M668 1161q-54 0 -93.5 37.5t-39.5 91.5t39.5 91.5t93.5 37.5q53 0 92 -38t39 -91t-39 -91t-92 -38zM86 520q0 148 68 271t186.5 193.5t261.5 70.5q126 0 214.5 -48.5t115.5 -123.5v149h248v-860q0 -65 -1.5 -108t-7 -96.5t-17.5 -92t-30.5 -79t-48.5 -74.5t-71 -64
q-70 -52 -167.5 -80.5t-205.5 -28.5q-134 0 -254.5 29.5t-202.5 87.5v236q72 -70 183 -105t235 -35q161 0 246 62q41 29 64.5 74.5t29.5 86.5t6 95v63q-38 -66 -125.5 -108.5t-210.5 -42.5q-219 0 -367.5 151.5t-148.5 376.5zM334 520q0 -132 86.5 -220.5t216.5 -88.5
q132 0 222.5 88.5t90.5 220.5q0 130 -90.5 219.5t-222.5 89.5q-130 0 -216.5 -89t-86.5 -220z" />
    <glyph glyph-name="gcommaaccent.alt" horiz-adv-x="1304" 
d="M555 1130l104 297h283l-199 -297h-188zM86 520q0 148 68 271t186.5 193.5t261.5 70.5q126 0 214.5 -48.5t115.5 -123.5v149h248v-860q0 -65 -1.5 -108t-7 -96.5t-17.5 -92t-30.5 -79t-48.5 -74.5t-71 -64q-70 -52 -167.5 -80.5t-205.5 -28.5q-134 0 -254.5 29.5
t-202.5 87.5v236q72 -70 183 -105t235 -35q161 0 246 62q41 29 64.5 74.5t29.5 86.5t6 95v63q-38 -66 -125.5 -108.5t-210.5 -42.5q-219 0 -367.5 151.5t-148.5 376.5zM334 520q0 -132 86.5 -220.5t216.5 -88.5q132 0 222.5 88.5t90.5 220.5q0 130 -90.5 219.5t-222.5 89.5
q-130 0 -216.5 -89t-86.5 -220z" />
    <glyph glyph-name="jcircumflex.alt" horiz-adv-x="573" 
d="M-31 1159l320 311l321 -311h-235l-86 131l-86 -131h-234zM164 -395v1427h248v-1427h-248z" />
    <glyph glyph-name="kcommaaccent.alt" horiz-adv-x="1060" 
d="M131 0v1427h248v-835l346 440h281l-390 -493l422 -539h-288l-371 477v-477h-248zM319 -395l107 297h281l-199 -297h-189z" />
    <glyph glyph-name="racute.alt" horiz-adv-x="776" 
d="M276 1130l105 297h281l-199 -297h-187zM127 0v711q0 350 385 350q100 0 180 -17v-221q-63 13 -129 13q-96 0 -142 -35.5t-46 -138.5v-662h-248z" />
    <glyph glyph-name="rcommaaccent.alt" horiz-adv-x="776" 
d="M125 0v711q0 350 385 350q100 0 180 -17v-221q-63 13 -129 13q-96 0 -142 -35.5t-46 -138.5v-662h-248zM23 -395l104 297h281l-199 -297h-186z" />
    <glyph glyph-name="rcaron.alt" horiz-adv-x="776" 
d="M418 1130l-352 310h233l119 -135l121 135h233zM125 0v711q0 350 385 350q100 0 180 -17v-221q-63 13 -129 13q-96 0 -142 -35.5t-46 -138.5v-662h-248z" />
    <glyph glyph-name="sacute.alt" horiz-adv-x="948" 
d="M356 1130l107 297h280l-198 -297h-189zM90 84v244q151 -138 383 -138q82 0 128 26t46 71q0 21 -12.5 39.5t-32 32t-52 28.5t-62 26.5t-73 28.5t-75.5 31q-219 96 -219 291q0 138 106.5 218.5t266.5 80.5q164 0 280 -70v-225q-125 78 -270 78q-69 0 -109.5 -22t-40.5 -64
q0 -10 2.5 -19t9 -17.5t12 -14.5t18 -13t20.5 -11.5t25 -11.5t27 -11t30.5 -11.5t31.5 -11.5q53 -21 79 -31.5t71.5 -32t68.5 -38t54 -44t46.5 -55t26.5 -65.5t11 -82q0 -60 -23.5 -115t-71 -101.5t-131 -74t-192.5 -27.5q-217 0 -379 111z" />
    <glyph glyph-name="scircumflex.alt" horiz-adv-x="948" 
d="M125 1159l369 311l368 -311h-237l-131 127l-132 -127h-237zM90 84v244q151 -138 383 -138q82 0 128 26t46 71q0 21 -12.5 39.5t-32 32t-52 28.5t-62 26.5t-73 28.5t-75.5 31q-219 96 -219 291q0 138 106.5 218.5t266.5 80.5q164 0 280 -70v-225q-125 78 -270 78
q-69 0 -109.5 -22t-40.5 -64q0 -10 2.5 -19t9 -17.5t12 -14.5t18 -13t20.5 -11.5t25 -11.5t27 -11t30.5 -11.5t31.5 -11.5q53 -21 79 -31.5t71.5 -32t68.5 -38t54 -44t46.5 -55t26.5 -65.5t11 -82q0 -60 -23.5 -115t-71 -101.5t-131 -74t-192.5 -27.5q-217 0 -379 111z" />
    <glyph glyph-name="scaron.alt" horiz-adv-x="948" 
d="M494 1124l-369 310h237l132 -129l129 129h239zM90 84v244q151 -138 383 -138q82 0 128 26t46 71q0 21 -12.5 39.5t-32 32t-52 28.5t-62 26.5t-73 28.5t-75.5 31q-219 96 -219 291q0 138 106.5 218.5t266.5 80.5q164 0 280 -70v-225q-125 78 -270 78q-69 0 -109.5 -22
t-40.5 -64q0 -10 2.5 -19t9 -17.5t12 -14.5t18 -13t20.5 -11.5t25 -11.5t27 -11t30.5 -11.5t31.5 -11.5q53 -21 79 -31.5t71.5 -32t68.5 -38t54 -44t46.5 -55t26.5 -65.5t11 -82q0 -60 -23.5 -115t-71 -101.5t-131 -74t-192.5 -27.5q-217 0 -379 111z" />
    <glyph glyph-name="scommaaccent.alt" horiz-adv-x="948" 
d="M90 84v244q151 -138 383 -138q82 0 128 26t46 71q0 21 -12.5 39.5t-32 32t-52 28.5t-62 26.5t-73 28.5t-75.5 31q-219 96 -219 291q0 138 106.5 218.5t266.5 80.5q164 0 280 -70v-225q-125 78 -270 78q-69 0 -109.5 -22t-40.5 -64q0 -10 2.5 -19t9 -17.5t12 -14.5t18 -13
t20.5 -11.5t25 -11.5t27 -11t30.5 -11.5t31.5 -11.5q53 -21 79 -31.5t71.5 -32t68.5 -38t54 -44t46.5 -55t26.5 -65.5t11 -82q0 -60 -23.5 -115t-71 -101.5t-131 -74t-192.5 -27.5q-217 0 -379 111zM225 -395l105 297h282l-198 -297h-189z" />
    <glyph glyph-name="scedilla.alt" horiz-adv-x="948" 
d="M240 -379l53 109q54 -31 102 -31q34 0 57 19t23 49q0 44 -32 60.5t-97 16.5h-2l55 133q-174 14 -309 107v244q151 -138 383 -138q82 0 128 26t46 71q0 21 -12.5 39.5t-32 32t-52 28.5t-62 26.5t-73 28.5t-75.5 31q-219 96 -219 291q0 138 106.5 218.5t266.5 80.5
q164 0 280 -70v-225q-125 78 -270 78q-69 0 -109.5 -22t-40.5 -64q0 -10 2.5 -19t9 -17.5t12 -14.5t18 -13t20.5 -11.5t25 -11.5t27 -11t30.5 -11.5t31.5 -11.5q53 -21 79 -31.5t71.5 -32t68.5 -38t54 -44t46.5 -55t26.5 -65.5t11 -82q0 -54 -19.5 -104.5t-58.5 -95
t-106.5 -75t-155.5 -39.5l-35 -71h2q57 0 96 -41.5t39 -108.5q0 -93 -62 -139.5t-171 -46.5q-49 0 -98 15t-78 36z" />
    <glyph glyph-name="germandbls.alt" horiz-adv-x="1232" 
d="M129 0v1087q0 156 113 263.5t278 107.5q161 0 274 -106t113 -258q0 -111 -63 -179l-2 -2q128 -39 219.5 -154.5t91.5 -281.5q0 -141 -65.5 -256.5t-183.5 -182.5t-265 -67q-49 0 -121 11v233q44 -16 105 -16q117 0 199.5 81.5t82.5 196.5q0 113 -82.5 193t-199.5 80h-2
q-47 0 -103 -17v180q74 11 115 53.5t41 110.5q0 62 -43.5 108t-104.5 46q-62 0 -104.5 -46.5t-42.5 -111.5v-1073h-250z" />
    <glyph glyph-name="tcaron.alt" horiz-adv-x="872" 
d="M512 1130l104 297h275l-191 -297h-188zM201 0v807h-133v225h133v395h248v-395h225v-225h-225v-807h-248z" />
    <glyph glyph-name="tcommaaccent.alt" horiz-adv-x="733" 
d="M201 0v807h-133v225h133v395h248v-395h225v-225h-225v-807h-248zM92 -395l107 297h280l-198 -297h-189z" />
    <glyph glyph-name="tbar.alt" horiz-adv-x="733" 
d="M201 0v502h-133v198h133v131h-133v201h133v395h248v-395h215v-201h-215v-131h215v-198h-215v-502h-248z" />
    <glyph glyph-name="ugrave.alt" horiz-adv-x="1165" 
d="M516 1130l-201 297h283l104 -297h-186zM119 393v639h248v-604q0 -105 54 -166t152 -61t161 66.5t63 170.5v594h250v-1032h-250v143q-34 -74 -113.5 -118.5t-183.5 -44.5q-181 0 -281 110.5t-100 302.5z" />
    <glyph glyph-name="uacute.alt" horiz-adv-x="1165" 
d="M477 1130l105 297h280l-198 -297h-187zM119 393v639h248v-604q0 -105 54 -166t152 -61t161 66.5t63 170.5v594h250v-1032h-250v143q-34 -74 -113.5 -118.5t-183.5 -44.5q-181 0 -281 110.5t-100 302.5z" />
    <glyph glyph-name="ucircumflex.alt" horiz-adv-x="1165" 
d="M223 1159l369 311l369 -311h-238l-131 127l-131 -127h-238zM119 393v639h248v-604q0 -105 54 -166t152 -61t161 66.5t63 170.5v594h250v-1032h-250v143q-34 -74 -113.5 -118.5t-183.5 -44.5q-181 0 -281 110.5t-100 302.5z" />
    <glyph glyph-name="utilde.alt" horiz-adv-x="1165" 
d="M217 1204q14 102 76 167t160 65q52 0 103 -21.5t95 -43t80 -21.5q37 0 59.5 20.5t32.5 65.5l146 -19q-33 -246 -242 -246q-53 0 -104.5 21.5t-95.5 43t-81 21.5q-70 0 -86 -71zM119 393v639h248v-604q0 -105 54 -166t152 -61t161 66.5t63 170.5v594h250v-1032h-250v143
q-34 -74 -113.5 -118.5t-183.5 -44.5q-181 0 -281 110.5t-100 302.5z" />
    <glyph glyph-name="udieresis.alt" horiz-adv-x="1165" 
d="M803 1161q-54 0 -92.5 36.5t-38.5 90.5t38.5 90.5t92.5 36.5q52 0 90.5 -37t38.5 -90t-38.5 -90t-90.5 -37zM377 1161q-54 0 -92.5 36.5t-38.5 90.5t38.5 90.5t92.5 36.5q53 0 91 -37t38 -90t-38 -90t-91 -37zM119 393v639h248v-604q0 -105 54 -166t152 -61t161 66.5
t63 170.5v594h250v-1032h-250v143q-34 -74 -113.5 -118.5t-183.5 -44.5q-181 0 -281 110.5t-100 302.5z" />
    <glyph glyph-name="umacron.alt" horiz-adv-x="1165" 
d="M274 1194v174h631v-174h-631zM119 393v639h248v-604q0 -105 54 -166t152 -61t161 66.5t63 170.5v594h250v-1032h-250v143q-34 -74 -113.5 -118.5t-183.5 -44.5q-181 0 -281 110.5t-100 302.5z" />
    <glyph glyph-name="ubreve.alt" horiz-adv-x="1165" 
d="M592 1139q-141 0 -234.5 82.5t-111.5 208.5h188q40 -119 158 -119q116 0 156 119h188q-18 -125 -111.5 -208t-232.5 -83zM119 393v639h248v-604q0 -105 54 -166t152 -61t161 66.5t63 170.5v594h250v-1032h-250v143q-34 -74 -113.5 -118.5t-183.5 -44.5q-181 0 -281 110.5
t-100 302.5z" />
    <glyph glyph-name="uring.alt" horiz-adv-x="1165" 
d="M590 1081q-95 0 -163.5 66t-68.5 158q0 91 68.5 157t163.5 66q93 0 160 -66t67 -157q0 -93 -66 -158.5t-161 -65.5zM590 1221q35 0 59.5 25t24.5 59t-24.5 57.5t-59.5 23.5t-60.5 -23.5t-25.5 -57.5t25.5 -59t60.5 -25zM119 393v639h248v-604q0 -105 54 -166t152 -61
t161 66.5t63 170.5v594h250v-1032h-250v143q-34 -74 -113.5 -118.5t-183.5 -44.5q-181 0 -281 110.5t-100 302.5z" />
    <glyph glyph-name="uhungarumlaut.alt" horiz-adv-x="1165" 
d="M659 1130l138 297h268l-234 -297h-172zM307 1130l139 297h267l-232 -297h-174zM119 393v639h248v-604q0 -105 54 -166t152 -61t161 66.5t63 170.5v594h250v-1032h-250v143q-34 -74 -113.5 -118.5t-183.5 -44.5q-181 0 -281 110.5t-100 302.5z" />
    <glyph glyph-name="uogonek.alt" horiz-adv-x="1171" 
d="M119 393v639h248v-604q0 -105 54 -166t152 -61t161 66.5t63 170.5v594h250v-1032q-148 -96 -148 -186q0 -39 29.5 -59.5t72.5 -20.5q59 0 119 26l-35 -161q-60 -29 -116 -29q-97 0 -169.5 57t-72.5 150q0 128 154 223h-84v143q-34 -74 -113.5 -118.5t-183.5 -44.5
q-181 0 -281 110.5t-100 302.5z" />
    <glyph glyph-name="wgrave.alt" horiz-adv-x="1675" 
d="M762 1130l-199 297h281l106 -297h-188zM573 -66l-544 1098h254l305 -631l123 228l-203 403h223l109 -215l108 215h226l-203 -403l121 -228l305 631h254l-545 -1098l-266 508z" />
    <glyph glyph-name="wacute.alt" horiz-adv-x="1675" 
d="M727 1130l104 297h281l-199 -297h-186zM573 -66l-544 1098h254l305 -631l123 228l-203 403h223l109 -215l108 215h226l-203 -403l121 -228l305 631h254l-545 -1098l-266 508z" />
    <glyph glyph-name="wcircumflex.alt" horiz-adv-x="1675" 
d="M473 1159l369 311l370 -311h-239l-131 127l-127 -127h-242zM573 -66l-544 1098h254l305 -631l123 228l-203 403h223l109 -215l108 215h226l-203 -403l121 -228l305 631h254l-545 -1098l-266 508z" />
    <glyph glyph-name="wdieresis.alt" horiz-adv-x="1675" 
d="M1065 1161q-54 0 -92.5 37.5t-38.5 89.5q0 54 38.5 90.5t92.5 36.5q53 0 92 -37t39 -90q0 -52 -39 -89.5t-92 -37.5zM618 1161q-53 0 -91 37.5t-38 89.5q0 53 38 90t91 37q55 0 94.5 -37t39.5 -90q0 -52 -40 -89.5t-94 -37.5zM573 -66l-544 1098h254l305 -631l123 228
l-203 403h223l109 -215l108 215h226l-203 -403l121 -228l305 631h254l-545 -1098l-266 508z" />
    <glyph glyph-name="ygrave.alt" horiz-adv-x="1198" 
d="M535 1130l-199 297h282l105 -297h-188zM467 -14l-426 1046h256l299 -751l309 751h254l-606 -1429h-252z" />
    <glyph glyph-name="yacute.alt" horiz-adv-x="1198" 
d="M483 1130l105 297h282l-200 -297h-187zM467 -14l-426 1046h256l299 -751l309 751h254l-606 -1429h-252z" />
    <glyph glyph-name="ycircumflex.alt" horiz-adv-x="1198" 
d="M227 1159l369 311l371 -311h-240l-131 127l-129 -127h-240zM467 -14l-426 1046h256l299 -751l309 751h254l-606 -1429h-252z" />
    <glyph glyph-name="ydieresis.alt" horiz-adv-x="1198" 
d="M807 1161q-53 0 -91 37t-38 90t38 90t91 37q55 0 94 -37t39 -90t-39 -90t-94 -37zM383 1161q-53 0 -92 37t-39 90t39 90t92 37t91 -37t38 -90t-38 -90t-91 -37zM467 -14l-426 1046h256l299 -751l309 751h254l-606 -1429h-252z" />
    <glyph glyph-name="fl.alt" horiz-adv-x="1359" 
d="M248 0v807h-170v225h170v51q0 119 26.5 189t85.5 117q36 29 85 45t84.5 19t86.5 3q63 0 109 -8v-213q-29 10 -94 10q-75 0 -109.5 -33t-34.5 -110v-70h203v-225h-203v-807h-239zM850 307v1120h248v-1087q0 -75 28.5 -109t94.5 -34q42 0 73 8v-221q-50 -13 -118 -13
q-46 0 -85.5 6t-86 26.5t-78.5 55.5t-54 98.5t-22 149.5z" />
    <glyph glyph-name="ffl.alt" horiz-adv-x="1890" 
d="M248 0v807h-170v225h170v51q0 90 20.5 158t53.5 108t81.5 65t97 33.5t107.5 8.5q65 0 105 -8v-213q-25 10 -86 10q-73 0 -107.5 -33t-34.5 -110v-70h316v51q0 90 21 158t55 108t84 65t99.5 33.5t110.5 8.5t107 -8v-213q-27 10 -92 10q-75 0 -110.5 -33.5t-35.5 -109.5
v-70h205v-225h-203v-807h-241v807h-314v-807h-239zM1382 307v1120h250v-1087q0 -76 28 -109.5t93 -33.5q43 0 74 8v-221q-47 -13 -119 -13q-326 0 -326 336z" />
    <glyph glyph-name="fj.alt" horiz-adv-x="1167" 
d="M248 0v807h-170v225h170v49q0 119 27 188.5t87 114.5q59 44 130 57t163 13q125 0 172 -8v-211q-51 10 -141 10q-104 0 -151.5 -33.5t-47.5 -111.5v-68h555v-1427h-247v1202h-306v-807h-241z" />
    <glyph glyph-name="ffj.alt" horiz-adv-x="1689" 
d="M248 0v807h-170v225h170v51q0 90 20.5 158t53.5 108t81.5 65t97 33.5t107.5 8.5q65 0 105 -8v-213q-25 10 -86 10q-73 0 -107.5 -33t-34.5 -110v-70h318v51q0 119 26.5 188.5t85.5 114.5q60 44 132.5 57t166.5 13q106 0 168 -10v-211q-54 10 -135 10q-107 0 -156 -33
t-49 -110v-70h535v-1427h-246v1202h-289v-807h-239v807h-316v-807h-239z" />
    <glyph glyph-name="zero.onum" horiz-adv-x="1232" 
d="M102 516q0 174 78 305q64 108 180 175t256 67q141 0 257 -67t178 -175q79 -133 79 -305t-79 -305q-62 -108 -178 -175t-257 -67q-140 0 -256 67t-180 175q-78 131 -78 305zM344 516q0 -96 27 -160q33 -72 99 -115.5t146 -43.5q81 0 147 44t97 115q29 69 29 160
q0 88 -29 160q-33 72 -98.5 116t-145.5 44t-146 -44t-97 -116q-29 -65 -29 -160z" />
    <glyph glyph-name="one.onum" horiz-adv-x="839" 
d="M416 0v707l-244 -123l-109 209l599 292v-1085h-246z" />
    <glyph glyph-name="two.onum" horiz-adv-x="1099" 
d="M31 0l592 516q67 59 90.5 99t23.5 79q0 61 -52.5 102.5t-129.5 41.5q-92 0 -155.5 -61.5t-63.5 -149.5h-232q0 181 133.5 309.5t321.5 128.5q177 0 298.5 -101.5t121.5 -248.5q0 -100 -41.5 -174t-142.5 -160l-174 -148h407v-233h-997z" />
    <glyph glyph-name="three.onum" horiz-adv-x="1136" 
d="M35 12l211 119q34 -75 107.5 -117.5t172.5 -42.5q116 0 193.5 61.5t77.5 157.5q0 100 -79.5 160t-213.5 60q-152 0 -240 -25l340 414h-452v233h903l-361 -438h2q147 -14 247.5 -126.5t100.5 -266.5q0 -197 -143 -328t-371 -131q-168 0 -299.5 73t-195.5 197z" />
    <glyph glyph-name="four.onum" horiz-adv-x="1257" 
d="M61 0l469 1032h267l-363 -809h418v291h252v-854h-252v340h-791z" />
    <glyph glyph-name="five.onum" horiz-adv-x="1142" 
d="M66 12l208 121q36 -71 107 -114.5t158 -43.5q116 0 189 61t73 159q0 110 -83 169.5t-220 59.5q-96 0 -187.5 -24t-158.5 -66l124 698h699v-233h-502l-33 -187q66 17 133 17q202 0 340 -124.5t138 -314.5q0 -130 -68.5 -233t-185 -159t-258.5 -56q-154 0 -281 72.5
t-192 197.5z" />
    <glyph glyph-name="six.onum" horiz-adv-x="1167" 
d="M88 455q0 47 11.5 95t26.5 87t46.5 94.5t55 92t69.5 104.5l332 499h284l-340 -503q24 4 58 4q78 0 157.5 -34t144 -94t105.5 -151t41 -194q0 -129 -67 -239.5t-181.5 -175.5t-248.5 -65q-133 0 -247 65t-180.5 175.5t-66.5 239.5zM336 455q0 -100 72.5 -172t173.5 -72
t174 72t73 172q0 103 -73 176.5t-174 73.5q-102 0 -174 -73.5t-72 -176.5z" />
    <glyph glyph-name="seven.onum" horiz-adv-x="1110" 
d="M188 -395l525 1194h-635v233h1003l-630 -1427h-263z" />
    <glyph glyph-name="eight.onum" horiz-adv-x="1196" 
d="M92 455q0 126 62 222t161 146q-56 41 -88 103t-32 137q0 161 119.5 276t285.5 115t285 -115t119 -276q0 -148 -121 -240q99 -48 162 -145t63 -223q0 -197 -148.5 -338.5t-359.5 -141.5t-359.5 141.5t-148.5 338.5zM600 891q70 0 119 50.5t49 121.5q0 68 -49 116t-119 48
t-120 -48t-50 -116q0 -71 50 -121.5t120 -50.5zM348 455q0 -101 74 -172.5t178 -71.5q103 0 177.5 72t74.5 172t-74.5 171.5t-177.5 71.5q-104 0 -178 -71t-74 -172z" />
    <glyph glyph-name="nine.onum" horiz-adv-x="1169" 
d="M256 0l342 504q-24 -4 -57 -4q-79 0 -159 34t-145 94t-106 150.5t-41 194.5q0 129 67.5 239.5t182.5 175t250 64.5q133 0 246 -64.5t179 -175t66 -239.5q0 -58 -14 -113t-49.5 -122.5t-62 -109.5t-85.5 -132q-3 -4 -34 -52q-115 -176 -291 -444h-289zM590 723
q101 0 173.5 73.5t72.5 176.5q0 100 -73 172t-173 72q-103 0 -176.5 -72t-73.5 -172q0 -103 73.5 -176.5t176.5 -73.5z" />
    <glyph glyph-name="zero.tnum" horiz-adv-x="1169" 
d="M109 403q-7 82 -7 312q0 227 7 309q19 183 155 306.5t320 123.5q185 0 320.5 -123t154.5 -307q6 -70 6 -309q0 -242 -6 -312q-19 -184 -154.5 -307t-320.5 -123q-184 0 -320 123.5t-155 306.5zM360 422q9 -93 72 -153t152 -60q88 0 151 60.5t72 152.5q6 57 6 293
q0 229 -6 286q-9 93 -72.5 155.5t-150.5 62.5q-88 0 -151.5 -62.5t-72.5 -155.5q-6 -57 -6 -286q0 -236 6 -293z" />
    <glyph glyph-name="one.tnum" horiz-adv-x="1169" 
d="M596 0v1092l-330 -181l-106 209l692 369v-1489h-256z" />
    <glyph glyph-name="two.tnum" horiz-adv-x="1169" 
d="M37 0l653 819q88 110 88 199q0 82 -56.5 141.5t-135.5 59.5q-83 0 -142 -67.5t-59 -162.5h-256q0 193 134 329t325 136q185 0 315.5 -128.5t130.5 -309.5q0 -75 -23 -146.5t-96 -162.5l-380 -474h526v-233h-1024z" />
    <glyph glyph-name="three.tnum" horiz-adv-x="1169" 
d="M55 254l209 115q35 -75 110 -116.5t173 -41.5q121 0 199.5 71.5t78.5 186.5q0 118 -81 190t-218 72q-156 0 -256 -33l371 496h-469v233h907l-383 -505h2q161 -9 271 -139t110 -308q0 -216 -146.5 -358t-381.5 -142q-169 0 -300.5 75t-195.5 204z" />
    <glyph glyph-name="four.tnum" horiz-adv-x="1169" 
d="M43 287l494 1140h266l-391 -911h395v283h258v-799h-258v287h-764z" />
    <glyph glyph-name="five.tnum" horiz-adv-x="1169" 
d="M63 264l211 121q37 -79 113 -126.5t168 -47.5q113 0 193.5 77.5t80.5 190.5q0 121 -87.5 197t-219.5 76q-99 0 -192 -24.5t-160 -68.5l131 768h684v-233h-487l-41 -240q55 19 121 19q209 0 356 -146t147 -348q0 -138 -71 -254t-192 -183t-263 -67q-162 0 -293.5 79
t-198.5 210z" />
    <glyph glyph-name="six.tnum" horiz-adv-x="1171" 
d="M88 469q0 72 29.5 154t63 140t100.5 163q19 28 307 501h280l-311 -501q28 14 84 14q78 0 158 -33.5t146 -92t107.5 -149t41.5 -194.5q0 -134 -67.5 -246.5t-183.5 -177.5t-253 -65q-135 0 -250.5 65t-183.5 177t-68 245zM344 467q0 -105 72 -177.5t174 -72.5
q101 0 175.5 74.5t74.5 175.5t-74.5 175.5t-175.5 74.5q-104 0 -175 -72t-71 -178z" />
    <glyph glyph-name="seven.tnum" horiz-adv-x="1169" 
d="M244 0l573 1194h-719v233h1090l-676 -1427h-268z" />
    <glyph glyph-name="eight.tnum" horiz-adv-x="1169" 
d="M92 455q0 126 62 222t161 146q-57 41 -89.5 103t-32.5 137q0 161 116 276t277 115q162 0 276.5 -114.5t114.5 -276.5q0 -148 -121 -240q99 -48 161 -144.5t62 -223.5q0 -129 -65 -239.5t-179 -175.5t-249 -65q-134 0 -248 65t-180 175.5t-66 239.5zM586 891
q64 0 108.5 50.5t44.5 121.5q0 68 -44.5 116t-108.5 48t-110 -48t-46 -116q0 -71 46 -121.5t110 -50.5zM350 455q0 -101 69.5 -172.5t166.5 -71.5t167 72t70 172t-70 171.5t-167 71.5q-98 0 -167 -71t-69 -172z" />
    <glyph glyph-name="nine.tnum" horiz-adv-x="1169" 
d="M291 0l315 508q-32 -14 -82 -14q-78 0 -156.5 33.5t-143.5 92t-105.5 149t-40.5 194.5q0 134 66.5 246.5t181 177.5t249.5 65q133 0 247 -65t181.5 -177.5t67.5 -244.5q0 -54 -11.5 -104t-44 -116t-52 -99t-74.5 -124l-316 -522h-282zM575 715q102 0 170 72t68 180
q0 106 -69 178t-169 72t-172.5 -74.5t-72.5 -175.5q0 -103 72.5 -177.5t172.5 -74.5z" />
    <glyph glyph-name="four.alt" horiz-adv-x="1220" 
d="M23 236l962 1251v-1032h164v-228h-164v-227h-250v227h-706zM461 453h274v366z" />
    <glyph glyph-name="four.onum.alt" horiz-adv-x="1169" 
d="M31 113l915 979v-877h164v-215h-164v-272h-244v272h-671v113zM395 213h307v338z" />
    <glyph glyph-name="four.tnum.alt" horiz-adv-x="1169" 
d="M-29 236l924 1251v-1047h164v-213h-164v-227h-233v227h-685zM379 438h283v387z" />
    <glyph glyph-name="foursuperior.alt" horiz-adv-x="790" 
d="M53 844l555 631v-551h92v-146h-92v-106h-159v106h-394zM297 922h152v186q-15 -20 -74 -89t-78 -97z" />
    <glyph glyph-name="four.inferior.alt" horiz-adv-x="790" 
d="M53 172l555 631v-551h92v-146h-92v-106h-159v106h-394zM297 250h152v186q-15 -20 -74 -89t-78 -97z" />
    <glyph glyph-name="onequarter.alt" horiz-adv-x="1454" 
d="M150 0l882 1427h228l-881 -1427h-229zM229 672v592h-116v163h288v-755h-172zM707 172l553 631v-551h92v-146h-92v-106h-158v106h-393zM948 250h154v186q-13 -17 -73 -87t-81 -99z" />
    <glyph glyph-name="threequarters.alt" horiz-adv-x="1591" 
d="M285 0l882 1427h230l-883 -1427h-229zM352 657q-96 0 -171.5 45t-114.5 119l143 84q46 -84 143 -84q58 0 95.5 30.5t37.5 80.5q0 53 -38.5 84t-106.5 31q-82 0 -143 -17l182 234h-244v163h535l-211 -260q13 0 41 -8q74 -22 120 -85t46 -142q0 -118 -86 -196.5t-228 -78.5
zM844 172l555 631v-551h92v-146h-92v-106h-160v106h-393zM1085 250h154v186q-13 -17 -73 -87t-81 -99z" />
    <glyph glyph-name="published" horiz-adv-x="1703" 
d="M98 713q0 148 58.5 285t158 239.5t240.5 163.5t299 61q148 0 286.5 -58t241.5 -157t164.5 -239t61.5 -295q0 -148 -59 -286t-158.5 -240t-240.5 -163t-296 -61q-148 0 -286 58t-241.5 156.5t-166 239t-62.5 296.5zM262 713q0 -160 79.5 -296t216 -215t296.5 -79
q159 0 294.5 79t214.5 215t79 296t-79 295.5t-214 213.5t-295 78q-161 0 -297 -78t-215.5 -213.5t-79.5 -295.5zM606 283v827h320q102 0 184 -77t82 -199q0 -119 -80.5 -198t-185.5 -79h-140v-274h-180zM786 721h123q41 0 73 30t32 83t-32 81.5t-73 28.5h-123v-223z" />
    <glyph glyph-name="colon.case" horiz-adv-x="479" 
d="M242 840q-58 0 -101 41.5t-43 99.5q0 60 43 101.5t101 41.5t100.5 -41.5t42.5 -101.5q0 -58 -42.5 -99.5t-100.5 -41.5zM242 289q-58 0 -101 40.5t-43 98.5q0 59 43 101t101 42t100.5 -42t42.5 -101q0 -58 -42.5 -98.5t-100.5 -40.5z" />
    <glyph glyph-name="semicolon.case" horiz-adv-x="573" 
d="M299 840q-58 0 -100.5 41.5t-42.5 99.5q0 60 42.5 101.5t100.5 41.5t99.5 -41t41.5 -102q0 -58 -42 -99.5t-99 -41.5zM10 0l174 471h265l-248 -471h-191z" />
    <glyph glyph-name="bullet.case" horiz-adv-x="702" 
d="M352 498q-87 0 -151 63t-64 152q0 91 63.5 153t151.5 62t151.5 -62t63.5 -153q0 -92 -62.5 -153.5t-152.5 -61.5z" />
    <glyph glyph-name="periodcentered.case" horiz-adv-x="462" 
d="M233 569q-58 0 -101.5 42t-43.5 102q0 58 43.5 99.5t101.5 41.5q57 0 99.5 -41.5t42.5 -99.5q0 -61 -42 -102.5t-100 -41.5z" />
    <glyph glyph-name="guilsinglleft.case" horiz-adv-x="669" 
d="M328 342l-238 371l238 374h256l-242 -374l242 -371h-256z" />
    <glyph glyph-name="guilsinglright.case" horiz-adv-x="669" 
d="M88 342l242 371l-242 374h256l238 -374l-238 -371h-256z" />
    <glyph glyph-name="guillemotleft.case" horiz-adv-x="1085" 
d="M748 342l-240 371l240 374h256l-244 -374l244 -371h-256zM328 342l-238 371l238 374h256l-242 -374l242 -371h-256z" />
    <glyph glyph-name="guillemotright.case" horiz-adv-x="1085" 
d="M506 342l242 371l-242 374h256l237 -374l-237 -371h-256zM88 342l242 371l-242 374h256l238 -374l-238 -371h-256z" />
    <glyph glyph-name="slash.case" horiz-adv-x="958" 
d="M43 -166l664 1759h221l-662 -1759h-223z" />
    <glyph glyph-name="backslash.case" horiz-adv-x="958" 
d="M700 -166l-659 1759h221l664 -1759h-226z" />
    <glyph glyph-name="hyphen.case" horiz-adv-x="897" 
d="M104 606v215h687v-215h-687z" />
    <glyph glyph-name="endash.case" horiz-adv-x="1089" 
d="M102 606v215h887v-215h-887z" />
    <glyph glyph-name="emdash.case" horiz-adv-x="1533" 
d="M102 606v215h1330v-215h-1330z" />
    <glyph glyph-name="parenleft.case" horiz-adv-x="688" 
d="M575 -279q-233 198 -351 448.5t-118 535.5q0 282 119.5 532t349.5 451l115 -123q-178 -185 -267 -391.5t-89 -468.5q0 -267 88 -470t268 -391z" />
    <glyph glyph-name="parenright.case" horiz-adv-x="688" 
d="M0 -156q178 190 266 393t88 468q0 261 -89 467.5t-265 392.5l115 123q229 -201 347 -450.5t118 -532.5q0 -285 -117.5 -535.5t-347.5 -448.5z" />
    <glyph glyph-name="bracketleft.case" horiz-adv-x="759" 
d="M170 -221v1872h567v-221h-323v-1432h323v-219h-567z" />
    <glyph glyph-name="bracketright.case" horiz-adv-x="759" 
d="M25 -2h321v1432h-321v221h565v-1872h-565v219z" />
    <glyph glyph-name="braceleft.case" horiz-adv-x="757" 
d="M248 76v385q0 123 -82 166q-20 10 -43 16t-36 7l-13 1v127q47 2 92 27q82 43 82 164v387q0 114 69.5 188t176.5 74h163v-199h-73q-55 0 -80 -35.5t-25 -85.5v-311q0 -149 -84 -217q-46 -36 -98 -55q50 -18 98 -56q84 -68 84 -217v-311q0 -50 25 -84.5t80 -34.5h73v-198
h-163q-107 0 -176.5 74t-69.5 188z" />
    <glyph glyph-name="braceright.case" horiz-adv-x="757" 
d="M100 12h74q54 0 79.5 35t25.5 84v311q0 152 83 217q47 37 97 56q-53 20 -97 55q-83 65 -83 217v311q0 49 -25.5 85t-79.5 36h-74v199h164q107 0 176.5 -74t69.5 -188v-387q0 -121 82 -164q20 -11 43 -18t36 -8l13 -1v-127q-47 -1 -92 -24q-82 -43 -82 -166v-385
q0 -114 -69.5 -188t-176.5 -74h-164v198z" />
    <glyph glyph-name="exclamdown.case" horiz-adv-x="598" 
d="M301 1171q-58 0 -100.5 41t-42.5 99q0 60 42.5 101.5t100.5 41.5t99.5 -41t41.5 -102q0 -58 -42 -99t-99 -41zM150 0l43 1065h215l43 -1065h-301z" />
    <glyph glyph-name="questiondown.case" horiz-adv-x="907" 
d="M459 1182q-58 0 -100 40t-42 99q0 58 42 97.5t100 39.5t98.5 -39.5t40.5 -97.5q0 -59 -40.5 -99t-98.5 -40zM416 1085q138 0 222.5 -77.5t84.5 -204.5q0 -170 -203 -299q-8 -5 -30 -19t-29 -18.5t-25 -16.5t-24.5 -17.5t-20 -17t-18.5 -19t-13.5 -19t-11.5 -22
t-5.5 -23.5t-2.5 -27q0 -11 5 -25t18 -33t44 -31.5t74 -12.5q160 0 305 141v-268q-137 -105 -315 -105q-96 0 -172.5 28.5t-122 74.5t-69 100.5t-23.5 110.5q0 133 58 211t210 170q64 38 95.5 67t31.5 68q0 80 -98 80q-91 0 -152 -39v207q79 36 187 36z" />
    <glyph glyph-name="at.case" horiz-adv-x="1691" 
d="M94 715q0 152 59.5 290t160.5 238.5t240 159.5t292 59q152 0 290.5 -56t239.5 -151t161 -227t60 -278q0 -214 -93.5 -330.5t-258.5 -116.5q-87 0 -149.5 40.5t-85.5 111.5q-32 -43 -84.5 -66.5t-114.5 -23.5q-140 0 -234 100t-94 246t94 246t234 100q118 0 178 -80v65
h195v-460q0 -60 23 -82.5t53 -22.5q19 0 36 5.5t36.5 23t33.5 46t23.5 79.5t9.5 119q0 107 -44 204.5t-118.5 168t-176.5 112t-214 41.5q-150 0 -278 -75t-202.5 -204t-74.5 -282q0 -113 44.5 -216t119 -178t177 -119t214.5 -44q127 0 241 63l82 -172q-147 -78 -323 -78
q-154 0 -294 59.5t-240 159.5t-159 237t-59 288zM682 711q0 -68 45.5 -114t112.5 -46q66 0 111.5 46.5t45.5 113.5q0 70 -45 115.5t-112 45.5q-68 0 -113 -45.5t-45 -115.5z" />
    <glyph glyph-name="Agrave.alt1" horiz-adv-x="1513" 
d="M647 1229l-158 198h308l71 -198h-221zM47 0l602 1194h223l598 -1194h-272l-139 283h-598l-139 -283h-275zM557 496h404l-201 419z" />
    <glyph glyph-name="Aacute.alt1" horiz-adv-x="1513" 
d="M653 1229l70 198h309l-160 -198h-219zM47 0l602 1194h223l598 -1194h-272l-139 283h-598l-139 -283h-275zM557 496h404l-201 419z" />
    <glyph glyph-name="Acircumflex.alt1" horiz-adv-x="1513" 
d="M422 1229l336 229l336 -229h-246l-90 96l-90 -96h-246zM47 0l602 1194h223l598 -1194h-272l-139 283h-598l-139 -283h-275zM557 496h404l-201 419z" />
    <glyph glyph-name="Atilde.alt1" horiz-adv-x="1513" 
d="M410 1247q13 90 65.5 142.5t142.5 52.5q63 0 150.5 -33t116.5 -33q66 0 82 70l143 -19q-11 -94 -61.5 -144t-139.5 -50q-66 0 -156.5 30.5t-121.5 30.5q-65 0 -82 -63zM47 0l602 1194h223l598 -1194h-272l-139 283h-598l-139 -283h-275zM557 496h404l-201 419z" />
    <glyph glyph-name="Adieresis.alt1" horiz-adv-x="1538" 
d="M1104 1241q-53 0 -91 37.5t-38 91.5q0 53 38 90t91 37q56 0 94.5 -36.5t38.5 -90.5t-38.5 -91.5t-94.5 -37.5zM442 1241q-56 0 -94.5 37.5t-38.5 91.5t38.5 90.5t94.5 36.5q53 0 91 -37t38 -90q0 -54 -38 -91.5t-91 -37.5zM63 0l709 1497l707 -1497h-277l-125 274h-614
l-127 -274h-273zM561 498h418l-209 460z" />
    <glyph glyph-name="Amacron.alt1" horiz-adv-x="1513" 
d="M436 1270v157h645v-157h-645zM47 0l600 1227h225l598 -1227h-272l-133 283h-612l-131 -283h-275zM551 496h418l-209 450z" />
    <glyph glyph-name="Abreve.alt1" horiz-adv-x="1513" 
d="M760 1233q-122 0 -202 54.5t-95 139.5h182q25 -57 115 -57q87 0 112 57h185q-15 -85 -95 -139.5t-202 -54.5zM47 0l602 1194h223l598 -1194h-272l-139 283h-598l-139 -283h-275zM557 496h404l-201 419z" />
    <glyph glyph-name="Aring.alt1" horiz-adv-x="1513" 
d="M47 0l531 1085q-56 62 -56 146q0 93 69.5 158t168.5 65q97 0 166 -65.5t69 -157.5q0 -85 -55 -146l530 -1085h-272l-133 283h-612l-131 -283h-275zM760 1139q37 0 63.5 26.5t26.5 63.5q0 35 -26.5 61.5t-63.5 26.5q-38 0 -66 -26.5t-28 -61.5q0 -37 28 -63.5t66 -26.5z
M549 496h420l-209 450z" />
    <glyph glyph-name="Aringacute.alt1" horiz-adv-x="1468" 
d="M47 0l502 995q-39 51 -39 113q0 88 66.5 150.5t160.5 62.5q19 0 25 -2l41 108h289l-164 -204q37 -53 37 -115q0 -66 -41 -113l503 -995h-274l-139 283h-553l-139 -283h-275zM737 1030q32 0 55 23t23 55q0 31 -23 53.5t-55 22.5t-55 -22.5t-23 -53.5q0 -32 23 -55t55 -23z
M557 496h358l-178 362z" />
    <glyph glyph-name="Aogonek.alt1" horiz-adv-x="1460" 
d="M53 0l707 1497l555 -1171q-48 -19 -83.5 -53.5t-35.5 -71.5q0 -56 88 -56q61 0 119 25l-37 -172q-57 -29 -145 -29q-87 0 -152 46t-65 124q0 69 71 115l-16 20h-608l-125 -274h-273zM549 502h420l-211 463z" />
    <glyph glyph-name="AEacute.alt1" horiz-adv-x="2015" 
d="M1049 1229l71 198h312l-160 -198h-223zM-6 0l1046 1194h856v-231h-585v-236h547v-215h-547v-283h600v-229h-854v283h-508l-256 -283h-299zM721 496h336v383z" />
    <glyph glyph-name="Cacute.alt1" horiz-adv-x="1349" 
d="M643 1229l72 198h307l-158 -198h-221zM104 584q0 129 53.5 242.5t143.5 194t213.5 127t259.5 46.5q137 0 271.5 -58t232.5 -173l-168 -158q-65 74 -152 115t-184 41q-175 0 -293.5 -108.5t-118.5 -268.5t118.5 -268.5t293.5 -108.5q99 0 187 43.5t151 120.5l170 -156
q-89 -104 -224 -172t-284 -68q-182 0 -335.5 78.5t-244 219t-90.5 311.5z" />
    <glyph glyph-name="Ccircumflex.alt1" horiz-adv-x="1349" 
d="M428 1229l336 229l336 -229h-246l-90 96l-90 -96h-246zM104 584q0 129 53.5 242.5t143.5 194t213.5 127t259.5 46.5q137 0 271.5 -58t232.5 -173l-168 -158q-65 74 -152 115t-184 41q-175 0 -293.5 -108.5t-118.5 -268.5t118.5 -268.5t293.5 -108.5q99 0 187 43.5
t151 120.5l170 -156q-89 -104 -224 -172t-284 -68q-182 0 -335.5 78.5t-244 219t-90.5 311.5z" />
    <glyph glyph-name="Ccaron.alt1" horiz-adv-x="1349" 
d="M764 1212l-334 215h244l90 -86l90 86h246zM104 584q0 129 53.5 242.5t143.5 194t213.5 127t259.5 46.5q137 0 271.5 -58t232.5 -173l-168 -158q-65 74 -152 115t-184 41q-175 0 -293.5 -108.5t-118.5 -268.5t118.5 -268.5t293.5 -108.5q99 0 187 43.5t151 120.5l170 -156
q-89 -104 -224 -172t-284 -68q-182 0 -335.5 78.5t-244 219t-90.5 311.5z" />
    <glyph glyph-name="Cdotaccent.alt1" horiz-adv-x="1349" 
d="M764 1260q-48 0 -84.5 33.5t-36.5 82.5t36.5 83t84.5 34q50 0 86.5 -34t36.5 -83t-36.5 -82.5t-86.5 -33.5zM104 584q0 129 53.5 242.5t143.5 194t213.5 127t259.5 46.5q137 0 271.5 -58t232.5 -173l-168 -158q-65 74 -152 115t-184 41q-175 0 -293.5 -108.5
t-118.5 -268.5t118.5 -268.5t293.5 -108.5q99 0 187 43.5t151 120.5l170 -156q-89 -104 -224 -172t-284 -68q-182 0 -335.5 78.5t-244 219t-90.5 311.5z" />
    <glyph glyph-name="Ccedilla.alt1" horiz-adv-x="1349" 
d="M104 840q0 129 53.5 242.5t143.5 194t213.5 127t259.5 46.5q137 0 271.5 -58t232.5 -173l-168 -158q-65 74 -152 115t-184 41q-175 0 -293.5 -108.5t-118.5 -268.5t118.5 -268.5t293.5 -108.5q99 0 187 43.5t151 120.5l170 -156q-89 -104 -224 -172t-282 -68h-4l-18 -38
h2q58 0 97.5 -29.5t39.5 -81.5q0 -67 -52.5 -102t-146.5 -35q-97 0 -159 49l45 88q54 -29 104 -29q68 0 68 41q0 30 -31.5 38.5t-108.5 8.5h-2l43 99q-236 37 -392.5 204t-156.5 396z" />
    <glyph glyph-name="Dcaron.alt1" horiz-adv-x="1476" 
d="M735 1208l-336 219h246l90 -86l92 86h244zM180 0v1194h512q161 0 290.5 -45t214.5 -125t130 -189.5t45 -240.5q0 -132 -45 -241t-129.5 -187.5t-213.5 -122t-290 -43.5h-514zM438 233h238q118 0 205 27t137.5 77t74 113.5t23.5 143.5q0 81 -24 146t-74.5 115.5t-137.5 78
t-206 27.5h-236v-728z" />
    <glyph glyph-name="Egrave.alt1" horiz-adv-x="1226" 
d="M571 1229l-159 198h309l70 -198h-220zM180 0v1194h912v-231h-654v-236h611v-215h-611v-281h670v-231h-928z" />
    <glyph glyph-name="Eacute.alt1" horiz-adv-x="1226" 
d="M514 1229l72 198h307l-158 -198h-221zM180 0v1194h912v-231h-654v-236h611v-215h-611v-281h670v-231h-928z" />
    <glyph glyph-name="Ecircumflex.alt1" horiz-adv-x="1226" 
d="M307 1229l334 229l336 -229h-244l-92 96l-90 -96h-244zM180 0v1194h912v-231h-654v-236h611v-215h-611v-281h670v-231h-928z" />
    <glyph glyph-name="Ecaron.alt1" horiz-adv-x="1226" 
d="M647 1208l-336 219h246l90 -86l92 86h244zM180 0v1194h912v-231h-654v-236h611v-215h-611v-281h670v-231h-928z" />
    <glyph glyph-name="Edieresis.alt1" horiz-adv-x="1226" 
d="M840 1260q-50 0 -85.5 33.5t-35.5 82.5t35.5 83t85.5 34t85.5 -34t35.5 -83t-35.5 -82.5t-85.5 -33.5zM438 1260q-50 0 -85.5 33.5t-35.5 82.5t35.5 83t85.5 34t85.5 -34t35.5 -83t-35.5 -82.5t-85.5 -33.5zM180 0v1194h912v-231h-654v-236h611v-215h-611v-281h670v-231
h-928z" />
    <glyph glyph-name="Emacron.alt1" horiz-adv-x="1226" 
d="M315 1270v157h648v-157h-648zM180 0v1194h912v-231h-654v-236h611v-215h-611v-281h670v-231h-928z" />
    <glyph glyph-name="Ebreve.alt1" horiz-adv-x="1226" 
d="M643 1233q-123 0 -203.5 54t-95.5 140h184q28 -57 115 -57t115 57h182q-15 -85 -95.5 -139.5t-201.5 -54.5zM180 0v1194h912v-231h-654v-236h611v-215h-611v-281h670v-231h-928z" />
    <glyph glyph-name="Edotaccent.alt1" horiz-adv-x="1226" 
d="M651 1260q-50 0 -85.5 33.5t-35.5 82.5t35.5 83t85.5 34t85.5 -34t35.5 -83t-35.5 -82.5t-85.5 -33.5zM180 0v1194h912v-231h-654v-236h611v-215h-611v-281h670v-231h-928z" />
    <glyph glyph-name="Eogonek.alt1" horiz-adv-x="1226" 
d="M180 233v1194h912v-231h-654v-235h611v-216h-611v-280h670v-180q-44 -18 -83.5 -54t-39.5 -73q0 -22 18.5 -32.5t45.5 -10.5q57 0 106 22l-33 -145q-49 -25 -131 -25q-75 0 -123.5 33t-48.5 92q0 41 35.5 81.5t79.5 59.5h-754z" />
    <glyph glyph-name="Gcircumflex.alt1" horiz-adv-x="1456" 
d="M424 1229l336 229l336 -229h-244l-92 96l-90 -96h-246zM104 584q0 129 53 243.5t143 195t212.5 127t257.5 46.5t267.5 -55.5t232.5 -167.5l-166 -158q-63 71 -150.5 110.5t-183.5 39.5q-173 0 -290.5 -109t-117.5 -272q0 -161 117 -269t291 -108q210 0 336 129v137h-375
v217h606v-446q-99 -125 -247 -197t-320 -72q-181 0 -333.5 78.5t-242.5 219t-90 311.5z" />
    <glyph glyph-name="Gbreve.alt1" horiz-adv-x="1456" 
d="M766 1233q-123 0 -203.5 54t-95.5 140h184q28 -57 115 -57t115 57h180q-14 -85 -93.5 -139.5t-201.5 -54.5zM104 584q0 129 53 243.5t143 195t212.5 127t257.5 46.5t267.5 -55.5t232.5 -167.5l-166 -158q-63 71 -150.5 110.5t-183.5 39.5q-173 0 -290.5 -109t-117.5 -272
q0 -161 117 -269t291 -108q210 0 336 129v137h-375v217h606v-446q-99 -125 -247 -197t-320 -72q-181 0 -333.5 78.5t-242.5 219t-90 311.5z" />
    <glyph glyph-name="Gdotaccent.alt1" horiz-adv-x="1456" 
d="M762 1260q-50 0 -86.5 33.5t-36.5 82.5t36.5 83t86.5 34t86.5 -34t36.5 -83t-36.5 -82.5t-86.5 -33.5zM104 584q0 129 53 243.5t143 195t212.5 127t257.5 46.5t267.5 -55.5t232.5 -167.5l-166 -158q-63 71 -150.5 110.5t-183.5 39.5q-173 0 -290.5 -109t-117.5 -272
q0 -161 117 -269t291 -108q210 0 336 129v137h-375v217h606v-446q-99 -125 -247 -197t-320 -72q-181 0 -333.5 78.5t-242.5 219t-90 311.5z" />
    <glyph glyph-name="Gcommaaccent.alt1" horiz-adv-x="1456" 
d="M770 231q-181 0 -333.5 78.5t-242.5 219.5t-90 313q0 129 53 242.5t143 194t212.5 127t257.5 46.5t267.5 -55.5t232.5 -167.5l-166 -158q-63 71 -150 109.5t-184 38.5q-174 0 -291 -108t-117 -269q0 -162 117 -270.5t291 -108.5q210 0 336 129v135h-375v217h606v-444
q-99 -125 -247 -197t-320 -72zM535 0l73 199h307l-157 -199h-223z" />
    <glyph glyph-name="Hcircumflex.alt1" horiz-adv-x="1622" 
d="M520 1229l293 229l297 -229h-209l-88 92l-84 -92h-209zM180 0v1427h258v-555h752v555h256v-1427h-256v637h-752v-637h-258z" />
    <glyph glyph-name="Igrave.alt1" horiz-adv-x="634" 
d="M221 1229l-160 198h310l69 -198h-219zM188 0v1194h258v-1194h-258z" />
    <glyph glyph-name="Iacute.alt1" horiz-adv-x="634" 
d="M193 1229l71 198h307l-157 -198h-221zM188 0v1194h258v-1194h-258z" />
    <glyph glyph-name="Icircumflex.alt1" horiz-adv-x="634" 
d="M23 1229l294 229l297 -229h-208l-89 92l-84 -92h-210zM188 0v1194h258v-1194h-258z" />
    <glyph glyph-name="Itilde.alt1" horiz-adv-x="667" 
d="M145 1231l-139 16q11 89 63 142t140 53q57 0 134.5 -33t105.5 -33q65 0 79 70l144 -19q-22 -194 -199 -194q-57 0 -136 30.5t-110 30.5q-65 0 -82 -63zM205 0v1194h258v-1194h-258z" />
    <glyph glyph-name="Idieresis.alt1" horiz-adv-x="634" 
d="M487 1260q-50 0 -85 33.5t-35 82.5t35 83t85 34t85.5 -34t35.5 -83t-35.5 -82.5t-85.5 -33.5zM145 1260q-48 0 -84 33.5t-36 82.5t36 83t84 34q50 0 86.5 -34t36.5 -83t-36.5 -82.5t-86.5 -33.5zM186 0v1194h258v-1194h-258z" />
    <glyph glyph-name="Imacron.alt1" horiz-adv-x="634" 
d="M14 1270v157h604v-157h-604zM186 0v1194h258v-1194h-258z" />
    <glyph glyph-name="Ibreve.alt1" horiz-adv-x="634" 
d="M315 1233q-116 0 -192 54.5t-90 139.5h170q25 -57 112 -57q90 0 115 57h170q-14 -85 -91.5 -139.5t-193.5 -54.5zM186 0v1194h258v-1194h-258z" />
    <glyph glyph-name="Idotaccent.alt1" horiz-adv-x="634" 
d="M317 1255q-56 0 -96.5 34.5t-40.5 84.5t40.5 84.5t96.5 34.5q57 0 97.5 -34t40.5 -85t-40.5 -85t-97.5 -34zM188 0v1194h258v-1194h-258z" />
    <glyph glyph-name="Iogonek.alt1" horiz-adv-x="634" 
d="M158 92q0 62 78 125h-50v1210h258v-1142q-44 -18 -83 -54t-39 -73q0 -22 19 -32.5t46 -10.5q58 0 107 22l-33 -145q-54 -25 -131 -25q-75 0 -123.5 33t-48.5 92z" />
    <glyph glyph-name="Jcircumflex.alt1" horiz-adv-x="747" 
d="M160 1229l293 229l297 -229h-209l-88 92l-84 -92h-209zM45 -8v235q43 -18 117 -18q53 0 88 17.5t51.5 52t22.5 71t6 88.5v756h258v-741q0 -58 -2.5 -102t-12.5 -96.5t-26.5 -90t-47 -75.5t-72.5 -61.5t-103.5 -38t-139.5 -14.5q-72 0 -139 17z" />
    <glyph glyph-name="Kcommaaccent.alt1" horiz-adv-x="1447" 
d="M180 0v1427h258v-684l635 684h309l-573 -618l592 -809h-301l-465 635l-197 -207v-428h-258zM532 0l68 199h274l-133 -199h-209z" />
    <glyph glyph-name="Lacute.alt1" horiz-adv-x="1091" 
d="M184 1229l72 198h307l-157 -198h-222zM180 0v1194h258v-961h568v-233h-826z" />
    <glyph glyph-name="Lcommaaccent.alt1" horiz-adv-x="1091" 
d="M180 233v1194h258v-960h568v-234h-826zM395 0l68 199h301l-150 -199h-219z" />
    <glyph glyph-name="Nacute.alt1" horiz-adv-x="1605" 
d="M180 0v1481l987 -951v897h258v-1480l-987 956v-903h-258zM637 1229l55 198h342l-192 -198h-205z" />
    <glyph glyph-name="Ncaron.alt1" horiz-adv-x="1605" 
d="M180 0v1481l987 -951v897h258v-1480l-987 956v-903h-258zM786 1208l-294 219h208l86 -81l86 81h209z" />
    <glyph glyph-name="Ntilde.alt1" horiz-adv-x="1622" 
d="M180 0v1481l1004 -957v903h260v-1480l-1006 960v-907h-258zM481 1247q13 90 63.5 142.5t137.5 52.5q54 0 127 -33t98 -33q59 0 70 70l143 -19q-22 -194 -188 -194q-56 0 -133.5 30.5t-104.5 30.5q-57 0 -71 -63z" />
    <glyph glyph-name="Ncommaaccent.alt1" horiz-adv-x="1605" 
d="M180 0v1481l987 -951v897h258v-1480l-987 956v-903h-258zM631 0l67 199h303l-149 -199h-221z" />
    <glyph glyph-name="Ograve.alt1" horiz-adv-x="1531" 
d="M686 1229l-158 198h308l73 -198h-223zM98 584q0 169 90 309.5t244 220.5t336 80t335.5 -80t243 -220.5t89.5 -309.5q0 -170 -89.5 -310t-243 -219.5t-335.5 -79.5t-336 79.5t-244 219.5t-90 310zM360 584q0 -161 118 -269t290 -108q170 0 289 109.5t119 267.5
q0 159 -118.5 268t-289.5 109q-173 0 -290.5 -108.5t-117.5 -268.5z" />
    <glyph glyph-name="Oacute.alt1" horiz-adv-x="1531" 
d="M651 1229l70 198h309l-160 -198h-219zM98 584q0 169 90 309.5t244 220.5t336 80t335.5 -80t243 -220.5t89.5 -309.5q0 -170 -89.5 -310t-243 -219.5t-335.5 -79.5t-336 79.5t-244 219.5t-90 310zM360 584q0 -161 118 -269t290 -108q170 0 289 109.5t119 267.5
q0 159 -118.5 268t-289.5 109q-173 0 -290.5 -108.5t-117.5 -268.5z" />
    <glyph glyph-name="Ocircumflex.alt1" horiz-adv-x="1531" 
d="M436 1229l336 229l336 -229h-246l-90 96l-90 -96h-246zM98 584q0 169 90 309.5t244 220.5t336 80t335.5 -80t243 -220.5t89.5 -309.5q0 -170 -89.5 -310t-243 -219.5t-335.5 -79.5t-336 79.5t-244 219.5t-90 310zM360 584q0 -161 118 -269t290 -108q170 0 289 109.5
t119 267.5q0 159 -118.5 268t-289.5 109q-173 0 -290.5 -108.5t-117.5 -268.5z" />
    <glyph glyph-name="Otilde.alt1" horiz-adv-x="1531" 
d="M410 1247q13 90 66 142.5t145 52.5q63 0 150 -33t118 -33q66 0 80 70l141 -19q-22 -194 -199 -194q-65 0 -155 30.5t-123 30.5q-65 0 -82 -63zM98 584q0 169 90 309.5t244 220.5t336 80t335.5 -80t243 -220.5t89.5 -309.5q0 -170 -89.5 -310t-243 -219.5t-335.5 -79.5
t-336 79.5t-244 219.5t-90 310zM360 584q0 -161 118 -269t290 -108q170 0 289 109.5t119 267.5q0 159 -118.5 268t-289.5 109q-173 0 -290.5 -108.5t-117.5 -268.5z" />
    <glyph glyph-name="Odieresis.alt1" horiz-adv-x="1695" 
d="M1462 1260q-48 0 -84.5 33.5t-36.5 82.5t36.5 83t84.5 34q50 0 86.5 -34t36.5 -83t-36.5 -82.5t-86.5 -33.5zM233 1260q-50 0 -85 33.5t-35 82.5t35 83t85 34q51 0 88 -34t37 -83t-36.5 -82.5t-88.5 -33.5zM104 700q0 152 59 287t159 231.5t238 152.5t290 56
q204 0 374.5 -95t269.5 -262.5t99 -369.5t-99 -369t-269.5 -261.5t-374.5 -94.5q-152 0 -290 56t-238 151.5t-159 230.5t-59 287zM360 700q0 -209 140.5 -350t349.5 -141q207 0 347 142t140 349q0 206 -140.5 349t-346.5 143q-208 0 -349 -142.5t-141 -349.5z" />
    <glyph glyph-name="Omacron.alt1" horiz-adv-x="1531" 
d="M446 1270v157h648v-157h-648zM98 584q0 169 90 309.5t244 220.5t336 80t335.5 -80t243 -220.5t89.5 -309.5q0 -170 -89.5 -310t-243 -219.5t-335.5 -79.5t-336 79.5t-244 219.5t-90 310zM360 584q0 -161 118 -269t290 -108q170 0 289 109.5t119 267.5q0 159 -118.5 268
t-289.5 109q-173 0 -290.5 -108.5t-117.5 -268.5z" />
    <glyph glyph-name="Obreve.alt1" horiz-adv-x="1531" 
d="M766 1233q-123 0 -203 54.5t-94 139.5h184q25 -57 113 -57q90 0 115 57h182q-15 -85 -95 -139.5t-202 -54.5zM98 584q0 169 90 309.5t244 220.5t336 80t335.5 -80t243 -220.5t89.5 -309.5q0 -170 -89.5 -310t-243 -219.5t-335.5 -79.5t-336 79.5t-244 219.5t-90 310z
M360 584q0 -161 118 -269t290 -108q170 0 289 109.5t119 267.5q0 159 -118.5 268t-289.5 109q-173 0 -290.5 -108.5t-117.5 -268.5z" />
    <glyph glyph-name="Ohungarumlaut.alt1" horiz-adv-x="1531" 
d="M815 1229l113 198h254l-183 -198h-184zM494 1229l104 198h256l-180 -198h-180zM98 584q0 169 90 309.5t244 220.5t336 80t335.5 -80t243 -220.5t89.5 -309.5q0 -170 -89.5 -310t-243 -219.5t-335.5 -79.5t-336 79.5t-244 219.5t-90 310zM360 584q0 -161 118 -269
t290 -108q170 0 289 109.5t119 267.5q0 159 -118.5 268t-289.5 109q-173 0 -290.5 -108.5t-117.5 -268.5z" />
    <glyph glyph-name="Oslashacute.alt1" horiz-adv-x="1531" 
d="M670 1229l71 198h308l-158 -198h-221zM205 31l92 119q-94 83 -146.5 195.5t-52.5 240.5q0 169 90 309t244 219.5t336 79.5q151 0 283 -57l102 133l170 -125l-92 -119q97 -85 151 -198t54 -242q0 -170 -89.5 -310.5t-243 -220.5t-335.5 -80q-153 0 -293 62l-100 -131z
M451 338l458 600q-78 29 -141 29q-175 0 -293.5 -110t-118.5 -271q0 -145 95 -248zM618 236q53 -31 150 -31q172 0 292 110t120 271q0 144 -103 252z" />
    <glyph glyph-name="Racute.alt1" horiz-adv-x="1347" 
d="M508 1229l72 198h307l-158 -198h-221zM180 0v1194h594q176 0 302 -116t126 -283q0 -120 -68 -215.5t-180 -137.5l336 -442h-297l-293 389h-4h-258v-389h-258zM438 606h310q87 0 141.5 50.5t54.5 131.5q0 73 -51.5 123t-126.5 50h-328v-355z" />
    <glyph glyph-name="Rcaron.alt1" horiz-adv-x="1347" 
d="M659 1208l-335 219h245l90 -86l93 86h243zM180 0v1194h594q176 0 302 -116t126 -283q0 -120 -68 -215.5t-180 -137.5l336 -442h-297l-293 389h-4h-258v-389h-258zM438 606h310q87 0 141.5 50.5t54.5 131.5q0 73 -51.5 123t-126.5 50h-328v-355z" />
    <glyph glyph-name="Rcommaaccent.alt1" horiz-adv-x="1382" 
d="M180 0v1427h594q126 0 232 -58.5t168.5 -163t62.5 -230.5q0 -131 -66 -237t-174 -163l326 -575h-279l-290 514h-4h-312v-514h-258zM438 729h307q104 0 170 67t66 173q0 97 -61.5 161t-155.5 64h-326v-465zM520 0l68 199h270l-133 -199h-205z" />
    <glyph glyph-name="Sacute.alt1" horiz-adv-x="1146" 
d="M465 1229l72 198h307l-158 -198h-221zM72 231l184 134q44 -70 131 -115t201 -45q62 0 107 13t67 34t31.5 40t9.5 38q0 30 -16.5 54.5t-39 41.5t-68.5 35t-82.5 29.5t-103.5 31.5q-9 3 -14 4q-155 46 -243.5 124.5t-88.5 205.5q0 154 120.5 245t299.5 91
q135 0 237.5 -51.5t162.5 -139.5l-168 -141q-84 107 -236 107q-75 0 -120.5 -28t-45.5 -79q0 -17 5.5 -31t20.5 -26t29.5 -20.5t46 -19.5t55 -18t70.5 -21.5t81 -25.5q183 -59 266.5 -143.5t83.5 -216.5q0 -161 -122.5 -259.5t-354.5 -98.5q-180 0 -309 66.5t-197 184.5z
" />
    <glyph glyph-name="Scircumflex.alt1" horiz-adv-x="1150" 
d="M229 1229l336 229l336 -229h-246l-90 96l-90 -96h-246zM72 231l184 134q44 -70 131 -115t201 -45q62 0 107 13t67 34t31.5 40t9.5 38q0 30 -16.5 54.5t-39 41.5t-68.5 35t-82.5 29.5t-103.5 31.5q-9 3 -14 4q-155 46 -243.5 124.5t-88.5 205.5q0 154 120.5 245t299.5 91
q135 0 237.5 -51.5t162.5 -139.5l-168 -141q-84 107 -236 107q-75 0 -120.5 -28t-45.5 -79q0 -17 5.5 -31t20.5 -26t29.5 -20.5t46 -19.5t55 -18t70.5 -21.5t81 -25.5q183 -59 266.5 -143.5t83.5 -216.5q0 -161 -122.5 -259.5t-354.5 -98.5q-180 0 -309 66.5t-197 184.5z
" />
    <glyph glyph-name="Scaron.alt1" horiz-adv-x="1150" 
d="M580 1212l-336 215h245l91 -86l90 86h245zM72 231l184 134q44 -70 131 -115t201 -45q62 0 107 13t67 34t31.5 40t9.5 38q0 30 -16.5 54.5t-39 41.5t-68.5 35t-82.5 29.5t-103.5 31.5q-9 3 -14 4q-155 46 -243.5 124.5t-88.5 205.5q0 154 120.5 245t299.5 91
q135 0 237.5 -51.5t162.5 -139.5l-168 -141q-84 107 -236 107q-75 0 -120.5 -28t-45.5 -79q0 -17 5.5 -31t20.5 -26t29.5 -20.5t46 -19.5t55 -18t70.5 -21.5t81 -25.5q183 -59 266.5 -143.5t83.5 -216.5q0 -161 -122.5 -259.5t-354.5 -98.5q-180 0 -309 66.5t-197 184.5z
" />
    <glyph glyph-name="Scommaaccent.alt1" horiz-adv-x="1150" 
d="M72 487l184 134q44 -70 131 -115t201 -45q62 0 107 13t67 34t31.5 40t9.5 38q0 30 -16.5 54.5t-39 41.5t-68.5 35t-82.5 29.5t-103.5 31.5q-9 3 -14 4q-155 46 -243.5 124.5t-88.5 205.5q0 154 120.5 245t299.5 91q135 0 237.5 -51.5t162.5 -139.5l-168 -141
q-84 107 -236 107q-75 0 -120.5 -28t-45.5 -79q0 -17 5.5 -31t20.5 -26t29.5 -20.5t46 -19.5t55 -18t70.5 -21.5t81 -25.5q183 -59 266.5 -143.5t83.5 -216.5q0 -161 -122.5 -259.5t-354.5 -98.5q-180 0 -309 66.5t-197 184.5zM350 0l74 199h307l-158 -199h-223z" />
    <glyph glyph-name="Scedilla.alt1" horiz-adv-x="1150" 
d="M385 -6l45 88q54 -29 105 -29q67 0 67 41q0 30 -30 38.5t-107 8.5h-2l41 97q-152 13 -262 78.5t-170 170.5l184 134q44 -70 131 -115t201 -45q62 0 107 13t67 34t31.5 40t9.5 38q0 30 -16.5 54.5t-39 41.5t-68.5 35t-82.5 29.5t-103.5 31.5q-9 3 -14 4
q-155 46 -243.5 124.5t-88.5 205.5q0 154 120.5 245t299.5 91q135 0 237.5 -51.5t162.5 -139.5l-168 -141q-84 107 -236 107q-75 0 -120.5 -28t-45.5 -79q0 -17 5.5 -31t20.5 -26t29.5 -20.5t46 -19.5t55 -18t70.5 -21.5t81 -25.5q183 -59 266.5 -143.5t83.5 -216.5
q0 -153 -109.5 -249.5t-318.5 -108.5l-23 -43h2q58 0 97.5 -29.5t39.5 -81.5q0 -67 -52 -102t-144 -35q-49 0 -93.5 15t-68.5 34z" />
    <glyph glyph-name="Tcaron.alt1" horiz-adv-x="1150" 
d="M578 1208l-336 219h245l91 -86l90 86h243zM451 0v961h-392v233h1035v-233h-385v-961h-258z" />
    <glyph glyph-name="Tcommaaccent.alt1" horiz-adv-x="1150" 
d="M451 233v961h-392v233h1035v-233h-385v-961h-258zM360 0l78 199h293l-149 -199h-222z" />
    <glyph glyph-name="Ugrave.alt1" horiz-adv-x="1495" 
d="M168 549v878h258v-852q0 -184 86 -274t238 -90q149 0 234 90t85 274v852h258v-878q0 -140 -44.5 -250.5t-123.5 -180t-183 -105.5t-226 -36q-123 0 -228 36t-184.5 105.5t-124.5 180t-45 250.5zM713 1229l-158 198h291l69 -198h-202z" />
    <glyph glyph-name="Uacute.alt1" horiz-adv-x="1495" 
d="M168 549v878h258v-852q0 -184 86 -274t238 -90q149 0 234 90t85 274v852h258v-878q0 -140 -44.5 -250.5t-123.5 -180t-183 -105.5t-226 -36q-123 0 -228 36t-184.5 105.5t-124.5 180t-45 250.5zM584 1229l71 198h291l-158 -198h-204z" />
    <glyph glyph-name="Ucircumflex.alt1" horiz-adv-x="1492" 
d="M168 549v878h258v-852q0 -184 86 -274t240 -90q151 0 236 90t85 274v852h258v-878q0 -140 -45 -250.5t-124 -180t-183.5 -105.5t-226.5 -36q-124 0 -229 36t-185 105.5t-125 180t-45 250.5zM465 1229l287 229l284 -229h-200l-84 92l-86 -92h-201z" />
    <glyph glyph-name="Utilde.alt1" horiz-adv-x="1562" 
d="M168 549v878h258v-852q0 -184 95 -274t263 -90q167 0 262 90t95 274v852h258v-878q0 -112 -31 -206t-87 -161t-133 -113.5t-169 -69t-195 -22.5q-130 0 -241 36t-195 105.5t-132 180t-48 250.5zM463 1247q11 90 62 142.5t139 52.5q51 0 120 -33t97 -33q33 0 51.5 16
t25.5 54l144 -19q-22 -194 -199 -194q-53 0 -123.5 30.5t-95.5 30.5q-63 0 -80 -63z" />
    <glyph glyph-name="Udieresis.alt1" horiz-adv-x="1562" 
d="M168 549v878h258v-852q0 -184 95 -274t263 -90q167 0 262 90t95 274v852h258v-878q0 -112 -31 -206t-87 -161t-133 -113.5t-169 -69t-195 -22.5q-130 0 -241 36t-195 105.5t-132 180t-48 250.5zM623 1260q-48 0 -84.5 33.5t-36.5 82.5t36.5 83t84.5 34q50 0 86 -34
t36 -83t-36 -82.5t-86 -33.5zM946 1260q-50 0 -85.5 33.5t-35.5 82.5t35.5 83t85.5 34t85.5 -34t35.5 -83t-35.5 -82.5t-85.5 -33.5z" />
    <glyph glyph-name="Umacron.alt1" horiz-adv-x="1544" 
d="M168 549v878h256v-852q0 -184 92.5 -274t257.5 -90q164 0 256 89.5t92 274.5v852h258v-878q0 -112 -31 -206t-86 -161t-131 -113.5t-166 -69t-192 -22.5t-192 22.5t-166 69t-131 113.5t-86 161t-31 206zM496 1270v157h557v-157h-557z" />
    <glyph glyph-name="Ubreve.alt1" horiz-adv-x="1542" 
d="M168 549v878h258v-852q0 -184 92.5 -274t255.5 -90q162 0 254 90t92 274v852h258v-878q0 -140 -47 -250.5t-129.5 -180t-191 -105.5t-236.5 -36t-237.5 36t-192 105.5t-129.5 180t-47 250.5zM774 1227q-113 0 -187.5 56.5t-88.5 143.5h161q24 -59 115 -59q89 0 113 59
h162q-14 -87 -89 -143.5t-186 -56.5z" />
    <glyph glyph-name="Uring.alt1" horiz-adv-x="1542" 
d="M168 549v878h258v-852q0 -184 92.5 -274t255.5 -90q162 0 254 90t92 274v852h258v-878q0 -140 -47 -250.5t-129.5 -180t-191 -105.5t-236.5 -36t-237.5 36t-192 105.5t-129.5 180t-47 250.5zM774 1030q-98 0 -166.5 65.5t-68.5 159.5q0 91 68.5 156.5t166.5 65.5
q95 0 164.5 -65.5t69.5 -156.5q0 -94 -68.5 -159.5t-165.5 -65.5zM774 1171q35 0 61.5 25t26.5 59t-26.5 58t-61.5 24q-37 0 -63.5 -24t-26.5 -58t26.5 -59t63.5 -25z" />
    <glyph glyph-name="Uhungarumlaut.alt1" horiz-adv-x="1542" 
d="M168 549v878h258v-852q0 -184 92.5 -274t255.5 -90q162 0 254 90t92 274v852h258v-878q0 -140 -47 -250.5t-129.5 -180t-191 -105.5t-236.5 -36t-237.5 36t-192 105.5t-129.5 180t-47 250.5zM489 1229l105 198h213l-180 -198h-138zM762 1229l104 198h213l-180 -198h-137z
" />
    <glyph glyph-name="Uogonek.alt1" horiz-adv-x="1499" 
d="M778 106q0 71 103 138q-83 -11 -138 -11q-121 0 -224.5 36t-182.5 105t-123.5 179.5t-44.5 251.5v622h258v-596q0 -184 86 -274t238 -90q151 0 236 89.5t85 274.5v596h258v-614q0 -161 -58 -282.5t-161 -192.5q-3 -2 -34 -21.5t-45 -30.5t-37 -31t-33.5 -39.5
t-10.5 -39.5q0 -29 23.5 -43t58.5 -14q59 0 119 26l-33 -149q-65 -29 -139 -29q-81 0 -141 37t-60 102z" />
    <glyph glyph-name="Wgrave.alt1" horiz-adv-x="2029" 
d="M598 -57l-535 1484h265l331 -921q29 61 119 225.5t165 298.5l75 135q333 -614 358 -659l330 921h262l-532 -1484l-418 768zM952 1229l-157 198h307l72 -198h-222z" />
    <glyph glyph-name="Wacute.alt1" horiz-adv-x="2029" 
d="M598 -57l-535 1484h265l331 -921q29 61 119 225.5t165 298.5l75 135q333 -614 358 -659l330 921h262l-532 -1484l-418 768zM870 1229l72 198h309l-159 -198h-222z" />
    <glyph glyph-name="Wcircumflex.alt1" horiz-adv-x="2029" 
d="M598 -57l-535 1484h265l331 -921q29 61 119 225.5t165 298.5l75 135q333 -614 358 -659l330 921h262l-532 -1484l-418 768zM682 1229l336 229l336 -229h-246l-90 96l-90 -96h-246z" />
    <glyph glyph-name="Wdieresis.alt1" horiz-adv-x="2029" 
d="M598 -57l-535 1484h265l331 -921q29 61 119 225.5t165 298.5l75 135q333 -614 358 -659l330 921h262l-532 -1484l-418 768zM1217 1260q-50 0 -86.5 33.5t-36.5 82.5t36.5 83t86.5 34t85 -34t35 -83t-35 -82.5t-85 -33.5zM817 1260q-51 0 -87 33.5t-36 82.5t36 83t87 34
q50 0 85.5 -34t35.5 -83t-35.5 -82.5t-85.5 -33.5z" />
    <glyph glyph-name="Ygrave.alt1" horiz-adv-x="1449" 
d="M602 0v543l-547 884h273l403 -647l399 647h271l-543 -884v-543h-256zM666 1229l-158 198h307l72 -198h-221z" />
    <glyph glyph-name="Yacute.alt1" horiz-adv-x="1449" 
d="M602 0v543l-547 884h273l403 -647l399 647h271l-543 -884v-543h-256zM578 1229l71 198h309l-159 -198h-221z" />
    <glyph glyph-name="Ycircumflex.alt1" horiz-adv-x="1466" 
d="M471 1229l268 229l267 -229h-187l-80 94l-80 -94h-188zM610 0v539l-555 888h273l411 -661l408 661h270l-551 -888v-539h-256z" />
    <glyph glyph-name="Ydieresis.alt1" horiz-adv-x="1466" 
d="M610 0v539l-555 888h273l411 -661l408 661h270l-551 -888v-539h-256zM899 1260q-50 0 -85.5 33.5t-35.5 82.5t35.5 83t85.5 34q51 0 88 -34t37 -83t-36.5 -82.5t-88.5 -33.5zM573 1260q-50 0 -85 33.5t-35 82.5t35 83t85 34q51 0 87 -34t36 -83t-36 -82.5t-87 -33.5z" />
    <glyph glyph-name="Zacute.alt1" horiz-adv-x="1368" 
d="M606 1229l72 198h307l-158 -198h-221zM61 0l777 961h-627v233h1094l-768 -961h737v-233h-1213z" />
    </font>
</defs>
</svg>
