<?xml version="1.0" standalone="no"?>
<!DOCTYPE svg PUBLIC "-//W3C//DTD SVG 1.1//EN" "http://www.w3.org/Graphics/SVG/1.1/DTD/svg11.dtd" >
<svg xmlns="http://www.w3.org/2000/svg" xmlns:xlink="http://www.w3.org/1999/xlink" version="1.1">
<metadata>
Created by FontForge 20170731 at Tue Jul  5 19:48:15 2022
 By Aleksey,,,
Copyright 2015 Electrolux. This typeface is for exclusive use by Electrolux only. All rights reserved.
</metadata>
<defs>
<font id="ElectroluxSans-Regular" horiz-adv-x="1183" >
  <font-face 
    font-family="Electrolux Sans Regular"
    font-weight="400"
    font-stretch="normal"
    units-per-em="2048"
    panose-1="2 11 5 0 2 0 0 0 0 0"
    ascent="1653"
    descent="-395"
    x-height="1032"
    cap-height="1427"
    bbox="-104 -451 2341 2154"
    underline-thickness="102"
    underline-position="-491"
    unicode-range="U+000D-FB04"
  />
<missing-glyph horiz-adv-x="1536" 
d="M39 0v1427h1458v-1427h-1458zM164 125h1210v1178h-1210v-1178zM309 336l377 377l-377 377l82 84l377 -377l379 377l82 -84l-377 -377l377 -377l-82 -84l-379 377l-377 -377z" />
    <glyph glyph-name="ff" unicode="ff" horiz-adv-x="1148" 
d="M158 0v1087q0 111 23.5 174.5t76.5 106.5q75 59 234 59h59v-137h-76q-81 0 -122.5 -41t-41.5 -135v-82h389v55q0 111 24 174.5t77 106.5q33 26 77 39.5t77 16.5t79 3h60v-137h-76q-81 0 -122.5 -41t-41.5 -135v-82h195v-143h-195v-889h-154v889h-389v-889h-153z" />
    <glyph glyph-name="fi" unicode="fi" horiz-adv-x="1009" 
d="M158 0v1087q0 111 23.5 174.5t76.5 106.5q77 59 234 59h122v-137h-137q-166 0 -166 -176v-82h543v-1032h-154v889h-389v-889h-153z" />
    <glyph glyph-name="fl" unicode="fl" horiz-adv-x="1060" 
d="M158 0v1087q0 111 23.5 174.5t76.5 106.5q75 59 234 59h59v-137h-76q-81 0 -121.5 -41t-40.5 -135v-82h195v-143h-195v-889h-155zM752 0v1427h153v-1427h-153z" />
    <glyph glyph-name="ffi" unicode="ffi" horiz-adv-x="1550" 
d="M158 0v1087q0 111 23.5 174.5t76.5 106.5q75 59 234 59h59v-137h-76q-81 0 -122.5 -41t-41.5 -135v-82h389v55q0 111 24 174.5t77 106.5q33 26 77 39.5t77 16.5t79 3h123v-137h-139q-81 0 -122.5 -41t-41.5 -135v-82h543v-1032h-154v889h-389v-889h-154v889h-389v-889
h-153z" />
    <glyph glyph-name="ffl" unicode="ffl" horiz-adv-x="1581" 
d="M158 0v1087q0 111 23.5 174.5t76.5 106.5q75 59 234 59h59v-137h-76q-81 0 -122.5 -41t-41.5 -135v-82h389v55q0 111 24 174.5t77 106.5q33 26 77 39.5t77 16.5t79 3h60v-137h-76q-81 0 -122.5 -41t-41.5 -135v-82h195v-143h-195v-889h-154v889h-389v-889h-153zM1274 0
v1427h153v-1427h-153z" />
    <glyph glyph-name="fj" unicode="fj" horiz-adv-x="1007" 
d="M158 0v1087q0 111 23.5 174.5t76.5 106.5q77 59 234 59h63v-137h-78q-166 0 -166 -176v-82h543v-1132q0 -68 -12.5 -122t-36.5 -88.5t-52.5 -58.5t-66 -36t-71.5 -16.5t-74 -4.5h-56v143h50q87 0 126 43t39 144v985h-389v-889h-153z" />
    <glyph glyph-name="ffj" unicode="ffj" horiz-adv-x="1548" 
d="M158 0v1087q0 111 23.5 174.5t76.5 106.5q75 59 234 59h59v-137h-76q-81 0 -122.5 -41t-41.5 -135v-82h389v55q0 111 24 174.5t77 106.5q33 26 77 39.5t77 16.5t79 3h123v-137h-139q-81 0 -122.5 -41t-41.5 -135v-82h543v-1132q0 -82 -19.5 -142.5t-49 -95t-73 -55
t-83.5 -27t-89 -6.5h-55v143h47q88 0 128 43t40 144v985h-389v-889h-154v889h-389v-889h-153z" />
    <glyph glyph-name=".notdef" horiz-adv-x="1536" 
d="M39 0v1427h1458v-1427h-1458zM164 125h1210v1178h-1210v-1178zM309 336l377 377l-377 377l82 84l377 -377l379 377l82 -84l-377 -377l377 -377l-82 -84l-379 377l-377 -377z" />
    <glyph glyph-name=".null" horiz-adv-x="0" 
 />
    <glyph glyph-name=".null" horiz-adv-x="0" 
 />
    <glyph glyph-name="nonmarkingreturn" horiz-adv-x="682" 
 />
    <glyph glyph-name="CR" unicode="&#xd;" horiz-adv-x="0" 
 />
    <glyph glyph-name="space" unicode=" " horiz-adv-x="614" 
 />
    <glyph glyph-name="exclam" unicode="!" horiz-adv-x="571" 
d="M221 319l-33 1108h197l-35 -1108h-129zM182 74q0 43 32 72.5t73 29.5t71.5 -29.5t30.5 -72.5q0 -45 -30.5 -75t-71.5 -30t-73 30.5t-32 74.5z" />
    <glyph glyph-name="quotedbl" unicode="&#x22;" horiz-adv-x="671" 
d="M416 911l-27 516h156l-25 -516h-104zM154 911l-25 516h156l-25 -516h-106z" />
    <glyph glyph-name="numbersign" unicode="#" horiz-adv-x="1200" 
d="M219 236l55 221h-180v129h215l62 241h-183v129h215l56 220h143l-57 -220h239l58 220h141l-55 -220h180v-129h-213l-61 -241h184v-129h-215l-58 -221h-143l57 221h-241l-58 -221h-141zM451 586h239l64 241h-242z" />
    <glyph glyph-name="dollar" unicode="$" horiz-adv-x="1193" 
d="M131 317l150 72q80 -212 264 -256v578q-84 38 -138.5 70.5t-103.5 79.5t-72.5 108t-23.5 141q0 141 94 236.5t244 109.5v197h131v-201q205 -30 305 -217l-137 -72q-57 109 -168 135v-477q109 -48 175 -86.5t121 -91.5t79 -119t24 -155q0 -164 -104.5 -272t-294.5 -120
v-196h-131v201q-143 19 -250 103t-164 232zM545 881v426q-79 -11 -127.5 -62t-48.5 -135q0 -82 43 -133t133 -96zM676 127q61 5 106.5 25.5t69.5 46.5t38.5 60t18.5 59t4 51q0 55 -15 96.5t-48.5 74.5t-72 57t-101.5 54v-524z" />
    <glyph glyph-name="percent" unicode="%" horiz-adv-x="1581" 
d="M432 819q-132 0 -225.5 94t-93.5 226t93.5 225.5t225.5 93.5t226 -93.5t94 -225.5t-94 -226t-226 -94zM252 0l924 1427h159l-923 -1427h-160zM432 946q76 0 130 56t54 137q0 79 -54.5 135.5t-129.5 56.5t-128.5 -56.5t-53.5 -135.5q0 -81 53.5 -137t128.5 -56zM829 289
q0 132 94 225.5t226 93.5t225.5 -93.5t93.5 -225.5t-93.5 -226t-225.5 -94t-226 94t-94 226zM967 289q0 -82 52.5 -137.5t129.5 -55.5q75 0 128.5 56t53.5 137q0 79 -53.5 135.5t-128.5 56.5q-76 0 -129 -56t-53 -136z" />
    <glyph glyph-name="ampersand" unicode="&#x26;" horiz-adv-x="1593" 
d="M125 457q0 145 73 254.5t212 175.5q-60 108 -60 217q0 152 101 251t264 99q156 0 254 -93t98 -231q0 -110 -68 -178h500v-149h-276v-78q0 -276 -80 -453l246 -272h-207l-125 139q-153 -170 -408 -170q-235 0 -379.5 135t-144.5 353zM696 764l326 -358q39 124 39 321v76
h-305v100q70 15 113.5 72.5t43.5 136.5q0 83 -57 138t-145 55q-76 0 -136.5 -53t-60.5 -150q0 -86 46.5 -163t135.5 -175zM289 457q0 -156 96.5 -247t263.5 -91q200 0 299 137q-113 125 -202.5 223t-117 127t-55.5 61t-35.5 41t-39.5 50q-209 -93 -209 -301z" />
    <glyph glyph-name="quotesingle" unicode="'" horiz-adv-x="413" 
d="M154 911l-25 516h156l-25 -516h-106z" />
    <glyph glyph-name="parenleft" unicode="(" horiz-adv-x="681" 
d="M598 -350q-228 201 -345.5 450.5t-117.5 532.5t117.5 532.5t345.5 450.5l78 -84q-193 -189 -290 -408.5t-97 -490.5t97 -490.5t290 -408.5z" />
    <glyph glyph-name="parenright" unicode=")" horiz-adv-x="681" 
d="M6 -266q192 189 288.5 408.5t96.5 490.5t-96.5 490.5t-288.5 408.5l76 84q228 -201 345.5 -450.5t117.5 -532.5t-117.5 -532.5t-345.5 -450.5z" />
    <glyph glyph-name="asterisk" unicode="*" horiz-adv-x="874" 
d="M299 850l-96 74l153 176l-225 69l43 115l213 -90l-10 233h123l-13 -233l213 90l43 -115l-225 -69l156 -176l-99 -74l-139 190z" />
    <glyph glyph-name="plus" unicode="+" horiz-adv-x="866" 
d="M356 387v252h-231v145h231v254h158v-254h231v-145h-231v-252h-158z" />
    <glyph glyph-name="comma" unicode="," horiz-adv-x="473" 
d="M150 227h202l-258 -489h-129z" />
    <glyph glyph-name="hyphen" unicode="-" horiz-adv-x="866" 
d="M125 469v143h616v-143h-616z" />
    <glyph glyph-name="period" unicode="." horiz-adv-x="464" 
d="M129 90q0 43 31 73t73 30q41 0 72 -30t31 -73q0 -44 -31 -74t-72 -30q-42 0 -73 29.5t-31 74.5z" />
    <glyph glyph-name="slash" unicode="/" horiz-adv-x="944" 
d="M41 -279l639 1760h147l-643 -1760h-143z" />
    <glyph glyph-name="zero" unicode="0" horiz-adv-x="1214" 
d="M127 408q-6 68 -6 307q0 237 6 305q19 187 157 312.5t324 125.5t323 -125.5t156 -312.5q7 -79 7 -305q0 -228 -7 -307q-19 -188 -156 -313.5t-323 -125.5t-324 126t-157 313zM283 418q12 -127 104.5 -211t220.5 -84q127 0 220.5 84t105.5 211q6 59 6 297q0 236 -6 295
q-12 127 -105.5 211t-220.5 84q-128 0 -220.5 -84t-104.5 -211q-7 -69 -7 -295q0 -228 7 -297z" />
    <glyph glyph-name="one" unicode="1" horiz-adv-x="696" 
d="M313 0v1278h-196v149h360v-1427h-164z" />
    <glyph glyph-name="two" unicode="2" horiz-adv-x="1107" 
d="M25 0l671 821q105 127 105 232q0 104 -74.5 178t-177.5 74q-104 0 -177 -74.5t-73 -179.5h-162q0 169 121 288t293 119q170 0 291 -119t121 -288q0 -77 -23.5 -149t-103.5 -171l-478 -581h641v-150h-974z" />
    <glyph glyph-name="three" unicode="3" horiz-adv-x="1228" 
d="M61 276l144 56q37 -97 137.5 -153t235.5 -56q165 0 268.5 92.5t103.5 237.5t-105 241.5t-267 96.5q-158 0 -265 -41l451 528h-569v149h899l-441 -507h2q185 0 318 -136.5t133 -330.5q0 -213 -149 -348.5t-379 -135.5q-184 0 -323.5 83t-193.5 224z" />
    <glyph glyph-name="four" unicode="4" horiz-adv-x="1249" 
d="M111 317l532 1110h176l-454 -960h528v309h162v-776h-162v317h-782z" />
    <glyph glyph-name="five" unicode="5" horiz-adv-x="1206" 
d="M96 260l140 68q44 -93 134.5 -149t196.5 -56q150 0 255.5 103.5t105.5 248.5q0 146 -105 249t-256 103q-110 0 -207 -36t-161 -101l131 737h663v-149h-526l-57 -322q80 25 159 25q141 0 260 -69t186.5 -185.5t67.5 -251.5q0 -140 -69.5 -256.5t-188 -183t-258.5 -66.5
q-152 0 -279.5 79.5t-191.5 211.5z" />
    <glyph glyph-name="six" unicode="6" horiz-adv-x="1232" 
d="M121 471q0 54 13 106t44.5 112.5t57.5 102.5t79 121q11 13 342 514h193l-328 -487q56 12 117 12q123 0 232.5 -62t177 -173.5t67.5 -243.5q0 -212 -145.5 -358t-352.5 -146q-134 0 -248.5 66.5t-181.5 182t-67 253.5zM285 465q0 -147 96 -244.5t237 -97.5t242 101
t101 241q0 141 -101 240.5t-242 99.5q-145 0 -239 -96t-94 -244z" />
    <glyph glyph-name="seven" unicode="7" horiz-adv-x="1202" 
d="M266 0l615 1278h-768v149h1020l-689 -1427h-178z" />
    <glyph glyph-name="eight" unicode="8" horiz-adv-x="1189" 
d="M117 432q0 145 72 246.5t182 146.5q-67 46 -106.5 115t-39.5 150q0 152 108.5 260t262.5 108q152 0 260.5 -108t108.5 -260q0 -81 -39 -150t-105 -115q110 -45 181 -146.5t71 -246.5q0 -125 -63 -231.5t-173 -169t-241 -62.5q-200 0 -339.5 136t-139.5 327zM596 872
q86 0 147.5 64.5t61.5 153.5q0 88 -61.5 151.5t-147.5 63.5q-87 0 -149 -63.5t-62 -151.5q0 -90 62 -154t149 -64zM281 432q0 -128 92.5 -218.5t222.5 -90.5q129 0 222 91t93 218q0 128 -92.5 218.5t-222.5 90.5q-131 0 -223 -90t-92 -219z" />
    <glyph glyph-name="nine" unicode="9" horiz-adv-x="1210" 
d="M362 0l351 514q-56 -16 -123 -16q-118 0 -225 57t-176.5 166t-69.5 244q0 137 66 250.5t177.5 178t243.5 64.5q211 0 348.5 -141.5t137.5 -343.5q0 -48 -11.5 -97.5t-26 -88t-48 -96.5t-55 -92t-68.5 -105q-10 -13 -328 -494h-193zM606 641q154 0 243 94.5t89 237.5
q0 137 -98 234.5t-234 97.5q-138 0 -235 -97.5t-97 -234.5q0 -138 97 -235t235 -97z" />
    <glyph glyph-name="colon" unicode=":" horiz-adv-x="464" 
d="M233 694q-42 0 -73 30.5t-31 74.5t31 74t73 30q41 0 72 -30.5t31 -73.5t-31 -74t-72 -31zM233 131q-42 0 -73 29.5t-31 72.5q0 44 31 74.5t73 30.5q41 0 72 -31t31 -74t-31 -72.5t-72 -29.5z" />
    <glyph glyph-name="semicolon" unicode=";" horiz-adv-x="546" 
d="M274 694q-42 0 -73 30.5t-31 74.5q0 43 31 72.5t73 29.5q41 0 72 -29.5t31 -72.5t-31 -74t-72 -31zM180 227h205l-240 -456h-137z" />
    <glyph glyph-name="less" unicode="&#x3c;" horiz-adv-x="927" 
d="M61 729l721 459v-164l-465 -295l465 -293v-164z" />
    <glyph glyph-name="equal" unicode="=" horiz-adv-x="952" 
d="M125 823v144h704v-144h-704zM125 485v144h704v-144h-704z" />
    <glyph glyph-name="greater" unicode="&#x3e;" horiz-adv-x="925" 
d="M145 272v164l463 295l-463 295v162l719 -457z" />
    <glyph glyph-name="question" unicode="?" horiz-adv-x="890" 
d="M481 319q-126 0 -201 69t-75 185q0 153 184 283q48 33 69 48.5t54.5 42.5t47.5 45t30.5 44.5t22 55t5.5 63.5q0 11 -1.5 23.5t-12 38t-28.5 44t-56 33.5t-90 15q-154 0 -291 -133v182q124 100 293 100q78 0 141 -21t100.5 -53t62.5 -73t34.5 -77.5t9.5 -70.5
q0 -74 -13.5 -126.5t-56.5 -103.5t-76.5 -78.5t-118.5 -91.5q-11 -9 -17 -13q-63 -46 -97 -87t-34 -90q0 -104 114 -104q81 0 146 37v-160q-65 -27 -146 -27zM330 72q0 45 31 74.5t73 29.5q41 0 72 -30t31 -74q0 -43 -31 -73t-72 -30q-42 0 -73 30t-31 73z" />
    <glyph glyph-name="at" unicode="@" horiz-adv-x="1724" 
d="M117 598q0 142 55.5 277t151.5 238.5t236.5 166.5t299.5 63q117 0 229 -34t205 -98.5t164 -151t110.5 -196.5t39.5 -230q0 -208 -83.5 -320t-230.5 -112q-78 0 -133.5 35.5t-81.5 101.5q-89 -109 -225 -109q-148 0 -250 103t-102 256t101.5 255.5t250.5 102.5
q126 0 205 -90v72h139v-469q0 -44 10 -73t28 -39.5t30 -13.5t28 -3q15 0 26.5 1t30.5 7.5t33.5 18t30.5 34.5t26.5 54t17.5 79.5t7 108.5q0 158 -81.5 291.5t-220.5 210.5t-304 77q-122 0 -233 -48.5t-192 -130.5t-129 -196t-48 -239q0 -166 81 -307t220 -223t301 -82
q148 0 283 80l65 -125q-160 -86 -348 -86q-141 0 -275.5 55.5t-238 151.5t-166.5 236.5t-63 299.5zM641 588q0 -94 60.5 -157.5t152.5 -63.5q91 0 153 63.5t62 157.5q0 97 -61.5 160t-153.5 63q-93 0 -153 -62.5t-60 -160.5z" />
    <glyph glyph-name="A" unicode="A" horiz-adv-x="1515" 
d="M111 0l647 1479l649 -1479h-178l-152 350h-643l-153 -350h-170zM500 500h512l-256 602z" />
    <glyph glyph-name="B" unicode="B" horiz-adv-x="1292" 
d="M227 0v1427h439q162 0 272.5 -103.5t110.5 -260.5q0 -102 -48 -177.5t-135 -109.5q138 -29 212.5 -123.5t74.5 -230.5q0 -182 -123.5 -302t-310.5 -120h-492zM389 831h266q100 0 166 64.5t66 161.5q0 94 -65.5 157.5t-164.5 63.5h-268v-447zM389 150h320
q121 0 201.5 77.5t80.5 194.5q0 114 -80 189t-204 75h-318v-536z" />
    <glyph glyph-name="C" unicode="C" horiz-adv-x="1536" 
d="M135 713q0 157 58.5 295.5t158.5 236t237 153.5t290 56q163 0 303 -63t243 -179l-110 -100q-79 92 -191 142.5t-245 50.5q-165 0 -297.5 -77t-207.5 -212.5t-75 -302.5t75 -302.5t207.5 -212.5t297.5 -77q134 0 248.5 52.5t193.5 148.5l111 -101q-102 -119 -245 -184.5
t-308 -65.5q-204 0 -374.5 95.5t-270 266t-99.5 380.5z" />
    <glyph glyph-name="D" unicode="D" horiz-adv-x="1566" 
d="M227 0v1427h461q342 0 539.5 -196.5t197.5 -517.5t-196.5 -517t-538.5 -196h-463zM389 150h289q145 0 257.5 41.5t183.5 116.5t107 177.5t36 227.5q0 259 -149 412t-437 153h-287v-1128z" />
    <glyph glyph-name="E" unicode="E" horiz-adv-x="1193" 
d="M217 399v1028h809v-149h-647v-451h608v-149h-608v-287q0 -67 22.5 -117t59 -75.5t74 -37t75.5 -11.5h430v-150h-444q-190 0 -284.5 102t-94.5 297z" />
    <glyph glyph-name="F" unicode="F" horiz-adv-x="1116" 
d="M227 0v1427h750v-149h-588v-459h537v-149h-537v-670h-162z" />
    <glyph glyph-name="G" unicode="G" horiz-adv-x="1595" 
d="M135 713q0 157 58.5 295.5t158.5 236t237 153.5t290 56q294 0 495 -186l-102 -113q-163 150 -393 150q-164 0 -297 -77.5t-208 -213t-75 -301.5q0 -167 75 -302.5t207.5 -212.5t297.5 -77q229 0 391 143v365h-436v151h598v-571q-104 -114 -246.5 -176t-306.5 -62
q-204 0 -374.5 95.5t-270 266t-99.5 380.5z" />
    <glyph glyph-name="H" unicode="H" horiz-adv-x="1568" 
d="M227 0v1427h162v-593h791v593h161v-1427h-161v682h-791v-682h-162z" />
    <glyph glyph-name="I" unicode="I" horiz-adv-x="632" 
d="M236 0v1427h161v-1427h-161z" />
    <glyph glyph-name="J" unicode="J" horiz-adv-x="714" 
d="M68 0v150h69q61 0 102.5 17t62 50t28.5 70t8 88v1052h162v-1044q0 -47 -2.5 -82.5t-11 -77.5t-23.5 -72.5t-41.5 -60.5t-63 -48.5t-90 -30t-121.5 -11.5h-79z" />
    <glyph glyph-name="K" unicode="K" horiz-adv-x="1386" 
d="M227 0v1427h162v-755l684 755h201l-569 -622l585 -805h-196l-498 686l-207 -225v-461h-162z" />
    <glyph glyph-name="L" unicode="L" horiz-adv-x="1095" 
d="M227 0v1427h162v-1277h588v-150h-750z" />
    <glyph glyph-name="M" unicode="M" horiz-adv-x="1839" 
d="M227 0v1470l693 -976l692 976v-1470h-162v995l-530 -755l-531 755v-995h-162z" />
    <glyph glyph-name="N" unicode="N" horiz-adv-x="1617" 
d="M227 0v1479l1002 -1125v1073h162v-1478l-1002 1124v-1073h-162z" />
    <glyph glyph-name="O" unicode="O" horiz-adv-x="1759" 
d="M135 713q0 157 58.5 295.5t158.5 236t237 153.5t290 56t290 -56t237 -153.5t159 -236t59 -295.5q0 -210 -100 -380.5t-270.5 -266t-374.5 -95.5t-374.5 95.5t-270 266t-99.5 380.5zM297 713q0 -167 75.5 -302.5t208.5 -212.5t298 -77q251 0 416 169t165 423t-165 423
t-416 169q-165 0 -298 -77t-208.5 -212.5t-75.5 -302.5z" />
    <glyph glyph-name="P" unicode="P" horiz-adv-x="1253" 
d="M227 0v1427h459q182 0 310 -124.5t128 -309.5q0 -188 -127.5 -312t-310.5 -124h-297v-557h-162zM389 707h291q120 0 200.5 81.5t80.5 204.5t-80.5 204t-200.5 81h-291v-571z" />
    <glyph glyph-name="Q" unicode="Q" horiz-adv-x="1759" 
d="M135 713q0 157 58.5 295.5t158.5 236t237 153.5t290 56t290 -56t237 -153.5t159 -236t59 -295.5q0 -155 -55 -289.5t-154 -233.5l152 -186l-115 -94l-152 186q-186 -125 -421 -125q-204 0 -374.5 95.5t-270 266t-99.5 380.5zM297 713q0 -167 75.5 -302.5t208.5 -212.5
t298 -77q176 0 323 94l-233 285l114 94l232 -283q69 78 107 181.5t38 220.5q0 254 -165 423t-416 169q-165 0 -298 -77t-208.5 -212.5t-75.5 -302.5z" />
    <glyph glyph-name="R" unicode="R" horiz-adv-x="1320" 
d="M227 0v1427h490q179 0 303.5 -121.5t124.5 -304.5q0 -140 -74.5 -249.5t-196.5 -155.5l345 -596h-187l-321 563h-2h-320v-563h-162zM389 713h311q122 0 202.5 82t80.5 206q0 118 -77.5 197.5t-194.5 79.5h-322v-565z" />
    <glyph glyph-name="S" unicode="S" horiz-adv-x="1206" 
d="M123 313l139 66q106 -258 359 -258q73 0 128 19.5t84 46.5t46 64.5t21.5 64.5t4.5 55q0 50 -15 90.5t-38 68.5t-68.5 57t-86 49t-111.5 50q-54 24 -90 41.5t-79 42t-70.5 47t-55.5 53t-44 63.5t-26 75.5t-10 91.5q0 154 111.5 254t281.5 100q261 0 385 -227l-137 -72
q-41 77 -100.5 113.5t-149.5 36.5q-95 0 -162 -57.5t-67 -143.5q0 -44 14 -79.5t35.5 -60.5t60.5 -49.5t75 -42t94 -43.5q9 -4 14 -6q86 -39 143 -69.5t110.5 -70t83 -82.5t47 -100t17.5 -128q0 -177 -118 -289.5t-331 -112.5q-172 0 -302.5 85.5t-192.5 256.5z" />
    <glyph glyph-name="T" unicode="T" horiz-adv-x="1140" 
d="M489 0v1278h-389v149h940v-149h-389v-1278h-162z" />
    <glyph glyph-name="U" unicode="U" horiz-adv-x="1505" 
d="M217 502v925h162v-909q0 -192 100 -292.5t275 -100.5q173 0 272.5 100.5t99.5 292.5v909h162v-925q0 -128 -40 -229t-112 -165.5t-169 -98.5t-213 -34q-240 0 -388.5 137t-148.5 390z" />
    <glyph glyph-name="V" unicode="V" horiz-adv-x="1452" 
d="M727 -51l-616 1478h174l442 -1069l442 1069h174z" />
    <glyph glyph-name="W" unicode="W" horiz-adv-x="2019" 
d="M563 -51l-469 1478h172l318 -1003l432 1053l411 -1049l326 999h170l-477 -1482l-434 1095z" />
    <glyph glyph-name="X" unicode="X" horiz-adv-x="1417" 
d="M125 0l479 739l-450 688h180l377 -577l372 577h174l-448 -690l483 -737h-182l-408 625l-405 -625h-172z" />
    <glyph glyph-name="Y" unicode="Y" horiz-adv-x="1353" 
d="M598 0v586l-502 841h180l406 -682l401 682h177l-498 -841v-586h-164z" />
    <glyph glyph-name="Z" unicode="Z" horiz-adv-x="1388" 
d="M104 0l891 1278h-731v149h1026l-891 -1277h863v-150h-1158z" />
    <glyph glyph-name="bracketleft" unicode="[" horiz-adv-x="708" 
d="M373 -248h303v-149h-465v1824h465v-149h-303v-1526z" />
    <glyph glyph-name="backslash" unicode="\" horiz-adv-x="944" 
d="M735 -279l-643 1760h144l645 -1760h-146z" />
    <glyph glyph-name="bracketright" unicode="]" horiz-adv-x="708" 
d="M35 -248h301v1526h-301v149h463v-1824h-463v149z" />
    <glyph glyph-name="asciicircum" unicode="^" horiz-adv-x="1144" 
d="M86 717l485 764l488 -764h-164l-324 508l-323 -508h-162z" />
    <glyph glyph-name="underscore" unicode="_" horiz-adv-x="686" 
d="M35 -252h620v-143h-620v143z" />
    <glyph glyph-name="grave" unicode="`" horiz-adv-x="1181" 
d="M549 1130l-191 297h205l109 -297h-123z" />
    <glyph glyph-name="a" unicode="a" horiz-adv-x="1306" 
d="M111 516q0 154 70 280t189.5 196.5t262.5 70.5q139 0 230 -53t136 -131v153h154v-1032h-154v154q-45 -78 -136 -131.5t-230 -53.5q-143 0 -262.5 70.5t-189.5 196.5t-70 280zM266 516q0 -172 105 -287.5t264 -115.5q164 0 273.5 115.5t109.5 287.5t-109.5 288t-273.5 116
q-159 0 -264 -116t-105 -288z" />
    <glyph glyph-name="b" unicode="b" horiz-adv-x="1308" 
d="M156 0v1427h155v-548q43 77 135 130.5t230 53.5q143 0 262.5 -70.5t189.5 -196.5t70 -280t-70 -280t-189.5 -196.5t-262.5 -70.5q-138 0 -230 54t-135 131v-154h-155zM293 516q0 -172 109 -287.5t274 -115.5q158 0 263 115.5t105 287.5t-105 288t-263 116
q-165 0 -274 -116t-109 -288z" />
    <glyph glyph-name="c" unicode="c" horiz-adv-x="1138" 
d="M111 516q0 154 73.5 280t199 196.5t275.5 70.5q241 0 394 -156l-95 -108q-118 121 -299 121q-170 0 -281.5 -115.5t-111.5 -288.5q0 -172 111.5 -287.5t281.5 -115.5q182 0 299 120l95 -108q-153 -156 -394 -156q-150 0 -275.5 70.5t-199 196.5t-73.5 280z" />
    <glyph glyph-name="d" unicode="d" horiz-adv-x="1308" 
d="M111 516q0 154 70 280t189.5 196.5t262.5 70.5q139 0 230 -53t136 -131v548h154v-1427h-154v154q-45 -78 -136 -131.5t-230 -53.5q-143 0 -262.5 70.5t-189.5 196.5t-70 280zM266 516q0 -172 105 -287.5t264 -115.5q164 0 273.5 115.5t109.5 287.5t-109.5 288t-273.5 116
q-159 0 -264 -116t-105 -288z" />
    <glyph glyph-name="e" unicode="e" horiz-adv-x="1208" 
d="M111 504v8q0 247 146 399t372 152q211 0 343 -148t132 -366q0 -35 -2 -66h-836q6 -169 105.5 -269.5t261.5 -100.5q104 0 174.5 35t140.5 108l103 -100q-91 -101 -193.5 -142t-224.5 -41q-233 0 -377.5 145.5t-144.5 385.5zM276 616h664q0 125 -91 214.5t-220 89.5
q-140 0 -242.5 -89t-110.5 -215z" />
    <glyph glyph-name="f" unicode="f" horiz-adv-x="610" 
d="M158 0v1087q0 111 23.5 174.5t76.5 106.5q75 59 234 59h59v-137h-76q-81 0 -121.5 -41t-40.5 -135v-82h195v-143h-195v-889h-155z" />
    <glyph glyph-name="g" unicode="g" horiz-adv-x="1308" 
d="M111 524q0 114 41 215t111.5 171.5t166.5 111.5t203 41q139 0 230 -53t136 -131v153h154v-950q0 -263 -121.5 -398t-386.5 -135q-165 0 -290 70t-179 182l131 74q42 -85 129.5 -133.5t206.5 -48.5q188 0 272 92t84 276v111q-45 -78 -136 -131t-230 -53
q-143 0 -262.5 68.5t-189.5 192t-70 275.5zM266 524q0 -169 105 -281t264 -112q164 0 273.5 112t109.5 281t-109.5 282.5t-273.5 113.5q-159 0 -264 -113.5t-105 -282.5z" />
    <glyph glyph-name="h" unicode="h" horiz-adv-x="1153" 
d="M156 0v1427h155v-569q40 87 122 139t194 52q171 0 270.5 -107t99.5 -283v-659h-153v627q0 128 -68 203t-186 75q-123 0 -201 -80t-78 -209v-616h-155z" />
    <glyph glyph-name="i" unicode="i" horiz-adv-x="468" 
d="M236 1202q-41 0 -73 31t-32 74t32 73.5t73 30.5t72.5 -30.5t31.5 -73.5t-31.5 -74t-72.5 -31zM158 0v1032h155v-1032h-155z" />
    <glyph glyph-name="j" unicode="j" horiz-adv-x="464" 
d="M-59 -426v143h49q88 0 127 43t39 144v1128h155v-1132q0 -68 -12.5 -122t-36.5 -88.5t-53 -58.5t-66.5 -36t-71.5 -16.5t-75 -4.5h-55zM233 1198q-41 0 -72.5 31t-31.5 74t31.5 73.5t72.5 30.5t73 -30.5t32 -73.5t-32 -74t-73 -31z" />
    <glyph glyph-name="k" unicode="k" horiz-adv-x="1034" 
d="M156 0v1427h155v-903l441 508h176l-391 -452l446 -580h-182l-363 469l-127 -147v-322h-155z" />
    <glyph glyph-name="l" unicode="l" horiz-adv-x="468" 
d="M158 0v1427h155v-1427h-155z" />
    <glyph glyph-name="m" unicode="m" horiz-adv-x="1722" 
d="M156 0v1032h155v-174q37 87 112 139t177 52q108 0 186 -54t117 -151q45 97 130 151t200 54q159 0 252.5 -107.5t93.5 -282.5v-659h-156v627q0 128 -61.5 203t-169.5 75q-110 0 -181 -80.5t-71 -208.5v-616h-156v627q0 129 -59.5 203.5t-167.5 74.5q-107 0 -176.5 -80.5
t-69.5 -208.5v-616h-155z" />
    <glyph glyph-name="n" unicode="n" horiz-adv-x="1169" 
d="M156 0v1032h155v-174q41 86 127.5 138.5t202.5 52.5q178 0 280.5 -107t102.5 -283v-659h-154v627q0 128 -72 203t-196 75q-129 0 -210 -80t-81 -209v-616h-155z" />
    <glyph glyph-name="o" unicode="o" horiz-adv-x="1320" 
d="M111 516q0 154 73.5 280t199 196.5t275.5 70.5q151 0 277 -70.5t200 -196.5t74 -280t-74 -280t-200 -196.5t-277 -70.5q-150 0 -275.5 70.5t-199 196.5t-73.5 280zM266 516q0 -172 111.5 -287.5t281.5 -115.5q171 0 283.5 115.5t112.5 287.5q0 173 -112.5 288.5
t-283.5 115.5q-170 0 -281.5 -115.5t-111.5 -288.5z" />
    <glyph glyph-name="p" unicode="p" horiz-adv-x="1308" 
d="M156 -395v1427h155v-153q43 77 135 130.5t230 53.5q143 0 262.5 -70.5t189.5 -196.5t70 -280t-70 -280t-189.5 -196.5t-262.5 -70.5q-138 0 -230 54t-135 131v-549h-155zM293 516q0 -172 109 -287.5t274 -115.5q158 0 263 115.5t105 287.5t-105 288t-263 116
q-165 0 -274 -116t-109 -288z" />
    <glyph glyph-name="q" unicode="q" horiz-adv-x="1308" 
d="M111 516q0 154 70 280t189.5 196.5t262.5 70.5q139 0 230 -53t136 -131v153h154v-1427h-154v549q-45 -78 -136 -131.5t-230 -53.5q-143 0 -262.5 70.5t-189.5 196.5t-70 280zM266 516q0 -172 105 -287.5t264 -115.5q164 0 273.5 115.5t109.5 287.5t-109.5 288t-273.5 116
q-159 0 -264 -116t-105 -288z" />
    <glyph glyph-name="r" unicode="r" horiz-adv-x="716" 
d="M156 0v1032h155v-174q40 87 122 139t194 52q30 0 65 -5v-165q-42 10 -102 10q-122 0 -200.5 -80.5t-78.5 -210.5v-598h-155z" />
    <glyph glyph-name="s" unicode="s" horiz-adv-x="927" 
d="M76 221l131 53q21 -65 87 -110t173 -45q66 0 113.5 15.5t70 40.5t32 49t9.5 50q0 33 -12.5 60t-30 45.5t-56 39.5t-69 34t-90.5 36q-67 26 -114 51.5t-87 60.5t-59.5 81.5t-19.5 105.5q0 121 88 198t225 77q208 0 301 -178l-125 -66q-29 52 -70 77.5t-104 25.5
q-71 0 -115.5 -35t-44.5 -96q0 -64 54.5 -103.5t171.5 -83.5q159 -61 235 -136t76 -194q0 -57 -23 -109t-67.5 -95t-119.5 -69t-169 -26q-148 0 -253 64t-138 182z" />
    <glyph glyph-name="t" unicode="t" horiz-adv-x="647" 
d="M158 356v1071h155v-395h238v-143h-238v-527q0 -115 53.5 -167t155.5 -52h29v-143h-39q-42 0 -78 4.5t-79 17t-76 38t-61.5 63t-44 97.5t-15.5 136z" />
    <glyph glyph-name="u" unicode="u" horiz-adv-x="1155" 
d="M143 399v633h156v-618q0 -144 74.5 -219.5t204.5 -75.5t205 76t75 221v616h154v-618q0 -210 -122.5 -324.5t-318.5 -114.5q-190 0 -309 110t-119 314z" />
    <glyph glyph-name="v" unicode="v" horiz-adv-x="1128" 
d="M565 -72l-495 1104h159l336 -753l336 753h160z" />
    <glyph glyph-name="w" unicode="w" horiz-adv-x="1609" 
d="M494 -72l-424 1104h149l277 -725l307 795l309 -795l277 725h149l-424 -1104l-311 797z" />
    <glyph glyph-name="x" unicode="x" horiz-adv-x="1130" 
d="M90 0l393 549l-360 483h170l272 -364l271 364h172l-359 -481l393 -551h-170l-305 430l-309 -430h-168z" />
    <glyph glyph-name="y" unicode="y" horiz-adv-x="1112" 
d="M174 -293h94q60 0 99 29q38 30 77 125l43 116l-417 1055h155l338 -868l328 868h153l-466 -1208q-45 -113 -101 -174q-75 -78 -203 -78h-100v135z" />
    <glyph glyph-name="z" unicode="z" horiz-adv-x="1105" 
d="M31 0l686 889h-576v143h863l-687 -889h658v-143h-944z" />
    <glyph glyph-name="braceleft" unicode="{" horiz-adv-x="731" 
d="M270 -133v389q0 133 -82 182q-20 12 -43 19t-36 9l-13 1v98q47 2 92 29q82 49 82 182v389q0 114 69.5 188t176.5 74h94v-122h-75q-57 0 -84 -42t-27 -100v-364q0 -156 -70 -226q-36 -36 -82 -57q46 -21 82 -57q70 -70 70 -226v-364q0 -58 27 -99.5t84 -41.5h75v-123h-94
q-107 0 -176.5 74t-69.5 188z" />
    <glyph glyph-name="bar" unicode="|" horiz-adv-x="587" 
d="M217 -51v1530h154v-1530h-154z" />
    <glyph glyph-name="braceright" unicode="}" horiz-adv-x="731" 
d="M121 -272h76q57 0 83.5 41.5t26.5 99.5v364q0 156 70 226q35 35 84 57q-49 22 -84 57q-70 70 -70 226v364q0 59 -26.5 100.5t-83.5 41.5h-76v122h94q107 0 176.5 -74t69.5 -188v-389q0 -133 82 -182q20 -12 43 -19t36 -9l13 -1v-98q-47 -2 -92 -29q-82 -49 -82 -182v-389
q0 -114 -69.5 -188t-176.5 -74h-94v123z" />
    <glyph glyph-name="asciitilde" unicode="~" horiz-adv-x="935" 
d="M96 621q11 82 66.5 136t140.5 54q59 0 118 -20t111 -40t93 -20q86 0 114 84l101 -8q-26 -203 -209 -203q-62 0 -121 20t-110 40t-93 20q-88 0 -108 -72z" />
    <glyph glyph-name="exclamdown" unicode="&#xa1;" horiz-adv-x="571" 
d="M287 840q-41 0 -73 29.5t-32 72.5q0 44 32 74.5t73 30.5t71.5 -30t30.5 -75q0 -43 -30.5 -72.5t-71.5 -29.5zM188 -412l33 1108h129l35 -1108h-197z" />
    <glyph glyph-name="cent" unicode="&#xa2;" horiz-adv-x="1171" 
d="M424 0l45 209q-158 57 -255 193.5t-97 316.5q0 114 37 209t95 156t132.5 103.5t146.5 60.5t140 18h20l33 161h141l-39 -180q142 -36 240 -129l-94 -108q-72 72 -176 96l-162 -789q1 0 7.5 -1t17 -2t22.5 -1q172 0 289 115l96 -111q-85 -81 -192.5 -113t-206.5 -32
q-34 0 -62 4l-37 -176h-141zM500 350l159 772h-2q-167 -3 -277 -118t-110 -285q0 -125 62.5 -224t167.5 -145z" />
    <glyph glyph-name="sterling" unicode="&#xa3;" horiz-adv-x="1280" 
d="M121 0v139h18q81 0 144.5 19.5t101 49.5t61.5 71.5t32.5 81.5t8.5 83q0 64 -51 164h-211v148h129q-98 170 -98 282q0 173 123.5 296.5t298.5 123.5q173 0 296.5 -123.5t123.5 -296.5h-160q0 108 -76 189.5t-182 81.5q-108 0 -185 -80t-77 -191q0 -98 114 -282h314v-148
h-236q39 -90 39 -164q0 -107 -34 -182.5t-85 -111.5h621v-150h-1030z" />
    <glyph glyph-name="currency" unicode="&#xa4;" horiz-adv-x="1400" 
d="M147 215l179 166q-105 123 -105 301q0 175 105 301l-179 168l107 104l162 -186q129 96 286 96q155 0 287 -96l162 186l106 -104l-180 -166q109 -131 109 -303q0 -173 -109 -301l180 -168l-106 -102q-105 112 -164 182q-124 -92 -285 -92q-163 0 -288 96l-160 -186z
M702 336q138 0 238 102t100 244t-100 245t-238 103q-139 0 -237 -102.5t-98 -245.5t98 -244.5t237 -101.5z" />
    <glyph glyph-name="yen" unicode="&#xa5;" horiz-adv-x="1337" 
d="M590 0v430h-432v150h436l-107 178h-329v149h241l-311 520h180l406 -682l403 682h174l-307 -520h244v-149h-334l-104 -178h438v-150h-434v-430h-164z" />
    <glyph glyph-name="brokenbar" unicode="&#xa6;" horiz-adv-x="587" 
d="M217 850v577h154v-577h-154zM217 0v602h154v-602h-154z" />
    <glyph glyph-name="section" unicode="&#xa7;" horiz-adv-x="1138" 
d="M207 -47h162q0 -30 4 -57.5t16.5 -60t33 -56t58 -39.5t86.5 -16q80 0 137.5 46.5t57.5 133.5q0 36 -12.5 67t-28.5 52t-52 45.5t-61 38.5t-76 40q-214 109 -292 177q-138 120 -138 282q0 197 183 293q-88 88 -88 227q0 145 102 238.5t256 93.5q115 0 198 -52t122.5 -136
t39.5 -191h-163q0 30 -4 57.5t-16.5 60t-33.5 56.5t-57.5 40t-85.5 16q-80 0 -138.5 -47t-58.5 -134q0 -30 5.5 -54t19 -44.5t27 -35.5t40.5 -32t47.5 -28.5t57.5 -30.5q6 -3 36 -18.5t39.5 -20.5l38 -20t41.5 -22.5t37.5 -21.5t39.5 -23.5t34 -21.5t34 -23.5t28 -22.5
q135 -117 135 -283q0 -105 -50.5 -178t-129.5 -115q88 -88 88 -227q0 -147 -103.5 -239.5t-255.5 -92.5q-169 0 -264.5 105.5t-95.5 273.5zM582 295q47 -22 98 -53q176 41 176 184q0 50 -19 90t-65.5 78.5t-94.5 67t-136 75.5q-48 25 -101 54q-176 -41 -176 -185
q0 -33 8.5 -61.5t30.5 -55.5t43.5 -47.5t64.5 -48t76.5 -46.5t94.5 -52z" />
    <glyph glyph-name="dieresis" unicode="&#xa8;" horiz-adv-x="1320" 
d="M872 1198q-41 0 -72.5 31t-31.5 74t31.5 72.5t72.5 29.5t72 -29.5t31 -72.5t-31 -74t-72 -31zM451 1198q-41 0 -73 31t-32 74t32 72.5t73 29.5t71.5 -29.5t30.5 -72.5t-30.5 -74t-71.5 -31z" />
    <glyph glyph-name="copyright" unicode="&#xa9;" horiz-adv-x="1742" 
d="M125 713q0 151 59 288.5t159 237t238 158.5t289 59q202 0 373.5 -99.5t272 -270.5t100.5 -373t-100 -373.5t-272 -272t-374 -100.5q-150 0 -288 59.5t-238 159.5t-159.5 238t-59.5 289zM217 713q0 -178 88 -330t238.5 -241t326.5 -89q133 0 254 52.5t208.5 141t139.5 211
t52 255.5q0 178 -88 329.5t-238.5 239.5t-327.5 88q-132 0 -252.5 -52t-208.5 -140t-140 -210t-52 -255zM467 723q0 177 120.5 294.5t295.5 117.5q181 0 311 -127l-94 -105q-97 90 -217 90q-114 0 -189.5 -77.5t-75.5 -192.5q0 -117 75.5 -193.5t189.5 -76.5q125 0 217 92
l94 -111q-125 -125 -311 -125q-175 0 -295.5 118.5t-120.5 295.5z" />
    <glyph glyph-name="ordfeminine" unicode="&#xaa;" horiz-adv-x="995" 
d="M135 870q0 105 80.5 169.5t230.5 68.5q104 3 143.5 23t39.5 79q0 35 -16 59.5t-41.5 35.5t-47 15.5t-43.5 4.5q-124 0 -211 -108l-90 75q108 154 301 154q121 0 192.5 -65t71.5 -171v-401q0 -24 10 -36.5t23 -12.5h43v-86q-33 -21 -76 -21q-46 0 -67 25q-21 23 -29 55
q-76 -88 -246 -88q-119 0 -193.5 61.5t-74.5 163.5zM254 874q0 -52 43.5 -82t118.5 -30q101 0 157 42t56 114v120q-42 -36 -183 -39q-192 -7 -192 -125z" />
    <glyph glyph-name="guillemotleft" unicode="&#xab;" horiz-adv-x="927" 
d="M659 160l-225 358l225 359h162l-225 -359l225 -358h-162zM338 160l-227 358l227 359h162l-226 -359l226 -358h-162z" />
    <glyph glyph-name="logicalnot" unicode="&#xac;" horiz-adv-x="1243" 
d="M125 782v144h993v-555h-157v411h-836z" />
    <glyph glyph-name="registered" unicode="&#xae;" horiz-adv-x="886" 
d="M442 805q-139 0 -235 93.5t-96 234.5t95.5 233t235.5 92t237 -92t97 -233t-97 -234.5t-237 -93.5zM442 868q114 0 189.5 74.5t75.5 190.5q0 118 -75.5 192t-189.5 74q-115 0 -189.5 -73.5t-74.5 -192.5q0 -116 74.5 -190.5t189.5 -74.5zM322 952v373h133q53 0 86.5 -32.5
t33.5 -82.5q0 -72 -61 -108l90 -150h-84l-80 138h-49v-138h-69zM391 1147h62q22 0 36.5 17t14.5 42q0 22 -15 38t-36 16h-62v-113z" />
    <glyph glyph-name="macron" unicode="&#xaf;" horiz-adv-x="1349" 
d="M373 1284v143h604v-143h-604z" />
    <glyph glyph-name="degree" unicode="&#xb0;" horiz-adv-x="817" 
d="M410 891q-113 0 -193 79t-80 191q0 114 80 193.5t193 79.5t192.5 -79.5t79.5 -193.5q0 -112 -79.5 -191t-192.5 -79zM410 1026q51 0 88 40t37 95t-37 95t-88 40t-88 -40t-37 -95t37 -95t88 -40z" />
    <glyph glyph-name="plusminus" unicode="&#xb1;" horiz-adv-x="866" 
d="M356 389v254h-231v143h231v254h158v-254h231v-143h-231v-254h-158zM125 0v143h620v-143h-620z" />
    <glyph glyph-name="twosuperior" unicode="&#xb2;" horiz-adv-x="745" 
d="M88 672l354 444q50 63 50 107t-33 76t-78 32q-44 0 -76.5 -38t-32.5 -89h-116q0 100 65.5 170t159.5 70q95 0 162 -64.5t67 -156.5q0 -30 -2.5 -49t-18.5 -54.5t-48 -72.5l-222 -263h310v-112h-541z" />
    <glyph glyph-name="threesuperior" unicode="&#xb3;" horiz-adv-x="788" 
d="M375 655q-99 0 -175.5 51t-107.5 136l105 39q20 -52 67 -81.5t111 -29.5q76 0 124 41.5t48 106.5q0 67 -49.5 111t-130.5 44q-95 0 -148 -22l217 266h-272v110h500l-226 -258q30 0 60 -12q73 -27 118.5 -92t45.5 -147q0 -115 -81 -189t-206 -74z" />
    <glyph glyph-name="acute" unicode="&#xb4;" horiz-adv-x="1181" 
d="M512 1130l109 297h204l-190 -297h-123z" />
    <glyph glyph-name="mu" unicode="&#xb5;" horiz-adv-x="1155" 
d="M143 -397v1429h156v-618q0 -144 74.5 -219.5t204.5 -75.5q132 0 206 76t74 221v616h154v-618q0 -210 -121.5 -324.5t-317.5 -114.5q-74 0 -147.5 27.5t-126.5 73.5v-473h-156z" />
    <glyph glyph-name="paragraph" unicode="&#xb6;" 
d="M516 0v545q-177 9 -298.5 136.5t-121.5 305.5q0 183 129.5 311.5t313.5 128.5h589v-149h-135v-1278h-164v1278h-151v-1278h-162z" />
    <glyph glyph-name="periodcentered" unicode="&#xb7;" horiz-adv-x="464" 
d="M233 412q-42 0 -73 30t-31 74t31 74.5t73 30.5q41 0 72 -31t31 -74t-31 -73.5t-72 -30.5z" />
    <glyph glyph-name="cedilla" unicode="&#xb8;" horiz-adv-x="1163" 
d="M399 -358l39 79q55 -34 111 -34q39 0 64.5 20t25.5 53q0 50 -35 67t-112 17h-3l66 156h117l-45 -94h2q57 0 96 -40t39 -106q0 -166 -213 -166q-42 0 -85 14.5t-67 33.5z" />
    <glyph glyph-name="onesuperior" unicode="&#xb9;" horiz-adv-x="534" 
d="M219 672v645h-98v110h217v-755h-119z" />
    <glyph glyph-name="ordmasculine" unicode="&#xba;" horiz-adv-x="1013" 
d="M506 651q-165 0 -282.5 116t-117.5 282t117.5 281.5t282.5 115.5q166 0 283.5 -115t117.5 -282t-117.5 -282.5t-283.5 -115.5zM506 778q109 0 185.5 80.5t76.5 190.5t-76.5 190t-185.5 80q-108 0 -185 -80t-77 -190t77 -190.5t185 -80.5z" />
    <glyph glyph-name="guillemotright" unicode="&#xbb;" horiz-adv-x="927" 
d="M434 160l225 358l-225 359h162l225 -359l-225 -358h-162zM111 160l227 358l-227 359h163l226 -359l-226 -358h-163z" />
    <glyph glyph-name="onequarter" unicode="&#xbc;" horiz-adv-x="1456" 
d="M199 0l800 1427h154l-801 -1427h-153zM260 672v645h-98v110h217v-755h-119zM715 150l291 606h122l-237 -496h270v152h119v-412h-119v150h-446z" />
    <glyph glyph-name="onehalf" unicode="&#xbd;" horiz-adv-x="1521" 
d="M199 0l800 1427h154l-801 -1427h-153zM260 672v645h-98v110h217v-755h-119zM825 0l355 444q49 62 49 107q0 44 -33 76t-78 32t-77.5 -38t-32.5 -89h-115q0 100 65.5 170t159.5 70t161 -64.5t67 -156.5q0 -29 -3 -49t-19 -55t-48 -72l-221 -262h309v-113h-539z" />
    <glyph glyph-name="threequarters" unicode="&#xbe;" horiz-adv-x="1656" 
d="M397 0l801 1427h154l-801 -1427h-154zM395 655q-99 0 -175 51t-107 136l104 39q20 -52 67 -81.5t111 -29.5q76 0 123 41.5t47 106.5q0 67 -49 111t-129 44q-94 0 -147 -22l215 266h-271v110h498l-223 -258q25 0 59 -12q72 -27 117 -92t45 -147q0 -115 -80.5 -189
t-204.5 -74zM913 150l291 606h123l-237 -496h270v152h119v-412h-119v150h-447z" />
    <glyph glyph-name="questiondown" unicode="&#xbf;" horiz-adv-x="890" 
d="M459 840q-42 0 -73.5 29.5t-31.5 74.5q0 43 31.5 73t73.5 30q41 0 71.5 -30t30.5 -73q0 -45 -30.5 -74.5t-71.5 -29.5zM412 696q125 0 199.5 -69.5t74.5 -184.5q0 -151 -182 -282q-49 -34 -69.5 -48.5t-54.5 -42t-47.5 -45.5t-30.5 -44.5t-22.5 -55t-5.5 -63.5
q0 -11 1.5 -23.5t12 -38t28.5 -44t56 -33.5t89 -15q155 0 291 133v-182q-124 -100 -291 -100q-78 0 -141 21t-101 53t-63.5 73t-35 78t-9.5 70q0 74 13.5 126.5t56.5 103.5t76.5 78.5t118.5 91.5l6 4.5t5 4t6 4.5q63 46 97 86.5t34 89.5q0 105 -114 105q-81 0 -146 -37v160
q62 26 148 26z" />
    <glyph glyph-name="Agrave" unicode="&#xc0;" horiz-adv-x="1515" 
d="M750 1526l-191 297h205l108 -297h-122zM111 0l647 1479l649 -1479h-178l-152 350h-643l-153 -350h-170zM500 500h512l-256 602z" />
    <glyph glyph-name="Aacute" unicode="&#xc1;" horiz-adv-x="1515" 
d="M696 1526l109 297h205l-191 -297h-123zM111 0l647 1479l649 -1479h-178l-152 350h-643l-153 -350h-170zM500 500h512l-256 602z" />
    <glyph glyph-name="Acircumflex" unicode="&#xc2;" horiz-adv-x="1515" 
d="M420 1575l338 299l336 -299h-185l-151 151l-154 -151h-184zM111 0l647 1479l649 -1479h-178l-152 350h-643l-153 -350h-170zM500 500h512l-256 602z" />
    <glyph glyph-name="Atilde" unicode="&#xc3;" horiz-adv-x="1515" 
d="M446 1561q9 82 59.5 136t127.5 54q44 0 88 -20t82 -40t69 -20q75 0 95 84l102 -10q-23 -201 -190 -201q-46 0 -90 20t-82.5 40t-71.5 20q-71 0 -88 -72zM111 0l647 1479l649 -1479h-178l-152 350h-643l-153 -350h-170zM500 500h512l-256 602z" />
    <glyph glyph-name="Adieresis" unicode="&#xc4;" horiz-adv-x="1515" 
d="M967 1522q-41 0 -72 30t-31 74q0 43 31 73t72 30q42 0 73 -30t31 -73q0 -45 -31 -74.5t-73 -29.5zM543 1522q-41 0 -72 30t-31 74q0 43 31 73t72 30q42 0 73 -30t31 -73q0 -45 -31 -74.5t-73 -29.5zM111 0l647 1479l649 -1479h-178l-152 350h-643l-153 -350h-170z
M500 500h512l-256 602z" />
    <glyph glyph-name="Aring" unicode="&#xc5;" horiz-adv-x="1515" 
d="M111 0l594 1360q-64 19 -106 72.5t-42 121.5q0 82 60 140.5t143 58.5q82 0 140 -58.5t58 -140.5q0 -69 -41.5 -123t-107.5 -73l598 -1358h-178l-152 350h-643l-153 -350h-170zM760 1458q38 0 66 29t28 67t-28 66.5t-66 28.5t-67 -28.5t-29 -66.5t29 -67t67 -29zM500 500
h512l-256 602z" />
    <glyph glyph-name="AE" unicode="&#xc6;" horiz-adv-x="1902" 
d="M6 0l1096 1427h635v-149h-514v-451h475v-149h-475v-528h528v-150h-692v350h-580l-270 -350h-203zM594 500h465v620z" />
    <glyph glyph-name="Ccedilla" unicode="&#xc7;" horiz-adv-x="1536" 
d="M567 -358l41 79q55 -34 111 -34q38 0 63 20t25 53q0 49 -35.5 66.5t-109.5 17.5h-3l60 144q-256 53 -420 252t-164 473q0 157 58.5 295.5t158.5 236t237 153.5t290 56q163 0 303 -63t243 -179l-110 -100q-79 92 -191 142.5t-245 50.5q-165 0 -297.5 -77t-207.5 -212.5
t-75 -302.5t75 -302.5t207.5 -212.5t297.5 -77q134 0 248.5 52.5t193.5 148.5l111 -101q-102 -119 -245 -184.5t-308 -65.5q-34 0 -52 2l-32 -67h2q57 0 96 -40t39 -106q0 -166 -211 -166q-42 0 -85.5 14.5t-68.5 33.5z" />
    <glyph glyph-name="Egrave" unicode="&#xc8;" horiz-adv-x="1193" 
d="M596 1526l-190 297h204l109 -297h-123zM217 399v1028h809v-149h-647v-451h608v-149h-608v-287q0 -67 22.5 -117t59 -75.5t74 -37t75.5 -11.5h430v-150h-444q-190 0 -284.5 102t-94.5 297z" />
    <glyph glyph-name="Eacute" unicode="&#xc9;" horiz-adv-x="1193" 
d="M539 1526l108 297h205l-190 -297h-123zM217 399v1028h809v-149h-647v-451h608v-149h-608v-287q0 -67 22.5 -117t59 -75.5t74 -37t75.5 -11.5h430v-150h-444q-190 0 -284.5 102t-94.5 297z" />
    <glyph glyph-name="Ecircumflex" unicode="&#xca;" horiz-adv-x="1193" 
d="M279 1575l337 299l336 -299h-184l-152 151l-153 -151h-184zM217 399v1028h809v-149h-647v-451h608v-149h-608v-287q0 -67 22.5 -117t59 -75.5t74 -37t75.5 -11.5h430v-150h-444q-190 0 -284.5 102t-94.5 297z" />
    <glyph glyph-name="Edieresis" unicode="&#xcb;" horiz-adv-x="1193" 
d="M836 1563q-42 0 -73.5 29.5t-31.5 72.5t31.5 72.5t73.5 29.5q41 0 71.5 -29.5t30.5 -72.5t-30.5 -72.5t-71.5 -29.5zM414 1563q-42 0 -73.5 29.5t-31.5 72.5t31.5 72.5t73.5 29.5q41 0 71.5 -29.5t30.5 -72.5t-30.5 -72.5t-71.5 -29.5zM217 399v1028h809v-149h-647v-451
h608v-149h-608v-287q0 -67 22.5 -117t59 -75.5t74 -37t75.5 -11.5h430v-150h-444q-190 0 -284.5 102t-94.5 297z" />
    <glyph glyph-name="Igrave" unicode="&#xcc;" horiz-adv-x="632" 
d="M256 1526l-190 297h204l109 -297h-123zM236 0v1427h161v-1427h-161z" />
    <glyph glyph-name="Iacute" unicode="&#xcd;" horiz-adv-x="632" 
d="M252 1526l108 297h205l-190 -297h-123zM236 0v1427h161v-1427h-161z" />
    <glyph glyph-name="Icircumflex" unicode="&#xce;" horiz-adv-x="632" 
d="M-20 1575l337 299l336 -299h-184l-152 151l-153 -151h-184zM236 0v1427h161v-1427h-161z" />
    <glyph glyph-name="Idieresis" unicode="&#xcf;" horiz-adv-x="632" 
d="M508 1563q-41 0 -73 29.5t-32 72.5t32 72.5t73 29.5t71.5 -29.5t30.5 -72.5t-30.5 -72.5t-71.5 -29.5zM127 1563q-42 0 -73 29.5t-31 72.5t31 72.5t73 29.5q41 0 71.5 -29.5t30.5 -72.5t-30.5 -72.5t-71.5 -29.5zM236 0v1427h161v-1427h-161z" />
    <glyph glyph-name="Eth" unicode="&#xd0;" horiz-adv-x="1558" 
d="M227 0v657h-133v152h133v618h461q342 0 539.5 -196.5t197.5 -517.5t-196.5 -517t-538.5 -196h-463zM389 150h289q145 0 257.5 41.5t183.5 116.5t107 177.5t36 227.5q0 259 -149 412t-437 153h-287v-469h297v-152h-297v-507z" />
    <glyph glyph-name="Ntilde" unicode="&#xd1;" horiz-adv-x="1617" 
d="M496 1561q11 83 60.5 136.5t125.5 53.5q44 0 88.5 -20t83.5 -40t70 -20q38 0 61 20t33 64l100 -10q-23 -201 -188 -201q-47 0 -91.5 20t-82.5 40t-70 20q-71 0 -88 -72zM227 0v1479l1002 -1125v1073h162v-1478l-1002 1124v-1073h-162z" />
    <glyph glyph-name="Ograve" unicode="&#xd2;" horiz-adv-x="1759" 
d="M827 1526l-190 297h205l108 -297h-123zM135 713q0 157 58.5 295.5t158.5 236t237 153.5t290 56t290 -56t237 -153.5t159 -236t59 -295.5q0 -210 -100 -380.5t-270.5 -266t-374.5 -95.5t-374.5 95.5t-270 266t-99.5 380.5zM297 713q0 -167 75.5 -302.5t208.5 -212.5
t298 -77q251 0 416 169t165 423t-165 423t-416 169q-165 0 -298 -77t-208.5 -212.5t-75.5 -302.5z" />
    <glyph glyph-name="Oacute" unicode="&#xd3;" horiz-adv-x="1759" 
d="M788 1526l109 297h205l-191 -297h-123zM135 713q0 157 58.5 295.5t158.5 236t237 153.5t290 56t290 -56t237 -153.5t159 -236t59 -295.5q0 -210 -100 -380.5t-270.5 -266t-374.5 -95.5t-374.5 95.5t-270 266t-99.5 380.5zM297 713q0 -167 75.5 -302.5t208.5 -212.5
t298 -77q251 0 416 169t165 423t-165 423t-416 169q-165 0 -298 -77t-208.5 -212.5t-75.5 -302.5z" />
    <glyph glyph-name="Ocircumflex" unicode="&#xd4;" horiz-adv-x="1759" 
d="M535 1575l337 299l336 -299h-184l-152 151l-153 -151h-184zM135 713q0 157 58.5 295.5t158.5 236t237 153.5t290 56t290 -56t237 -153.5t159 -236t59 -295.5q0 -210 -100 -380.5t-270.5 -266t-374.5 -95.5t-374.5 95.5t-270 266t-99.5 380.5zM297 713q0 -167 75.5 -302.5
t208.5 -212.5t298 -77q251 0 416 169t165 423t-165 423t-416 169q-165 0 -298 -77t-208.5 -212.5t-75.5 -302.5z" />
    <glyph glyph-name="Otilde" unicode="&#xd5;" horiz-adv-x="1759" 
d="M569 1561q9 82 59 136t126 54q45 0 89 -20t82.5 -40t69.5 -20q75 0 95 84l100 -10q-23 -201 -189 -201q-47 0 -91.5 20t-82 40t-69.5 20q-71 0 -88 -72zM135 713q0 157 58.5 295.5t158.5 236t237 153.5t290 56t290 -56t237 -153.5t159 -236t59 -295.5q0 -210 -100 -380.5
t-270.5 -266t-374.5 -95.5t-374.5 95.5t-270 266t-99.5 380.5zM297 713q0 -167 75.5 -302.5t208.5 -212.5t298 -77q251 0 416 169t165 423t-165 423t-416 169q-165 0 -298 -77t-208.5 -212.5t-75.5 -302.5z" />
    <glyph glyph-name="Odieresis" unicode="&#xd6;" horiz-adv-x="1759" 
d="M1090 1524q-41 0 -72 29.5t-31 72.5t31 74t72 31q42 0 73 -30.5t31 -74.5q0 -43 -31 -72.5t-73 -29.5zM668 1524q-41 0 -72 29.5t-31 72.5t31 74t72 31q42 0 73 -30.5t31 -74.5q0 -43 -31 -72.5t-73 -29.5zM135 713q0 157 58.5 295.5t158.5 236t237 153.5t290 56t290 -56
t237 -153.5t159 -236t59 -295.5q0 -210 -100 -380.5t-270.5 -266t-374.5 -95.5t-374.5 95.5t-270 266t-99.5 380.5zM297 713q0 -167 75.5 -302.5t208.5 -212.5t298 -77q251 0 416 169t165 423t-165 423t-416 169q-165 0 -298 -77t-208.5 -212.5t-75.5 -302.5z" />
    <glyph glyph-name="multiply" unicode="&#xd7;" horiz-adv-x="866" 
d="M211 362l-94 99l221 221l-221 221l94 96l223 -223l221 223l97 -96l-222 -221l222 -221l-97 -99l-221 224z" />
    <glyph glyph-name="Oslash" unicode="&#xd8;" horiz-adv-x="1759" 
d="M272 0l113 152q-118 102 -184 246.5t-66 314.5q0 157 58.5 295.5t158.5 236t237 153.5t290 56q215 0 397 -111l119 160l118 -88l-118 -160q108 -102 168.5 -241t60.5 -301q0 -210 -100 -380.5t-270.5 -266t-374.5 -95.5q-196 0 -373 97l-115 -154zM477 274l709 947
q-139 84 -307 84q-165 0 -298 -77t-208.5 -212.5t-75.5 -302.5q0 -132 47 -245.5t133 -193.5zM598 190q126 -69 281 -69q251 0 416 169t165 423q0 123 -42 229.5t-118 185.5z" />
    <glyph glyph-name="Ugrave" unicode="&#xd9;" horiz-adv-x="1505" 
d="M705 1526l-191 297h205l108 -297h-122zM217 502v925h162v-909q0 -192 100 -292.5t275 -100.5q173 0 272.5 100.5t99.5 292.5v909h162v-925q0 -128 -40 -229t-112 -165.5t-169 -98.5t-213 -34q-240 0 -388.5 137t-148.5 390z" />
    <glyph glyph-name="Uacute" unicode="&#xda;" horiz-adv-x="1505" 
d="M684 1526l109 297h204l-190 -297h-123zM217 502v925h162v-909q0 -192 100 -292.5t275 -100.5q173 0 272.5 100.5t99.5 292.5v909h162v-925q0 -128 -40 -229t-112 -165.5t-169 -98.5t-213 -34q-240 0 -388.5 137t-148.5 390z" />
    <glyph glyph-name="Ucircumflex" unicode="&#xdb;" horiz-adv-x="1505" 
d="M416 1575l338 299l336 -299h-185l-151 151l-154 -151h-184zM217 502v925h162v-909q0 -192 100 -292.5t275 -100.5q173 0 272.5 100.5t99.5 292.5v909h162v-925q0 -128 -40 -229t-112 -165.5t-169 -98.5t-213 -34q-240 0 -388.5 137t-148.5 390z" />
    <glyph glyph-name="Udieresis" unicode="&#xdc;" horiz-adv-x="1505" 
d="M965 1524q-42 0 -73.5 29.5t-31.5 72.5q0 44 31.5 74.5t73.5 30.5q41 0 71.5 -30.5t30.5 -74.5q0 -43 -30.5 -72.5t-71.5 -29.5zM543 1524q-42 0 -73.5 29.5t-31.5 72.5q0 44 31.5 74.5t73.5 30.5q41 0 71.5 -30.5t30.5 -74.5q0 -43 -30.5 -72.5t-71.5 -29.5zM217 502
v925h162v-909q0 -192 100 -292.5t275 -100.5q173 0 272.5 100.5t99.5 292.5v909h162v-925q0 -128 -40 -229t-112 -165.5t-169 -98.5t-213 -34q-240 0 -388.5 137t-148.5 390z" />
    <glyph glyph-name="Yacute" unicode="&#xdd;" horiz-adv-x="1353" 
d="M610 1526l109 297h207l-193 -297h-123zM598 0v586l-502 841h180l406 -682l401 682h177l-498 -841v-586h-164z" />
    <glyph glyph-name="Thorn" unicode="&#xde;" horiz-adv-x="1083" 
d="M227 0v1427h162v-305h133q210 0 325.5 -116.5t115.5 -303.5q0 -180 -111 -292.5t-315 -112.5h-148v-297h-162zM389 449h133q135 0 206 69.5t71 190.5q0 123 -71 192.5t-208 69.5h-131v-522z" />
    <glyph glyph-name="germandbls" unicode="&#xdf;" horiz-adv-x="1206" 
d="M154 0v1106q0 148 102.5 250t251.5 102q146 0 248 -102t102 -248q0 -131 -88 -223l-2 -2q59 -11 116.5 -44t108 -85.5t82 -133t31.5 -174.5q0 -203 -140.5 -340t-355.5 -137q-40 0 -104 11v157q50 -18 104 -18q137 0 235.5 96t98.5 231t-98.5 230.5t-235.5 95.5h-2
q-52 0 -102 -18v143q190 36 190 209q0 83 -55 143t-133 60q-81 0 -136 -59t-55 -144v-1106h-163z" />
    <glyph glyph-name="agrave" unicode="&#xe0;" horiz-adv-x="1306" 
d="M586 1130l-191 297h205l109 -297h-123zM111 516q0 154 70 280t189.5 196.5t262.5 70.5q139 0 230 -53t136 -131v153h154v-1032h-154v154q-45 -78 -136 -131.5t-230 -53.5q-143 0 -262.5 70.5t-189.5 196.5t-70 280zM266 516q0 -172 105 -287.5t264 -115.5
q164 0 273.5 115.5t109.5 287.5t-109.5 288t-273.5 116q-159 0 -264 -116t-105 -288z" />
    <glyph glyph-name="aacute" unicode="&#xe1;" horiz-adv-x="1306" 
d="M573 1130l109 297h207l-193 -297h-123zM111 516q0 154 70 280t189.5 196.5t262.5 70.5q139 0 230 -53t136 -131v153h154v-1032h-154v154q-45 -78 -136 -131.5t-230 -53.5q-143 0 -262.5 70.5t-189.5 196.5t-70 280zM266 516q0 -172 105 -287.5t264 -115.5
q164 0 273.5 115.5t109.5 287.5t-109.5 288t-273.5 116q-159 0 -264 -116t-105 -288z" />
    <glyph glyph-name="acircumflex" unicode="&#xe2;" horiz-adv-x="1306" 
d="M332 1180l338 299l336 -299h-183l-153 151l-154 -151h-184zM111 516q0 154 70 280t189.5 196.5t262.5 70.5q139 0 230 -53t136 -131v153h154v-1032h-154v154q-45 -78 -136 -131.5t-230 -53.5q-143 0 -262.5 70.5t-189.5 196.5t-70 280zM266 516q0 -172 105 -287.5
t264 -115.5q164 0 273.5 115.5t109.5 287.5t-109.5 288t-273.5 116q-159 0 -264 -116t-105 -288z" />
    <glyph glyph-name="atilde" unicode="&#xe3;" horiz-adv-x="1306" 
d="M352 1225q9 82 59.5 135t127.5 53q44 0 88 -20t82 -40t69 -20q38 0 61 20t33 64l103 -8q-23 -203 -191 -203q-46 0 -90 20.5t-82 41t-71 20.5q-71 0 -88 -71zM111 516q0 154 70 280t189.5 196.5t262.5 70.5q139 0 230 -53t136 -131v153h154v-1032h-154v154
q-45 -78 -136 -131.5t-230 -53.5q-143 0 -262.5 70.5t-189.5 196.5t-70 280zM266 516q0 -172 105 -287.5t264 -115.5q164 0 273.5 115.5t109.5 287.5t-109.5 288t-273.5 116q-159 0 -264 -116t-105 -288z" />
    <glyph glyph-name="adieresis" unicode="&#xe4;" horiz-adv-x="1306" 
d="M870 1198q-40 0 -71 31t-31 74t30.5 72.5t71.5 29.5t72 -29.5t31 -72.5t-31 -74t-72 -31zM449 1198q-41 0 -73 31t-32 74t32 72.5t73 29.5t71.5 -29.5t30.5 -72.5t-30.5 -74t-71.5 -31zM111 516q0 154 70 280t189.5 196.5t262.5 70.5q139 0 230 -53t136 -131v153h154
v-1032h-154v154q-45 -78 -136 -131.5t-230 -53.5q-143 0 -262.5 70.5t-189.5 196.5t-70 280zM266 516q0 -172 105 -287.5t264 -115.5q164 0 273.5 115.5t109.5 287.5t-109.5 288t-273.5 116q-159 0 -264 -116t-105 -288z" />
    <glyph glyph-name="aring" unicode="&#xe5;" horiz-adv-x="1306" 
d="M666 1139q-84 0 -143.5 58.5t-59.5 141.5q0 82 60 140.5t143 58.5q82 0 140 -58.5t58 -140.5q0 -83 -57.5 -141.5t-140.5 -58.5zM666 1243q38 0 66 29t28 67t-28 66.5t-66 28.5t-67.5 -28.5t-29.5 -66.5t29.5 -67t67.5 -29zM111 516q0 154 70 280t189.5 196.5t262.5 70.5
q139 0 230 -53t136 -131v153h154v-1032h-154v154q-45 -78 -136 -131.5t-230 -53.5q-143 0 -262.5 70.5t-189.5 196.5t-70 280zM266 516q0 -172 105 -287.5t264 -115.5q164 0 273.5 115.5t109.5 287.5t-109.5 288t-273.5 116q-159 0 -264 -116t-105 -288z" />
    <glyph glyph-name="ae" unicode="&#xe6;" horiz-adv-x="1902" 
d="M113 285q0 143 99 229t263 86h172q53 0 87.5 11t50 32.5t21 43t5.5 52.5q0 56 -24 95t-62.5 56t-71 23.5t-65.5 6.5q-178 0 -297 -166l-107 88q71 107 174.5 164t229.5 57q124 0 213.5 -52t128.5 -143q66 92 163 143.5t214 51.5q132 0 243 -70.5t176.5 -196.5t65.5 -280
q0 -17 -2 -33h-836q6 -169 102.5 -269.5t254.5 -100.5q109 0 178.5 34t146.5 109l103 -100q-96 -104 -199 -145.5t-229 -41.5q-264 0 -400 201q-123 -201 -440 -201q-169 0 -263.5 87.5t-94.5 228.5zM268 285q0 -89 55.5 -125.5t170.5 -36.5q151 0 234 64t83 161v70v63
q-60 -32 -162 -32h-172q-100 0 -154.5 -40.5t-54.5 -123.5zM965 616h663q-25 135 -113 219.5t-208 84.5q-127 0 -221.5 -85t-120.5 -219z" />
    <glyph glyph-name="ccedilla" unicode="&#xe7;" horiz-adv-x="1138" 
d="M385 -358l41 79q55 -34 109 -34q39 0 64.5 20t25.5 53q0 49 -36 66.5t-110 17.5h-2l58 140q-186 40 -305 186t-119 346q0 154 73.5 280t199 196.5t275.5 70.5q241 0 394 -156l-95 -108q-118 121 -299 121q-170 0 -281.5 -115.5t-111.5 -288.5q0 -172 111.5 -287.5
t281.5 -115.5q182 0 299 120l95 -108q-153 -156 -391 -156h-19l-31 -63h2q57 0 96.5 -40t39.5 -106q0 -166 -211 -166q-42 0 -86.5 14.5t-67.5 33.5z" />
    <glyph glyph-name="egrave" unicode="&#xe8;" horiz-adv-x="1208" 
d="M596 1130l-190 297h204l109 -297h-123zM111 504v8q0 247 146 399t372 152q211 0 343 -148t132 -366q0 -35 -2 -66h-836q6 -169 105.5 -269.5t261.5 -100.5q104 0 174.5 35t140.5 108l103 -100q-91 -101 -193.5 -142t-224.5 -41q-233 0 -377.5 145.5t-144.5 385.5z
M276 616h664q0 125 -91 214.5t-220 89.5q-140 0 -242.5 -89t-110.5 -215z" />
    <glyph glyph-name="eacute" unicode="&#xe9;" horiz-adv-x="1208" 
d="M567 1130l109 297h205l-191 -297h-123zM111 504v8q0 247 146 399t372 152q211 0 343 -148t132 -366q0 -35 -2 -66h-836q6 -169 105.5 -269.5t261.5 -100.5q104 0 174.5 35t140.5 108l103 -100q-91 -101 -193.5 -142t-224.5 -41q-233 0 -377.5 145.5t-144.5 385.5z
M276 616h664q0 125 -91 214.5t-220 89.5q-140 0 -242.5 -89t-110.5 -215z" />
    <glyph glyph-name="ecircumflex" unicode="&#xea;" horiz-adv-x="1208" 
d="M295 1180l338 299l336 -299h-185l-151 151l-154 -151h-184zM111 504v8q0 247 146 399t372 152q211 0 343 -148t132 -366q0 -35 -2 -66h-836q6 -169 105.5 -269.5t261.5 -100.5q104 0 174.5 35t140.5 108l103 -100q-91 -101 -193.5 -142t-224.5 -41q-233 0 -377.5 145.5
t-144.5 385.5zM276 616h664q0 125 -91 214.5t-220 89.5q-140 0 -242.5 -89t-110.5 -215z" />
    <glyph glyph-name="edieresis" unicode="&#xeb;" horiz-adv-x="1208" 
d="M842 1198q-42 0 -73.5 30.5t-31.5 74.5q0 43 31.5 72.5t73.5 29.5q41 0 71.5 -29.5t30.5 -72.5t-31 -74t-71 -31zM420 1198q-42 0 -73.5 30.5t-31.5 74.5q0 43 31.5 72.5t73.5 29.5q41 0 71.5 -29.5t30.5 -72.5t-31 -74t-71 -31zM111 504v8q0 247 146 399t372 152
q211 0 343 -148t132 -366q0 -35 -2 -66h-836q6 -169 105.5 -269.5t261.5 -100.5q104 0 174.5 35t140.5 108l103 -100q-91 -101 -193.5 -142t-224.5 -41q-233 0 -377.5 145.5t-144.5 385.5zM276 616h664q0 125 -91 214.5t-220 89.5q-140 0 -242.5 -89t-110.5 -215z" />
    <glyph glyph-name="igrave" unicode="&#xec;" horiz-adv-x="468" 
d="M188 1130l-192 297h207l106 -297h-121zM158 0v1032h155v-1032h-155z" />
    <glyph glyph-name="iacute" unicode="&#xed;" horiz-adv-x="468" 
d="M162 1130l108 297h205l-190 -297h-123zM158 0v1032h155v-1032h-155z" />
    <glyph glyph-name="icircumflex" unicode="&#xee;" horiz-adv-x="468" 
d="M-41 1178l274 299l277 -299h-174l-103 147l-100 -147h-174zM158 0v1032h153v-1032h-153z" />
    <glyph glyph-name="idieresis" unicode="&#xef;" horiz-adv-x="468" 
d="M383 1200q-42 0 -73 30t-31 73t31 72.5t73 29.5q41 0 71.5 -29.5t30.5 -72.5t-30.5 -73t-71.5 -30zM86 1200q-41 0 -71.5 30t-30.5 73t30.5 72.5t71.5 29.5t71.5 -29.5t30.5 -72.5t-30.5 -73t-71.5 -30zM158 0v1032h153v-1032h-153z" />
    <glyph glyph-name="eth" unicode="&#xf0;" horiz-adv-x="1177" 
d="M111 444q0 133 64 243.5t168.5 171.5t223.5 61q99 0 186 -39t134 -105q-33 101 -109.5 199t-159.5 162l-157 -150l-101 105l138 131q-124 72 -244 94l29 143q156 -28 327 -129l174 162l101 -104l-154 -146q256 -214 316 -534q20 -107 20 -207q0 -241 -126.5 -387
t-352.5 -146q-131 0 -240 61t-173 170.5t-64 243.5zM272 444q0 -138 90.5 -231.5t225.5 -93.5q136 0 225.5 93t89.5 232t-89.5 232.5t-225.5 93.5q-135 0 -225.5 -94t-90.5 -232z" />
    <glyph glyph-name="ntilde" unicode="&#xf1;" horiz-adv-x="1169" 
d="M301 1225q9 82 59 135t127 53q55 0 130 -40t110 -40q38 0 61 20t33 64l103 -8q-23 -203 -191 -203q-46 0 -90 20.5t-82.5 41t-71.5 20.5q-71 0 -88 -71zM156 0v1032h155v-174q41 86 127.5 138.5t202.5 52.5q178 0 280.5 -107t102.5 -283v-659h-154v627q0 128 -72 203
t-196 75q-129 0 -210 -80t-81 -209v-616h-155z" />
    <glyph glyph-name="ograve" unicode="&#xf2;" horiz-adv-x="1320" 
d="M596 1130l-190 297h204l109 -297h-123zM111 516q0 154 73.5 280t199 196.5t275.5 70.5q151 0 277 -70.5t200 -196.5t74 -280t-74 -280t-200 -196.5t-277 -70.5q-150 0 -275.5 70.5t-199 196.5t-73.5 280zM266 516q0 -172 111.5 -287.5t281.5 -115.5q171 0 283.5 115.5
t112.5 287.5q0 173 -112.5 288.5t-283.5 115.5q-170 0 -281.5 -115.5t-111.5 -288.5z" />
    <glyph glyph-name="oacute" unicode="&#xf3;" horiz-adv-x="1320" 
d="M602 1130l109 297h204l-190 -297h-123zM111 516q0 154 73.5 280t199 196.5t275.5 70.5q151 0 277 -70.5t200 -196.5t74 -280t-74 -280t-200 -196.5t-277 -70.5q-150 0 -275.5 70.5t-199 196.5t-73.5 280zM266 516q0 -172 111.5 -287.5t281.5 -115.5q171 0 283.5 115.5
t112.5 287.5q0 173 -112.5 288.5t-283.5 115.5q-170 0 -281.5 -115.5t-111.5 -288.5z" />
    <glyph glyph-name="ocircumflex" unicode="&#xf4;" horiz-adv-x="1320" 
d="M324 1180l335 299l338 -299h-184l-154 151l-151 -151h-184zM111 516q0 154 73.5 280t199 196.5t275.5 70.5q151 0 277 -70.5t200 -196.5t74 -280t-74 -280t-200 -196.5t-277 -70.5q-150 0 -275.5 70.5t-199 196.5t-73.5 280zM266 516q0 -172 111.5 -287.5t281.5 -115.5
q171 0 283.5 115.5t112.5 287.5q0 173 -112.5 288.5t-283.5 115.5q-170 0 -281.5 -115.5t-111.5 -288.5z" />
    <glyph glyph-name="otilde" unicode="&#xf5;" horiz-adv-x="1320" 
d="M348 1225q9 82 58.5 135t125.5 53q45 0 89.5 -20t83 -40t69.5 -20q38 0 61 20t33 64l101 -8q-23 -203 -189 -203q-47 0 -91.5 20.5t-82 41t-69.5 20.5q-71 0 -88 -71zM111 516q0 154 73.5 280t199 196.5t275.5 70.5q151 0 277 -70.5t200 -196.5t74 -280t-74 -280
t-200 -196.5t-277 -70.5q-150 0 -275.5 70.5t-199 196.5t-73.5 280zM266 516q0 -172 111.5 -287.5t281.5 -115.5q171 0 283.5 115.5t112.5 287.5q0 173 -112.5 288.5t-283.5 115.5q-170 0 -281.5 -115.5t-111.5 -288.5z" />
    <glyph glyph-name="odieresis" unicode="&#xf6;" horiz-adv-x="1320" 
d="M870 1198q-40 0 -71 31t-31 74t30.5 72.5t71.5 29.5q42 0 73.5 -29.5t31.5 -72.5q0 -44 -31.5 -74.5t-73.5 -30.5zM449 1198q-41 0 -72 31t-31 74t31 72.5t72 29.5q42 0 73 -29.5t31 -72.5q0 -44 -31 -74.5t-73 -30.5zM111 516q0 154 73.5 280t199 196.5t275.5 70.5
q151 0 277 -70.5t200 -196.5t74 -280t-74 -280t-200 -196.5t-277 -70.5q-150 0 -275.5 70.5t-199 196.5t-73.5 280zM266 516q0 -172 111.5 -287.5t281.5 -115.5q171 0 283.5 115.5t112.5 287.5q0 173 -112.5 288.5t-283.5 115.5q-170 0 -281.5 -115.5t-111.5 -288.5z" />
    <glyph glyph-name="divide" unicode="&#xf7;" horiz-adv-x="952" 
d="M477 893q-41 0 -71.5 30.5t-30.5 73.5t30.5 73t71.5 30q42 0 73.5 -30t31.5 -73t-31.5 -73.5t-73.5 -30.5zM125 639v145h704v-145h-704zM477 324q-41 0 -71.5 29.5t-30.5 72.5t30.5 73.5t71.5 30.5q42 0 73.5 -30.5t31.5 -73.5t-31.5 -72.5t-73.5 -29.5z" />
    <glyph glyph-name="oslash" unicode="&#xf8;" horiz-adv-x="1320" 
d="M201 2l82 111q-81 75 -126.5 178.5t-45.5 224.5q0 154 73.5 280t199 196.5t275.5 70.5q144 0 271 -68l76 105l112 -80l-78 -102q80 -75 125 -179t45 -223q0 -154 -74 -280t-200 -196.5t-277 -70.5q-138 0 -264 66l-84 -115zM373 233l469 644q-81 43 -183 43
q-170 0 -281.5 -115.5t-111.5 -288.5q0 -170 107 -283zM483 154q77 -41 176 -41q171 0 283.5 115.5t112.5 287.5q0 167 -103 279z" />
    <glyph glyph-name="ugrave" unicode="&#xf9;" horiz-adv-x="1155" 
d="M526 1130l-192 297h207l106 -297h-121zM143 399v633h156v-618q0 -144 74.5 -219.5t204.5 -75.5t205 76t75 221v616h154v-618q0 -210 -122.5 -324.5t-318.5 -114.5q-190 0 -309 110t-119 314z" />
    <glyph glyph-name="uacute" unicode="&#xfa;" horiz-adv-x="1155" 
d="M506 1130l108 297h205l-190 -297h-123zM143 399v633h156v-618q0 -144 74.5 -219.5t204.5 -75.5t205 76t75 221v616h154v-618q0 -210 -122.5 -324.5t-318.5 -114.5q-190 0 -309 110t-119 314z" />
    <glyph glyph-name="ucircumflex" unicode="&#xfb;" horiz-adv-x="1155" 
d="M242 1180l338 299l335 -299h-182l-153 151l-154 -151h-184zM143 399v633h156v-618q0 -144 74.5 -219.5t204.5 -75.5t205 76t75 221v616h154v-618q0 -210 -122.5 -324.5t-318.5 -114.5q-190 0 -309 110t-119 314z" />
    <glyph glyph-name="udieresis" unicode="&#xfc;" horiz-adv-x="1155" 
d="M791 1198q-41 0 -73 31t-32 74t32 72.5t73 29.5t71.5 -29.5t30.5 -72.5t-30.5 -74t-71.5 -31zM369 1198q-41 0 -73 31t-32 74t32 72.5t73 29.5t71.5 -29.5t30.5 -72.5t-30.5 -74t-71.5 -31zM143 399v633h156v-618q0 -144 74.5 -219.5t204.5 -75.5t205 76t75 221v616h154
v-618q0 -210 -122.5 -324.5t-318.5 -114.5q-190 0 -309 110t-119 314z" />
    <glyph glyph-name="yacute" unicode="&#xfd;" horiz-adv-x="1107" 
d="M496 1130l108 297h207l-193 -297h-122zM174 -293h94q60 0 99 29q38 30 77 125l43 116l-417 1055h155l338 -868l328 868h153l-466 -1208q-45 -113 -101 -174q-75 -78 -203 -78h-100v135z" />
    <glyph glyph-name="thorn" unicode="&#xfe;" horiz-adv-x="1308" 
d="M156 -395v1822h155v-548q43 77 135 130.5t230 53.5q143 0 262.5 -70.5t189.5 -196.5t70 -280t-70 -280t-189.5 -196.5t-262.5 -70.5q-138 0 -230 54t-135 131v-549h-155zM293 516q0 -172 109 -287.5t274 -115.5q158 0 263 115.5t105 287.5t-105 288t-263 116
q-165 0 -274 -116t-109 -288z" />
    <glyph glyph-name="ydieresis" unicode="&#xff;" horiz-adv-x="1107" 
d="M780 1198q-40 0 -71 31t-31 74t30.5 72.5t71.5 29.5t73 -29.5t32 -72.5t-32 -74t-73 -31zM358 1198q-40 0 -71 31t-31 74t30.5 72.5t71.5 29.5t72 -29.5t31 -72.5t-31 -74t-72 -31zM174 -293h94q60 0 99 29q38 30 77 125l43 116l-417 1055h155l338 -868l328 868h153
l-466 -1208q-45 -113 -101 -174q-75 -78 -203 -78h-100v135z" />
    <glyph glyph-name="Amacron" unicode="&#x100;" horiz-adv-x="1515" 
d="M457 1575v141h602v-141h-602zM111 0l647 1479l649 -1479h-178l-152 350h-643l-153 -350h-170zM500 500h512l-256 602z" />
    <glyph glyph-name="amacron" unicode="&#x101;" horiz-adv-x="1306" 
d="M369 1229v143h602v-143h-602zM111 516q0 154 70 280t189.5 196.5t262.5 70.5q139 0 230 -53t136 -131v153h154v-1032h-154v154q-45 -78 -136 -131.5t-230 -53.5q-143 0 -262.5 70.5t-189.5 196.5t-70 280zM266 516q0 -172 105 -287.5t264 -115.5q164 0 273.5 115.5
t109.5 287.5t-109.5 288t-273.5 116q-159 0 -264 -116t-105 -288z" />
    <glyph glyph-name="Abreve" unicode="&#x102;" horiz-adv-x="1515" 
d="M758 1538q-124 0 -214.5 78.5t-107.5 206.5h144q48 -150 178 -150t178 150h141q-17 -128 -107 -206.5t-212 -78.5zM111 0l647 1479l649 -1479h-178l-152 350h-643l-153 -350h-170zM500 500h512l-256 602z" />
    <glyph glyph-name="abreve" unicode="&#x103;" horiz-adv-x="1306" 
d="M637 1143q-122 0 -212.5 78t-107.5 206h142q48 -149 178 -149t178 149h141q-17 -129 -106.5 -206.5t-212.5 -77.5zM111 516q0 154 70 280t189.5 196.5t262.5 70.5q139 0 230 -53t136 -131v153h154v-1032h-154v154q-45 -78 -136 -131.5t-230 -53.5q-143 0 -262.5 70.5
t-189.5 196.5t-70 280zM266 516q0 -172 105 -287.5t264 -115.5q164 0 273.5 115.5t109.5 287.5t-109.5 288t-273.5 116q-159 0 -264 -116t-105 -288z" />
    <glyph glyph-name="Aogonek" unicode="&#x104;" horiz-adv-x="1515" 
d="M111 0l647 1479l649 -1479q-61 -22 -114.5 -79.5t-53.5 -115.5q0 -45 29.5 -68.5t72.5 -23.5q62 0 119 31l-26 -121q-60 -29 -117 -29q-83 0 -146 50.5t-63 132.5q0 116 129 205l-2 2l-158 366h-643l-153 -350h-170zM500 500h512l-256 602z" />
    <glyph glyph-name="aogonek" unicode="&#x105;" horiz-adv-x="1306" 
d="M111 516q0 154 70 280t189.5 196.5t262.5 70.5q139 0 230 -53t136 -131v153h154v-1024q-168 -107 -168 -203q0 -45 29.5 -68.5t72.5 -23.5q62 0 119 31l-26 -121q-60 -29 -117 -29q-83 0 -145 50.5t-62 132.5q0 125 145 217l-2 67v93q-45 -78 -136 -131.5t-230 -53.5
q-143 0 -262.5 70.5t-189.5 196.5t-70 280zM266 516q0 -172 105 -287.5t264 -115.5q164 0 273.5 115.5t109.5 287.5t-109.5 288t-273.5 116q-159 0 -264 -116t-105 -288z" />
    <glyph glyph-name="Cacute" unicode="&#x106;" horiz-adv-x="1536" 
d="M809 1526l109 297h204l-190 -297h-123zM135 713q0 157 58.5 295.5t158.5 236t237 153.5t290 56q163 0 303 -63t243 -179l-110 -100q-79 92 -191 142.5t-245 50.5q-165 0 -297.5 -77t-207.5 -212.5t-75 -302.5t75 -302.5t207.5 -212.5t297.5 -77q134 0 248.5 52.5
t193.5 148.5l111 -101q-102 -119 -245 -184.5t-308 -65.5q-204 0 -374.5 95.5t-270 266t-99.5 380.5z" />
    <glyph glyph-name="cacute" unicode="&#x107;" horiz-adv-x="1138" 
d="M592 1130l108 297h205l-190 -297h-123zM111 516q0 154 73.5 280t199 196.5t275.5 70.5q241 0 394 -156l-95 -108q-118 121 -299 121q-170 0 -281.5 -115.5t-111.5 -288.5q0 -172 111.5 -287.5t281.5 -115.5q182 0 299 120l95 -108q-153 -156 -394 -156
q-150 0 -275.5 70.5t-199 196.5t-73.5 280z" />
    <glyph glyph-name="Ccircumflex" unicode="&#x108;" horiz-adv-x="1536" 
d="M547 1575l336 299l338 -299h-185l-153 151l-152 -151h-184zM135 713q0 157 58.5 295.5t158.5 236t237 153.5t290 56q163 0 303 -63t243 -179l-110 -100q-79 92 -191 142.5t-245 50.5q-165 0 -297.5 -77t-207.5 -212.5t-75 -302.5t75 -302.5t207.5 -212.5t297.5 -77
q134 0 248.5 52.5t193.5 148.5l111 -101q-102 -119 -245 -184.5t-308 -65.5q-204 0 -374.5 95.5t-270 266t-99.5 380.5z" />
    <glyph glyph-name="ccircumflex" unicode="&#x109;" horiz-adv-x="1138" 
d="M330 1180l336 299l338 -299h-185l-153 151l-152 -151h-184zM111 516q0 154 73.5 280t199 196.5t275.5 70.5q241 0 394 -156l-95 -108q-118 121 -299 121q-170 0 -281.5 -115.5t-111.5 -288.5q0 -172 111.5 -287.5t281.5 -115.5q182 0 299 120l95 -108
q-153 -156 -394 -156q-150 0 -275.5 70.5t-199 196.5t-73.5 280z" />
    <glyph glyph-name="Cdotaccent" unicode="&#x10a;" horiz-adv-x="1536" 
d="M868 1563q-41 0 -71.5 29.5t-30.5 72.5t30.5 72.5t71.5 29.5q42 0 73.5 -29.5t31.5 -72.5t-31.5 -72.5t-73.5 -29.5zM135 713q0 157 58.5 295.5t158.5 236t237 153.5t290 56q163 0 303 -63t243 -179l-110 -100q-79 92 -191 142.5t-245 50.5q-165 0 -297.5 -77
t-207.5 -212.5t-75 -302.5t75 -302.5t207.5 -212.5t297.5 -77q134 0 248.5 52.5t193.5 148.5l111 -101q-102 -119 -245 -184.5t-308 -65.5q-204 0 -374.5 95.5t-270 266t-99.5 380.5z" />
    <glyph glyph-name="cdotaccent" unicode="&#x10b;" horiz-adv-x="1138" 
d="M653 1180q-41 0 -71.5 29.5t-30.5 72.5t30.5 72.5t71.5 29.5q42 0 73.5 -29.5t31.5 -72.5t-31.5 -72.5t-73.5 -29.5zM111 516q0 154 73.5 280t199 196.5t275.5 70.5q241 0 394 -156l-95 -108q-118 121 -299 121q-170 0 -281.5 -115.5t-111.5 -288.5q0 -172 111.5 -287.5
t281.5 -115.5q182 0 299 120l95 -108q-153 -156 -394 -156q-150 0 -275.5 70.5t-199 196.5t-73.5 280z" />
    <glyph glyph-name="Ccaron" unicode="&#x10c;" horiz-adv-x="1536" 
d="M881 1524l-336 299h184l152 -154l153 154h185zM135 713q0 157 58.5 295.5t158.5 236t237 153.5t290 56q163 0 303 -63t243 -179l-110 -100q-79 92 -191 142.5t-245 50.5q-165 0 -297.5 -77t-207.5 -212.5t-75 -302.5t75 -302.5t207.5 -212.5t297.5 -77q134 0 248.5 52.5
t193.5 148.5l111 -101q-102 -119 -245 -184.5t-308 -65.5q-204 0 -374.5 95.5t-270 266t-99.5 380.5z" />
    <glyph glyph-name="ccaron" unicode="&#x10d;" horiz-adv-x="1138" 
d="M653 1128l-336 299h185l151 -153l154 153h184zM111 516q0 154 73.5 280t199 196.5t275.5 70.5q241 0 394 -156l-95 -108q-118 121 -299 121q-170 0 -281.5 -115.5t-111.5 -288.5q0 -172 111.5 -287.5t281.5 -115.5q182 0 299 120l95 -108q-153 -156 -394 -156
q-150 0 -275.5 70.5t-199 196.5t-73.5 280z" />
    <glyph glyph-name="Dcaron" unicode="&#x10e;" horiz-adv-x="1566" 
d="M711 1524l-338 299h184l154 -154l151 154h185zM227 0v1427h461q342 0 539.5 -196.5t197.5 -517.5t-196.5 -517t-538.5 -196h-463zM389 150h289q145 0 257.5 41.5t183.5 116.5t107 177.5t36 227.5q0 259 -149 412t-437 153h-287v-1128z" />
    <glyph glyph-name="dcaron" unicode="&#x10f;" horiz-adv-x="1671" 
d="M1225 1130l108 297h205l-190 -297h-123zM111 516q0 154 70 280t189.5 196.5t262.5 70.5q139 0 230 -53t136 -131v548h154v-1427h-154v154q-45 -78 -136 -131.5t-230 -53.5q-143 0 -262.5 70.5t-189.5 196.5t-70 280zM266 516q0 -172 105 -287.5t264 -115.5
q164 0 273.5 115.5t109.5 287.5t-109.5 288t-273.5 116q-159 0 -264 -116t-105 -288z" />
    <glyph glyph-name="Dcroat" unicode="&#x110;" horiz-adv-x="1558" 
d="M227 0v657h-133v152h133v618h461q342 0 539.5 -196.5t197.5 -517.5t-196.5 -517t-538.5 -196h-463zM389 150h289q145 0 257.5 41.5t183.5 116.5t107 177.5t36 227.5q0 259 -149 412t-437 153h-287v-469h297v-152h-297v-507z" />
    <glyph glyph-name="dcroat" unicode="&#x111;" horiz-adv-x="1308" 
d="M111 516q0 154 70 280t189.5 196.5t262.5 70.5q139 0 230 -53t136 -131v297h-405v124h405v127h154v-127h117v-124h-117v-1176h-154v154q-45 -78 -136 -131.5t-230 -53.5q-143 0 -262.5 70.5t-189.5 196.5t-70 280zM266 516q0 -172 105 -287.5t264 -115.5
q164 0 273.5 115.5t109.5 287.5t-109.5 288t-273.5 116q-159 0 -264 -116t-105 -288z" />
    <glyph glyph-name="Emacron" unicode="&#x112;" horiz-adv-x="1193" 
d="M315 1575v141h605v-141h-605zM217 399v1028h809v-149h-647v-451h608v-149h-608v-287q0 -67 22.5 -117t59 -75.5t74 -37t75.5 -11.5h430v-150h-444q-190 0 -284.5 102t-94.5 297z" />
    <glyph glyph-name="emacron" unicode="&#x113;" horiz-adv-x="1208" 
d="M330 1229v143h604v-143h-604zM111 504v8q0 247 146 399t372 152q211 0 343 -148t132 -366q0 -35 -2 -66h-836q6 -169 105.5 -269.5t261.5 -100.5q104 0 174.5 35t140.5 108l103 -100q-91 -101 -193.5 -142t-224.5 -41q-233 0 -377.5 145.5t-144.5 385.5zM276 616h664
q0 125 -91 214.5t-220 89.5q-140 0 -242.5 -89t-110.5 -215z" />
    <glyph glyph-name="Ebreve" unicode="&#x114;" horiz-adv-x="1193" 
d="M629 1538q-124 0 -214.5 78.5t-107.5 206.5h144q48 -150 178 -150q128 0 176 150h143q-17 -128 -107 -206.5t-212 -78.5zM217 399v1028h809v-149h-647v-451h608v-149h-608v-287q0 -67 22.5 -117t59 -75.5t74 -37t75.5 -11.5h430v-150h-444q-190 0 -284.5 102t-94.5 297z
" />
    <glyph glyph-name="ebreve" unicode="&#x115;" horiz-adv-x="1208" 
d="M631 1143q-124 0 -214.5 78t-107.5 206h144q48 -149 178 -149q128 0 176 149h143q-17 -128 -107 -206t-212 -78zM111 504v8q0 247 146 399t372 152q211 0 343 -148t132 -366q0 -35 -2 -66h-836q6 -169 105.5 -269.5t261.5 -100.5q104 0 174.5 35t140.5 108l103 -100
q-91 -101 -193.5 -142t-224.5 -41q-233 0 -377.5 145.5t-144.5 385.5zM276 616h664q0 125 -91 214.5t-220 89.5q-140 0 -242.5 -89t-110.5 -215z" />
    <glyph glyph-name="Edotaccent" unicode="&#x116;" horiz-adv-x="1193" 
d="M631 1563q-42 0 -73.5 29.5t-31.5 72.5t31.5 72.5t73.5 29.5q41 0 71.5 -29.5t30.5 -72.5t-30.5 -72.5t-71.5 -29.5zM217 399v1028h809v-149h-647v-451h608v-149h-608v-287q0 -67 22.5 -117t59 -75.5t74 -37t75.5 -11.5h430v-150h-444q-190 0 -284.5 102t-94.5 297z" />
    <glyph glyph-name="edotaccent" unicode="&#x117;" horiz-adv-x="1208" 
d="M631 1198q-42 0 -73.5 30.5t-31.5 74.5q0 43 31.5 72.5t73.5 29.5q41 0 71.5 -29.5t30.5 -72.5t-30.5 -74t-71.5 -31zM111 504v8q0 247 146 399t372 152q211 0 343 -148t132 -366q0 -35 -2 -66h-836q6 -169 105.5 -269.5t261.5 -100.5q104 0 174.5 35t140.5 108l103 -100
q-91 -101 -193.5 -142t-224.5 -41q-233 0 -377.5 145.5t-144.5 385.5zM276 616h664q0 125 -91 214.5t-220 89.5q-140 0 -242.5 -89t-110.5 -215z" />
    <glyph glyph-name="Eogonek" unicode="&#x118;" horiz-adv-x="1193" 
d="M217 399v1028h809v-149h-647v-451h608v-149h-608v-287q0 -67 22.5 -117t59 -75.5t74 -37t75.5 -11.5h430v-150q-155 -99 -155 -195q0 -45 29.5 -68.5t72.5 -23.5q62 0 119 31l-27 -121q-60 -29 -116 -29q-83 0 -145 50.5t-62 132.5q0 128 153 223h-313q-190 0 -284.5 102
t-94.5 297z" />
    <glyph glyph-name="eogonek" unicode="&#x119;" horiz-adv-x="1208" 
d="M111 504v8q0 247 146 399t372 152q211 0 343 -148t132 -366q0 -35 -2 -66h-836q6 -169 105.5 -269.5t261.5 -100.5q104 0 174.5 35t140.5 108l103 -100q-54 -57 -162 -127q-8 -5 -41.5 -26t-46 -29.5t-37.5 -29.5t-36 -37.5t-20.5 -41t-9.5 -51.5q0 -45 29 -69t70 -24
q57 0 114 31l-26 -121q-58 -28 -113 -28q-80 0 -142.5 50t-62.5 132q0 105 105 188h-2q-258 0 -408.5 137t-150.5 394zM276 616h664q0 125 -91 214.5t-220 89.5q-140 0 -242.5 -89t-110.5 -215z" />
    <glyph glyph-name="Ecaron" unicode="&#x11a;" horiz-adv-x="1193" 
d="M627 1524l-338 299h184l154 -154l151 154h185zM217 399v1028h809v-149h-647v-451h608v-149h-608v-287q0 -67 22.5 -117t59 -75.5t74 -37t75.5 -11.5h430v-150h-444q-190 0 -284.5 102t-94.5 297z" />
    <glyph glyph-name="ecaron" unicode="&#x11b;" horiz-adv-x="1208" 
d="M629 1128l-338 299h184l154 -153l151 153h185zM111 504v8q0 247 146 399t372 152q211 0 343 -148t132 -366q0 -35 -2 -66h-836q6 -169 105.5 -269.5t261.5 -100.5q104 0 174.5 35t140.5 108l103 -100q-91 -101 -193.5 -142t-224.5 -41q-233 0 -377.5 145.5t-144.5 385.5z
M276 616h664q0 125 -91 214.5t-220 89.5q-140 0 -242.5 -89t-110.5 -215z" />
    <glyph glyph-name="Gcircumflex" unicode="&#x11c;" horiz-adv-x="1595" 
d="M549 1575l336 299l338 -299h-185l-153 151l-152 -151h-184zM135 713q0 157 58.5 295.5t158.5 236t237 153.5t290 56q294 0 495 -186l-102 -113q-163 150 -393 150q-164 0 -297 -77.5t-208 -213t-75 -301.5q0 -167 75 -302.5t207.5 -212.5t297.5 -77q229 0 391 143v365
h-436v151h598v-571q-104 -114 -246.5 -176t-306.5 -62q-204 0 -374.5 95.5t-270 266t-99.5 380.5z" />
    <glyph glyph-name="gcircumflex" unicode="&#x11d;" horiz-adv-x="1308" 
d="M317 1180l338 299l336 -299h-184l-152 151l-153 -151h-185zM111 524q0 114 41 215t111.5 171.5t166.5 111.5t203 41q139 0 230 -53t136 -131v153h154v-950q0 -263 -121.5 -398t-386.5 -135q-165 0 -290 70t-179 182l131 74q42 -85 129.5 -133.5t206.5 -48.5q188 0 272 92
t84 276v111q-45 -78 -136 -131t-230 -53q-143 0 -262.5 68.5t-189.5 192t-70 275.5zM266 524q0 -169 105 -281t264 -112q164 0 273.5 112t109.5 281t-109.5 282.5t-273.5 113.5q-159 0 -264 -113.5t-105 -282.5z" />
    <glyph glyph-name="Gbreve" unicode="&#x11e;" horiz-adv-x="1595" 
d="M872 1538q-122 0 -212 78.5t-107 206.5h143q48 -150 176 -150q131 0 179 150h143q-17 -128 -107.5 -206.5t-214.5 -78.5zM135 713q0 157 58.5 295.5t158.5 236t237 153.5t290 56q294 0 495 -186l-102 -113q-163 150 -393 150q-164 0 -297 -77.5t-208 -213t-75 -301.5
q0 -167 75 -302.5t207.5 -212.5t297.5 -77q229 0 391 143v365h-436v151h598v-571q-104 -114 -246.5 -176t-306.5 -62q-204 0 -374.5 95.5t-270 266t-99.5 380.5z" />
    <glyph glyph-name="gbreve" unicode="&#x11f;" horiz-adv-x="1308" 
d="M641 1143q-123 0 -212.5 77.5t-106.5 206.5h141q48 -149 178 -149t178 149h142q-17 -128 -107.5 -206t-212.5 -78zM111 524q0 114 41 215t111.5 171.5t166.5 111.5t203 41q139 0 230 -53t136 -131v153h154v-950q0 -263 -121.5 -398t-386.5 -135q-165 0 -290 70t-179 182
l131 74q42 -85 129.5 -133.5t206.5 -48.5q188 0 272 92t84 276v111q-45 -78 -136 -131t-230 -53q-143 0 -262.5 68.5t-189.5 192t-70 275.5zM266 524q0 -169 105 -281t264 -112q164 0 273.5 112t109.5 281t-109.5 282.5t-273.5 113.5q-159 0 -264 -113.5t-105 -282.5z" />
    <glyph glyph-name="Gdotaccent" unicode="&#x120;" horiz-adv-x="1595" 
d="M881 1563q-41 0 -72 29.5t-31 72.5t31 72.5t72 29.5q42 0 73 -29.5t31 -72.5t-31 -72.5t-73 -29.5zM135 713q0 157 58.5 295.5t158.5 236t237 153.5t290 56q294 0 495 -186l-102 -113q-163 150 -393 150q-164 0 -297 -77.5t-208 -213t-75 -301.5q0 -167 75 -302.5
t207.5 -212.5t297.5 -77q229 0 391 143v365h-436v151h598v-571q-104 -114 -246.5 -176t-306.5 -62q-204 0 -374.5 95.5t-270 266t-99.5 380.5z" />
    <glyph glyph-name="gdotaccent" unicode="&#x121;" horiz-adv-x="1308" 
d="M655 1198q-41 0 -72.5 31t-31.5 74t31.5 72.5t72.5 29.5t72 -29.5t31 -72.5t-31 -74t-72 -31zM111 524q0 114 41 215t111.5 171.5t166.5 111.5t203 41q139 0 230 -53t136 -131v153h154v-950q0 -263 -121.5 -398t-386.5 -135q-165 0 -290 70t-179 182l131 74
q42 -85 129.5 -133.5t206.5 -48.5q188 0 272 92t84 276v111q-45 -78 -136 -131t-230 -53q-143 0 -262.5 68.5t-189.5 192t-70 275.5zM266 524q0 -169 105 -281t264 -112q164 0 273.5 112t109.5 281t-109.5 282.5t-273.5 113.5q-159 0 -264 -113.5t-105 -282.5z" />
    <glyph glyph-name="Gcommaaccent" unicode="&#x122;" horiz-adv-x="1595" 
d="M135 713q0 157 58.5 295.5t158.5 236t237 153.5t290 56q294 0 495 -186l-102 -113q-163 150 -393 150q-164 0 -297 -77.5t-208 -213t-75 -301.5q0 -167 75 -302.5t207.5 -212.5t297.5 -77q229 0 391 143v365h-436v151h598v-571q-104 -114 -246.5 -176t-306.5 -62
q-204 0 -374.5 95.5t-270 266t-99.5 380.5zM672 -395l108 297h205l-190 -297h-123z" />
    <glyph glyph-name="gcommaaccent" unicode="&#x123;" horiz-adv-x="1308" 
d="M561 1130l109 297h207l-193 -297h-123zM111 524q0 114 41 215t111.5 171.5t166.5 111.5t203 41q139 0 230 -53t136 -131v153h154v-950q0 -263 -121.5 -398t-386.5 -135q-165 0 -290 70t-179 182l131 74q42 -85 129.5 -133.5t206.5 -48.5q188 0 272 92t84 276v111
q-45 -78 -136 -131t-230 -53q-143 0 -262.5 68.5t-189.5 192t-70 275.5zM266 524q0 -169 105 -281t264 -112q164 0 273.5 112t109.5 281t-109.5 282.5t-273.5 113.5q-159 0 -264 -113.5t-105 -282.5z" />
    <glyph glyph-name="Hcircumflex" unicode="&#x124;" horiz-adv-x="1568" 
d="M446 1575l338 299l336 -299h-184l-152 151l-153 -151h-185zM227 0v1427h162v-593h791v593h161v-1427h-161v682h-791v-682h-162z" />
    <glyph glyph-name="hcircumflex" unicode="&#x125;" horiz-adv-x="1153" 
d="M-104 1479l335 299l336 -299h-184l-152 153l-151 -153h-184zM154 0v1427h155v-569q40 87 122 139t194 52q171 0 270.5 -107t99.5 -283v-659h-153v627q0 128 -68 203t-186 75q-123 0 -201 -80t-78 -209v-616h-155z" />
    <glyph glyph-name="Hbar" unicode="&#x126;" horiz-adv-x="1568" 
d="M227 0v1032h-121v144h121v251h162v-251h791v251h161v-251h121v-144h-121v-1032h-161v682h-791v-682h-162zM389 834h791v198h-791v-198z" />
    <glyph glyph-name="hbar" unicode="&#x127;" horiz-adv-x="1153" 
d="M154 0v1171h-115v125h115v131h155v-131h404v-125h-404v-313q40 87 122 139t194 52q171 0 270.5 -107t99.5 -283v-659h-153v627q0 129 -67.5 203.5t-188.5 74.5t-199 -80.5t-78 -208.5v-616h-155z" />
    <glyph glyph-name="Itilde" unicode="&#x128;" horiz-adv-x="632" 
d="M106 1552l-100 9q9 82 58.5 136t125.5 54q45 0 89.5 -20t83 -40t69.5 -20q38 0 61 20t33 64l103 -10q-26 -201 -191 -201q-46 0 -90.5 20t-82.5 40t-70 20q-72 0 -89 -72zM236 0v1427h161v-1427h-161z" />
    <glyph glyph-name="itilde" unicode="&#x129;" horiz-adv-x="468" 
d="M66 1221l-99 8q9 81 51 132.5t109 51.5q41 0 109.5 -40t89.5 -40q31 0 48.5 20t26.5 64l97 -8q-20 -199 -162 -199q-42 0 -110.5 41t-90.5 41q-58 0 -69 -71zM158 0v1032h153v-1032h-153z" />
    <glyph glyph-name="Imacron" unicode="&#x12a;" horiz-adv-x="632" 
d="M35 1575v141h563v-141h-563zM236 0v1427h161v-1427h-161z" />
    <glyph glyph-name="imacron" unicode="&#x12b;" horiz-adv-x="468" 
d="M-10 1229v143h487v-143h-487zM156 0v1032h155v-1032h-155z" />
    <glyph glyph-name="Ibreve" unicode="&#x12c;" horiz-adv-x="632" 
d="M317 1538q-123 0 -213.5 78t-107.5 207h143q48 -150 178 -150q129 0 177 150h143q-17 -128 -107.5 -206.5t-212.5 -78.5zM236 0v1427h161v-1427h-161z" />
    <glyph glyph-name="ibreve" unicode="&#x12d;" horiz-adv-x="468" 
d="M233 1155q-115 0 -186.5 73.5t-75.5 198.5h142q3 -63 33.5 -100t86.5 -37t87 37t34 100h144q-4 -125 -76.5 -198.5t-188.5 -73.5zM158 0v1032h153v-1032h-153z" />
    <glyph glyph-name="Iogonek" unicode="&#x12e;" horiz-adv-x="632" 
d="M233 -12v1439h162v-1427q-54 -22 -108 -80t-54 -115q0 -45 30 -68.5t73 -23.5q62 0 119 31l-29 -121q-60 -29 -117 -29q-83 0 -145 50.5t-62 132.5q0 119 134 209z" />
    <glyph glyph-name="iogonek" unicode="&#x12f;" horiz-adv-x="468" 
d="M233 1198q-41 0 -72.5 31t-31.5 74t31.5 73.5t72.5 30.5t73 -30.5t32 -73.5t-32 -74t-73 -31zM156 -8v1040h155v-1030q-159 -99 -159 -197q0 -45 29.5 -68.5t72.5 -23.5q62 0 119 31l-27 -121q-60 -29 -117 -29q-84 0 -146.5 50t-62.5 133q0 120 138 213z" />
    <glyph glyph-name="Idotaccent" unicode="&#x130;" horiz-adv-x="632" 
d="M317 1563q-42 0 -73 29.5t-31 72.5t31 72.5t73 29.5q41 0 72 -29.5t31 -72.5t-31 -72.5t-72 -29.5zM236 0v1427h161v-1427h-161z" />
    <glyph glyph-name="dotlessi" unicode="&#x131;" horiz-adv-x="468" 
d="M158 0v1032h155v-1032h-155z" />
    <glyph glyph-name="IJ" unicode="&#x132;" horiz-adv-x="1052" 
d="M236 291v1136h161v-1136h-161zM236 0v150h239q61 0 102 17t61.5 50t28 70t7.5 88v1052h164v-1044q0 -47 -2.5 -82.5t-11 -77.5t-23.5 -72.5t-41.5 -60.5t-63 -48.5t-90 -30t-121.5 -11.5h-249z" />
    <glyph glyph-name="ij" unicode="&#x133;" horiz-adv-x="827" 
d="M596 1198q-42 0 -73 30.5t-31 74.5q0 43 31 72.5t73 29.5q41 0 71.5 -29.5t30.5 -72.5t-31 -74t-71 -31zM236 1198q-41 0 -73 31t-32 74t32 72.5t73 29.5t71.5 -29.5t30.5 -72.5t-31 -74t-71 -31zM158 285v747h153v-747h-153zM158 0v143h194q88 0 127 43t39 144v702h154
v-706q0 -82 -19.5 -142.5t-49 -95t-73 -55t-83.5 -27t-89 -6.5h-200z" />
    <glyph glyph-name="Jcircumflex" unicode="&#x134;" horiz-adv-x="714" 
d="M76 1575l336 299l338 -299h-185l-153 151l-152 -151h-184zM68 0v150h69q61 0 102.5 17t62 50t28.5 70t8 88v1052h162v-1044q0 -47 -2.5 -82.5t-11 -77.5t-23.5 -72.5t-41.5 -60.5t-63 -48.5t-90 -30t-121.5 -11.5h-79z" />
    <glyph glyph-name="jcircumflex" unicode="&#x135;" horiz-adv-x="505" 
d="M-25 1180l279 299l281 -299h-185l-96 145l-96 -145h-183zM-39 -426v143h47q88 0 127 43t39 144v1128h156v-1132q0 -82 -19.5 -142.5t-49 -95t-73 -55t-83.5 -27t-89 -6.5h-55z" />
    <glyph glyph-name="Kcommaaccent" unicode="&#x136;" horiz-adv-x="1386" 
d="M227 0v1427h162v-755l684 755h201l-569 -622l585 -805h-196l-498 686l-207 -225v-461h-162zM489 -395l109 297h207l-193 -297h-123z" />
    <glyph glyph-name="kcommaaccent" unicode="&#x137;" horiz-adv-x="1034" 
d="M156 0v1427h155v-903l441 508h176l-391 -452l446 -580h-182l-363 469l-127 -147v-322h-155zM322 -395l108 297h205l-191 -297h-122z" />
    <glyph glyph-name="Lacute" unicode="&#x139;" horiz-adv-x="1095" 
d="M264 1526l109 297h205l-191 -297h-123zM227 0v1427h162v-1277h588v-150h-750z" />
    <glyph glyph-name="lacute" unicode="&#x13a;" horiz-adv-x="468" 
d="M160 1479l108 297h205l-190 -297h-123zM158 0v1427h155v-1427h-155z" />
    <glyph glyph-name="Lcommaaccent" unicode="&#x13b;" horiz-adv-x="1095" 
d="M227 0v1427h162v-1277h588v-150h-750zM414 -395l108 297h205l-190 -297h-123z" />
    <glyph glyph-name="lcommaaccent" unicode="&#x13c;" horiz-adv-x="468" 
d="M158 0v1427h155v-1427h-155zM154 -98h204l-190 -297h-123z" />
    <glyph glyph-name="Lcaron" unicode="&#x13d;" horiz-adv-x="1095" 
d="M227 0v1427h162v-1277h588v-150h-750zM557 1130l109 297h204l-190 -297h-123z" />
    <glyph glyph-name="lcaron" unicode="&#x13e;" horiz-adv-x="702" 
d="M391 1130l109 297h205l-191 -297h-123zM158 0v1427h155v-1427h-155z" />
    <glyph glyph-name="Ldot" unicode="&#x13f;" horiz-adv-x="1095" 
d="M227 0v1427h162v-1277h588v-150h-750zM698 657q-41 0 -71.5 30t-30.5 75q0 43 30.5 72.5t71.5 29.5q42 0 73.5 -29.5t31.5 -72.5q0 -45 -31.5 -75t-73.5 -30z" />
    <glyph glyph-name="ldot" unicode="&#x140;" horiz-adv-x="722" 
d="M158 0v1427h155v-1427h-155zM496 651q-41 0 -73 30t-32 73t32 72.5t73 29.5t71.5 -29.5t30.5 -72.5t-30.5 -73t-71.5 -30z" />
    <glyph glyph-name="Lslash" unicode="&#x141;" horiz-adv-x="1093" 
d="M227 0v575l-137 -75v157l137 76v694h164v-604l287 162v-160l-287 -157v-518h586v-150h-750z" />
    <glyph glyph-name="lslash" unicode="&#x142;" horiz-adv-x="526" 
d="M186 0v633l-139 -82v160l139 82v634h156v-542l174 104v-162l-174 -102v-725h-156z" />
    <glyph glyph-name="Nacute" unicode="&#x143;" horiz-adv-x="1617" 
d="M721 1526l108 297h205l-190 -297h-123zM227 0v1479l1002 -1125v1073h162v-1478l-1002 1124v-1073h-162z" />
    <glyph glyph-name="nacute" unicode="&#x144;" horiz-adv-x="1169" 
d="M565 1130l109 297h205l-191 -297h-123zM156 0v1032h155v-174q41 86 127.5 138.5t202.5 52.5q178 0 280.5 -107t102.5 -283v-659h-154v627q0 128 -72 203t-196 75q-129 0 -210 -80t-81 -209v-616h-155z" />
    <glyph glyph-name="Ncommaaccent" unicode="&#x145;" horiz-adv-x="1617" 
d="M227 0v1479l1002 -1125v1073h162v-1478l-1002 1124v-1073h-162zM637 -395l108 297h205l-190 -297h-123z" />
    <glyph glyph-name="ncommaaccent" unicode="&#x146;" horiz-adv-x="1169" 
d="M156 0v1032h155v-174q41 86 127.5 138.5t202.5 52.5q178 0 280.5 -107t102.5 -283v-659h-154v627q0 128 -72 203t-196 75q-129 0 -210 -80t-81 -209v-616h-155zM393 -395l109 297h205l-191 -297h-123z" />
    <glyph glyph-name="Ncaron" unicode="&#x147;" horiz-adv-x="1617" 
d="M807 1524l-336 299h184l152 -154l154 154h184zM227 0v1479l1002 -1125v1073h162v-1478l-1002 1124v-1073h-162z" />
    <glyph glyph-name="ncaron" unicode="&#x148;" horiz-adv-x="1169" 
d="M631 1128l-338 299h184l154 -153l151 153h185zM156 0v1032h155v-174q41 86 127.5 138.5t202.5 52.5q178 0 280.5 -107t102.5 -283v-659h-154v627q0 128 -72 203t-196 75q-129 0 -210 -80t-81 -209v-616h-155z" />
    <glyph glyph-name="Eng" unicode="&#x14a;" horiz-adv-x="1617" 
d="M227 0v1479l1000 -1233v1181h164v-1447q0 -47 -2.5 -82.5t-11 -77.5t-23.5 -72.5t-41.5 -60.5t-63.5 -48.5t-91 -30t-122 -11.5h-78v149h68q62 0 103.5 17t62 50t28 70t7.5 88v31l-838 1026v-1028h-162z" />
    <glyph glyph-name="eng" unicode="&#x14b;" horiz-adv-x="1142" 
d="M156 0v1032h155v-174q40 87 122 139t194 52q171 0 271.5 -107.5t100.5 -282.5v-761q0 -81 -19 -141t-48.5 -94t-72.5 -55t-83.5 -27.5t-89.5 -6.5h-57v143h51q86 0 125 43t39 144v723q0 129 -67 203.5t-189 74.5q-121 0 -199 -80.5t-78 -208.5v-616h-155z" />
    <glyph glyph-name="Omacron" unicode="&#x14c;" horiz-adv-x="1759" 
d="M578 1577v141h604v-141h-604zM135 713q0 157 58.5 295.5t158.5 236t237 153.5t290 56t290 -56t237 -153.5t159 -236t59 -295.5q0 -210 -100 -380.5t-270.5 -266t-374.5 -95.5t-374.5 95.5t-270 266t-99.5 380.5zM297 713q0 -167 75.5 -302.5t208.5 -212.5t298 -77
q251 0 416 169t165 423t-165 423t-416 169q-165 0 -298 -77t-208.5 -212.5t-75.5 -302.5z" />
    <glyph glyph-name="omacron" unicode="&#x14d;" horiz-adv-x="1320" 
d="M362 1229v143h605v-143h-605zM111 516q0 154 73.5 280t199 196.5t275.5 70.5q151 0 277 -70.5t200 -196.5t74 -280t-74 -280t-200 -196.5t-277 -70.5q-150 0 -275.5 70.5t-199 196.5t-73.5 280zM266 516q0 -172 111.5 -287.5t281.5 -115.5q171 0 283.5 115.5t112.5 287.5
q0 173 -112.5 288.5t-283.5 115.5q-170 0 -281.5 -115.5t-111.5 -288.5z" />
    <glyph glyph-name="Obreve" unicode="&#x14e;" horiz-adv-x="1759" 
d="M879 1538q-122 0 -212.5 78.5t-107.5 206.5h143q48 -150 177 -150q130 0 178 150h143q-17 -129 -107.5 -207t-213.5 -78zM135 713q0 157 58.5 295.5t158.5 236t237 153.5t290 56t290 -56t237 -153.5t159 -236t59 -295.5q0 -210 -100 -380.5t-270.5 -266t-374.5 -95.5
t-374.5 95.5t-270 266t-99.5 380.5zM297 713q0 -167 75.5 -302.5t208.5 -212.5t298 -77q251 0 416 169t165 423t-165 423t-416 169q-165 0 -298 -77t-208.5 -212.5t-75.5 -302.5z" />
    <glyph glyph-name="obreve" unicode="&#x14f;" horiz-adv-x="1320" 
d="M659 1143q-122 0 -212 78t-107 206h143q48 -149 176 -149q131 0 179 149h143q-17 -128 -107.5 -206t-214.5 -78zM111 516q0 154 73.5 280t199 196.5t275.5 70.5q151 0 277 -70.5t200 -196.5t74 -280t-74 -280t-200 -196.5t-277 -70.5q-150 0 -275.5 70.5t-199 196.5
t-73.5 280zM266 516q0 -172 111.5 -287.5t281.5 -115.5q171 0 283.5 115.5t112.5 287.5q0 173 -112.5 288.5t-283.5 115.5q-170 0 -281.5 -115.5t-111.5 -288.5z" />
    <glyph glyph-name="Ohungarumlaut" unicode="&#x150;" horiz-adv-x="1759" 
d="M979 1526l129 297h197l-211 -297h-115zM664 1526l129 297h196l-211 -297h-114zM135 713q0 157 58.5 295.5t158.5 236t237 153.5t290 56t290 -56t237 -153.5t159 -236t59 -295.5q0 -210 -100 -380.5t-270.5 -266t-374.5 -95.5t-374.5 95.5t-270 266t-99.5 380.5zM297 713
q0 -167 75.5 -302.5t208.5 -212.5t298 -77q251 0 416 169t165 423t-165 423t-416 169q-165 0 -298 -77t-208.5 -212.5t-75.5 -302.5z" />
    <glyph glyph-name="ohungarumlaut" unicode="&#x151;" horiz-adv-x="1320" 
d="M756 1130l129 297h196l-211 -297h-114zM440 1130l129 297h197l-211 -297h-115zM111 516q0 154 73.5 280t199 196.5t275.5 70.5q151 0 277 -70.5t200 -196.5t74 -280t-74 -280t-200 -196.5t-277 -70.5q-150 0 -275.5 70.5t-199 196.5t-73.5 280zM266 516
q0 -172 111.5 -287.5t281.5 -115.5q171 0 283.5 115.5t112.5 287.5q0 173 -112.5 288.5t-283.5 115.5q-170 0 -281.5 -115.5t-111.5 -288.5z" />
    <glyph glyph-name="OE" unicode="&#x152;" horiz-adv-x="2299" 
d="M135 713q0 157 58.5 295.5t158.5 236t237 153.5t290 56q376 0 573 -299v272h678v-149h-516v-451h477v-149h-477v-528h530v-150h-692v279q-189 -308 -573 -308q-204 0 -374.5 95.5t-270 266t-99.5 380.5zM297 713q0 -167 75.5 -302.5t208.5 -212.5t298 -77q251 0 416 169
t165 423t-165 423t-416 169q-165 0 -298 -77t-208.5 -212.5t-75.5 -302.5z" />
    <glyph glyph-name="oe" unicode="&#x153;" horiz-adv-x="2162" 
d="M111 516q0 154 73.5 280t199 196.5t275.5 70.5q152 0 274.5 -71t192.5 -195q67 124 182.5 195t258.5 71q141 0 259 -70.5t187.5 -196.5t69.5 -280q0 -17 -2 -33h-877q6 -168 107 -264t270 -96q109 0 200 36t152 101l103 -113q-86 -86 -204 -132t-253 -46
q-159 0 -276.5 67t-180.5 191q-70 -121 -191 -189.5t-272 -68.5q-150 0 -275.5 70.5t-199 196.5t-73.5 280zM1212 616h705q-27 135 -123.5 219.5t-228.5 84.5q-131 0 -228 -84.5t-125 -219.5zM266 516q0 -172 111.5 -287.5t281.5 -115.5q171 0 283.5 115.5t112.5 287.5
q0 173 -112.5 288.5t-283.5 115.5q-170 0 -281.5 -115.5t-111.5 -288.5z" />
    <glyph glyph-name="Racute" unicode="&#x154;" horiz-adv-x="1320" 
d="M547 1526l108 297h205l-190 -297h-123zM227 0v1427h490q179 0 303.5 -121.5t124.5 -304.5q0 -140 -74.5 -249.5t-196.5 -155.5l345 -596h-187l-321 563h-2h-320v-563h-162zM389 713h311q122 0 202.5 82t80.5 206q0 118 -77.5 197.5t-194.5 79.5h-322v-565z" />
    <glyph glyph-name="racute" unicode="&#x155;" horiz-adv-x="716" 
d="M303 1130l109 297h204l-190 -297h-123zM156 0v1032h155v-174q40 87 122 139t194 52q30 0 65 -5v-165q-42 10 -102 10q-122 0 -200.5 -80.5t-78.5 -210.5v-598h-155z" />
    <glyph glyph-name="Rcommaaccent" unicode="&#x156;" horiz-adv-x="1320" 
d="M227 0v1427h490q179 0 303.5 -121.5t124.5 -304.5q0 -140 -74.5 -249.5t-196.5 -155.5l345 -596h-187l-321 563h-2h-320v-563h-162zM389 713h311q122 0 202.5 82t80.5 206q0 118 -77.5 197.5t-194.5 79.5h-322v-565zM504 -395l108 297h205l-190 -297h-123z" />
    <glyph glyph-name="rcommaaccent" unicode="&#x157;" horiz-adv-x="716" 
d="M156 -98h204l-190 -297h-123zM156 0v1032h155v-174q40 87 122 139t194 52q30 0 65 -5v-165q-42 10 -102 10q-122 0 -200.5 -80.5t-78.5 -210.5v-598h-155z" />
    <glyph glyph-name="Rcaron" unicode="&#x158;" horiz-adv-x="1320" 
d="M639 1524l-338 299h184l154 -154l152 154h184zM227 0v1427h490q179 0 303.5 -121.5t124.5 -304.5q0 -140 -74.5 -249.5t-196.5 -155.5l345 -596h-187l-321 563h-2h-320v-563h-162zM389 713h311q122 0 202.5 82t80.5 206q0 118 -77.5 197.5t-194.5 79.5h-322v-565z" />
    <glyph glyph-name="rcaron" unicode="&#x159;" horiz-adv-x="716" 
d="M403 1128l-335 299h182l153 -153l154 153h182zM154 0v1032h155v-174q40 87 122 139t194 52q30 0 65 -5v-165q-42 10 -102 10q-122 0 -200.5 -80.5t-78.5 -210.5v-598h-155z" />
    <glyph glyph-name="Sacute" unicode="&#x15a;" horiz-adv-x="1206" 
d="M528 1526l109 297h205l-191 -297h-123zM123 313l139 66q106 -258 359 -258q73 0 128 19.5t84 46.5t46 64.5t21.5 64.5t4.5 55q0 50 -15 90.5t-38 68.5t-68.5 57t-86 49t-111.5 50q-54 24 -90 41.5t-79 42t-70.5 47t-55.5 53t-44 63.5t-26 75.5t-10 91.5q0 154 111.5 254
t281.5 100q261 0 385 -227l-137 -72q-41 77 -100.5 113.5t-149.5 36.5q-95 0 -162 -57.5t-67 -143.5q0 -44 14 -79.5t35.5 -60.5t60.5 -49.5t75 -42t94 -43.5q9 -4 14 -6q86 -39 143 -69.5t110.5 -70t83 -82.5t47 -100t17.5 -128q0 -177 -118 -289.5t-331 -112.5
q-172 0 -302.5 85.5t-192.5 256.5z" />
    <glyph glyph-name="sacute" unicode="&#x15b;" horiz-adv-x="927" 
d="M367 1130l108 297h207l-193 -297h-122zM76 221l131 53q21 -65 87 -110t173 -45q66 0 113.5 15.5t70 40.5t32 49t9.5 50q0 33 -12.5 60t-30 45.5t-56 39.5t-69 34t-90.5 36q-67 26 -114 51.5t-87 60.5t-59.5 81.5t-19.5 105.5q0 121 88 198t225 77q208 0 301 -178
l-125 -66q-29 52 -70 77.5t-104 25.5q-71 0 -115.5 -35t-44.5 -96q0 -64 54.5 -103.5t171.5 -83.5q159 -61 235 -136t76 -194q0 -57 -23 -109t-67.5 -95t-119.5 -69t-169 -26q-148 0 -253 64t-138 182z" />
    <glyph glyph-name="Scircumflex" unicode="&#x15c;" horiz-adv-x="1206" 
d="M274 1575l338 299l336 -299h-184l-152 151l-153 -151h-185zM123 313l139 66q106 -258 359 -258q73 0 128 19.5t84 46.5t46 64.5t21.5 64.5t4.5 55q0 50 -15 90.5t-38 68.5t-68.5 57t-86 49t-111.5 50q-54 24 -90 41.5t-79 42t-70.5 47t-55.5 53t-44 63.5t-26 75.5
t-10 91.5q0 154 111.5 254t281.5 100q261 0 385 -227l-137 -72q-41 77 -100.5 113.5t-149.5 36.5q-95 0 -162 -57.5t-67 -143.5q0 -44 14 -79.5t35.5 -60.5t60.5 -49.5t75 -42t94 -43.5q9 -4 14 -6q86 -39 143 -69.5t110.5 -70t83 -82.5t47 -100t17.5 -128
q0 -177 -118 -289.5t-331 -112.5q-172 0 -302.5 85.5t-192.5 256.5z" />
    <glyph glyph-name="scircumflex" unicode="&#x15d;" horiz-adv-x="927" 
d="M125 1180l338 299l336 -299h-183l-153 151l-154 -151h-184zM76 221l131 53q21 -65 87 -110t173 -45q66 0 113.5 15.5t70 40.5t32 49t9.5 50q0 33 -12.5 60t-30 45.5t-56 39.5t-69 34t-90.5 36q-67 26 -114 51.5t-87 60.5t-59.5 81.5t-19.5 105.5q0 121 88 198t225 77
q208 0 301 -178l-125 -66q-29 52 -70 77.5t-104 25.5q-71 0 -115.5 -35t-44.5 -96q0 -64 54.5 -103.5t171.5 -83.5q159 -61 235 -136t76 -194q0 -57 -23 -109t-67.5 -95t-119.5 -69t-169 -26q-148 0 -253 64t-138 182z" />
    <glyph glyph-name="Scedilla" unicode="&#x15e;" horiz-adv-x="1206" 
d="M123 313l139 66q106 -258 359 -258q73 0 128 19.5t84 46.5t46 64.5t21.5 64.5t4.5 55q0 50 -15 90.5t-38 68.5t-68.5 57t-86 49t-111.5 50q-54 24 -90 41.5t-79 42t-70.5 47t-55.5 53t-44 63.5t-26 75.5t-10 91.5q0 154 111.5 254t281.5 100q261 0 385 -227l-137 -72
q-41 77 -100.5 113.5t-149.5 36.5q-95 0 -162 -57.5t-67 -143.5q0 -44 14 -79.5t35.5 -60.5t60.5 -49.5t75 -42t94 -43.5q9 -4 14 -6q86 -39 143 -69.5t110.5 -70t83 -82.5t47 -100t17.5 -128q0 -175 -114.5 -287t-323.5 -115l-33 -69h2q57 0 96 -40t39 -106
q0 -166 -211 -166q-42 0 -84.5 14.5t-68.5 33.5l41 79q55 -34 110 -34q38 0 63 20t25 53q0 49 -35.5 66.5t-109.5 17.5h-2l57 140q-137 23 -240 106t-155 227z" />
    <glyph glyph-name="scedilla" unicode="&#x15f;" horiz-adv-x="927" 
d="M233 -358l41 79q58 -34 119 -34q41 0 68.5 20t27.5 53q0 50 -38 67t-121 17h-2l63 138q-119 14 -202.5 76t-112.5 163l131 53q21 -65 87 -110t173 -45q66 0 113.5 15.5t70 40.5t32 49t9.5 50q0 33 -12.5 60t-30 45.5t-56 39.5t-69 34t-90.5 36q-67 26 -114 51.5t-87 60.5
t-59.5 81.5t-19.5 105.5q0 121 88 198t225 77q208 0 301 -178l-125 -66q-29 52 -70 77.5t-104 25.5q-71 0 -115.5 -35t-44.5 -96q0 -64 54.5 -103.5t171.5 -83.5q159 -61 235 -136t76 -194q0 -115 -87.5 -201t-254.5 -96l-39 -71h2q63 0 104 -40t41 -106q0 -166 -217 -166
q-44 0 -89.5 14.5t-72.5 33.5z" />
    <glyph glyph-name="Scaron" unicode="&#x160;" horiz-adv-x="1206" 
d="M631 1524l-338 299h184l154 -154l151 154h185zM123 313l139 66q106 -258 359 -258q73 0 128 19.5t84 46.5t46 64.5t21.5 64.5t4.5 55q0 50 -15 90.5t-38 68.5t-68.5 57t-86 49t-111.5 50q-54 24 -90 41.5t-79 42t-70.5 47t-55.5 53t-44 63.5t-26 75.5t-10 91.5
q0 154 111.5 254t281.5 100q261 0 385 -227l-137 -72q-41 77 -100.5 113.5t-149.5 36.5q-95 0 -162 -57.5t-67 -143.5q0 -44 14 -79.5t35.5 -60.5t60.5 -49.5t75 -42t94 -43.5q9 -4 14 -6q86 -39 143 -69.5t110.5 -70t83 -82.5t47 -100t17.5 -128q0 -177 -118 -289.5
t-331 -112.5q-172 0 -302.5 85.5t-192.5 256.5z" />
    <glyph glyph-name="scaron" unicode="&#x161;" horiz-adv-x="927" 
d="M469 1128l-338 299h184l154 -153l154 153h182zM76 221l131 53q21 -65 87 -110t173 -45q66 0 113.5 15.5t70 40.5t32 49t9.5 50q0 33 -12.5 60t-30 45.5t-56 39.5t-69 34t-90.5 36q-67 26 -114 51.5t-87 60.5t-59.5 81.5t-19.5 105.5q0 121 88 198t225 77q208 0 301 -178
l-125 -66q-29 52 -70 77.5t-104 25.5q-71 0 -115.5 -35t-44.5 -96q0 -64 54.5 -103.5t171.5 -83.5q159 -61 235 -136t76 -194q0 -57 -23 -109t-67.5 -95t-119.5 -69t-169 -26q-148 0 -253 64t-138 182z" />
    <glyph glyph-name="Tcommaaccent" unicode="&#x162;" horiz-adv-x="1140" 
d="M489 0v1278h-389v149h940v-149h-389v-1278h-162zM471 -98h205l-191 -297h-123z" />
    <glyph glyph-name="tcommaaccent" unicode="&#x163;" horiz-adv-x="647" 
d="M229 -98h205l-190 -297h-123zM158 356v1071h155v-395h238v-143h-238v-527q0 -115 53.5 -167t155.5 -52h29v-143h-39q-42 0 -78 4.5t-79 17t-76 38t-61.5 63t-44 97.5t-15.5 136z" />
    <glyph glyph-name="Tcaron" unicode="&#x164;" horiz-adv-x="1140" 
d="M569 1524l-338 299h185l153 -154l152 154h184zM489 0v1278h-389v149h940v-149h-389v-1278h-162z" />
    <glyph glyph-name="tcaron" unicode="&#x165;" horiz-adv-x="702" 
d="M430 1130l109 297h204l-190 -297h-123zM158 356v1071h155v-395h238v-143h-238v-527q0 -115 53.5 -167t155.5 -52h29v-143h-39q-42 0 -78 4.5t-79 17t-76 38t-61.5 63t-44 97.5t-15.5 136z" />
    <glyph glyph-name="Tbar" unicode="&#x166;" horiz-adv-x="1140" 
d="M489 0v737h-221v144h221v397h-389v149h940v-149h-389v-397h223v-144h-223v-737h-162z" />
    <glyph glyph-name="tbar" unicode="&#x167;" horiz-adv-x="647" 
d="M158 356v1071h155v-395h238v-143h-238v-146h238v-143h-238v-238q0 -115 53.5 -167t155.5 -52h29v-143h-39q-42 0 -78 4.5t-79 17t-76 38t-61.5 63t-44 97.5t-15.5 136z" />
    <glyph glyph-name="Utilde" unicode="&#x168;" horiz-adv-x="1505" 
d="M446 1561q9 82 59 136t126 54q45 0 89 -20t82.5 -40t69.5 -20q75 0 95 84l102 -10q-26 -201 -190 -201q-46 0 -90.5 20t-83 40t-70.5 20q-71 0 -88 -72zM217 502v925h162v-909q0 -192 100 -292.5t275 -100.5q173 0 272.5 100.5t99.5 292.5v909h162v-925q0 -128 -40 -229
t-112 -165.5t-169 -98.5t-213 -34q-240 0 -388.5 137t-148.5 390z" />
    <glyph glyph-name="utilde" unicode="&#x169;" horiz-adv-x="1155" 
d="M268 1225q9 82 59.5 135t127.5 53q44 0 88 -20t82 -40t69 -20q38 0 61 20t33 64l103 -8q-23 -203 -191 -203q-46 0 -90 20.5t-82 41t-71 20.5q-69 0 -86 -71zM143 399v633h156v-618q0 -144 74.5 -219.5t204.5 -75.5t205 76t75 221v616h154v-618q0 -210 -122.5 -324.5
t-318.5 -114.5q-190 0 -309 110t-119 314z" />
    <glyph glyph-name="Umacron" unicode="&#x16a;" horiz-adv-x="1505" 
d="M451 1577v141h604v-141h-604zM217 502v925h162v-909q0 -192 100 -292.5t275 -100.5q173 0 272.5 100.5t99.5 292.5v909h162v-925q0 -128 -40 -229t-112 -165.5t-169 -98.5t-213 -34q-240 0 -388.5 137t-148.5 390z" />
    <glyph glyph-name="umacron" unicode="&#x16b;" horiz-adv-x="1155" 
d="M279 1229v143h602v-143h-602zM143 399v633h156v-618q0 -144 74.5 -219.5t204.5 -75.5t205 76t75 221v616h154v-618q0 -210 -122.5 -324.5t-318.5 -114.5q-190 0 -309 110t-119 314z" />
    <glyph glyph-name="Ubreve" unicode="&#x16c;" horiz-adv-x="1505" 
d="M754 1538q-124 0 -214.5 78.5t-107.5 206.5h143q48 -150 179 -150q128 0 176 150h143q-17 -128 -107 -206.5t-212 -78.5zM217 502v925h162v-909q0 -192 100 -292.5t275 -100.5q173 0 272.5 100.5t99.5 292.5v909h162v-925q0 -128 -40 -229t-112 -165.5t-169 -98.5
t-213 -34q-240 0 -388.5 137t-148.5 390z" />
    <glyph glyph-name="ubreve" unicode="&#x16d;" horiz-adv-x="1155" 
d="M580 1143q-124 0 -214.5 78t-107.5 206h143q48 -149 179 -149q130 0 178 149h141q-17 -128 -107 -206t-212 -78zM143 399v633h156v-618q0 -144 74.5 -219.5t204.5 -75.5t205 76t75 221v616h154v-618q0 -210 -122.5 -324.5t-318.5 -114.5q-190 0 -309 110t-119 314z" />
    <glyph glyph-name="Uring" unicode="&#x16e;" horiz-adv-x="1505" 
d="M756 1454q-85 0 -144 59t-59 142t59 141.5t144 58.5q82 0 140 -58.5t58 -141.5q0 -84 -57.5 -142.5t-140.5 -58.5zM756 1559q37 0 64.5 29t27.5 67t-27.5 66t-64.5 28q-39 0 -68 -28t-29 -66t29.5 -67t67.5 -29zM217 502v925h162v-909q0 -192 100 -292.5t275 -100.5
q173 0 272.5 100.5t99.5 292.5v909h162v-925q0 -128 -40 -229t-112 -165.5t-169 -98.5t-213 -34q-240 0 -388.5 137t-148.5 390z" />
    <glyph glyph-name="uring" unicode="&#x16f;" horiz-adv-x="1155" 
d="M580 1059q-84 0 -143.5 59.5t-59.5 143.5q0 82 60 140t143 58q82 0 140 -58t58 -140q0 -85 -57.5 -144t-140.5 -59zM580 1165q38 0 66 29t28 68q0 38 -28 65t-66 27q-39 0 -68 -27t-29 -65t29.5 -67.5t67.5 -29.5zM143 399v633h156v-618q0 -144 74.5 -219.5t204.5 -75.5
t205 76t75 221v616h154v-618q0 -210 -122.5 -324.5t-318.5 -114.5q-190 0 -309 110t-119 314z" />
    <glyph glyph-name="Uhungarumlaut" unicode="&#x170;" horiz-adv-x="1505" 
d="M846 1526l129 297h199l-213 -297h-115zM530 1526l129 297h197l-211 -297h-115zM217 502v925h162v-909q0 -192 100 -292.5t275 -100.5q173 0 272.5 100.5t99.5 292.5v909h162v-925q0 -128 -40 -229t-112 -165.5t-169 -98.5t-213 -34q-240 0 -388.5 137t-148.5 390z" />
    <glyph glyph-name="uhungarumlaut" unicode="&#x171;" horiz-adv-x="1155" 
d="M670 1130l129 297h196l-213 -297h-112zM352 1130l129 297h197l-211 -297h-115zM143 399v633h156v-618q0 -144 74.5 -219.5t204.5 -75.5t205 76t75 221v616h154v-618q0 -210 -122.5 -324.5t-318.5 -114.5q-190 0 -309 110t-119 314z" />
    <glyph glyph-name="Uogonek" unicode="&#x172;" horiz-adv-x="1505" 
d="M217 502v925h162v-909q0 -192 100 -292.5t275 -100.5q173 0 272.5 100.5t99.5 292.5v909h162v-921q0 -290 -196 -430q-8 -6 -45.5 -28t-71 -45t-71 -54.5t-59.5 -69t-22 -74.5q0 -45 30 -68.5t73 -23.5q61 0 118 31l-26 -121q-60 -29 -117 -29q-83 0 -146 50.5t-63 132.5
q0 114 125 203q-63 -5 -72 -5q-154 0 -271.5 58t-187 179t-69.5 290z" />
    <glyph glyph-name="uogonek" unicode="&#x173;" horiz-adv-x="1155" 
d="M143 399v633h156v-618q0 -144 74.5 -219.5t204.5 -75.5t205 76t75 221v616h154v-618q0 -140 -59 -238.5t-177 -175.5q-155 -104 -155 -195q0 -45 29.5 -68.5t72.5 -23.5q62 0 119 31l-27 -121q-60 -29 -117 -29q-83 0 -146 50.5t-63 132.5q0 110 121 200q-23 -2 -39 -2
q-190 0 -309 110t-119 314z" />
    <glyph glyph-name="Wcircumflex" unicode="&#x174;" horiz-adv-x="2019" 
d="M672 1575l338 299l336 -299h-185l-151 151l-154 -151h-184zM563 -51l-469 1478h172l318 -1003l432 1053l411 -1049l326 999h170l-477 -1482l-434 1095z" />
    <glyph glyph-name="wcircumflex" unicode="&#x175;" horiz-adv-x="1609" 
d="M463 1180l336 299l338 -299h-185l-153 151l-152 -151h-184zM494 -72l-424 1104h149l277 -725l307 795l309 -795l277 725h149l-424 -1104l-311 797z" />
    <glyph glyph-name="Ycircumflex" unicode="&#x176;" horiz-adv-x="1353" 
d="M342 1575l336 299l336 -299h-183l-153 151l-154 -151h-182zM598 0v586l-502 841h180l406 -682l401 682h177l-498 -841v-586h-164z" />
    <glyph glyph-name="ycircumflex" unicode="&#x177;" horiz-adv-x="1107" 
d="M233 1180l336 299l338 -299h-184l-154 151l-153 -151h-183zM174 -293h94q60 0 99 29q38 30 77 125l43 116l-417 1055h155l338 -868l328 868h153l-466 -1208q-45 -113 -101 -174q-75 -78 -203 -78h-100v135z" />
    <glyph glyph-name="Ydieresis" unicode="&#x178;" horiz-adv-x="1353" 
d="M889 1522q-41 0 -72 29.5t-31 72.5t31 74t72 31t71.5 -30.5t30.5 -74.5q0 -43 -30.5 -72.5t-71.5 -29.5zM467 1522q-41 0 -71.5 29.5t-30.5 72.5q0 44 30.5 74.5t71.5 30.5t71.5 -30.5t30.5 -74.5q0 -43 -30.5 -72.5t-71.5 -29.5zM598 0v586l-502 841h180l406 -682
l401 682h177l-498 -841v-586h-164z" />
    <glyph glyph-name="Zacute" unicode="&#x179;" horiz-adv-x="1388" 
d="M676 1526l108 297h205l-190 -297h-123zM104 0l891 1278h-731v149h1026l-891 -1277h863v-150h-1158z" />
    <glyph glyph-name="zacute" unicode="&#x17a;" horiz-adv-x="1105" 
d="M469 1130l109 297h204l-190 -297h-123zM31 0l686 889h-576v143h863l-687 -889h658v-143h-944z" />
    <glyph glyph-name="Zdotaccent" unicode="&#x17b;" horiz-adv-x="1388" 
d="M780 1563q-41 0 -71.5 29.5t-30.5 72.5t30.5 72.5t71.5 29.5q42 0 73.5 -29.5t31.5 -72.5t-31.5 -72.5t-73.5 -29.5zM104 0l891 1278h-731v149h1026l-891 -1277h863v-150h-1158z" />
    <glyph glyph-name="zdotaccent" unicode="&#x17c;" horiz-adv-x="1105" 
d="M582 1198q-41 0 -73 31t-32 74t32 72.5t73 29.5t71.5 -29.5t30.5 -72.5t-31 -74t-71 -31zM31 0l686 889h-576v143h863l-687 -889h658v-143h-944z" />
    <glyph glyph-name="Zcaron" unicode="&#x17d;" horiz-adv-x="1388" 
d="M778 1524l-336 299h185l151 -154l154 154h184zM104 0l891 1278h-731v149h1026l-891 -1277h863v-150h-1158z" />
    <glyph glyph-name="zcaron" unicode="&#x17e;" horiz-adv-x="1105" 
d="M555 1128l-338 299h184l154 -153l154 153h182zM31 0l686 889h-576v143h863l-687 -889h658v-143h-944z" />
    <glyph glyph-name="florin" unicode="&#x192;" horiz-adv-x="847" 
d="M88 -207l207 971h-156l27 131h156l47 217q20 90 53 155t69 101.5t84.5 57t88.5 26.5t92 6q49 0 96 -8l-31 -141q-47 6 -104 6q-82 0 -126 -45t-65 -140l-49 -235h205l-29 -131h-204l-207 -971h-154z" />
    <glyph glyph-name="Aringacute" unicode="&#x1fa;" horiz-adv-x="1515" 
d="M713 1858l108 296h205l-190 -296h-123zM111 0l594 1360q-64 19 -106 72.5t-42 121.5q0 82 60 140.5t143 58.5q82 0 140 -58.5t58 -140.5q0 -69 -41.5 -123t-107.5 -73l598 -1358h-178l-152 350h-643l-153 -350h-170zM760 1458q38 0 66 29t28 67t-28 66.5t-66 28.5
t-67 -28.5t-29 -66.5t29 -67t67 -29zM500 500h512l-256 602z" />
    <glyph glyph-name="aringacute" unicode="&#x1fb;" horiz-adv-x="1306" 
d="M588 1614l108 297h207l-192 -297h-123zM655 1139q-83 0 -142.5 58.5t-59.5 141.5q0 82 59.5 140.5t142.5 58.5q82 0 140.5 -58.5t58.5 -140.5q0 -83 -58 -141.5t-141 -58.5zM655 1243q38 0 66.5 29t28.5 67t-28.5 66.5t-66.5 28.5t-67 -28.5t-29 -66.5t29 -67t67 -29z
M111 516q0 154 70 280t189.5 196.5t262.5 70.5q139 0 230 -53t136 -131v153h154v-1032h-154v154q-45 -78 -136 -131.5t-230 -53.5q-143 0 -262.5 70.5t-189.5 196.5t-70 280zM266 516q0 -172 105 -287.5t264 -115.5q164 0 273.5 115.5t109.5 287.5t-109.5 288t-273.5 116
q-159 0 -264 -116t-105 -288z" />
    <glyph glyph-name="AEacute" unicode="&#x1fc;" horiz-adv-x="1902" 
d="M1018 1526l108 297h205l-190 -297h-123zM6 0l1096 1427h635v-149h-514v-451h475v-149h-475v-528h528v-150h-692v350h-580l-270 -350h-203zM594 500h465v620z" />
    <glyph glyph-name="aeacute" unicode="&#x1fd;" horiz-adv-x="1902" 
d="M874 1130l109 297h205l-191 -297h-123zM113 285q0 143 99 229t263 86h172q53 0 87.5 11t50 32.5t21 43t5.5 52.5q0 56 -24 95t-62.5 56t-71 23.5t-65.5 6.5q-178 0 -297 -166l-107 88q71 107 174.5 164t229.5 57q124 0 213.5 -52t128.5 -143q66 92 163 143.5t214 51.5
q132 0 243 -70.5t176.5 -196.5t65.5 -280q0 -17 -2 -33h-836q6 -169 102.5 -269.5t254.5 -100.5q109 0 178.5 34t146.5 109l103 -100q-96 -104 -199 -145.5t-229 -41.5q-264 0 -400 201q-123 -201 -440 -201q-169 0 -263.5 87.5t-94.5 228.5zM268 285q0 -89 55.5 -125.5
t170.5 -36.5q151 0 234 64t83 161v66v67q-60 -32 -162 -32h-172q-100 0 -154.5 -40.5t-54.5 -123.5zM965 616h663q-25 135 -113 219.5t-208 84.5q-127 0 -221.5 -85t-120.5 -219z" />
    <glyph glyph-name="Oslashacute" unicode="&#x1fe;" horiz-adv-x="1759" 
d="M827 1526l109 297h205l-191 -297h-123zM272 0l113 152q-118 102 -184 246.5t-66 314.5q0 157 58.5 295.5t158.5 236t237 153.5t290 56q215 0 397 -111l119 160l118 -88l-118 -160q108 -102 168.5 -241t60.5 -301q0 -210 -100 -380.5t-270.5 -266t-374.5 -95.5
q-196 0 -373 97l-115 -154zM477 274l709 947q-139 84 -307 84q-165 0 -298 -77t-208.5 -212.5t-75.5 -302.5q0 -132 47 -245.5t133 -193.5zM598 190q126 -69 281 -69q251 0 416 169t165 423q0 123 -42 229.5t-118 185.5z" />
    <glyph glyph-name="oslashacute" unicode="&#x1ff;" horiz-adv-x="1320" 
d="M618 1130l109 297h205l-191 -297h-123zM201 2l82 111q-81 75 -126.5 178.5t-45.5 224.5q0 154 73.5 280t199 196.5t275.5 70.5q144 0 271 -68l76 105l112 -80l-78 -102q80 -75 125 -179t45 -223q0 -154 -74 -280t-200 -196.5t-277 -70.5q-138 0 -264 66l-84 -115z
M373 233l469 644q-81 43 -183 43q-170 0 -281.5 -115.5t-111.5 -288.5q0 -170 107 -283zM483 154q77 -41 176 -41q171 0 283.5 115.5t112.5 287.5q0 167 -103 279z" />
    <glyph glyph-name="Scommaaccent" unicode="&#x218;" horiz-adv-x="1206" 
d="M123 313l139 66q106 -258 359 -258q73 0 128 19.5t84 46.5t46 64.5t21.5 64.5t4.5 55q0 50 -15 90.5t-38 68.5t-68.5 57t-86 49t-111.5 50q-54 24 -90 41.5t-79 42t-70.5 47t-55.5 53t-44 63.5t-26 75.5t-10 91.5q0 154 111.5 254t281.5 100q261 0 385 -227l-137 -72
q-41 77 -100.5 113.5t-149.5 36.5q-95 0 -162 -57.5t-67 -143.5q0 -44 14 -79.5t35.5 -60.5t60.5 -49.5t75 -42t94 -43.5q9 -4 14 -6q86 -39 143 -69.5t110.5 -70t83 -82.5t47 -100t17.5 -128q0 -177 -118 -289.5t-331 -112.5q-172 0 -302.5 85.5t-192.5 256.5zM389 -395
l109 297h204l-190 -297h-123z" />
    <glyph glyph-name="scommaaccent" unicode="&#x219;" horiz-adv-x="927" 
d="M76 221l131 53q21 -65 87 -110t173 -45q66 0 113.5 15.5t70 40.5t32 49t9.5 50q0 33 -12.5 60t-30 45.5t-56 39.5t-69 34t-90.5 36q-67 26 -114 51.5t-87 60.5t-59.5 81.5t-19.5 105.5q0 121 88 198t225 77q208 0 301 -178l-125 -66q-29 52 -70 77.5t-104 25.5
q-71 0 -115.5 -35t-44.5 -96q0 -64 54.5 -103.5t171.5 -83.5q159 -61 235 -136t76 -194q0 -57 -23 -109t-67.5 -95t-119.5 -69t-169 -26q-148 0 -253 64t-138 182zM221 -395l109 297h207l-193 -297h-123z" />
    <glyph glyph-name="circumflex" unicode="&#x2c6;" horiz-adv-x="1329" 
d="M328 1180l338 299l335 -299h-184l-151 151l-154 -151h-184z" />
    <glyph glyph-name="caron" unicode="&#x2c7;" horiz-adv-x="1329" 
d="M666 1128l-338 299h184l154 -153l151 153h184z" />
    <glyph glyph-name="breve" unicode="&#x2d8;" horiz-adv-x="1320" 
d="M659 1143q-122 0 -212 78t-107 206h141q47 -147 178 -147q130 0 177 147h143q-17 -128 -107.5 -206t-212.5 -78z" />
    <glyph glyph-name="dotaccent" unicode="&#x2d9;" horiz-adv-x="1155" 
d="M578 1198q-41 0 -72 31t-31 74t31 72.5t72 29.5q42 0 73 -29.5t31 -72.5q0 -44 -31 -74.5t-73 -30.5z" />
    <glyph glyph-name="ring" unicode="&#x2da;" horiz-adv-x="569" 
d="M285 1059q-83 0 -142 59t-59 144q0 82 59 140t142 58q82 0 140 -58t58 -140q0 -85 -57.5 -144t-140.5 -59zM285 1165q38 0 66 29t28 68q0 38 -28 65t-66 27q-39 0 -68 -27t-29 -65t29.5 -67.5t67.5 -29.5z" />
    <glyph glyph-name="ogonek" unicode="&#x2db;" horiz-adv-x="1157" 
d="M360 -223q0 128 154 223h133q-155 -99 -155 -195q0 -45 29.5 -68.5t72.5 -23.5q62 0 119 31l-27 -121q-60 -29 -117 -29q-83 0 -146 50.5t-63 132.5z" />
    <glyph glyph-name="tilde" unicode="&#x2dc;" horiz-adv-x="1271" 
d="M326 1268q9 84 58.5 137t127.5 53q44 0 88 -20t82.5 -40t69.5 -20q38 0 61 20t33 64l102 -8q-23 -203 -190 -203q-46 0 -90 20t-82 40t-70 20q-71 0 -88 -71z" />
    <glyph glyph-name="hungarumlaut" unicode="&#x2dd;" horiz-adv-x="1277" 
d="M686 1130l129 297h197l-213 -297h-113zM369 1130l129 297h196l-211 -297h-114z" />
    <glyph glyph-name="pi" unicode="&#x3c0;" horiz-adv-x="1277" 
d="M231 0q159 346 162 889h-8q-60 0 -113.5 -29t-83.5 -82l-122 72q44 85 132.5 132.5t186.5 47.5h817l-33 -141h-147v-641q0 -59 26 -78.5t66 -19.5v-154h-6q-108 0 -175 68.5t-67 183.5v641h-319q-2 -243 -41 -484t-109 -405h-166z" />
    <glyph glyph-name="Wgrave" unicode="&#x1e80;" horiz-adv-x="2019" 
d="M997 1526l-190 297h205l108 -297h-123zM563 -51l-469 1478h172l318 -1003l432 1053l411 -1049l326 999h170l-477 -1482l-434 1095z" />
    <glyph glyph-name="wgrave" unicode="&#x1e81;" horiz-adv-x="1609" 
d="M803 1130l-191 297h205l109 -297h-123zM494 -72l-424 1104h149l277 -725l307 795l309 -795l277 725h149l-424 -1104l-311 797z" />
    <glyph glyph-name="Wacute" unicode="&#x1e82;" horiz-adv-x="2019" 
d="M934 1526l108 297h205l-190 -297h-123zM563 -51l-469 1478h172l318 -1003l432 1053l411 -1049l326 999h170l-477 -1482l-434 1095z" />
    <glyph glyph-name="wacute" unicode="&#x1e83;" horiz-adv-x="1609" 
d="M725 1130l109 297h204l-190 -297h-123zM494 -72l-424 1104h149l277 -725l307 795l309 -795l277 725h149l-424 -1104l-311 797z" />
    <glyph glyph-name="Wdieresis" unicode="&#x1e84;" horiz-adv-x="2019" 
d="M1221 1524q-42 0 -73.5 29.5t-31.5 72.5q0 44 31.5 74.5t73.5 30.5q41 0 71.5 -30.5t30.5 -74.5q0 -43 -30.5 -72.5t-71.5 -29.5zM799 1524q-42 0 -73.5 29.5t-31.5 72.5q0 44 31.5 74.5t73.5 30.5q41 0 71.5 -30.5t30.5 -74.5q0 -43 -30.5 -72.5t-71.5 -29.5zM563 -51
l-469 1478h172l318 -1003l432 1053l411 -1049l326 999h170l-477 -1482l-434 1095z" />
    <glyph glyph-name="wdieresis" unicode="&#x1e85;" horiz-adv-x="1609" 
d="M1014 1198q-41 0 -72 31t-31 74t31 72.5t72 29.5q42 0 73 -29.5t31 -72.5q0 -44 -31 -74.5t-73 -30.5zM592 1198q-41 0 -72 31t-31 74t31 72.5t72 29.5q42 0 73 -29.5t31 -72.5q0 -44 -31 -74.5t-73 -30.5zM494 -72l-424 1104h149l277 -725l307 795l309 -795l277 725h149
l-424 -1104l-311 797z" />
    <glyph glyph-name="Ygrave" unicode="&#x1ef2;" horiz-adv-x="1353" 
d="M653 1526l-190 297h205l108 -297h-123zM598 0v586l-502 841h180l406 -682l401 682h177l-498 -841v-586h-164z" />
    <glyph glyph-name="ygrave" unicode="&#x1ef3;" horiz-adv-x="1107" 
d="M537 1130l-191 297h205l108 -297h-122zM174 -293h94q60 0 99 29q38 30 77 125l43 116l-417 1055h155l338 -868l328 868h153l-466 -1208q-45 -113 -101 -174q-75 -78 -203 -78h-100v135z" />
    <glyph glyph-name="endash" unicode="&#x2013;" horiz-adv-x="1013" 
d="M123 469v143h770v-143h-770z" />
    <glyph glyph-name="emdash" unicode="&#x2014;" horiz-adv-x="1554" 
d="M123 469v143h1309v-143h-1309z" />
    <glyph glyph-name="quoteleft" unicode="&#x2018;" horiz-adv-x="446" 
d="M47 911l268 516h129l-192 -516h-205z" />
    <glyph glyph-name="quoteright" unicode="&#x2019;" horiz-adv-x="462" 
d="M31 911l194 516h205l-268 -516h-131z" />
    <glyph glyph-name="quotesinglbase" unicode="&#x201a;" horiz-adv-x="462" 
d="M150 227h202l-258 -489h-129z" />
    <glyph glyph-name="quotedblleft" unicode="&#x201c;" horiz-adv-x="786" 
d="M387 911l268 516h131l-194 -516h-205zM47 911l268 516h129l-192 -516h-205z" />
    <glyph glyph-name="quotedblright" unicode="&#x201d;" horiz-adv-x="802" 
d="M371 911l194 516h205l-268 -516h-131zM31 911l194 516h205l-268 -516h-131z" />
    <glyph glyph-name="quotedblbase" unicode="&#x201e;" horiz-adv-x="778" 
d="M305 -262l184 489h205l-258 -489h-131zM-35 -262l185 489h202l-258 -489h-129z" />
    <glyph glyph-name="dagger" unicode="&#x2020;" horiz-adv-x="669" 
d="M262 616l10 490l-166 -6v133l162 -6l-6 200h146l-7 -200l162 6v-133l-166 6l11 -490h-146z" />
    <glyph glyph-name="daggerdbl" unicode="&#x2021;" horiz-adv-x="669" 
d="M262 616l6 201l-162 -6v133l166 -6v168l-166 -6v133l162 -6l-6 200h146l-7 -200l162 6v-133l-166 6v-168l166 6v-133l-162 6l7 -201h-146z" />
    <glyph glyph-name="bullet" unicode="&#x2022;" horiz-adv-x="616" 
d="M307 350q-68 0 -118 49t-50 121t50 121t118 49q69 0 119.5 -49t50.5 -121t-50.5 -121t-119.5 -49z" />
    <glyph glyph-name="ellipsis" unicode="&#x2026;" horiz-adv-x="1193" 
d="M860 90q0 43 32 73t73 30t72.5 -30t31.5 -73q0 -44 -31.5 -74t-72.5 -30t-73 30t-32 74zM496 90q0 43 30.5 73t71.5 30q42 0 73 -30t31 -73q0 -45 -31 -74.5t-73 -29.5q-41 0 -71.5 29.5t-30.5 74.5zM129 90q0 43 31 73t73 30q41 0 72 -30t31 -73q0 -44 -31 -74t-72 -30
q-42 0 -73 29.5t-31 74.5z" />
    <glyph glyph-name="perthousand" unicode="&#x2030;" horiz-adv-x="2359" 
d="M432 819q-132 0 -225.5 94t-93.5 226t93.5 225.5t225.5 93.5t226 -93.5t94 -225.5t-94 -226t-226 -94zM252 0l924 1427h159l-923 -1427h-160zM432 946q76 0 130 56t54 137q0 79 -54.5 135.5t-129.5 56.5t-128.5 -56.5t-53.5 -135.5q0 -81 53.5 -137t128.5 -56zM1608 289
q0 132 93.5 225.5t225.5 93.5t226 -93.5t94 -225.5t-94 -226t-226 -94t-225.5 94t-93.5 226zM829 289q0 132 94 225.5t226 93.5t225.5 -93.5t93.5 -225.5t-93.5 -226t-225.5 -94t-226 94t-94 226zM1745 289q0 -82 52.5 -137.5t129.5 -55.5q75 0 128.5 56t53.5 137
q0 79 -53.5 135.5t-128.5 56.5q-76 0 -129 -56t-53 -136zM967 289q0 -82 52.5 -137.5t129.5 -55.5q75 0 128.5 56t53.5 137q0 79 -53.5 135.5t-128.5 56.5q-76 0 -129 -56t-53 -136z" />
    <glyph glyph-name="guilsinglleft" unicode="&#x2039;" horiz-adv-x="608" 
d="M338 160l-227 358l227 359h162l-226 -359l226 -358h-162z" />
    <glyph glyph-name="guilsinglright" unicode="&#x203a;" horiz-adv-x="608" 
d="M111 160l227 358l-227 359h163l226 -359l-226 -358h-163z" />
    <glyph glyph-name="fraction" unicode="&#x2044;" horiz-adv-x="1075" 
d="M-4 0l924 1427h159l-923 -1427h-160z" />
    <glyph glyph-name="zerosuperior" unicode="&#x2070;" horiz-adv-x="815" 
d="M147 895q-4 31 -4 156q0 124 4 155q12 99 87.5 168.5t171.5 69.5q104 0 179.5 -67.5t84.5 -170.5q2 -33 2 -155q0 -123 -2 -156q-9 -103 -84.5 -171.5t-179.5 -68.5q-96 0 -171.5 70.5t-87.5 169.5zM260 903q9 -57 50.5 -95t95.5 -38q59 0 102 37.5t47 95.5q4 29 4 148
q0 116 -4 147q-4 57 -47 95t-102 38q-54 0 -95.5 -38t-50.5 -95q-2 -29 -2 -147q0 -119 2 -148z" />
    <glyph glyph-name="foursuperior" unicode="&#x2074;" horiz-adv-x="794" 
d="M518 672v149h-446l290 606h123l-237 -495h270v151h119v-411h-119z" />
    <glyph glyph-name="fivesuperior" unicode="&#x2075;" horiz-adv-x="759" 
d="M350 655q-83 0 -153 47t-111 127l104 50q25 -50 68 -79.5t92 -29.5q68 0 116 47t48 113q0 68 -50 112.5t-124 44.5q-116 0 -197 -49l70 389h371v-110h-269l-24 -129q24 12 69 12q112 0 190.5 -79.5t78.5 -190.5q0 -115 -81.5 -195t-197.5 -80z" />
    <glyph glyph-name="sixsuperior" unicode="&#x2076;" horiz-adv-x="802" 
d="M401 655q-111 0 -190.5 80t-79.5 193q0 38 14 77.5t28.5 65t49.5 78.5q3 3 189 278h141l-168 -239q13 2 33 2q100 0 177 -77t77 -185q0 -115 -79 -194t-192 -79zM401 770q64 0 110 45.5t46 108.5q0 64 -45.5 109.5t-110.5 45.5t-107 -44t-42 -111t42.5 -110.5
t106.5 -43.5z" />
    <glyph glyph-name="sevensuperior" unicode="&#x2077;" horiz-adv-x="778" 
d="M209 672l311 645h-377v110h562l-365 -755h-131z" />
    <glyph glyph-name="eightsuperior" unicode="&#x2078;" horiz-adv-x="808" 
d="M406 655q-110 0 -186.5 74.5t-76.5 177.5q0 71 37.5 127t89.5 76q-31 20 -51 56.5t-20 74.5q0 85 60.5 144t146.5 59q85 0 144.5 -59t59.5 -144q0 -38 -20 -74.5t-51 -56.5q52 -20 89.5 -76t37.5 -127q0 -103 -76 -177.5t-184 -74.5zM406 1141q37 0 62.5 29t25.5 69
q0 37 -26 64.5t-62 27.5q-39 0 -65 -27t-26 -65q0 -40 26 -69t65 -29zM406 770q57 0 99 40t42 97q0 58 -42 99t-99 41q-59 0 -101.5 -41t-42.5 -99q0 -57 42.5 -97t101.5 -40z" />
    <glyph glyph-name="ninesuperior" unicode="&#x2079;" horiz-adv-x="813" 
d="M250 672l182 258q-16 -4 -39 -4q-97 0 -173.5 72.5t-76.5 179.5q0 110 77.5 188t185.5 78q109 0 186.5 -76t77.5 -186q0 -42 -15 -85.5t-32.5 -73t-53.5 -83.5l-180 -268h-139zM406 1030q70 0 110.5 43.5t40.5 108.5q0 62 -44 105.5t-107 43.5q-61 0 -104.5 -43.5
t-43.5 -105.5q0 -63 43.5 -107.5t104.5 -44.5z" />
    <glyph glyph-name="zero.inferior" unicode="&#x2080;" horiz-adv-x="815" 
d="M147 223q-4 31 -4 156t4 156q12 99 87.5 168t171.5 69q105 0 180 -67.5t84 -169.5q2 -33 2 -156t-2 -156q-9 -103 -84.5 -171t-179.5 -68q-96 0 -171.5 70t-87.5 169zM260 231q9 -57 50.5 -95t95.5 -38q59 0 102 37.5t47 95.5q4 29 4 148q0 116 -4 147q-4 57 -47 95
t-102 38q-54 0 -95.5 -38t-50.5 -95q-2 -29 -2 -147q0 -119 2 -148z" />
    <glyph glyph-name="one.inferior" unicode="&#x2081;" horiz-adv-x="534" 
d="M219 0v645h-98v111h217v-756h-119z" />
    <glyph glyph-name="two.inferior" unicode="&#x2082;" horiz-adv-x="745" 
d="M88 0l354 444q50 63 50 107t-33 76t-78 32q-44 0 -76.5 -38t-32.5 -89h-116q0 100 65.5 170t159.5 70q95 0 162 -64.5t67 -156.5q0 -29 -3 -49t-19 -55t-47 -72l-222 -262h310v-113h-541z" />
    <glyph glyph-name="three.inferior" unicode="&#x2083;" horiz-adv-x="788" 
d="M92 170l105 39q20 -52 67 -81.5t111 -29.5q76 0 124 41.5t48 106.5q0 67 -49.5 111t-130.5 44q-95 0 -148 -22l217 266h-272v111h500l-226 -258q28 0 60 -13q73 -27 118.5 -92t45.5 -147q0 -115 -81 -188.5t-206 -73.5q-99 0 -175.5 50.5t-107.5 135.5z" />
    <glyph glyph-name="four.inferior" unicode="&#x2084;" horiz-adv-x="794" 
d="M72 150l290 606h123l-237 -496h270v152h119v-412h-119v150h-446z" />
    <glyph glyph-name="five.inferior" unicode="&#x2085;" horiz-adv-x="759" 
d="M86 158l104 49q25 -50 68 -79.5t92 -29.5q68 0 116 47t48 113q0 68 -50 113t-124 45q-116 0 -197 -49l70 389h371v-111h-269l-24 -129q24 12 69 12q112 0 190.5 -79.5t78.5 -190.5q0 -115 -81.5 -194.5t-197.5 -79.5q-83 0 -153 47t-111 127z" />
    <glyph glyph-name="six.inferior" unicode="&#x2086;" horiz-adv-x="802" 
d="M131 256q0 38 14 77.5t28.5 65t49.5 78.5l189 279h141l-168 -240q13 2 33 2q100 0 177 -77t77 -185q0 -115 -79 -193.5t-192 -78.5q-111 0 -190.5 79.5t-79.5 192.5zM252 252q0 -67 42.5 -110.5t106.5 -43.5t110 45.5t46 108.5q0 64 -45.5 110t-110.5 46
q-64 0 -106.5 -44t-42.5 -112z" />
    <glyph glyph-name="seven.inferior" unicode="&#x2087;" horiz-adv-x="778" 
d="M209 0l311 645h-377v111h562l-365 -756h-131z" />
    <glyph glyph-name="eight.inferior" unicode="&#x2088;" horiz-adv-x="808" 
d="M143 236q0 70 37.5 126t89.5 76q-31 20 -51 56.5t-20 74.5q0 85 60.5 144t146.5 59q85 0 144.5 -59t59.5 -144q0 -38 -20 -74.5t-51 -56.5q52 -20 89.5 -76t37.5 -126q0 -103 -76 -177.5t-184 -74.5q-110 0 -186.5 74.5t-76.5 177.5zM406 469q37 0 62.5 29t25.5 69
q0 37 -26 64.5t-62 27.5q-39 0 -65 -27t-26 -65q0 -40 26 -69t65 -29zM262 236q0 -57 42.5 -97.5t101.5 -40.5q57 0 99 40.5t42 97.5q0 58 -41.5 98.5t-99.5 40.5q-59 0 -101.5 -40.5t-42.5 -98.5z" />
    <glyph glyph-name="nine.inferior" unicode="&#x2089;" horiz-adv-x="788" 
d="M238 0l182 258q-16 -4 -39 -4q-97 0 -173.5 72.5t-76.5 179.5q0 110 77 188t185 78q109 0 186.5 -76t77.5 -186q0 -60 -24 -111.5t-76 -130.5l-180 -268h-139zM393 358q70 0 111 43.5t41 108.5q0 62 -44.5 105.5t-107.5 43.5q-61 0 -104 -43.5t-43 -105.5
q0 -63 43 -107.5t104 -44.5z" />
    <glyph glyph-name="Euro" unicode="&#x20ac;" horiz-adv-x="1605" 
d="M55 492l62 141h166q-4 54 -4 80q0 49 6 96h-187l62 141h151q68 227 246 365.5t404 138.5q148 0 276.5 -57t224.5 -160l-114 -102q-72 81 -171 125.5t-216 44.5q-166 0 -294 -97t-186 -258h555l-61 -141h-526q-7 -54 -7 -96q0 -26 4 -80h459l-61 -141h-369
q53 -168 184 -269.5t302 -101.5q123 0 226.5 46t176.5 132l117 -104q-98 -107 -231.5 -165.5t-288.5 -58.5q-230 0 -410.5 144t-243.5 377h-252z" />
    <glyph glyph-name="uni2113" unicode="&#x2113;" horiz-adv-x="1042" 
d="M102 242l-55 104q139 99 168 121v541q0 229 89 339.5t235 110.5q127 0 200.5 -86t73.5 -231q0 -187 -109.5 -363t-330.5 -370v-21q3 -276 217 -276q88 0 157 57.5t115 136.5l90 -88q-139 -248 -407 -248q-151 0 -238.5 99.5t-87.5 253.5q-60 -44 -117 -80zM369 580
q293 293 293 557q0 92 -36.5 135t-97.5 43q-67 0 -113 -68.5t-46 -204.5v-462z" />
    <glyph glyph-name="uni2116" unicode="&#x2116;" horiz-adv-x="2484" 
d="M227 0v1479l916 -1100v1048h162v-1478l-916 1098v-1047h-162zM1528 987q0 171 118.5 287.5t288.5 116.5q168 0 287 -116.5t119 -287.5q0 -172 -118.5 -288.5t-287.5 -116.5q-170 0 -288.5 116.5t-118.5 288.5zM1681 987q0 -109 73.5 -185.5t180.5 -76.5q105 0 178.5 76.5
t73.5 185.5q0 108 -73.5 184t-178.5 76q-107 0 -180.5 -76t-73.5 -184zM1554 293v143h770v-143h-770z" />
    <glyph glyph-name="trademark" unicode="&#x2122;" horiz-adv-x="1804" 
d="M817 668v762h19l397 -406l397 406h17v-762h-156v415l-258 -284l-260 284v-415h-156zM326 668v610h-242v149h639v-149h-242v-610h-155z" />
    <glyph glyph-name="Omega" unicode="&#x2126;" horiz-adv-x="1677" 
d="M164 0v150h229q-121 102 -189.5 253.5t-68.5 329.5q0 153 56.5 288t151.5 229.5t224.5 149t272.5 54.5t272 -54.5t223.5 -149.5t150.5 -229.5t56 -287.5q0 -178 -68.5 -329.5t-189.5 -253.5h229v-150h-579q63 40 115.5 80.5t117.5 107t109 137.5t75 169.5t31 205.5
q0 170 -70 308.5t-194.5 217.5t-277.5 79q-154 0 -278.5 -79t-194.5 -217.5t-70 -308.5q0 -414 446 -700h-579z" />
    <glyph glyph-name="estimated" unicode="&#x212e;" horiz-adv-x="1941" 
d="M449 209q106 -90 239.5 -140.5t282.5 -50.5q177 0 332 70t262 191h61q-115 -140 -287.5 -222t-369.5 -82q-171 0 -326.5 62t-268 167t-179 250t-66.5 304t66.5 304t179 249.5t268 166.5t326.5 62t326.5 -62t268 -166.5t179.5 -249.5t67 -304v-23h-1361v-526zM449 778
h1040v531q-222 186 -518 186q-149 0 -283 -50t-239 -140v-527z" />
    <glyph glyph-name="onethird" unicode="&#x2153;" horiz-adv-x="1605" 
d="M199 0l800 1427h154l-801 -1427h-153zM260 672v645h-98v110h217v-755h-119zM889 170l102 39q20 -51 68 -81t112 -30q76 0 123 41.5t47 106.5q0 67 -49 111t-129 44q-94 0 -147 -22l215 266h-270v111h497l-223 -258q22 0 59 -13q72 -27 117 -92t45 -147
q0 -115 -80.5 -188.5t-204.5 -73.5q-99 0 -175 50.5t-107 135.5z" />
    <glyph glyph-name="twothirds" unicode="&#x2154;" horiz-adv-x="1734" 
d="M129 672l354 444q49 62 49 107q0 44 -33 76t-77 32q-45 0 -78 -38t-33 -89h-114q0 100 65.5 170t159.5 70t161.5 -64.5t67.5 -156.5q0 -30 -2.5 -49t-18.5 -54.5t-48 -72.5l-224 -263h312v-112h-541zM399 0l801 1427h154l-801 -1427h-154zM1018 170l104 39
q20 -51 67.5 -81t110.5 -30q76 0 124.5 41.5t48.5 106.5q0 67 -50 111t-131 44q-94 0 -147 -22l217 266h-272v111h499l-225 -258q24 0 61 -13q72 -27 117 -92t45 -147q0 -115 -81 -188.5t-206 -73.5q-99 0 -175 50.5t-107 135.5z" />
    <glyph glyph-name="arrowleft" unicode="&#x2190;" horiz-adv-x="1363" 
d="M559 57l-477 475l477 476l105 -105l-295 -295h901v-151h-903l297 -295z" />
    <glyph glyph-name="arrowup" unicode="&#x2191;" horiz-adv-x="1404" 
d="M625 0v866l-267 -268l-104 104l448 451l449 -451l-104 -104l-265 268v-866h-157z" />
    <glyph glyph-name="arrowright" unicode="&#x2192;" horiz-adv-x="1363" 
d="M92 457v151h901l-295 295l105 105l477 -476l-477 -475l-105 105l297 295h-903z" />
    <glyph glyph-name="arrowdown" unicode="&#x2193;" horiz-adv-x="1404" 
d="M254 362l104 105l267 -268v833h157v-833l265 268l104 -105l-449 -450z" />
    <glyph glyph-name="arrowboth" unicode="&#x2194;" horiz-adv-x="1912" 
d="M559 57l-477 475l477 476l105 -105l-295 -295h1175l-295 295l105 105l477 -476l-477 -475l-105 105l297 295h-1179l297 -295z" />
    <glyph glyph-name="arrowupdn" unicode="&#x2195;" horiz-adv-x="1404" 
d="M297 254l104 104l224 -225v852l-224 -225l-104 104l405 408l406 -408l-102 -104l-224 225v-852l224 225l102 -104l-406 -408z" />
    <glyph glyph-name="arrownorthwest" unicode="&#x2196;" horiz-adv-x="1404" 
d="M283 279v673h673v-153h-415l628 -627l-106 -106l-623 624v-411h-157z" />
    <glyph glyph-name="arrownortheast" unicode="&#x2197;" horiz-adv-x="1404" 
d="M236 172l628 627h-415v153h673v-673h-159v411l-623 -624z" />
    <glyph glyph-name="arrowsoutheast" unicode="&#x2198;" horiz-adv-x="1404" 
d="M449 96v156h415l-628 627l106 104l623 -623v410h157v-674h-673z" />
    <glyph glyph-name="arrowsouthwest" unicode="&#x2199;" horiz-adv-x="1404" 
d="M283 96v674h157v-410l623 623l106 -104l-628 -627h415v-156h-673z" />
    <glyph glyph-name="partialdiff" unicode="&#x2202;" horiz-adv-x="1118" 
d="M113 426q0 122 55 231.5t157.5 178.5t227.5 69q84 0 162 -37.5t121 -109.5v2q0 69 -7.5 137t-29.5 145.5t-56 135.5t-94 96.5t-137 38.5q-55 0 -98 -16t-62 -32.5t-39 -41.5l-110 98q23 24 41.5 40t58 42.5t93 40.5t116.5 14q129 0 227 -63.5t158 -186.5q86 -176 86 -430
q0 -91 -5.5 -167t-20.5 -164t-46.5 -166.5t-79.5 -139.5q-63 -78 -148.5 -125t-178.5 -47q-94 0 -169.5 37.5t-123 102t-73 145.5t-25.5 172zM268 399q0 -54 14.5 -103t42.5 -89.5t74.5 -65t104.5 -24.5q82 0 150 53t106 139q37 78 37 183q0 118 -68 195t-176 77
q-111 0 -198 -99t-87 -266z" />
    <glyph glyph-name="Delta" unicode="&#x2206;" horiz-adv-x="1355" 
d="M88 0l592 1458l588 -1458h-1180zM309 150h738l-367 946z" />
    <glyph glyph-name="product" unicode="&#x220f;" horiz-adv-x="1421" 
d="M313 0v1284h-211v143h1219v-143h-211v-1284h-156v1284h-485v-1284h-156z" />
    <glyph glyph-name="summation" unicode="&#x2211;" horiz-adv-x="1251" 
d="M90 0l543 758l-516 669h966v-149h-690l416 -539l-430 -589h727v-150h-1016z" />
    <glyph glyph-name="minus" unicode="&#x2212;" horiz-adv-x="866" 
d="M125 639v145h620v-145h-620z" />
    <glyph glyph-name="radical" unicode="&#x221a;" horiz-adv-x="1538" 
d="M156 629l-45 108l313 131l348 -813l504 1583h149l-637 -1974l-446 1043z" />
    <glyph glyph-name="infinity" unicode="&#x221e;" horiz-adv-x="1697" 
d="M467 354q-145 0 -237.5 90t-92.5 226q0 132 99.5 226.5t248.5 94.5q45 0 89 -14t76 -31.5t72 -51t62 -55.5t60 -63q91 99 184 157t205 58q143 0 235.5 -89.5t92.5 -231.5q0 -127 -100.5 -221.5t-248.5 -94.5q-43 0 -85 12.5t-73 29t-70 49t-61.5 54.5t-62.5 64
q-93 -97 -186 -153t-207 -56zM952 666q74 -78 136.5 -122t128.5 -44q77 0 129.5 50t52.5 120q0 79 -50 128.5t-128 49.5q-36 0 -72 -14.5t-73 -45.5t-61.5 -55.5t-62.5 -66.5zM481 500q36 0 72.5 14.5t75.5 45t64 53.5t65 63q-161 172 -273 172q-81 0 -133.5 -51t-52.5 -127
q0 -74 50.5 -122t131.5 -48z" />
    <glyph glyph-name="integral" unicode="&#x222b;" horiz-adv-x="727" 
d="M80 -59q43 -15 86 -15q32 0 55.5 10.5t38.5 34t24.5 51.5t14.5 72t6.5 85t1.5 102q0 90 -13 395t-13 457q0 483 288 483q42 0 78 -8v-131q-23 10 -63 10q-32 0 -56.5 -14t-40 -41t-26.5 -59t-16 -76.5t-7 -85t-2 -91.5q0 -128 14.5 -450t14.5 -418q0 -129 -19 -219.5
t-56.5 -143t-87.5 -75.5t-118 -23q-49 0 -104 19v131z" />
    <glyph glyph-name="approxequal" unicode="&#x2248;" horiz-adv-x="948" 
d="M96 774q11 84 66.5 137.5t140.5 53.5q59 0 118 -20t111 -40t93 -20q86 0 114 84l101 -8q-26 -203 -209 -203q-62 0 -121 20t-110 40t-93 20q-88 0 -108 -72zM109 496q11 84 65.5 137t140.5 53q59 0 118 -20t111 -40t93 -20q87 0 115 84l100 -8q-26 -203 -209 -203
q-62 0 -121 20t-110 40t-93 20q-88 0 -108 -72z" />
    <glyph glyph-name="notequal" unicode="&#x2260;" horiz-adv-x="952" 
d="M172 311l100 174h-147v144h231l115 194h-346v144h432l129 219l102 -60l-94 -159h137v-144h-223l-114 -194h337v-144h-419l-138 -233z" />
    <glyph glyph-name="lessequal" unicode="&#x2264;" horiz-adv-x="927" 
d="M61 731l721 457v-162l-465 -295l465 -293v-164zM82 0v143h700v-143h-700z" />
    <glyph glyph-name="greaterequal" unicode="&#x2265;" horiz-adv-x="927" 
d="M145 274v164l465 293l-465 295v162l721 -457zM145 0v143h703v-143h-703z" />
    <glyph glyph-name="triagup" unicode="&#x25b2;" 
d="M213 270l369 648l389 -648h-758z" />
    <glyph glyph-name="triagrt" unicode="&#x25ba;" 
d="M317 150v759l648 -368z" />
    <glyph glyph-name="triagdn" unicode="&#x25bc;" 
d="M582 145l-369 650h758z" />
    <glyph glyph-name="triaglf" unicode="&#x25c4;" 
d="M219 541l647 368v-759z" />
    <glyph glyph-name="lozenge" unicode="&#x25ca;" horiz-adv-x="1169" 
d="M586 -72l-475 787l475 764l473 -764zM586 205l303 508l-303 499l-305 -499z" />
    <glyph glyph-name="uni25E2" unicode="&#x25e2;" 
d="M195 385l536 537l197 -719z" />
    <glyph glyph-name="uni25E3" unicode="&#x25e3;" 
d="M256 203l197 719l536 -537z" />
    <glyph glyph-name="uni25E4" unicode="&#x25e4;" 
d="M453 139l-197 719l733 -182z" />
    <glyph glyph-name="uni25E5" unicode="&#x25e5;" 
d="M211 662l717 196l-180 -733z" />
    <glyph glyph-name="space.frac" horiz-adv-x="61" 
 />
    <glyph glyph-name="a.alt" 
d="M123 279q0 157 107 237.5t323 95.5q160 11 217 38.5t57 113.5q0 63 -53.5 109.5t-165.5 46.5q-166 0 -278 -146l-107 88q138 201 385 201q169 0 271 -87t102 -235v-548q0 -28 6.5 -45t21 -24t26 -9t32.5 -2h18v-111q-35 -22 -104 -22q-39 0 -68 17.5t-43 37.5
q-16 27 -22 65q-111 -131 -352 -131q-166 0 -269.5 85t-103.5 225zM276 283q0 -79 63.5 -124.5t174.5 -45.5q150 0 231.5 64t81.5 173v182q-26 -28 -85 -40.5t-183 -22.5q-140 -12 -211.5 -52t-71.5 -134z" />
    <glyph glyph-name="l.alt" horiz-adv-x="612" 
d="M158 262v1165h155v-1155q0 -159 127 -159h74v-144h-84q-38 0 -69.5 4.5t-71.5 22t-66.5 47.5t-45.5 86t-19 133z" />
    <glyph glyph-name="agrave.alt" 
d="M532 1130l-190 297h205l108 -297h-123zM123 279q0 157 107 237.5t323 95.5q160 11 217 38.5t57 113.5q0 63 -53.5 109.5t-165.5 46.5q-166 0 -278 -146l-107 88q138 201 385 201q169 0 271 -87t102 -235v-548q0 -28 6.5 -45t21 -24t26 -9t32.5 -2h18v-111
q-35 -22 -104 -22q-39 0 -68 17.5t-43 37.5q-16 27 -22 65q-111 -131 -352 -131q-166 0 -269.5 85t-103.5 225zM276 283q0 -79 63.5 -124.5t174.5 -45.5q150 0 231.5 64t81.5 173v182q-26 -28 -85 -40.5t-183 -22.5q-140 -12 -211.5 -52t-71.5 -134z" />
    <glyph glyph-name="aacute.alt" 
d="M506 1130l108 297h205l-190 -297h-123zM123 279q0 157 107 237.5t323 95.5q160 11 217 38.5t57 113.5q0 63 -53.5 109.5t-165.5 46.5q-166 0 -278 -146l-107 88q138 201 385 201q169 0 271 -87t102 -235v-548q0 -28 6.5 -45t21 -24t26 -9t32.5 -2h18v-111
q-35 -22 -104 -22q-39 0 -68 17.5t-43 37.5q-16 27 -22 65q-111 -131 -352 -131q-166 0 -269.5 85t-103.5 225zM276 283q0 -79 63.5 -124.5t174.5 -45.5q150 0 231.5 64t81.5 173v182q-26 -28 -85 -40.5t-183 -22.5q-140 -12 -211.5 -52t-71.5 -134z" />
    <glyph glyph-name="acircumflex.alt" 
d="M248 1180l338 299l336 -299h-185l-151 151l-154 -151h-184zM123 279q0 157 107 237.5t323 95.5q160 11 217 38.5t57 113.5q0 63 -53.5 109.5t-165.5 46.5q-166 0 -278 -146l-107 88q138 201 385 201q169 0 271 -87t102 -235v-548q0 -28 6.5 -45t21 -24t26 -9t32.5 -2h18
v-111q-35 -22 -104 -22q-39 0 -68 17.5t-43 37.5q-16 27 -22 65q-111 -131 -352 -131q-166 0 -269.5 85t-103.5 225zM276 283q0 -79 63.5 -124.5t174.5 -45.5q150 0 231.5 64t81.5 173v182q-26 -28 -85 -40.5t-183 -22.5q-140 -12 -211.5 -52t-71.5 -134z" />
    <glyph glyph-name="atilde.alt" 
d="M276 1225q9 82 59 135t126 53q45 0 89 -20t82.5 -40t69.5 -20q75 0 95 84l102 -8q-23 -203 -190 -203q-46 0 -90 20.5t-82.5 41t-71.5 20.5q-71 0 -88 -71zM123 279q0 157 107 237.5t323 95.5q160 11 217 38.5t57 113.5q0 63 -53.5 109.5t-165.5 46.5q-166 0 -278 -146
l-107 88q138 201 385 201q169 0 271 -87t102 -235v-548q0 -28 6.5 -45t21 -24t26 -9t32.5 -2h18v-111q-35 -22 -104 -22q-39 0 -68 17.5t-43 37.5q-16 27 -22 65q-111 -131 -352 -131q-166 0 -269.5 85t-103.5 225zM276 283q0 -79 63.5 -124.5t174.5 -45.5q150 0 231.5 64
t81.5 173v182q-26 -28 -85 -40.5t-183 -22.5q-140 -12 -211.5 -52t-71.5 -134z" />
    <glyph glyph-name="adieresis.alt" 
d="M809 1198q-42 0 -73 30.5t-31 74.5q0 43 31 72.5t73 29.5q41 0 71.5 -29.5t30.5 -72.5t-30.5 -74t-71.5 -31zM387 1198q-42 0 -73 30.5t-31 74.5q0 43 31 72.5t73 29.5q41 0 71.5 -29.5t30.5 -72.5t-30.5 -74t-71.5 -31zM123 279q0 157 107 237.5t323 95.5
q160 11 217 38.5t57 113.5q0 63 -53.5 109.5t-165.5 46.5q-166 0 -278 -146l-107 88q138 201 385 201q169 0 271 -87t102 -235v-548q0 -28 6.5 -45t21 -24t26 -9t32.5 -2h18v-111q-35 -22 -104 -22q-39 0 -68 17.5t-43 37.5q-16 27 -22 65q-111 -131 -352 -131
q-166 0 -269.5 85t-103.5 225zM276 283q0 -79 63.5 -124.5t174.5 -45.5q150 0 231.5 64t81.5 173v182q-26 -28 -85 -40.5t-183 -22.5q-140 -12 -211.5 -52t-71.5 -134z" />
    <glyph glyph-name="amacron.alt" 
d="M293 1229v143h604v-143h-604zM123 279q0 157 107 237.5t323 95.5q160 11 217 38.5t57 113.5q0 63 -53.5 109.5t-165.5 46.5q-166 0 -278 -146l-107 88q138 201 385 201q169 0 271 -87t102 -235v-548q0 -28 6.5 -45t21 -24t26 -9t32.5 -2h18v-111q-35 -22 -104 -22
q-39 0 -68 17.5t-43 37.5q-16 27 -22 65q-111 -131 -352 -131q-166 0 -269.5 85t-103.5 225zM276 283q0 -79 63.5 -124.5t174.5 -45.5q150 0 231.5 64t81.5 173v182q-26 -28 -85 -40.5t-183 -22.5q-140 -12 -211.5 -52t-71.5 -134z" />
    <glyph glyph-name="abreve.alt" 
d="M586 1143q-124 0 -214.5 78t-107.5 206h144q48 -149 178 -149q128 0 176 149h143q-17 -128 -107 -206t-212 -78zM123 279q0 157 107 237.5t323 95.5q160 11 217 38.5t57 113.5q0 63 -53.5 109.5t-165.5 46.5q-166 0 -278 -146l-107 88q138 201 385 201q169 0 271 -87
t102 -235v-548q0 -28 6.5 -45t21 -24t26 -9t32.5 -2h18v-111q-35 -22 -104 -22q-39 0 -68 17.5t-43 37.5q-16 27 -22 65q-111 -131 -352 -131q-166 0 -269.5 85t-103.5 225zM276 283q0 -79 63.5 -124.5t174.5 -45.5q150 0 231.5 64t81.5 173v182q-26 -28 -85 -40.5
t-183 -22.5q-140 -12 -211.5 -52t-71.5 -134z" />
    <glyph glyph-name="aring.alt" 
d="M590 1139q-85 0 -144 58.5t-59 141.5q0 82 59.5 140.5t143.5 58.5q82 0 140 -58.5t58 -140.5q0 -83 -57.5 -141.5t-140.5 -58.5zM590 1243q38 0 66 29t28 67t-28 66.5t-66 28.5t-67 -28.5t-29 -66.5t29 -67t67 -29zM123 279q0 157 107 237.5t323 95.5q160 11 217 38.5
t57 113.5q0 63 -53.5 109.5t-165.5 46.5q-166 0 -278 -146l-107 88q138 201 385 201q169 0 271 -87t102 -235v-548q0 -28 6.5 -45t21 -24t26 -9t32.5 -2h18v-111q-35 -22 -104 -22q-39 0 -68 17.5t-43 37.5q-16 27 -22 65q-111 -131 -352 -131q-166 0 -269.5 85t-103.5 225z
M276 283q0 -79 63.5 -124.5t174.5 -45.5q150 0 231.5 64t81.5 173v182q-26 -28 -85 -40.5t-183 -22.5q-140 -12 -211.5 -52t-71.5 -134z" />
    <glyph glyph-name="aringacute.alt" 
d="M524 1614l109 297h205l-191 -297h-123zM592 1139q-85 0 -144 58.5t-59 141.5q0 82 59.5 140.5t143.5 58.5q82 0 140.5 -58.5t58.5 -140.5q0 -83 -58 -141.5t-141 -58.5zM592 1243q38 0 66 29t28 67t-28 66.5t-66 28.5t-67 -28.5t-29 -66.5t29 -67t67 -29zM123 279
q0 157 107 237.5t323 95.5q160 11 217 38.5t57 113.5q0 63 -53.5 109.5t-165.5 46.5q-166 0 -278 -146l-107 88q138 201 385 201q169 0 271 -87t102 -235v-548q0 -28 6.5 -45t21 -24t26 -9t32.5 -2h18v-111q-35 -22 -104 -22q-39 0 -68 17.5t-43 37.5q-16 27 -22 65
q-111 -131 -352 -131q-166 0 -269.5 85t-103.5 225zM276 283q0 -79 63.5 -124.5t174.5 -45.5q150 0 231.5 64t81.5 173v182q-26 -28 -85 -40.5t-183 -22.5q-140 -12 -211.5 -52t-71.5 -134z" />
    <glyph glyph-name="aogonek.alt" 
d="M123 279q0 157 107 237.5t323 95.5q160 11 217 38.5t57 113.5q0 63 -53.5 109.5t-165.5 46.5q-166 0 -278 -146l-107 88q138 201 385 201q169 0 271 -87t102 -235v-548q0 -28 6.5 -45t21 -24t26 -9t32.5 -2h18v-111q-159 -102 -159 -197q0 -45 29.5 -68.5t72.5 -23.5
q62 0 119 31l-27 -121q-60 -29 -116 -29q-83 0 -146 50.5t-63 132.5q0 118 139 207q-39 12 -62 49q-18 26 -24 67q-111 -131 -352 -131q-166 0 -269.5 85t-103.5 225zM276 283q0 -79 63.5 -124.5t174.5 -45.5q150 0 231.5 64t81.5 173v182q-26 -28 -85 -40.5t-183 -22.5
q-140 -12 -211.5 -52t-71.5 -134z" />
    <glyph glyph-name="lacute.alt" horiz-adv-x="612" 
d="M160 1479l108 297h205l-190 -297h-123zM158 262v1165h155v-1155q0 -86 28.5 -122.5t98.5 -36.5q43 0 74 8v-144q-33 -8 -74 -8q-40 0 -72.5 4.5t-74 22t-69 47.5t-47 86t-19.5 133z" />
    <glyph glyph-name="lcaron.alt" horiz-adv-x="724" 
d="M158 262v1165h155v-1155q0 -86 28.5 -122.5t98.5 -36.5q43 0 74 8v-144q-33 -8 -74 -8q-40 0 -72.5 4.5t-74 22t-69 47.5t-47 86t-19.5 133zM391 1130l109 297h205l-191 -297h-123z" />
    <glyph glyph-name="lcommaaccent.alt" horiz-adv-x="612" 
d="M156 262v1165h155v-1155q0 -86 28.5 -122.5t98.5 -36.5q43 0 74 8v-144q-33 -8 -74 -8q-40 0 -72.5 4.5t-74 22t-69 47.5t-47 86t-19.5 133zM45 -395l109 297h204l-190 -297h-123z" />
    <glyph glyph-name="ldot.alt" horiz-adv-x="724" 
d="M158 262v1165h155v-1155q0 -86 28.5 -122.5t98.5 -36.5q43 0 74 8v-144q-33 -8 -74 -8q-40 0 -72.5 4.5t-74 22t-69 47.5t-47 86t-19.5 133zM524 651q-42 0 -73 30t-31 73t31 72.5t73 29.5q41 0 72 -29.5t31 -72.5t-31 -73t-72 -30z" />
    <glyph glyph-name="lslash.alt" horiz-adv-x="641" 
d="M186 262v371l-139 -82v160l139 82v634h156v-542l174 104v-160l-174 -104v-453q0 -86 29 -122.5t100 -36.5q43 0 74 8v-144q-33 -8 -76 -8q-40 0 -72.5 4.5t-74 22t-69.5 47.5t-47.5 86t-19.5 133z" />
    <glyph glyph-name="C.alt" horiz-adv-x="1515" 
d="M135 713q0 157 58.5 295.5t158.5 236t237 153.5t290 56q132 0 248 -39.5t200 -111.5v-187q-87 90 -202 139.5t-246 49.5q-165 0 -297.5 -77t-207.5 -212.5t-75 -302.5t75 -302.5t207.5 -212.5t297.5 -77q132 0 247 49t201 139v-186q-85 -72 -201 -112t-247 -40
q-204 0 -374.5 95.5t-270 266t-99.5 380.5z" />
    <glyph glyph-name="G.alt" horiz-adv-x="1595" 
d="M135 713q0 157 58.5 295.5t158.5 236t237 153.5t290 56q250 0 428 -135v-182q-179 168 -428 168q-165 0 -297.5 -77t-207.5 -212.5t-75 -302.5t75 -302.5t207.5 -212.5t297.5 -77q230 0 391 145v363h-436v151h598v-571q-102 -113 -245.5 -175.5t-307.5 -62.5
q-204 0 -374.5 95.5t-270 266t-99.5 380.5z" />
    <glyph glyph-name="K.alt" horiz-adv-x="1337" 
d="M227 0v1427h162v-659l629 659h205l-664 -690l684 -737h-211l-643 692v-692h-162z" />
    <glyph glyph-name="M.alt" horiz-adv-x="1796" 
d="M94 0l234 1489l571 -1200l569 1200l234 -1489h-164l-143 958l-496 -1007l-496 1007l-145 -958h-164z" />
    <glyph glyph-name="Q.alt" horiz-adv-x="1759" 
d="M135 713q0 157 58.5 295.5t158.5 236t237 153.5t290 56t290 -56t237 -153.5t159 -236t59 -295.5q0 -160 -58 -297.5t-163 -237.5l147 -178h-192l-72 88q-185 -117 -407 -117q-204 0 -374.5 95.5t-270 266t-99.5 380.5zM297 713q0 -167 75.5 -302.5t208.5 -212.5t298 -77
q170 0 309 84l-342 409h192l265 -317q157 170 157 416q0 254 -165 423t-416 169q-165 0 -298 -77t-208.5 -212.5t-75.5 -302.5z" />
    <glyph glyph-name="S.alt" 
d="M133 141v199q88 -105 201 -162t235 -57q76 0 137 21t97 54.5t55 72t19 77.5q0 43 -7.5 77t-28 64t-41.5 52t-64 49.5t-78 47t-99 52.5q-51 27 -85 45.5t-76.5 45.5t-69.5 50t-55 54t-44 63t-26 72.5t-10 85.5q0 156 116.5 253t313.5 97q175 0 290 -98v-182
q-134 131 -292 131q-124 0 -195.5 -55t-71.5 -146q0 -38 14 -70.5t34 -56.5t61 -52t74.5 -47t95.5 -51q80 -41 134 -73t110 -76.5t88.5 -90t53.5 -107t21 -134.5q0 -72 -32 -139t-89 -119.5t-145 -84.5t-192 -32q-271 0 -449 170z" />
    <glyph glyph-name="W.alt" horiz-adv-x="2017" 
d="M694 -51l-600 1478h170l430 -1069l226 555l-211 514h170l131 -333l133 333h170l-211 -514l225 -555l428 1069h172l-600 -1478l-317 786z" />
    <glyph glyph-name="Cacute.alt" horiz-adv-x="1515" 
d="M809 1526l109 297h204l-190 -297h-123zM135 713q0 157 58.5 295.5t158.5 236t237 153.5t290 56q132 0 248 -39.5t200 -111.5v-187q-87 90 -202 139.5t-246 49.5q-165 0 -297.5 -77t-207.5 -212.5t-75 -302.5t75 -302.5t207.5 -212.5t297.5 -77q132 0 247 49t201 139v-186
q-85 -72 -201 -112t-247 -40q-204 0 -374.5 95.5t-270 266t-99.5 380.5z" />
    <glyph glyph-name="Ccircumflex.alt" horiz-adv-x="1515" 
d="M547 1575l336 299l338 -299h-185l-153 151l-152 -151h-184zM135 713q0 157 58.5 295.5t158.5 236t237 153.5t290 56q132 0 248 -39.5t200 -111.5v-187q-87 90 -202 139.5t-246 49.5q-165 0 -297.5 -77t-207.5 -212.5t-75 -302.5t75 -302.5t207.5 -212.5t297.5 -77
q132 0 247 49t201 139v-186q-85 -72 -201 -112t-247 -40q-204 0 -374.5 95.5t-270 266t-99.5 380.5z" />
    <glyph glyph-name="Ccaron.alt" horiz-adv-x="1515" 
d="M881 1524l-336 299h184l152 -154l153 154h185zM135 713q0 157 58.5 295.5t158.5 236t237 153.5t290 56q132 0 248 -39.5t200 -111.5v-187q-87 90 -202 139.5t-246 49.5q-165 0 -297.5 -77t-207.5 -212.5t-75 -302.5t75 -302.5t207.5 -212.5t297.5 -77q132 0 247 49
t201 139v-186q-85 -72 -201 -112t-247 -40q-204 0 -374.5 95.5t-270 266t-99.5 380.5z" />
    <glyph glyph-name="Cdotaccent.alt" horiz-adv-x="1515" 
d="M868 1563q-41 0 -71.5 29.5t-30.5 72.5t30.5 72.5t71.5 29.5q42 0 73.5 -29.5t31.5 -72.5t-31.5 -72.5t-73.5 -29.5zM135 713q0 157 58.5 295.5t158.5 236t237 153.5t290 56q132 0 248 -39.5t200 -111.5v-187q-87 90 -202 139.5t-246 49.5q-165 0 -297.5 -77
t-207.5 -212.5t-75 -302.5t75 -302.5t207.5 -212.5t297.5 -77q132 0 247 49t201 139v-186q-85 -72 -201 -112t-247 -40q-204 0 -374.5 95.5t-270 266t-99.5 380.5z" />
    <glyph glyph-name="Ccedilla.alt" horiz-adv-x="1515" 
d="M569 -358l39 79q55 -34 111 -34q39 0 63.5 20t24.5 53q0 50 -34.5 67t-110.5 17h-3l60 144q-256 53 -420 252t-164 473q0 157 58.5 295.5t158.5 236t237 153.5t290 56q132 0 248 -39.5t200 -111.5v-187q-87 90 -202 139.5t-246 49.5q-165 0 -297.5 -77t-207.5 -212.5
t-75 -302.5t75 -302.5t207.5 -212.5t297.5 -77q132 0 247 49t201 139v-186q-85 -72 -201 -112t-247 -40q-34 0 -52 2l-30 -67h2q56 -2 94.5 -42t38.5 -104q0 -166 -211 -166q-42 0 -85 14.5t-67 33.5z" />
    <glyph glyph-name="Gcircumflex.alt" horiz-adv-x="1595" 
d="M549 1575l336 299l338 -299h-185l-153 151l-152 -151h-184zM135 713q0 157 58.5 295.5t158.5 236t237 153.5t290 56q250 0 428 -135v-182q-179 168 -428 168q-165 0 -297.5 -77t-207.5 -212.5t-75 -302.5t75 -302.5t207.5 -212.5t297.5 -77q230 0 391 145v363h-436v151
h598v-571q-102 -113 -245.5 -175.5t-307.5 -62.5q-204 0 -374.5 95.5t-270 266t-99.5 380.5z" />
    <glyph glyph-name="Gbreve.alt" horiz-adv-x="1595" 
d="M872 1538q-122 0 -212 78.5t-107 206.5h143q48 -150 176 -150q131 0 179 150h143q-17 -128 -107.5 -206.5t-214.5 -78.5zM135 713q0 157 58.5 295.5t158.5 236t237 153.5t290 56q250 0 428 -135v-182q-179 168 -428 168q-165 0 -297.5 -77t-207.5 -212.5t-75 -302.5
t75 -302.5t207.5 -212.5t297.5 -77q230 0 391 145v363h-436v151h598v-571q-102 -113 -245.5 -175.5t-307.5 -62.5q-204 0 -374.5 95.5t-270 266t-99.5 380.5z" />
    <glyph glyph-name="Gdotaccent.alt" horiz-adv-x="1595" 
d="M881 1563q-41 0 -72 29.5t-31 72.5t31 72.5t72 29.5q42 0 73 -29.5t31 -72.5t-31 -72.5t-73 -29.5zM135 713q0 157 58.5 295.5t158.5 236t237 153.5t290 56q250 0 428 -135v-182q-179 168 -428 168q-165 0 -297.5 -77t-207.5 -212.5t-75 -302.5t75 -302.5t207.5 -212.5
t297.5 -77q230 0 391 145v363h-436v151h598v-571q-102 -113 -245.5 -175.5t-307.5 -62.5q-204 0 -374.5 95.5t-270 266t-99.5 380.5z" />
    <glyph glyph-name="Gcommaaccent.alt" horiz-adv-x="1595" 
d="M135 713q0 157 58.5 295.5t158.5 236t237 153.5t290 56q250 0 428 -135v-182q-179 168 -428 168q-165 0 -297.5 -77t-207.5 -212.5t-75 -302.5t75 -302.5t207.5 -212.5t297.5 -77q230 0 391 145v363h-436v151h598v-571q-102 -113 -245.5 -175.5t-307.5 -62.5
q-204 0 -374.5 95.5t-270 266t-99.5 380.5zM672 -395l108 297h205l-190 -297h-123z" />
    <glyph glyph-name="Kcommaaccent.alt" horiz-adv-x="1306" 
d="M227 0v1427h162v-659l629 659h205l-664 -690l684 -737h-211l-643 692v-692h-162zM489 -395l109 297h205l-191 -297h-123z" />
    <glyph glyph-name="Sacute.alt" 
d="M528 1526l109 297h205l-191 -297h-123zM133 141v199q88 -105 201 -162t235 -57q76 0 137 21t97 54.5t55 72t19 77.5q0 43 -7.5 77t-28 64t-41.5 52t-64 49.5t-78 47t-99 52.5q-51 27 -85 45.5t-76.5 45.5t-69.5 50t-55 54t-44 63t-26 72.5t-10 85.5q0 156 116.5 253
t313.5 97q175 0 290 -98v-182q-134 131 -292 131q-124 0 -195.5 -55t-71.5 -146q0 -38 14 -70.5t34 -56.5t61 -52t74.5 -47t95.5 -51q80 -41 134 -73t110 -76.5t88.5 -90t53.5 -107t21 -134.5q0 -72 -32 -139t-89 -119.5t-145 -84.5t-192 -32q-271 0 -449 170z" />
    <glyph glyph-name="Scircumflex.alt" 
d="M274 1575l338 299l336 -299h-184l-152 151l-153 -151h-185zM133 141v199q88 -105 201 -162t235 -57q76 0 137 21t97 54.5t55 72t19 77.5q0 43 -7.5 77t-28 64t-41.5 52t-64 49.5t-78 47t-99 52.5q-51 27 -85 45.5t-76.5 45.5t-69.5 50t-55 54t-44 63t-26 72.5t-10 85.5
q0 156 116.5 253t313.5 97q175 0 290 -98v-182q-134 131 -292 131q-124 0 -195.5 -55t-71.5 -146q0 -38 14 -70.5t34 -56.5t61 -52t74.5 -47t95.5 -51q80 -41 134 -73t110 -76.5t88.5 -90t53.5 -107t21 -134.5q0 -72 -32 -139t-89 -119.5t-145 -84.5t-192 -32
q-271 0 -449 170z" />
    <glyph glyph-name="Scaron.alt" 
d="M631 1524l-338 299h184l154 -154l151 154h185zM133 141v199q88 -105 201 -162t235 -57q76 0 137 21t97 54.5t55 72t19 77.5q0 43 -7.5 77t-28 64t-41.5 52t-64 49.5t-78 47t-99 52.5q-51 27 -85 45.5t-76.5 45.5t-69.5 50t-55 54t-44 63t-26 72.5t-10 85.5
q0 156 116.5 253t313.5 97q175 0 290 -98v-182q-134 131 -292 131q-124 0 -195.5 -55t-71.5 -146q0 -38 14 -70.5t34 -56.5t61 -52t74.5 -47t95.5 -51q80 -41 134 -73t110 -76.5t88.5 -90t53.5 -107t21 -134.5q0 -72 -32 -139t-89 -119.5t-145 -84.5t-192 -32
q-271 0 -449 170z" />
    <glyph glyph-name="Scommaaccent.alt" 
d="M133 141v199q88 -105 201 -162t235 -57q76 0 137 21t97 54.5t55 72t19 77.5q0 43 -7.5 77t-28 64t-41.5 52t-64 49.5t-78 47t-99 52.5q-51 27 -85 45.5t-76.5 45.5t-69.5 50t-55 54t-44 63t-26 72.5t-10 85.5q0 156 116.5 253t313.5 97q175 0 290 -98v-182
q-134 131 -292 131q-124 0 -195.5 -55t-71.5 -146q0 -38 14 -70.5t34 -56.5t61 -52t74.5 -47t95.5 -51q80 -41 134 -73t110 -76.5t88.5 -90t53.5 -107t21 -134.5q0 -72 -32 -139t-89 -119.5t-145 -84.5t-192 -32q-271 0 -449 170zM389 -395l109 297h204l-190 -297h-123z" />
    <glyph glyph-name="Scedilla.alt" 
d="M369 -362l41 79q52 -34 108 -34q39 0 64.5 20t25.5 53q0 49 -35.5 66.5t-109.5 17.5h-2l55 135q-231 17 -383 166v199q88 -105 201 -162t235 -57q76 0 137 21t97 54.5t55 72t19 77.5q0 43 -7.5 77t-28 64t-41.5 52t-64 49.5t-78 47t-99 52.5q-51 27 -85 45.5t-76.5 45.5
t-69.5 50t-55 54t-44 63t-26 72.5t-10 85.5q0 156 116.5 253t313.5 97q175 0 290 -98v-182q-134 131 -292 131q-124 0 -195.5 -55t-71.5 -146q0 -38 14 -70.5t34 -56.5t61 -52t74.5 -47t95.5 -51q80 -41 134 -73t110 -76.5t88.5 -90t53.5 -107t21 -134.5q0 -141 -111.5 -250
t-297.5 -123l-35 -71h2q57 0 96 -40t39 -106q0 -166 -211 -166q-42 0 -85.5 14.5t-67.5 33.5z" />
    <glyph glyph-name="Wgrave.alt" horiz-adv-x="2017" 
d="M952 1526l-190 297h205l108 -297h-123zM694 -51l-600 1478h170l430 -1069l226 555l-211 514h170l131 -333l133 333h170l-211 -514l225 -555l428 1069h172l-600 -1478l-317 786z" />
    <glyph glyph-name="Wacute.alt" horiz-adv-x="2017" 
d="M944 1526l109 297h204l-190 -297h-123zM694 -51l-600 1478h170l430 -1069l226 555l-211 514h170l131 -333l133 333h170l-211 -514l225 -555l428 1069h172l-600 -1478l-317 786z" />
    <glyph glyph-name="Wcircumflex.alt" horiz-adv-x="2017" 
d="M672 1575l338 299l336 -299h-183l-153 151l-154 -151h-184zM694 -51l-600 1478h170l430 -1069l226 555l-211 514h170l131 -333l133 333h170l-211 -514l225 -555l428 1069h172l-600 -1478l-317 786z" />
    <glyph glyph-name="Wdieresis.alt" horiz-adv-x="2017" 
d="M1235 1524q-41 0 -73 29.5t-32 72.5t32 74t73 31t71.5 -30.5t30.5 -74.5q0 -43 -30.5 -72.5t-71.5 -29.5zM778 1524q-41 0 -71.5 29.5t-30.5 72.5q0 44 31 74.5t71 30.5q41 0 72 -31t31 -74t-31 -72.5t-72 -29.5zM694 -51l-600 1478h170l430 -1069l226 555l-211 514h170
l131 -333l133 333h170l-211 -514l225 -555l428 1069h172l-600 -1478l-317 786z" />
    <glyph glyph-name="c.alt" horiz-adv-x="1118" 
d="M111 516q0 154 73.5 280t199 196.5t275.5 70.5q102 0 193 -31.5t154 -85.5v-176q-147 150 -344 150q-171 0 -283.5 -115.5t-112.5 -288.5q0 -172 112.5 -287.5t283.5 -115.5q201 0 344 149v-176q-62 -55 -153 -86t-194 -31q-150 0 -275.5 70.5t-199 196.5t-73.5 280z" />
    <glyph glyph-name="e.alt" horiz-adv-x="1214" 
d="M111 502v10q0 246 146 396.5t372 150.5q140 0 249.5 -68.5t167.5 -184.5t58 -257q0 -35 -2 -66h-836q6 -171 105 -272.5t264 -101.5q139 0 234.5 44t144.5 103v-174q-77 -59 -164.5 -88t-214.5 -29q-236 0 -380 146.5t-144 390.5zM276 616h664q0 123 -91 211t-220 88
q-141 0 -243 -87t-110 -212z" />
    <glyph glyph-name="g.alt" horiz-adv-x="1308" 
d="M111 524q0 114 41 215t111.5 171.5t166.5 111.5t203 41q139 0 230 -53t136 -131v153h154v-860q0 -79 -2 -129t-11.5 -112t-27 -105.5t-49.5 -88t-78 -79.5q-140 -109 -358 -109q-129 0 -246.5 31.5t-192.5 95.5v174q67 -81 185 -119t252 -38q170 0 264 76q66 53 88 132.5
t22 184.5v86q-45 -78 -136 -131t-230 -53q-143 0 -262.5 68.5t-189.5 192t-70 275.5zM266 524q0 -169 105 -281t264 -112q164 0 273.5 112t109.5 281t-109.5 282.5t-273.5 113.5q-159 0 -264 -113.5t-105 -282.5z" />
    <glyph glyph-name="j.alt" horiz-adv-x="464" 
d="M233 1198q-41 0 -72.5 31t-31.5 74t31.5 73.5t72.5 30.5t73 -30.5t32 -73.5t-32 -74t-73 -31zM156 -395v1427h155v-1427h-155z" />
    <glyph glyph-name="k.alt" horiz-adv-x="999" 
d="M156 0v1427h155v-847l410 452h180l-438 -485l485 -547h-192l-445 502v-502h-155z" />
    <glyph glyph-name="r.alt" horiz-adv-x="784" 
d="M156 0v743q0 320 358 320q74 0 137 -14v-146q-61 17 -139 17q-37 0 -61.5 -3t-53.5 -14.5t-46 -32.5t-28.5 -59t-11.5 -92v-719h-155z" />
    <glyph glyph-name="s.alt" horiz-adv-x="899" 
d="M98 100v179q138 -160 357 -160q99 0 153 40t54 101q0 40 -11.5 69.5t-50 58.5t-62 42.5t-95.5 49.5q-11 6 -17 9q-58 29 -93.5 48.5t-75 48.5t-61 57.5t-35.5 67.5t-14 86q0 120 87.5 193t234.5 73t238 -66v-157q-104 80 -224 80q-182 0 -182 -125q0 -49 29.5 -78
t97.5 -66q28 -15 82 -42.5t82 -43t70 -42t64.5 -50t46.5 -56t34 -72t10 -85.5q0 -32 -10 -67.5t-36.5 -75t-66 -70.5t-104.5 -51.5t-145 -20.5q-223 0 -357 125z" />
    <glyph glyph-name="t.alt" horiz-adv-x="710" 
d="M231 0v889h-131v143h131v395h156v-395h227v-143h-227v-889h-156z" />
    <glyph glyph-name="u.alt" horiz-adv-x="1128" 
d="M143 373v659h156v-626q0 -129 67.5 -204t186.5 -75q122 0 200 80.5t78 208.5v616h156v-1032h-156v174q-40 -87 -122 -138.5t-195 -51.5q-170 0 -270.5 107t-100.5 282z" />
    <glyph glyph-name="w.alt" horiz-adv-x="1607" 
d="M547 -72l-477 1104h153l324 -753l172 352l-191 401h158l119 -258l121 258h157l-188 -401l170 -352l326 753h151l-477 -1104l-260 555z" />
    <glyph glyph-name="y.alt" horiz-adv-x="1144" 
d="M481 -6l-411 1038h157l336 -852l355 852h159l-606 -1427h-156z" />
    <glyph glyph-name="cacute.alt" horiz-adv-x="1118" 
d="M596 1130l109 297h204l-190 -297h-123zM111 516q0 154 73.5 280t199 196.5t275.5 70.5q102 0 193 -31.5t154 -85.5v-176q-147 150 -344 150q-171 0 -283.5 -115.5t-112.5 -288.5q0 -172 112.5 -287.5t283.5 -115.5q201 0 344 149v-176q-62 -55 -153 -86t-194 -31
q-150 0 -275.5 70.5t-199 196.5t-73.5 280z" />
    <glyph glyph-name="ccircumflex.alt" horiz-adv-x="1118" 
d="M330 1180l336 299l338 -299h-185l-153 151l-152 -151h-184zM111 516q0 154 73.5 280t199 196.5t275.5 70.5q102 0 193 -31.5t154 -85.5v-176q-147 150 -344 150q-171 0 -283.5 -115.5t-112.5 -288.5q0 -172 112.5 -287.5t283.5 -115.5q201 0 344 149v-176
q-62 -55 -153 -86t-194 -31q-150 0 -275.5 70.5t-199 196.5t-73.5 280z" />
    <glyph glyph-name="ccaron.alt" horiz-adv-x="1118" 
d="M655 1128l-338 299h185l153 -153l152 153h184zM111 516q0 154 73.5 280t199 196.5t275.5 70.5q102 0 193 -31.5t154 -85.5v-176q-147 150 -344 150q-171 0 -283.5 -115.5t-112.5 -288.5q0 -172 112.5 -287.5t283.5 -115.5q201 0 344 149v-176q-62 -55 -153 -86t-194 -31
q-150 0 -275.5 70.5t-199 196.5t-73.5 280z" />
    <glyph glyph-name="cdotaccent.alt" horiz-adv-x="1118" 
d="M655 1198q-42 0 -73 30.5t-31 74.5q0 43 31 72.5t73 29.5q41 0 72 -29.5t31 -72.5t-31 -74t-72 -31zM111 516q0 154 73.5 280t199 196.5t275.5 70.5q102 0 193 -31.5t154 -85.5v-176q-147 150 -344 150q-171 0 -283.5 -115.5t-112.5 -288.5q0 -172 112.5 -287.5
t283.5 -115.5q201 0 344 149v-176q-62 -55 -153 -86t-194 -31q-150 0 -275.5 70.5t-199 196.5t-73.5 280z" />
    <glyph glyph-name="ccedilla.alt" horiz-adv-x="1118" 
d="M385 -358l39 79q55 -34 111 -34q39 0 64.5 20t25.5 53q0 49 -36 66.5t-112 17.5h-2l57 140q-184 40 -302.5 186.5t-118.5 345.5q0 154 73.5 280t199 196.5t275.5 70.5q102 0 193 -31.5t154 -85.5v-176q-147 150 -344 150q-171 0 -283.5 -115.5t-112.5 -288.5
q0 -172 112.5 -287.5t283.5 -115.5q201 0 344 149v-176q-62 -55 -152.5 -86t-191.5 -31h-19l-31 -63h2q57 0 96.5 -40t39.5 -106q0 -166 -213 -166q-42 0 -85 14.5t-67 33.5z" />
    <glyph glyph-name="egrave.alt" horiz-adv-x="1214" 
d="M588 1130l-191 297h205l109 -297h-123zM111 502v10q0 246 146 396.5t372 150.5q140 0 249.5 -68.5t167.5 -184.5t58 -257q0 -35 -2 -66h-836q6 -171 105 -272.5t264 -101.5q139 0 234.5 44t144.5 103v-174q-77 -59 -164.5 -88t-214.5 -29q-236 0 -380 146.5t-144 390.5z
M276 616h664q0 123 -91 211t-220 88q-141 0 -243 -87t-110 -212z" />
    <glyph glyph-name="eacute.alt" horiz-adv-x="1214" 
d="M557 1130l109 297h204l-190 -297h-123zM111 502v10q0 246 146 396.5t372 150.5q140 0 249.5 -68.5t167.5 -184.5t58 -257q0 -35 -2 -66h-836q6 -171 105 -272.5t264 -101.5q139 0 234.5 44t144.5 103v-174q-77 -59 -164.5 -88t-214.5 -29q-236 0 -380 146.5t-144 390.5z
M276 616h664q0 123 -91 211t-220 88q-141 0 -243 -87t-110 -212z" />
    <glyph glyph-name="ecircumflex.alt" horiz-adv-x="1214" 
d="M289 1180l338 299l336 -299h-185l-151 151l-154 -151h-184zM111 502v10q0 246 146 396.5t372 150.5q140 0 249.5 -68.5t167.5 -184.5t58 -257q0 -35 -2 -66h-836q6 -171 105 -272.5t264 -101.5q139 0 234.5 44t144.5 103v-174q-77 -59 -164.5 -88t-214.5 -29
q-236 0 -380 146.5t-144 390.5zM276 616h664q0 123 -91 211t-220 88q-141 0 -243 -87t-110 -212z" />
    <glyph glyph-name="ecaron.alt" horiz-adv-x="1214" 
d="M631 1128l-338 299h184l154 -153l151 153h185zM111 502v10q0 246 146 396.5t372 150.5q140 0 249.5 -68.5t167.5 -184.5t58 -257q0 -35 -2 -66h-836q6 -171 105 -272.5t264 -101.5q139 0 234.5 44t144.5 103v-174q-77 -59 -164.5 -88t-214.5 -29q-236 0 -380 146.5
t-144 390.5zM276 616h664q0 123 -91 211t-220 88q-141 0 -243 -87t-110 -212z" />
    <glyph glyph-name="edieresis.alt" horiz-adv-x="1214" 
d="M840 1198q-42 0 -73.5 30.5t-31.5 74.5q0 43 31.5 72.5t73.5 29.5q41 0 71.5 -29.5t30.5 -72.5t-31 -74t-71 -31zM418 1198q-42 0 -73.5 30.5t-31.5 74.5q0 43 31.5 72.5t73.5 29.5q41 0 71.5 -29.5t30.5 -72.5t-31 -74t-71 -31zM111 502v10q0 246 146 396.5t372 150.5
q140 0 249.5 -68.5t167.5 -184.5t58 -257q0 -35 -2 -66h-836q6 -171 105 -272.5t264 -101.5q139 0 234.5 44t144.5 103v-174q-77 -59 -164.5 -88t-214.5 -29q-236 0 -380 146.5t-144 390.5zM276 616h664q0 123 -91 211t-220 88q-141 0 -243 -87t-110 -212z" />
    <glyph glyph-name="emacron.alt" horiz-adv-x="1214" 
d="M319 1229v143h605v-143h-605zM111 502v10q0 246 146 396.5t372 150.5q140 0 249.5 -68.5t167.5 -184.5t58 -257q0 -35 -2 -66h-836q6 -171 105 -272.5t264 -101.5q139 0 234.5 44t144.5 103v-174q-77 -59 -164.5 -88t-214.5 -29q-236 0 -380 146.5t-144 390.5zM276 616
h664q0 123 -91 211t-220 88q-141 0 -243 -87t-110 -212z" />
    <glyph glyph-name="ebreve.alt" horiz-adv-x="1214" 
d="M633 1143q-124 0 -214.5 78t-107.5 206h144q48 -149 178 -149q128 0 176 149h143q-17 -128 -107 -206t-212 -78zM111 502v10q0 246 146 396.5t372 150.5q140 0 249.5 -68.5t167.5 -184.5t58 -257q0 -35 -2 -66h-836q6 -171 105 -272.5t264 -101.5q139 0 234.5 44
t144.5 103v-174q-77 -59 -164.5 -88t-214.5 -29q-236 0 -380 146.5t-144 390.5zM276 616h664q0 123 -91 211t-220 88q-141 0 -243 -87t-110 -212z" />
    <glyph glyph-name="edotaccent.alt" horiz-adv-x="1214" 
d="M629 1198q-42 0 -73.5 30.5t-31.5 74.5q0 43 31.5 72.5t73.5 29.5q41 0 71.5 -29.5t30.5 -72.5t-30.5 -74t-71.5 -31zM111 502v10q0 246 146 396.5t372 150.5q140 0 249.5 -68.5t167.5 -184.5t58 -257q0 -35 -2 -66h-836q6 -171 105 -272.5t264 -101.5q139 0 234.5 44
t144.5 103v-174q-77 -59 -164.5 -88t-214.5 -29q-236 0 -380 146.5t-144 390.5zM276 616h664q0 123 -91 211t-220 88q-141 0 -243 -87t-110 -212z" />
    <glyph glyph-name="eogonek.alt" horiz-adv-x="1214" 
d="M111 504v8q0 247 146 399t372 152q211 0 343 -148t132 -366q0 -35 -2 -66h-836q6 -170 105 -270t262 -100q137 0 232.5 47.5t140.5 109.5v-166q-13 -17 -68 -49q-5 -3 -43.5 -24t-64 -39t-59 -46t-51.5 -62t-18 -70q0 -45 28.5 -69t68.5 -24q58 0 112 31l-26 -121
q-54 -28 -111 -28q-80 0 -141.5 50t-61.5 132q0 107 107 192q-20 -4 -45 -4q-233 0 -377.5 145.5t-144.5 385.5zM276 616h664q0 124 -91.5 214t-219.5 90q-140 0 -242.5 -89.5t-110.5 -214.5z" />
    <glyph glyph-name="gcircumflex.alt" horiz-adv-x="1308" 
d="M317 1180l338 299l336 -299h-182l-154 151l-153 -151h-185zM111 524q0 114 41 215t111.5 171.5t166.5 111.5t203 41q139 0 230 -53t136 -131v153h154v-860q0 -79 -2 -129t-11.5 -112t-27 -105.5t-49.5 -88t-78 -79.5q-140 -109 -358 -109q-129 0 -246.5 31.5t-192.5 95.5
v174q67 -81 185 -119t252 -38q170 0 264 76q66 53 88 132.5t22 184.5v86q-45 -78 -136 -131t-230 -53q-143 0 -262.5 68.5t-189.5 192t-70 275.5zM266 524q0 -169 105 -281t264 -112q164 0 273.5 112t109.5 281t-109.5 282.5t-273.5 113.5q-159 0 -264 -113.5t-105 -282.5z
" />
    <glyph glyph-name="gbreve.alt" horiz-adv-x="1308" 
d="M641 1143q-123 0 -212.5 77.5t-106.5 206.5h141q48 -149 178 -149t178 149h142q-17 -128 -107.5 -206t-212.5 -78zM111 524q0 114 41 215t111.5 171.5t166.5 111.5t203 41q139 0 230 -53t136 -131v153h154v-860q0 -79 -2 -129t-11.5 -112t-27 -105.5t-49.5 -88t-78 -79.5
q-140 -109 -358 -109q-129 0 -246.5 31.5t-192.5 95.5v174q67 -81 185 -119t252 -38q170 0 264 76q66 53 88 132.5t22 184.5v86q-45 -78 -136 -131t-230 -53q-143 0 -262.5 68.5t-189.5 192t-70 275.5zM266 524q0 -169 105 -281t264 -112q164 0 273.5 112t109.5 281
t-109.5 282.5t-273.5 113.5q-159 0 -264 -113.5t-105 -282.5z" />
    <glyph glyph-name="gdotaccent.alt" horiz-adv-x="1308" 
d="M655 1198q-41 0 -72.5 31t-31.5 74t31.5 72.5t72.5 29.5t72 -29.5t31 -72.5t-31 -74t-72 -31zM111 524q0 114 41 215t111.5 171.5t166.5 111.5t203 41q139 0 230 -53t136 -131v153h154v-860q0 -79 -2 -129t-11.5 -112t-27 -105.5t-49.5 -88t-78 -79.5
q-140 -109 -358 -109q-129 0 -246.5 31.5t-192.5 95.5v174q67 -81 185 -119t252 -38q170 0 264 76q66 53 88 132.5t22 184.5v86q-45 -78 -136 -131t-230 -53q-143 0 -262.5 68.5t-189.5 192t-70 275.5zM266 524q0 -169 105 -281t264 -112q164 0 273.5 112t109.5 281
t-109.5 282.5t-273.5 113.5q-159 0 -264 -113.5t-105 -282.5z" />
    <glyph glyph-name="gcommaaccent.alt" horiz-adv-x="1308" 
d="M563 1130l107 297h207l-193 -297h-121zM111 524q0 114 41 215t111.5 171.5t166.5 111.5t203 41q139 0 230 -53t136 -131v153h154v-860q0 -79 -2 -129t-11.5 -112t-27 -105.5t-49.5 -88t-78 -79.5q-140 -109 -358 -109q-129 0 -246.5 31.5t-192.5 95.5v174
q67 -81 185 -119t252 -38q170 0 264 76q66 53 88 132.5t22 184.5v86q-45 -78 -136 -131t-230 -53q-143 0 -262.5 68.5t-189.5 192t-70 275.5zM266 524q0 -169 105 -281t264 -112q164 0 273.5 112t109.5 281t-109.5 282.5t-273.5 113.5q-159 0 -264 -113.5t-105 -282.5z" />
    <glyph glyph-name="jcircumflex.alt" horiz-adv-x="505" 
d="M-25 1180l279 299l281 -299h-185l-96 145l-96 -145h-183zM174 -395v1427h156v-1427h-156z" />
    <glyph glyph-name="kcommaaccent.alt" horiz-adv-x="999" 
d="M156 0v1427h155v-847l410 452h180l-438 -485l485 -547h-192l-445 502v-502h-155zM322 -395l108 297h205l-191 -297h-122z" />
    <glyph glyph-name="racute.alt" horiz-adv-x="784" 
d="M303 1130l109 297h204l-190 -297h-123zM156 0v743q0 320 358 320q74 0 137 -14v-146q-61 17 -139 17q-37 0 -61.5 -3t-53.5 -14.5t-46 -32.5t-28.5 -59t-11.5 -92v-719h-155z" />
    <glyph glyph-name="rcommaaccent.alt" horiz-adv-x="784" 
d="M156 0v743q0 320 358 320q74 0 137 -14v-146q-61 17 -139 17q-37 0 -61.5 -3t-53.5 -14.5t-46 -32.5t-28.5 -59t-11.5 -92v-719h-155zM47 -395l109 297h204l-190 -297h-123z" />
    <glyph glyph-name="rcaron.alt" horiz-adv-x="784" 
d="M403 1128l-335 299h182l153 -153l152 153h184zM154 0v743q0 320 358 320q74 0 137 -14v-146q-61 17 -139 17q-37 0 -61.5 -3t-53.5 -14.5t-46 -32.5t-28.5 -59t-11.5 -92v-719h-155z" />
    <glyph glyph-name="sacute.alt" horiz-adv-x="899" 
d="M365 1130l108 297h207l-193 -297h-122zM98 100v179q138 -160 357 -160q99 0 153 40t54 101q0 40 -11.5 69.5t-50 58.5t-62 42.5t-95.5 49.5q-11 6 -17 9q-58 29 -93.5 48.5t-75 48.5t-61 57.5t-35.5 67.5t-14 86q0 120 87.5 193t234.5 73t238 -66v-157q-104 80 -224 80
q-182 0 -182 -125q0 -49 29.5 -78t97.5 -66q28 -15 82 -42.5t82 -43t70 -42t64.5 -50t46.5 -56t34 -72t10 -85.5q0 -32 -10 -67.5t-36.5 -75t-66 -70.5t-104.5 -51.5t-145 -20.5q-223 0 -357 125z" />
    <glyph glyph-name="scircumflex.alt" horiz-adv-x="899" 
d="M135 1180l338 299l336 -299h-182l-154 151l-154 -151h-184zM98 100v179q138 -160 357 -160q99 0 153 40t54 101q0 40 -11.5 69.5t-50 58.5t-62 42.5t-95.5 49.5q-11 6 -17 9q-58 29 -93.5 48.5t-75 48.5t-61 57.5t-35.5 67.5t-14 86q0 120 87.5 193t234.5 73t238 -66
v-157q-104 80 -224 80q-182 0 -182 -125q0 -49 29.5 -78t97.5 -66q28 -15 82 -42.5t82 -43t70 -42t64.5 -50t46.5 -56t34 -72t10 -85.5q0 -32 -10 -67.5t-36.5 -75t-66 -70.5t-104.5 -51.5t-145 -20.5q-223 0 -357 125z" />
    <glyph glyph-name="scaron.alt" horiz-adv-x="899" 
d="M477 1128l-338 299h185l153 -153l154 153h182zM98 100v179q138 -160 357 -160q99 0 153 40t54 101q0 40 -11.5 69.5t-50 58.5t-62 42.5t-95.5 49.5q-11 6 -17 9q-58 29 -93.5 48.5t-75 48.5t-61 57.5t-35.5 67.5t-14 86q0 120 87.5 193t234.5 73t238 -66v-157
q-104 80 -224 80q-182 0 -182 -125q0 -49 29.5 -78t97.5 -66q28 -15 82 -42.5t82 -43t70 -42t64.5 -50t46.5 -56t34 -72t10 -85.5q0 -32 -10 -67.5t-36.5 -75t-66 -70.5t-104.5 -51.5t-145 -20.5q-223 0 -357 125z" />
    <glyph glyph-name="scommaaccent.alt" horiz-adv-x="899" 
d="M98 100v179q138 -160 357 -160q99 0 153 40t54 101q0 40 -11.5 69.5t-50 58.5t-62 42.5t-95.5 49.5q-11 6 -17 9q-58 29 -93.5 48.5t-75 48.5t-61 57.5t-35.5 67.5t-14 86q0 120 87.5 193t234.5 73t238 -66v-157q-104 80 -224 80q-182 0 -182 -125q0 -49 29.5 -78
t97.5 -66q28 -15 82 -42.5t82 -43t70 -42t64.5 -50t46.5 -56t34 -72t10 -85.5q0 -32 -10 -67.5t-36.5 -75t-66 -70.5t-104.5 -51.5t-145 -20.5q-223 0 -357 125zM221 -395l109 297h205l-191 -297h-123z" />
    <glyph glyph-name="scedilla.alt" horiz-adv-x="899" 
d="M229 -358l39 79q58 -34 119 -34q42 0 69 20t27 53q0 49 -38.5 66.5t-120.5 17.5h-2l63 136q-177 18 -287 120v179q138 -160 357 -160q99 0 153 40t54 101q0 40 -11.5 69.5t-50 58.5t-62 42.5t-95.5 49.5q-11 6 -17 9q-58 29 -93.5 48.5t-75 48.5t-61 57.5t-35.5 67.5
t-14 86q0 120 87.5 193t234.5 73t238 -66v-157q-104 80 -224 80q-182 0 -182 -125q0 -49 29.5 -78t97.5 -66q28 -15 82 -42.5t82 -43t70 -42t64.5 -50t46.5 -56t34 -72t10 -85.5q0 -30 -9 -63t-32 -71t-57.5 -68.5t-92 -53t-128.5 -27.5l-39 -71h2q62 0 104.5 -40t42.5 -106
q0 -85 -59.5 -125.5t-163.5 -40.5q-43 0 -86.5 14.5t-69.5 33.5z" />
    <glyph glyph-name="germandbls.alt" horiz-adv-x="1206" 
d="M154 0v1106q0 148 102.5 250t251.5 102q146 0 248 -102t102 -248q0 -131 -88 -223l-2 -2q59 -11 116.5 -44t108 -85.5t82 -133t31.5 -174.5q0 -203 -140.5 -340t-355.5 -137q-40 0 -104 11v157q50 -18 104 -18q137 0 235.5 96t98.5 231t-98.5 230.5t-235.5 95.5h-2
q-52 0 -102 -18v143q190 36 190 209q0 83 -55 143t-133 60q-81 0 -136 -59t-55 -144v-1106h-163z" />
    <glyph glyph-name="tcaron.alt" horiz-adv-x="755" 
d="M477 1130l107 297h190l-174 -297h-123zM231 0v889h-131v143h131v395h156v-395h227v-143h-227v-889h-156z" />
    <glyph glyph-name="tcommaaccent.alt" horiz-adv-x="710" 
d="M231 0v889h-131v143h131v395h156v-395h227v-143h-227v-889h-156zM123 -395l108 297h205l-190 -297h-123z" />
    <glyph glyph-name="tbar.alt" horiz-adv-x="710" 
d="M231 0v600h-131v141h131v148h-131v143h131v395h156v-395h227v-143h-227v-148h227v-141h-227v-600h-156z" />
    <glyph glyph-name="ugrave.alt" horiz-adv-x="1128" 
d="M526 1130l-192 297h207l106 -297h-121zM143 373v659h156v-626q0 -129 67.5 -204t186.5 -75q122 0 200 80.5t78 208.5v616h156v-1032h-156v174q-40 -87 -122 -138.5t-195 -51.5q-170 0 -270.5 107t-100.5 282z" />
    <glyph glyph-name="uacute.alt" horiz-adv-x="1128" 
d="M506 1130l108 297h205l-190 -297h-123zM143 373v659h156v-626q0 -129 67.5 -204t186.5 -75q122 0 200 80.5t78 208.5v616h156v-1032h-156v174q-40 -87 -122 -138.5t-195 -51.5q-170 0 -270.5 107t-100.5 282z" />
    <glyph glyph-name="ucircumflex.alt" horiz-adv-x="1128" 
d="M242 1180l338 299l335 -299h-182l-153 151l-154 -151h-184zM143 373v659h156v-626q0 -129 67.5 -204t186.5 -75q122 0 200 80.5t78 208.5v616h156v-1032h-156v174q-40 -87 -122 -138.5t-195 -51.5q-170 0 -270.5 107t-100.5 282z" />
    <glyph glyph-name="utilde.alt" horiz-adv-x="1128" 
d="M268 1225q9 82 59.5 135t127.5 53q44 0 88 -20t82 -40t69 -20q38 0 61 20t33 64l103 -8q-23 -203 -191 -203q-46 0 -90 20.5t-82 41t-71 20.5q-69 0 -86 -71zM143 373v659h156v-626q0 -129 67.5 -204t186.5 -75q122 0 200 80.5t78 208.5v616h156v-1032h-156v174
q-40 -87 -122 -138.5t-195 -51.5q-170 0 -270.5 107t-100.5 282z" />
    <glyph glyph-name="udieresis.alt" horiz-adv-x="1128" 
d="M791 1198q-41 0 -73 31t-32 74t32 72.5t73 29.5t71.5 -29.5t30.5 -72.5t-30.5 -74t-71.5 -31zM369 1198q-41 0 -73 31t-32 74t32 72.5t73 29.5t71.5 -29.5t30.5 -72.5t-30.5 -74t-71.5 -31zM143 373v659h156v-626q0 -129 67.5 -204t186.5 -75q122 0 200 80.5t78 208.5
v616h156v-1032h-156v174q-40 -87 -122 -138.5t-195 -51.5q-170 0 -270.5 107t-100.5 282z" />
    <glyph glyph-name="umacron.alt" horiz-adv-x="1128" 
d="M279 1229v143h602v-143h-602zM143 373v659h156v-626q0 -129 67.5 -204t186.5 -75q122 0 200 80.5t78 208.5v616h156v-1032h-156v174q-40 -87 -122 -138.5t-195 -51.5q-170 0 -270.5 107t-100.5 282z" />
    <glyph glyph-name="ubreve.alt" horiz-adv-x="1128" 
d="M580 1143q-124 0 -214.5 78t-107.5 206h143q48 -149 179 -149q130 0 178 149h141q-17 -128 -107 -206t-212 -78zM143 373v659h156v-626q0 -129 67.5 -204t186.5 -75q122 0 200 80.5t78 208.5v616h156v-1032h-156v174q-40 -87 -122 -138.5t-195 -51.5q-170 0 -270.5 107
t-100.5 282z" />
    <glyph glyph-name="uring.alt" horiz-adv-x="1128" 
d="M580 1059q-84 0 -143.5 59.5t-59.5 143.5q0 82 60 140t143 58q82 0 140 -58t58 -140q0 -85 -57.5 -144t-140.5 -59zM580 1165q38 0 66 29t28 68q0 38 -28 65t-66 27q-39 0 -68 -27t-29 -65t29.5 -67.5t67.5 -29.5zM143 373v659h156v-626q0 -129 67.5 -204t186.5 -75
q122 0 200 80.5t78 208.5v616h156v-1032h-156v174q-40 -87 -122 -138.5t-195 -51.5q-170 0 -270.5 107t-100.5 282z" />
    <glyph glyph-name="uhungarumlaut.alt" horiz-adv-x="1128" 
d="M670 1130l129 297h196l-213 -297h-112zM352 1130l129 297h197l-211 -297h-115zM143 373v659h156v-626q0 -129 67.5 -204t186.5 -75q122 0 200 80.5t78 208.5v616h156v-1032h-156v174q-40 -87 -122 -138.5t-195 -51.5q-170 0 -270.5 107t-100.5 282z" />
    <glyph glyph-name="uogonek.alt" horiz-adv-x="1155" 
d="M143 373v659h156v-626q0 -129 70.5 -204t197.5 -75q126 0 208.5 80.5t82.5 208.5v616h154v-1024q-168 -107 -168 -203q0 -45 29.5 -68.5t72.5 -23.5q62 0 119 31l-27 -121q-60 -29 -116 -29q-83 0 -145 50.5t-62 132.5q0 125 145 217l-2 76v104q-41 -86 -127.5 -138
t-204.5 -52q-177 0 -280 107t-103 282z" />
    <glyph glyph-name="wgrave.alt" horiz-adv-x="1607" 
d="M748 1130l-191 297h205l108 -297h-122zM547 -72l-477 1104h153l324 -753l172 352l-191 401h158l119 -258l121 258h157l-188 -401l170 -352l326 753h151l-477 -1104l-260 555z" />
    <glyph glyph-name="wacute.alt" horiz-adv-x="1607" 
d="M739 1130l109 297h205l-191 -297h-123zM547 -72l-477 1104h153l324 -753l172 352l-191 401h158l119 -258l121 258h157l-188 -401l170 -352l326 753h151l-477 -1104l-260 555z" />
    <glyph glyph-name="wcircumflex.alt" horiz-adv-x="1607" 
d="M469 1180l336 299l338 -299h-185l-153 151l-152 -151h-184zM547 -72l-477 1104h153l324 -753l172 352l-191 401h158l119 -258l121 258h157l-188 -401l170 -352l326 753h151l-477 -1104l-260 555z" />
    <glyph glyph-name="wdieresis.alt" horiz-adv-x="1607" 
d="M1032 1198q-40 0 -71 31t-31 74t30.5 72.5t71.5 29.5t73 -29.5t32 -72.5t-32 -74t-73 -31zM578 1198q-41 0 -72 31t-31 74t31 72.5t72 29.5t72.5 -29.5t31.5 -72.5t-31.5 -74t-72.5 -31zM547 -72l-477 1104h153l324 -753l172 352l-191 401h158l119 -258l121 258h157
l-188 -401l170 -352l326 753h151l-477 -1104l-260 555z" />
    <glyph glyph-name="ygrave.alt" horiz-adv-x="1136" 
d="M537 1130l-193 297h207l108 -297h-122zM481 -6l-411 1038h157l334 -856l357 856h151l-602 -1427h-152z" />
    <glyph glyph-name="yacute.alt" horiz-adv-x="1136" 
d="M496 1130l108 297h207l-193 -297h-122zM481 -6l-411 1038h157l334 -856l357 856h151l-602 -1427h-152z" />
    <glyph glyph-name="ycircumflex.alt" horiz-adv-x="1136" 
d="M233 1180l336 299l338 -299h-184l-154 151l-153 -151h-183zM481 -6l-411 1038h157l334 -856l357 856h151l-602 -1427h-152z" />
    <glyph glyph-name="ydieresis.alt" horiz-adv-x="1136" 
d="M780 1198q-40 0 -71 31t-31 74t30.5 72.5t71.5 29.5t72 -29.5t31 -72.5t-31 -74t-72 -31zM358 1198q-40 0 -71 31t-31 74t30.5 72.5t71.5 29.5t72 -29.5t31 -72.5t-31 -74t-72 -31zM481 -6l-411 1038h157l334 -856l357 856h151l-602 -1427h-152z" />
    <glyph glyph-name="fl.alt" horiz-adv-x="1153" 
d="M324 0v889h-166v143h166v55q0 111 23.5 174.5t76.5 106.5q33 26 77 39.5t77 16.5t79 3h60v-137h-76q-81 0 -122.5 -42t-41.5 -134v-82h195v-143h-195v-889h-153zM856 262v1165h154v-1155q0 -86 29 -122.5t100 -36.5q42 0 73 8v-144q-33 -8 -73 -8q-41 0 -73.5 4.5t-74 22
t-69 47.5t-47 86t-19.5 133z" />
    <glyph glyph-name="ffl.alt" horiz-adv-x="1722" 
d="M268 0v889h-166v143h166v84q0 87 20 151t49.5 100t73.5 57t83.5 27.5t87.5 6.5t80 -8v-145q-39 10 -95 10q-75 0 -109 -40.5t-34 -137.5v-105h326v84q0 87 20 151t49.5 100t73.5 57t83 27.5t87 6.5q50 0 82 -8v-145q-39 10 -96 10q-75 0 -109.5 -41t-34.5 -137v-105h195
v-143h-195v-889h-155v889h-326v-889h-156zM1262 262v1165h155v-1155q0 -86 29 -122.5t100 -36.5q43 0 74 8v-144q-33 -8 -76 -8q-40 0 -72.5 4.5t-74 22t-69 47.5t-47 86t-19.5 133z" />
    <glyph glyph-name="fj.alt" horiz-adv-x="946" 
d="M324 0v889h-166v143h166v55q0 111 23.5 174.5t76.5 106.5q75 59 233 59h64v-137h-78q-82 0 -124 -41.5t-42 -134.5v-82h481v-1427h-153v1284h-328v-889h-153z" />
    <glyph glyph-name="ffj.alt" horiz-adv-x="1536" 
d="M268 0v889h-166v143h166v84q0 87 20 151t49.5 100t73.5 57t83.5 27.5t87.5 6.5t80 -8v-145q-39 10 -95 10q-75 0 -109 -40.5t-34 -137.5v-105h326v84q0 113 24 177t78 106q82 59 252 59q62 0 102 -8v-145q-46 10 -116 10q-97 0 -141 -40.5t-44 -137.5v-105h479v-1427
h-153v1284h-326v-889h-155v889h-326v-889h-156z" />
    <glyph glyph-name="zero.onum" horiz-adv-x="1210" 
d="M121 518q0 49 4 111q22 185 159 309.5t322 124.5q184 0 320.5 -124.5t156.5 -309.5q7 -54 7 -111q0 -58 -7 -112q-20 -185 -156.5 -310t-320.5 -125q-185 0 -322 125t-159 310q-4 62 -4 112zM276 518q0 -62 5 -96q12 -127 105.5 -212t219.5 -85t219.5 85t106.5 212
q4 54 4 96q0 40 -4 94q-13 127 -106.5 212t-219.5 85t-219.5 -85t-105.5 -212q-5 -34 -5 -94z" />
    <glyph glyph-name="one.onum" horiz-adv-x="804" 
d="M424 0v819l-250 -127l-70 135l482 242v-1069h-162z" />
    <glyph glyph-name="two.onum" horiz-adv-x="1064" 
d="M55 0l578 502q47 41 76.5 75.5t40.5 64t13.5 46.5t2.5 45q0 75 -63.5 125.5t-157.5 50.5q-105 0 -179.5 -74.5t-74.5 -177.5h-154q0 167 119.5 286.5t288.5 119.5q161 0 268 -95t107 -233q0 -93 -38 -172.5t-147 -173.5l-274 -239h514v-150h-920z" />
    <glyph glyph-name="three.onum" horiz-adv-x="1122" 
d="M68 23l145 57q31 -82 115.5 -129t201.5 -47q138 0 227 77.5t89 198.5t-90 199t-228 78q-166 0 -239 -27l381 453h-490v149h826l-381 -440h2q154 -11 263 -128.5t109 -283.5q0 -185 -133.5 -307.5t-335.5 -122.5q-164 0 -288 73.5t-174 199.5z" />
    <glyph glyph-name="four.onum" horiz-adv-x="1216" 
d="M90 0l473 1032h174l-401 -882h536v311h164v-854h-164v393h-782z" />
    <glyph glyph-name="five.onum" horiz-adv-x="1138" 
d="M106 8l138 70q40 -80 120 -127t175 -47q146 0 234.5 80.5t88.5 214.5t-89.5 215.5t-235.5 81.5q-102 0 -194.5 -36.5t-154.5 -99.5l121 672h652v-149h-515l-45 -254q72 20 138 20q207 0 342 -124.5t135 -325.5q0 -137 -63.5 -240t-171 -156t-242.5 -53
q-138 0 -256.5 69.5t-176.5 188.5z" />
    <glyph glyph-name="six.onum" horiz-adv-x="1165" 
d="M121 428q0 36 5 70t21 74.5t25.5 65t40 75t42 68.5t53.5 81.5t54 81.5l326 483h191l-371 -546q33 10 96 10q86 0 166.5 -37t140 -99t95.5 -148t36 -179q0 -124 -62.5 -230t-168.5 -167.5t-229 -61.5q-93 0 -178 37t-147 98.5t-99 146.5t-37 177zM276 428
q0 -126 89.5 -215.5t216.5 -89.5q126 0 216.5 89.5t90.5 215.5q0 127 -90.5 218t-216.5 91q-127 0 -216.5 -90.5t-89.5 -218.5z" />
    <glyph glyph-name="seven.onum" horiz-adv-x="1091" 
d="M233 -395l549 1278h-680v149h922l-621 -1427h-170z" />
    <glyph glyph-name="eight.onum" horiz-adv-x="1189" 
d="M117 432q0 145 72 246.5t182 146.5q-67 46 -106.5 115t-39.5 150q0 152 108.5 260t262.5 108q152 0 260.5 -108t108.5 -260q0 -81 -39 -150t-105 -115q109 -45 180.5 -146.5t71.5 -246.5q0 -125 -63 -231.5t-173 -169t-241 -62.5q-200 0 -339.5 136t-139.5 327zM596 872
q86 0 147.5 64.5t61.5 153.5q0 88 -61.5 151.5t-147.5 63.5q-87 0 -149 -63.5t-62 -151.5q0 -90 62 -154t149 -64zM281 432q0 -128 92.5 -218.5t222.5 -90.5q129 0 222 91t93 218q0 128 -92.5 218.5t-222.5 90.5q-131 0 -223 -90t-92 -219z" />
    <glyph glyph-name="nine.onum" horiz-adv-x="1163" 
d="M285 0l372 547q-38 -10 -98 -10q-114 0 -215 62t-162 169t-61 231t63 230t169.5 167.5t230.5 61.5q123 0 228.5 -62t167.5 -168t62 -229q0 -58 -14 -112.5t-48.5 -119.5t-62.5 -109t-86 -130q-5 -7 -48 -72q-130 -193 -306 -456h-192zM584 690q126 0 215.5 90.5
t89.5 218.5q0 126 -89.5 216t-215.5 90q-127 0 -217.5 -90t-90.5 -216q0 -128 90.5 -218.5t217.5 -90.5z" />
    <glyph glyph-name="zero.tnum" horiz-adv-x="1161" 
d="M127 395q-6 70 -6 320q0 247 6 317q19 181 149.5 303.5t305.5 122.5t304 -122t148 -304q6 -70 6 -317q0 -250 -6 -320q-19 -182 -148 -304t-304 -122t-305.5 122.5t-149.5 303.5zM283 406q12 -122 97 -202.5t202 -80.5q116 0 201.5 81t97.5 202q6 61 6 309q0 246 -6 307
q-12 121 -97.5 202t-201.5 81q-117 0 -202 -80.5t-97 -202.5q-7 -71 -7 -307q0 -238 7 -309z" />
    <glyph glyph-name="one.tnum" horiz-adv-x="1161" 
d="M659 0v1210l-411 -235l-70 135l643 369v-1479h-162z" />
    <glyph glyph-name="two.tnum" horiz-adv-x="1161" 
d="M63 0l672 821q105 127 105 232q0 104 -74.5 178t-177.5 74q-104 0 -178 -75t-74 -179h-160q0 169 121 288t293 119q170 0 290.5 -119t120.5 -288q0 -77 -24 -149t-105 -171l-475 -581h639v-150h-973z" />
    <glyph glyph-name="three.tnum" horiz-adv-x="1161" 
d="M84 252l145 55q31 -86 116.5 -135t201.5 -49q150 0 245 92.5t95 237.5t-96.5 241.5t-245.5 96.5q-151 0 -258 -41l420 528h-519v149h840l-405 -507h2q171 0 293 -136.5t122 -330.5q0 -213 -139 -348.5t-354 -135.5q-163 0 -288.5 76.5t-174.5 206.5z" />
    <glyph glyph-name="four.tnum" horiz-adv-x="1161" 
d="M72 317l532 1110h174l-452 -960h528v309h162v-776h-162v317h-782z" />
    <glyph glyph-name="five.tnum" horiz-adv-x="1161" 
d="M80 260l139 68q41 -93 126 -149t185 -56q139 0 238.5 103.5t99.5 248.5q0 146 -99 249t-239 103q-103 0 -194 -35.5t-154 -99.5l131 735h619v-149h-481l-56 -322q64 25 135 25q135 0 249 -69t179.5 -185.5t65.5 -251.5q0 -140 -67.5 -256.5t-181 -183t-245.5 -66.5
q-145 0 -266.5 79.5t-183.5 211.5z" />
    <glyph glyph-name="six.tnum" horiz-adv-x="1165" 
d="M121 436q0 38 9.5 79.5t20.5 73.5t38.5 83.5t42.5 77.5t54 90t54 90q285 483 293 497h180l-332 -565q45 23 123 23q114 0 215 -58.5t163 -162t62 -226.5q0 -197 -134 -333t-324 -136q-191 0 -328 136.5t-137 330.5zM287 432q0 -133 86 -221t213 -88q124 0 214.5 91.5
t90.5 217.5q0 124 -90.5 214.5t-214.5 90.5q-130 0 -214.5 -87t-84.5 -218z" />
    <glyph glyph-name="seven.tnum" horiz-adv-x="1161" 
d="M289 0l600 1278h-793v149h1041l-670 -1427h-178z" />
    <glyph glyph-name="eight.tnum" horiz-adv-x="1161" 
d="M117 432q0 145 72 246.5t182 146.5q-67 46 -106.5 115t-39.5 150q0 152 104.5 260t252.5 108q146 0 250 -108t104 -260q0 -81 -39 -150t-104 -115q108 -45 179.5 -146.5t71.5 -246.5q0 -125 -61 -231.5t-167.5 -169t-233.5 -62.5q-194 0 -329.5 136t-135.5 327zM582 872
q79 0 136.5 64.5t57.5 153.5q0 88 -57.5 151.5t-136.5 63.5q-81 0 -139 -63.5t-58 -151.5q0 -90 58 -154t139 -64zM281 432q0 -128 88.5 -218.5t212.5 -90.5q123 0 212 91t89 218q0 128 -88.5 218.5t-212.5 90.5q-125 0 -213 -90t-88 -219z" />
    <glyph glyph-name="nine.tnum" horiz-adv-x="1161" 
d="M352 0l332 565q-40 -22 -123 -22q-85 0 -165.5 34.5t-141 93.5t-97 142.5t-36.5 175.5q0 197 135 333t326 136q190 0 326 -136.5t136 -330.5q0 -45 -9.5 -88.5t-37.5 -102t-43.5 -87.5t-64 -110t-62.5 -105l-295 -498h-180zM582 690q129 0 214 87.5t85 219.5
q0 131 -87 219.5t-212 88.5q-126 0 -217 -91.5t-91 -216.5q0 -126 91 -216.5t217 -90.5z" />
    <glyph glyph-name="four.alt" horiz-adv-x="1236" 
d="M31 254l921 1245v-1096h174v-149h-174v-254h-161v254h-758h-2zM328 403h463v623z" />
    <glyph glyph-name="four.onum.alt" horiz-adv-x="1159" 
d="M29 4l848 1079v-933h159v-150h-159v-391h-164v391h-682zM338 150h375v475z" />
    <glyph glyph-name="four.tnum.alt" horiz-adv-x="1161" 
d="M31 254l848 1245v-1096h147v-149h-147v-254h-162v254h-684h-2zM317 403h400v596z" />
    <glyph glyph-name="foursuperior.alt" horiz-adv-x="825" 
d="M84 801l520 680v-572h90v-110h-90v-127h-119v127h-399zM303 909h182v250q-96 -126 -182 -250z" />
    <glyph glyph-name="four.inferior.alt" horiz-adv-x="825" 
d="M84 129l520 680v-571h90v-111h-90v-127h-119v127h-399zM303 238h182v249q-103 -136 -182 -249z" />
    <glyph glyph-name="onequarter.alt" horiz-adv-x="1460" 
d="M199 0l800 1427h154l-801 -1427h-153zM260 672v645h-98v110h217v-755h-119zM700 129l519 680v-571h90v-111h-90v-127h-117v127h-400zM918 238h184v249q-94 -123 -184 -249z" />
    <glyph glyph-name="threequarters.alt" horiz-adv-x="1660" 
d="M397 0l801 1427h154l-801 -1427h-154zM395 655q-99 0 -175 51t-107 136l104 39q20 -52 67 -81.5t111 -29.5q76 0 123 41.5t47 106.5q0 67 -49 111t-129 44q-94 0 -147 -22l215 266h-271v110h498l-223 -258q25 0 59 -12q72 -27 117 -92t45 -147q0 -115 -80.5 -189
t-204.5 -74zM899 129l518 680v-571h90v-111h-90v-127h-117v127h-399zM1116 238h184v249q-94 -123 -184 -249z" />
    <glyph glyph-name="published" horiz-adv-x="1742" 
d="M125 713q0 151 59 288.5t159 237t238 158.5t289 59q202 0 373.5 -99.5t272 -270.5t100.5 -373t-100 -373.5t-272 -272t-374 -100.5q-150 0 -288 59.5t-238 159.5t-159.5 238t-59.5 289zM217 713q0 -178 88 -330t238.5 -241t326.5 -89q133 0 254 52.5t208.5 141t139.5 211
t52 255.5q0 178 -88 329.5t-238.5 239.5t-327.5 88q-132 0 -252.5 -52t-208.5 -140t-140 -210t-52 -255zM635 246v897h295q117 0 198.5 -81.5t81.5 -201.5q0 -122 -81 -202t-199 -80h-154v-332h-141zM776 711h150q64 0 104.5 41.5t40.5 107.5q0 63 -40.5 104.5t-104.5 41.5
h-150v-295z" />
    <glyph glyph-name="colon.case" horiz-adv-x="464" 
d="M233 879q-42 0 -73 30t-31 74t31 74t73 30q41 0 72 -30.5t31 -73.5t-31 -73.5t-72 -30.5zM233 315q-42 0 -73 30t-31 73q0 44 31 74t73 30q41 0 72 -30.5t31 -73.5t-31 -73t-72 -30z" />
    <glyph glyph-name="semicolon.case" horiz-adv-x="567" 
d="M295 879q-42 0 -73.5 30.5t-31.5 73.5t31.5 73.5t73.5 30.5q41 0 71.5 -30.5t30.5 -73.5t-30.5 -73.5t-71.5 -30.5zM29 0l172 457h205l-240 -457h-137z" />
    <glyph glyph-name="bullet.case" horiz-adv-x="616" 
d="M307 543q-68 0 -118 49t-50 121t50 121t118 49q69 0 119.5 -49t50.5 -121t-50.5 -121t-119.5 -49z" />
    <glyph glyph-name="periodcentered.case" horiz-adv-x="464" 
d="M233 606q-42 0 -73 30.5t-31 74.5t31 74t73 30q41 0 72 -30.5t31 -73.5t-31 -74t-72 -31z" />
    <glyph glyph-name="guilsinglleft.case" horiz-adv-x="608" 
d="M338 356l-227 359l227 358h162l-226 -358l226 -359h-162z" />
    <glyph glyph-name="guilsinglright.case" horiz-adv-x="608" 
d="M111 356l227 359l-227 358h163l226 -358l-226 -359h-163z" />
    <glyph glyph-name="guillemotleft.case" horiz-adv-x="927" 
d="M659 356l-225 359l225 358h162l-225 -358l225 -359h-162zM338 356l-227 359l227 358h162l-226 -358l226 -359h-162z" />
    <glyph glyph-name="guillemotright.case" horiz-adv-x="927" 
d="M434 356l225 359l-225 358h162l225 -358l-225 -359h-162zM111 356l227 359l-227 358h163l226 -358l-226 -359h-163z" />
    <glyph glyph-name="slash.case" horiz-adv-x="944" 
d="M82 -166l645 1759h141l-643 -1759h-143z" />
    <glyph glyph-name="backslash.case" horiz-adv-x="944" 
d="M725 -166l-643 1759h141l645 -1759h-143z" />
    <glyph glyph-name="hyphen.case" horiz-adv-x="866" 
d="M125 641v145h616v-145h-616z" />
    <glyph glyph-name="endash.case" horiz-adv-x="1013" 
d="M123 641v145h770v-145h-770z" />
    <glyph glyph-name="emdash.case" horiz-adv-x="1554" 
d="M123 641v145h1309v-145h-1309z" />
    <glyph glyph-name="parenleft.case" horiz-adv-x="681" 
d="M598 -283q-228 201 -345.5 450.5t-117.5 532.5t117.5 532.5t345.5 450.5l78 -84q-193 -189 -290 -408.5t-97 -490.5t96.5 -489.5t290.5 -409.5z" />
    <glyph glyph-name="parenright.case" horiz-adv-x="681" 
d="M6 -199q192 191 288.5 409.5t96.5 489.5t-96.5 490.5t-288.5 408.5l76 84q228 -201 345.5 -450.5t117.5 -532.5t-117.5 -532.5t-345.5 -450.5z" />
    <glyph glyph-name="bracketleft.case" horiz-adv-x="708" 
d="M211 -197v1823h465v-149h-303v-1524h303v-150h-465z" />
    <glyph glyph-name="bracketright.case" horiz-adv-x="708" 
d="M35 -47h303v1524h-303v149h465v-1823h-465v150z" />
    <glyph glyph-name="braceleft.case" horiz-adv-x="731" 
d="M270 68v389q0 133 -82 182q-20 12 -43 19.5t-36 8.5l-13 1v98q47 2 92 29q82 49 82 182v389q0 114 69.5 188t176.5 74h94v-123h-75q-57 0 -84 -41.5t-27 -99.5v-365q0 -155 -70 -225q-36 -36 -82 -57q44 -20 82 -58q70 -70 70 -225v-364q0 -58 27 -100t84 -42h75v-123
h-94q-107 0 -176.5 74.5t-69.5 188.5z" />
    <glyph glyph-name="braceright.case" horiz-adv-x="731" 
d="M121 -72h76q57 0 83.5 41.5t26.5 100.5v364q0 155 70 225q37 37 84 58q-49 22 -84 57q-70 70 -70 225v365q0 58 -26.5 99.5t-83.5 41.5h-76v123h94q107 0 176.5 -74t69.5 -188v-389q0 -133 82 -182q20 -12 43 -19.5t36 -8.5l13 -1v-98q-47 -2 -92 -29q-82 -49 -82 -182
v-389q0 -114 -69.5 -188.5t-176.5 -74.5h-94v123z" />
    <glyph glyph-name="exclamdown.case" horiz-adv-x="571" 
d="M287 1251q-41 0 -73 30t-32 73q0 44 32 74t73 30t71.5 -29.5t30.5 -74.5q0 -43 -30.5 -73t-71.5 -30zM188 0l33 1108h129l35 -1108h-197z" />
    <glyph glyph-name="questiondown.case" horiz-adv-x="890" 
d="M459 1251q-42 0 -73.5 30t-31.5 73q0 45 31.5 74.5t73.5 29.5q41 0 71.5 -29.5t30.5 -74.5q0 -43 -30.5 -73t-71.5 -30zM412 1108q124 0 199 -70t75 -184q0 -152 -182 -283q-49 -34 -69.5 -48.5t-54.5 -42t-47.5 -45.5t-30.5 -44.5t-22.5 -55t-5.5 -63.5q0 -11 1.5 -23.5
t12 -37.5t28.5 -44t56 -33.5t89 -14.5q155 0 291 133v-182q-125 -101 -291 -101q-78 0 -141 21t-101 53t-63.5 73t-35 78t-9.5 70q0 60 12 108.5t30 82.5t56.5 73t72 65.5t96.5 73.5q10 7 15 11q63 46 97 86.5t34 89.5q0 104 -114 104q-83 0 -146 -36v159q64 27 148 27z" />
    <glyph glyph-name="at.case" horiz-adv-x="1724" 
d="M117 713q0 142 55.5 277t151.5 238.5t236.5 166.5t299.5 63q117 0 229 -34t205 -98.5t164 -151t110.5 -196.5t39.5 -230q0 -208 -83.5 -320.5t-230.5 -112.5q-78 0 -133.5 36t-81.5 102q-89 -109 -225 -109q-149 0 -250.5 102.5t-101.5 255.5t102 256t250 103
q126 0 205 -90v71h139v-469q0 -44 10 -73t28 -39.5t30 -13.5t28 -3q22 0 39 3t44 20t44.5 47t31 90.5t13.5 143.5q0 158 -81.5 291.5t-220.5 210.5t-304 77q-122 0 -233 -48.5t-192 -130.5t-129 -196t-48 -239q0 -124 48 -238t129 -196t192 -130.5t233 -48.5q148 0 283 80
l65 -125q-160 -86 -348 -86q-141 0 -275.5 55.5t-238 152t-166.5 237t-63 299.5zM641 702q0 -94 60.5 -157.5t152.5 -63.5q91 0 153 63.5t62 157.5q0 97 -61.5 160.5t-153.5 63.5q-93 0 -153 -63t-60 -161z" />
    <glyph glyph-name="Agrave.alt1" horiz-adv-x="1472" 
d="M666 1229l-158 198h227l70 -198h-139zM80 0l586 1194h141l588 -1194h-183l-172 350h-608l-170 -350h-182zM506 500h463l-232 487z" />
    <glyph glyph-name="Aacute.alt1" horiz-adv-x="1472" 
d="M670 1229l69 198h228l-158 -198h-139zM80 0l586 1194h141l588 -1194h-183l-172 350h-608l-170 -350h-182zM506 500h463l-232 487z" />
    <glyph glyph-name="Acircumflex.alt1" horiz-adv-x="1472" 
d="M469 1229l266 229l266 -229h-176l-90 108l-90 -108h-176zM80 0l588 1194h141l586 -1194h-183l-170 350h-608l-172 -350h-182zM506 500h463l-232 487z" />
    <glyph glyph-name="Atilde.alt1" horiz-adv-x="1472" 
d="M426 1253q9 82 59 135.5t127 53.5q44 0 88 -20t82.5 -40t69.5 -20q38 0 61 20t33 64l103 -8q-23 -201 -191 -201q-46 0 -90 20t-82 40t-70 20q-71 0 -88 -72zM80 0l586 1194h141l588 -1194h-183l-172 350h-608l-170 -350h-182zM506 500h463l-232 487z" />
    <glyph glyph-name="Adieresis.alt1" horiz-adv-x="1515" 
d="M1061 1286q-41 0 -72 31t-31 74t31 72.5t72 29.5q42 0 73 -29.5t31 -72.5q0 -44 -31 -74.5t-73 -30.5zM459 1286q-41 0 -72 31t-31 74t31 72.5t72 29.5q42 0 73 -29.5t31 -72.5q0 -44 -31 -74.5t-73 -30.5zM111 0l647 1479l649 -1479h-178l-152 350h-643l-153 -350h-170z
M500 500h512l-256 602z" />
    <glyph glyph-name="Amacron.alt1" horiz-adv-x="1472" 
d="M436 1300v127h602v-127h-602zM80 0l586 1251h143l586 -1251h-183l-161 350h-627l-164 -350h-180zM494 500h485l-242 536z" />
    <glyph glyph-name="Abreve.alt1" horiz-adv-x="1472" 
d="M737 1235q-101 0 -174 51.5t-86 140.5h133q30 -67 127 -67t127 67h133q-15 -89 -88 -140.5t-172 -51.5zM80 0l586 1194h141l588 -1194h-183l-172 350h-608l-170 -350h-182zM506 500h463l-232 487z" />
    <glyph glyph-name="Aring.alt1" horiz-adv-x="1470" 
d="M80 0l518 1108q-63 60 -63 147q0 82 59.5 140.5t142.5 58.5q82 0 140.5 -58.5t58.5 -140.5q0 -88 -62 -147l519 -1108h-181l-161 350h-627l-164 -350h-180zM737 1159q38 0 66 29t28 67t-28 66.5t-66 28.5t-67 -28.5t-29 -66.5t29 -67t67 -29zM492 500h487l-242 538z" />
    <glyph glyph-name="Aringacute.alt1" horiz-adv-x="1396" 
d="M80 0l495 1001q-55 55 -55 132q0 73 53 125.5t127 52.5h13l41 116h225l-141 -178q45 -48 45 -116q0 -77 -60 -134l496 -999h-180l-174 350h-531l-172 -350h-182zM700 1057q31 0 53.5 22.5t22.5 53.5q0 30 -22.5 51.5t-53.5 21.5t-52 -21t-21 -52t21.5 -53.5t51.5 -22.5z
M508 500h383l-191 389z" />
    <glyph glyph-name="Aogonek.alt1" horiz-adv-x="1380" 
d="M80 0l647 1479l512 -1164q-65 -19 -120.5 -67t-55.5 -98q0 -29 23.5 -43.5t58.5 -14.5q62 0 119 31l-27 -123q-49 -29 -119 -29q-75 0 -130.5 40.5t-55.5 107.5q0 106 137 178l-22 53h-644l-151 -350h-172zM469 500h512l-256 602z" />
    <glyph glyph-name="AEacute.alt1" horiz-adv-x="2052" 
d="M1155 1229l70 198h225l-158 -198h-137zM55 0l1092 1194h766v-150h-643v-339h604v-150h-604v-405h657v-150h-819v350h-526l-324 -350h-203zM709 500h399v444z" />
    <glyph glyph-name="Cacute.alt1" horiz-adv-x="1363" 
d="M698 1229l70 198h225l-157 -198h-138zM135 580q0 170 87 310.5t234.5 219t321.5 78.5q120 0 250 -57.5t227 -176.5l-110 -98q-69 86 -166 134t-201 48q-205 0 -342 -132t-137 -326t137 -326.5t342 -132.5q111 0 207.5 52t163.5 144l113 -98q-77 -101 -208 -174.5
t-276 -73.5q-174 0 -321.5 79t-234.5 219.5t-87 310.5z" />
    <glyph glyph-name="Ccircumflex.alt1" horiz-adv-x="1363" 
d="M498 1229l266 229l266 -229h-176l-90 108l-90 -108h-176zM135 580q0 170 87 310.5t234.5 219t321.5 78.5q120 0 250 -57.5t227 -176.5l-110 -98q-69 86 -166 134t-201 48q-205 0 -342 -132t-137 -326t137 -326.5t342 -132.5q111 0 207.5 52t163.5 144l113 -98
q-77 -101 -208 -174.5t-276 -73.5q-174 0 -321.5 79t-234.5 219.5t-87 310.5z" />
    <glyph glyph-name="Ccaron.alt1" horiz-adv-x="1363" 
d="M764 1217l-266 210h176l90 -90l90 90h176zM135 580q0 170 87 310.5t234.5 219t321.5 78.5q120 0 250 -57.5t227 -176.5l-110 -98q-69 86 -166 134t-201 48q-205 0 -342 -132t-137 -326t137 -326.5t342 -132.5q111 0 207.5 52t163.5 144l113 -98q-77 -101 -208 -174.5
t-276 -73.5q-174 0 -321.5 79t-234.5 219.5t-87 310.5z" />
    <glyph glyph-name="Cdotaccent.alt1" horiz-adv-x="1363" 
d="M766 1288q-42 0 -73 30t-31 73t31 72.5t73 29.5q41 0 71.5 -29.5t30.5 -72.5t-30.5 -73t-71.5 -30zM135 580q0 170 87 310.5t234.5 219t321.5 78.5q120 0 250 -57.5t227 -176.5l-110 -98q-69 86 -166 134t-201 48q-205 0 -342 -132t-137 -326t137 -326.5t342 -132.5
q111 0 207.5 52t163.5 144l113 -98q-77 -101 -208 -174.5t-276 -73.5q-174 0 -321.5 79t-234.5 219.5t-87 310.5z" />
    <glyph glyph-name="Ccedilla.alt1" horiz-adv-x="1363" 
d="M135 846q0 170 87 310.5t234.5 219t321.5 78.5q120 0 250.5 -57t226.5 -176l-110 -99q-69 86 -166 134.5t-201 48.5q-205 0 -342 -132.5t-137 -326.5t137 -326.5t342 -132.5q111 0 207.5 52.5t163.5 144.5l113 -99q-70 -94 -191.5 -165.5t-257.5 -81.5h-2l-23 -48h3
q58 0 96.5 -29.5t38.5 -82.5q0 -63 -45 -98t-125 -35q-42 0 -85.5 14t-66.5 33l39 80q56 -35 111 -35q61 0 61 45q0 28 -35.5 37.5t-111.5 9.5h-2l47 111q-120 12 -226 62.5t-184 129t-123 186.5t-45 228z" />
    <glyph glyph-name="Dcaron.alt1" horiz-adv-x="1484" 
d="M745 1217l-266 210h176l90 -90l91 90h176zM227 0v1194h461q305 0 480 -165t175 -433q0 -269 -174 -432.5t-479 -163.5h-463zM389 150h289q246 0 375 121.5t129 324.5q0 204 -129.5 326t-376.5 122h-287v-894z" />
    <glyph glyph-name="Egrave.alt1" horiz-adv-x="1202" 
d="M604 1229l-158 198h226l69 -198h-137zM227 0v1194h807v-150h-645v-339h606v-150h-606v-405h660v-150h-822z" />
    <glyph glyph-name="Eacute.alt1" horiz-adv-x="1202" 
d="M547 1229l69 198h226l-158 -198h-137zM227 0v1194h807v-150h-645v-339h606v-150h-606v-405h660v-150h-822z" />
    <glyph glyph-name="Ecircumflex.alt1" horiz-adv-x="1202" 
d="M369 1229l266 229l266 -229h-176l-90 108l-90 -108h-176zM227 0v1194h807v-150h-645v-339h606v-150h-606v-405h660v-150h-822z" />
    <glyph glyph-name="Ecaron.alt1" horiz-adv-x="1202" 
d="M633 1217l-266 210h176l90 -90l90 90h176zM227 0v1194h807v-150h-645v-339h606v-150h-606v-405h660v-150h-822z" />
    <glyph glyph-name="Edieresis.alt1" horiz-adv-x="1202" 
d="M842 1288q-42 0 -73.5 30t-31.5 73t31.5 72.5t73.5 29.5q41 0 71.5 -29.5t30.5 -72.5t-30.5 -73t-71.5 -30zM420 1288q-41 0 -72 30t-31 73t31 72.5t72 29.5t71.5 -29.5t30.5 -72.5t-30.5 -73t-71.5 -30zM227 0v1194h807v-150h-645v-339h606v-150h-606v-405h660v-150
h-822z" />
    <glyph glyph-name="Emacron.alt1" horiz-adv-x="1202" 
d="M324 1300v127h604v-127h-604zM227 0v1194h807v-150h-645v-339h606v-150h-606v-405h660v-150h-822z" />
    <glyph glyph-name="Ebreve.alt1" horiz-adv-x="1202" 
d="M633 1235q-101 0 -174 51.5t-86 140.5h133q30 -67 127 -67t127 67h131q-13 -88 -85.5 -140t-172.5 -52zM227 0v1194h807v-150h-645v-339h606v-150h-606v-405h660v-150h-822z" />
    <glyph glyph-name="Edotaccent.alt1" horiz-adv-x="1202" 
d="M641 1288q-41 0 -71.5 30t-30.5 73t30.5 72.5t71.5 29.5t71.5 -29.5t30.5 -72.5t-30.5 -73t-71.5 -30zM227 0v1194h807v-150h-645v-339h606v-150h-606v-405h660v-150h-822z" />
    <glyph glyph-name="Eogonek.alt1" horiz-adv-x="1202" 
d="M227 233v1194h807v-149h-645v-340h606v-150h-606v-405h660v-147q-43 -14 -84 -50t-41 -73q0 -39 57 -39q54 0 98 26l-26 -104q-42 -25 -107 -25q-67 0 -105 28t-38 81q0 48 48 94.5t95 58.5h-719z" />
    <glyph glyph-name="Gcircumflex.alt1" horiz-adv-x="1462" 
d="M489 1229l267 229l266 -229h-176l-90 108l-90 -108h-177zM135 580q0 129 51 242.5t137.5 193.5t205 126t249.5 46q76 0 154.5 -21t166.5 -75t156 -136l-110 -100q-69 86 -166 134t-201 48q-206 0 -342.5 -131t-136.5 -327q0 -197 137 -328t342 -131q211 0 359 145v232
h-404v149h565v-438q-98 -114 -232 -176t-288 -62q-175 0 -322.5 78.5t-234 219t-86.5 311.5z" />
    <glyph glyph-name="Gbreve.alt1" horiz-adv-x="1462" 
d="M768 1235q-101 0 -174 51.5t-86 140.5h133q30 -67 127 -67q95 0 125 67h133q-13 -88 -85.5 -140t-172.5 -52zM135 580q0 129 51 242.5t137.5 193.5t205 126t249.5 46q76 0 154.5 -21t166.5 -75t156 -136l-110 -100q-69 86 -166 134t-201 48q-206 0 -342.5 -131
t-136.5 -327q0 -197 137 -328t342 -131q211 0 359 145v232h-404v149h565v-438q-98 -114 -232 -176t-288 -62q-175 0 -322.5 78.5t-234 219t-86.5 311.5z" />
    <glyph glyph-name="Gdotaccent.alt1" horiz-adv-x="1462" 
d="M768 1288q-42 0 -73 30t-31 73t31 72.5t73 29.5q41 0 71.5 -29.5t30.5 -72.5t-30.5 -73t-71.5 -30zM135 580q0 129 51 242.5t137.5 193.5t205 126t249.5 46q76 0 154.5 -21t166.5 -75t156 -136l-110 -100q-69 86 -166 134t-201 48q-206 0 -342.5 -131t-136.5 -327
q0 -197 137 -328t342 -131q211 0 359 145v232h-404v149h565v-438q-98 -114 -232 -176t-288 -62q-175 0 -322.5 78.5t-234 219t-86.5 311.5z" />
    <glyph glyph-name="Gcommaaccent.alt1" horiz-adv-x="1462" 
d="M778 238q-131 0 -249.5 46t-205 126t-137.5 193.5t-51 242.5t51 242.5t137.5 193.5t205 126t249.5 46q120 0 249 -56t228 -175l-110 -101q-69 86 -166 134.5t-201 48.5q-205 0 -342 -131t-137 -328t137 -328t342 -131q211 0 359 145v230h-404v149h565v-438
q-98 -112 -232.5 -173.5t-287.5 -61.5zM571 0l70 199h225l-157 -199h-138z" />
    <glyph glyph-name="Hcircumflex.alt1" horiz-adv-x="1568" 
d="M522 1229l264 229l265 -229h-174l-91 108l-90 -108h-174zM227 0v1427h162v-593h793v593h161v-1427h-161v682h-793v-682h-162z" />
    <glyph glyph-name="Igrave.alt1" horiz-adv-x="632" 
d="M254 1229l-158 198h226l69 -198h-137zM236 0v1194h161v-1194h-161z" />
    <glyph glyph-name="Iacute.alt1" horiz-adv-x="632" 
d="M240 1229l69 198h226l-158 -198h-137zM236 0v1194h161v-1194h-161z" />
    <glyph glyph-name="Icircumflex.alt1" horiz-adv-x="632" 
d="M51 1229l266 229l265 -229h-174l-91 108l-90 -108h-176zM236 0v1194h161v-1194h-161z" />
    <glyph glyph-name="Itilde.alt1" horiz-adv-x="632" 
d="M111 1245l-101 8q9 82 59 135.5t126 53.5q44 0 88 -20t82 -40t69 -20q38 0 61 20t33 64l101 -8q-23 -201 -189 -201q-46 0 -90 20t-81.5 40t-69.5 20q-71 0 -88 -72zM233 0v1194h164v-1194h-164z" />
    <glyph glyph-name="Idieresis.alt1" horiz-adv-x="632" 
d="M485 1288q-41 0 -72.5 30t-31.5 73t31.5 72.5t72.5 29.5t72 -29.5t31 -72.5t-31 -73t-72 -30zM150 1288q-42 0 -73.5 30t-31.5 73t31.5 72.5t73.5 29.5q41 0 71.5 -29.5t30.5 -72.5t-30.5 -73t-71.5 -30zM236 0v1194h161v-1194h-161z" />
    <glyph glyph-name="Imacron.alt1" horiz-adv-x="632" 
d="M35 1300v127h563v-127h-563zM236 0v1194h161v-1194h-161z" />
    <glyph glyph-name="Ibreve.alt1" horiz-adv-x="632" 
d="M317 1235q-101 0 -174 51.5t-86 140.5h133q30 -67 127 -67q98 0 125 67h133q-13 -88 -85.5 -140t-172.5 -52zM236 0v1194h161v-1194h-161z" />
    <glyph glyph-name="Idotaccent.alt1" horiz-adv-x="632" 
d="M317 1288q-42 0 -73 30t-31 73t31 72.5t73 29.5q41 0 72 -29.5t31 -72.5t-31 -73t-72 -30zM236 0v1194h161v-1194h-161z" />
    <glyph glyph-name="Iogonek.alt1" horiz-adv-x="632" 
d="M150 80q0 33 24.5 66.5t61.5 58.5l-3 2v1220h162v-1191q-44 -14 -85.5 -50t-41.5 -73q0 -39 60 -39q54 0 98 26l-27 -104q-45 -25 -106 -25q-67 0 -105 28t-38 81z" />
    <glyph glyph-name="Jcircumflex.alt1" horiz-adv-x="714" 
d="M152 1229l264 229l266 -229h-176l-90 108l-90 -108h-174zM68 -10v157q41 -24 108 -24q51 0 84.5 20.5t49.5 60t22 82.5t6 103v805h162v-799q0 -52 -2 -90.5t-9.5 -85.5t-21 -80t-37.5 -67t-57.5 -54.5t-83 -33.5t-111.5 -13q-55 0 -110 19z" />
    <glyph glyph-name="Kcommaaccent.alt1" horiz-adv-x="1386" 
d="M227 0v1427h162v-755l686 755h199l-569 -622l585 -805h-194l-500 686l-207 -225v-461h-162zM541 0l63 199h211l-137 -199h-137z" />
    <glyph glyph-name="Lacute.alt1" horiz-adv-x="1095" 
d="M233 1229l70 198h225l-157 -198h-138zM227 0v1194h162v-1044h588v-150h-750z" />
    <glyph glyph-name="Lcommaaccent.alt1" horiz-adv-x="1095" 
d="M227 233v1194h162v-1044h588v-150h-750zM455 0l63 199h213l-139 -199h-137z" />
    <glyph glyph-name="Nacute.alt1" horiz-adv-x="1617" 
d="M227 0v1479l1002 -1125v1073h162v-1478l-1002 1124v-1073h-162zM696 1229l70 198h225l-157 -198h-138z" />
    <glyph glyph-name="Ncaron.alt1" horiz-adv-x="1617" 
d="M227 0v1479l1002 -1125v1073h162v-1478l-1002 1124v-1073h-162zM799 1217l-264 210h174l90 -90l90 90h176z" />
    <glyph glyph-name="Ntilde.alt1" horiz-adv-x="1617" 
d="M227 0v1479l1002 -1125v1073h162v-1478l-1002 1126v-1075h-162zM516 1253q9 82 57 135.5t121 53.5q52 0 124 -40t104 -40q35 0 56.5 20t31.5 64l102 -8q-23 -201 -182 -201q-43 0 -85.5 20t-79 40t-65.5 20q-65 0 -82 -72z" />
    <glyph glyph-name="Ncommaaccent.alt1" horiz-adv-x="1617" 
d="M227 0v1479l1002 -1125v1073h162v-1478l-1002 1124v-1073h-162zM662 0l63 199h215l-141 -199h-137z" />
    <glyph glyph-name="Ograve.alt1" horiz-adv-x="1554" 
d="M739 1229l-157 198h225l70 -198h-138zM135 580q0 129 51 242.5t137.5 193.5t204.5 126t248 46q131 0 249.5 -46t205 -126t137.5 -193.5t51 -242.5q0 -171 -86.5 -311.5t-234 -219t-322.5 -78.5q-174 0 -321 78.5t-233.5 219t-86.5 311.5zM297 580q0 -196 137.5 -327.5
t341.5 -131.5q205 0 342 131t137 328q0 196 -136.5 327t-342.5 131q-204 0 -341.5 -131t-137.5 -327z" />
    <glyph glyph-name="Oacute.alt1" horiz-adv-x="1554" 
d="M700 1229l70 198h225l-157 -198h-138zM135 580q0 129 51 242.5t137.5 193.5t204.5 126t248 46q131 0 249.5 -46t205 -126t137.5 -193.5t51 -242.5q0 -171 -86.5 -311.5t-234 -219t-322.5 -78.5q-174 0 -321 78.5t-233.5 219t-86.5 311.5zM297 580q0 -196 137.5 -327.5
t341.5 -131.5q205 0 342 131t137 328q0 196 -136.5 327t-342.5 131q-204 0 -341.5 -131t-137.5 -327z" />
    <glyph glyph-name="Ocircumflex.alt1" horiz-adv-x="1554" 
d="M516 1229l266 229l267 -229h-177l-90 108l-90 -108h-176zM135 580q0 129 51 242.5t137.5 193.5t204.5 126t248 46q131 0 249.5 -46t205 -126t137.5 -193.5t51 -242.5q0 -171 -86.5 -311.5t-234 -219t-322.5 -78.5q-174 0 -321 78.5t-233.5 219t-86.5 311.5zM297 580
q0 -196 137.5 -327.5t341.5 -131.5q205 0 342 131t137 328q0 196 -136.5 327t-342.5 131q-204 0 -341.5 -131t-137.5 -327z" />
    <glyph glyph-name="Otilde.alt1" horiz-adv-x="1554" 
d="M455 1253q9 82 58.5 135.5t125.5 53.5q55 0 131 -40t111 -40q38 0 61 20t33 64l100 -8q-23 -201 -188 -201q-46 0 -90.5 20t-83 40t-70.5 20q-69 0 -86 -72zM135 580q0 129 51 242.5t137.5 193.5t204.5 126t248 46q131 0 249.5 -46t205 -126t137.5 -193.5t51 -242.5
q0 -171 -86.5 -311.5t-234 -219t-322.5 -78.5q-174 0 -321 78.5t-233.5 219t-86.5 311.5zM297 580q0 -196 137.5 -327.5t341.5 -131.5q205 0 342 131t137 328q0 196 -136.5 327t-342.5 131q-204 0 -341.5 -131t-137.5 -327z" />
    <glyph glyph-name="Odieresis.alt1" horiz-adv-x="1718" 
d="M1444 1288q-41 0 -72 30t-31 73t31 72.5t72 29.5t71.5 -29.5t30.5 -72.5t-30.5 -73t-71.5 -30zM274 1288q-41 0 -71.5 30t-30.5 73t30.5 72.5t71.5 29.5t72 -29.5t31 -72.5t-31 -73t-72 -30zM135 692q0 153 57 287.5t154.5 229.5t230.5 149.5t281 54.5q199 0 364.5 -92.5
t263 -258.5t97.5 -370t-97.5 -370t-263 -258.5t-364.5 -92.5q-148 0 -281 54.5t-230.5 149.5t-154.5 229.5t-57 287.5zM297 692q0 -161 72.5 -291.5t201 -205t287.5 -74.5q242 0 401.5 163t159.5 408t-159.5 408.5t-401.5 163.5q-159 0 -287.5 -74.5t-201 -205.5t-72.5 -292
z" />
    <glyph glyph-name="Omacron.alt1" horiz-adv-x="1554" 
d="M479 1300v127h604v-127h-604zM135 580q0 129 51 242.5t137.5 193.5t204.5 126t248 46q131 0 249.5 -46t205 -126t137.5 -193.5t51 -242.5q0 -171 -86.5 -311.5t-234 -219t-322.5 -78.5q-174 0 -321 78.5t-233.5 219t-86.5 311.5zM297 580q0 -196 137.5 -327.5
t341.5 -131.5q205 0 342 131t137 328q0 196 -136.5 327t-342.5 131q-204 0 -341.5 -131t-137.5 -327z" />
    <glyph glyph-name="Obreve.alt1" horiz-adv-x="1554" 
d="M774 1235q-100 0 -172.5 52t-85.5 140h133q30 -67 125 -67q97 0 127 67h133q-13 -89 -86 -140.5t-174 -51.5zM135 580q0 129 51 242.5t137.5 193.5t204.5 126t248 46q131 0 249.5 -46t205 -126t137.5 -193.5t51 -242.5q0 -171 -86.5 -311.5t-234 -219t-322.5 -78.5
q-174 0 -321 78.5t-233.5 219t-86.5 311.5zM297 580q0 -196 137.5 -327.5t341.5 -131.5q205 0 342 131t137 328q0 196 -136.5 327t-342.5 131q-204 0 -341.5 -131t-137.5 -327z" />
    <glyph glyph-name="Ohungarumlaut.alt1" horiz-adv-x="1554" 
d="M831 1229l109 198h184l-178 -198h-115zM551 1229l108 198h185l-178 -198h-115zM135 580q0 129 51 242.5t137.5 193.5t204.5 126t248 46q131 0 249.5 -46t205 -126t137.5 -193.5t51 -242.5q0 -171 -86.5 -311.5t-234 -219t-322.5 -78.5q-174 0 -321 78.5t-233.5 219
t-86.5 311.5zM297 580q0 -196 137.5 -327.5t341.5 -131.5q205 0 342 131t137 328q0 196 -136.5 327t-342.5 131q-204 0 -341.5 -131t-137.5 -327z" />
    <glyph glyph-name="Oslashacute.alt1" horiz-adv-x="1554" 
d="M725 1229l70 198h225l-158 -198h-137zM242 0l98 131q-97 83 -151 199t-54 252q0 129 51 242.5t137.5 193.5t204.5 126t248 46q163 0 303 -70l105 140l119 -89l-99 -131q101 -86 158 -203.5t57 -254.5q0 -171 -86.5 -311.5t-234 -219t-322.5 -78.5q-169 0 -315 76
l-101 -135zM432 254l553 741q-92 45 -209 45q-204 0 -341.5 -131t-137.5 -327q0 -199 135 -328zM555 172q94 -49 221 -49q205 0 342 131t137 328q0 204 -145 333z" />
    <glyph glyph-name="Racute.alt1" horiz-adv-x="1320" 
d="M528 1229l70 198h227l-157 -198h-140zM227 0v1194h531q161 0 274 -107.5t113 -267.5q0 -123 -74.5 -218.5t-196.5 -135.5l345 -465h-187l-321 432h-4h-318v-432h-162zM389 582h352q103 0 172.5 68t69.5 169q0 94 -66.5 159.5t-164.5 65.5h-363v-462z" />
    <glyph glyph-name="Rcaron.alt1" horiz-adv-x="1320" 
d="M639 1217l-266 210h176l90 -90l90 90h176zM227 0v1194h531q161 0 274 -107.5t113 -267.5q0 -123 -74.5 -218.5t-196.5 -135.5l345 -465h-187l-321 432h-4h-318v-432h-162zM389 582h352q103 0 172.5 68t69.5 169q0 94 -66.5 159.5t-164.5 65.5h-363v-462z" />
    <glyph glyph-name="Rcommaaccent.alt1" horiz-adv-x="1320" 
d="M227 0v1427h490q180 0 305 -121.5t125 -304.5q0 -140 -75.5 -249t-197.5 -156l345 -596h-185l-321 563h-6h-318v-563h-162zM389 713h311q123 0 204 82t81 206q0 118 -78 197.5t-196 79.5h-322v-565zM518 0l64 199h213l-140 -199h-137z" />
    <glyph glyph-name="Sacute.alt1" horiz-adv-x="1110" 
d="M489 1229l70 198h225l-157 -198h-138zM121 256l139 63q35 -85 112 -139.5t189 -54.5q63 0 111 15t73.5 35.5t41.5 48t20 47.5t4 38q0 89 -64 139.5t-215 108.5q-61 23 -103.5 42.5t-89 49t-74 60.5t-46 75.5t-18.5 96.5q0 133 100.5 220t251.5 87q243 0 344 -207
l-137 -72q-60 129 -211 129q-80 0 -132 -40.5t-52 -112.5q0 -45 29.5 -78t63.5 -49.5t119 -50.5q24 -10 37 -15q94 -37 155 -70.5t110 -77.5t71.5 -100.5t22.5 -130.5q0 -150 -110.5 -244t-305.5 -94q-152 0 -265.5 70t-170.5 211z" />
    <glyph glyph-name="Scircumflex.alt1" horiz-adv-x="1116" 
d="M266 1229l266 229l267 -229h-176l-91 108l-90 -108h-176zM121 256l139 63q35 -85 112 -139.5t189 -54.5q63 0 111 15t73.5 35.5t41.5 48t20 47.5t4 38q0 89 -64 139.5t-215 108.5q-61 23 -103.5 42.5t-89 49t-74 60.5t-46 75.5t-18.5 96.5q0 133 100.5 220t251.5 87
q243 0 344 -207l-137 -72q-60 129 -211 129q-80 0 -132 -40.5t-52 -112.5q0 -45 29.5 -78t63.5 -49.5t119 -50.5q24 -10 37 -15q94 -37 155 -70.5t110 -77.5t71.5 -100.5t22.5 -130.5q0 -150 -110.5 -244t-305.5 -94q-152 0 -265.5 70t-170.5 211z" />
    <glyph glyph-name="Scaron.alt1" horiz-adv-x="1116" 
d="M551 1217l-266 210h176l90 -90l90 90h176zM121 256l139 63q35 -85 112 -139.5t189 -54.5q63 0 111 15t73.5 35.5t41.5 48t20 47.5t4 38q0 89 -64 139.5t-215 108.5q-61 23 -103.5 42.5t-89 49t-74 60.5t-46 75.5t-18.5 96.5q0 133 100.5 220t251.5 87q243 0 344 -207
l-137 -72q-60 129 -211 129q-80 0 -132 -40.5t-52 -112.5q0 -45 29.5 -78t63.5 -49.5t119 -50.5q24 -10 37 -15q94 -37 155 -70.5t110 -77.5t71.5 -100.5t22.5 -130.5q0 -150 -110.5 -244t-305.5 -94q-152 0 -265.5 70t-170.5 211z" />
    <glyph glyph-name="Scommaaccent.alt1" horiz-adv-x="1116" 
d="M121 520l139 66q35 -85 112 -140t189 -55q63 0 111 15t73.5 35.5t41.5 48t20 47.5t4 38q0 89 -64.5 139.5t-214.5 106.5q-62 25 -103.5 44t-88.5 48.5t-74.5 60.5t-46 75t-18.5 96q0 134 100.5 221.5t251.5 87.5q243 0 344 -207l-137 -71q-60 129 -211 129
q-80 0 -132 -41t-52 -115q0 -27 10 -48.5t25.5 -37.5t44.5 -31.5t58 -28t73 -30.5q9 -3 13.5 -5t11.5 -5t13 -5q94 -37 154.5 -70t110 -77.5t72 -100.5t22.5 -130q0 -150 -110.5 -244t-305.5 -94q-152 0 -265.5 69.5t-170.5 208.5zM367 0l69 199h228l-158 -199h-139z" />
    <glyph glyph-name="Scedilla.alt1" horiz-adv-x="1116" 
d="M385 -8l39 80q56 -35 111 -35q61 0 61 45q0 28 -36 37.5t-111 9.5h-3l50 115q-273 29 -375 276l139 66q35 -85 112 -140t189 -55q63 0 111 15t73.5 35.5t41.5 48t20 47.5t4 38q0 89 -64.5 139.5t-214.5 106.5q-62 25 -103.5 44t-88.5 48.5t-74.5 60.5t-46 75t-18.5 96
q0 134 100.5 221.5t251.5 87.5q243 0 344 -207l-137 -71q-60 129 -211 129q-80 0 -132 -41t-52 -115q0 -27 10 -48.5t25.5 -37.5t44.5 -31.5t58 -28t73 -30.5q9 -3 13.5 -5t11.5 -5t13 -5q94 -37 154.5 -70t110 -77.5t72 -100.5t22.5 -130q0 -141 -99.5 -234.5
t-277.5 -103.5l-27 -52h2q58 0 97 -29.5t39 -82.5q0 -63 -45 -98t-125 -35q-42 0 -85.5 14t-66.5 33z" />
    <glyph glyph-name="Tcaron.alt1" horiz-adv-x="1140" 
d="M569 1217l-266 210h176l90 -90l90 90h177zM489 0v1044h-389v150h940v-150h-389v-1044h-162z" />
    <glyph glyph-name="Tcommaaccent.alt1" horiz-adv-x="1140" 
d="M489 233v1045h-389v149h940v-149h-389v-1045h-162zM389 0l80 199h199l-142 -199h-137z" />
    <glyph glyph-name="Ugrave.alt1" horiz-adv-x="1505" 
d="M217 502v925h162v-909q0 -192 100 -292.5t275 -100.5q173 0 272.5 100.5t99.5 292.5v909h162v-925q0 -128 -40 -229t-112 -165.5t-169 -98.5t-213 -34q-240 0 -388.5 137t-148.5 390zM739 1229l-157 198h225l70 -198h-138z" />
    <glyph glyph-name="Uacute.alt1" horiz-adv-x="1505" 
d="M217 502v925h162v-909q0 -192 100 -292.5t275 -100.5q173 0 272.5 100.5t99.5 292.5v909h162v-925q0 -128 -40 -229t-112 -165.5t-169 -98.5t-213 -34q-240 0 -388.5 137t-148.5 390zM627 1229l69 198h226l-158 -198h-137z" />
    <glyph glyph-name="Ucircumflex.alt1" horiz-adv-x="1505" 
d="M217 502v925h162v-909q0 -192 100 -292.5t275 -100.5q173 0 272.5 100.5t99.5 292.5v909h162v-925q0 -128 -40 -229t-112 -165.5t-169 -98.5t-213 -34q-240 0 -388.5 137t-148.5 390zM485 1229l267 229l264 -229h-174l-90 108l-90 -108h-177z" />
    <glyph glyph-name="Utilde.alt1" horiz-adv-x="1505" 
d="M217 502v925h162v-909q0 -192 100 -292.5t275 -100.5q174 0 274 100.5t100 292.5v909h162v-925q0 -253 -148 -390t-388 -137q-156 0 -275.5 58t-190.5 179t-71 290zM442 1253q9 82 59 135.5t126 53.5q44 0 88 -20t82 -40t69 -20q75 0 95 84l100 -8q-23 -201 -189 -201
q-46 0 -90 20t-81.5 40t-69.5 20q-69 0 -86 -72z" />
    <glyph glyph-name="Udieresis.alt1" horiz-adv-x="1505" 
d="M217 502v925h162v-909q0 -192 100 -292.5t275 -100.5q174 0 274 100.5t100 292.5v909h162v-925q0 -253 -148 -390t-388 -137q-156 0 -275.5 58t-190.5 179t-71 290zM596 1288q-41 0 -71.5 30t-30.5 73t30.5 72.5t71.5 29.5t71.5 -29.5t30.5 -72.5t-30.5 -73t-71.5 -30z
M911 1288q-41 0 -71.5 30t-30.5 73t30.5 72.5t71.5 29.5t72 -29.5t31 -72.5t-31 -73t-72 -30z" />
    <glyph glyph-name="Umacron.alt1" horiz-adv-x="1505" 
d="M217 502v925h162v-909q0 -192 100 -292.5t275 -100.5q174 0 274 100.5t100 292.5v909h162v-925q0 -128 -40.5 -229t-112.5 -165.5t-169.5 -98.5t-213.5 -34q-156 0 -275.5 58t-190.5 179t-71 290zM471 1300v127h565v-127h-565z" />
    <glyph glyph-name="Ubreve.alt1" horiz-adv-x="1505" 
d="M217 502v925h162v-909q0 -192 100 -292.5t275 -100.5q174 0 274 100.5t100 292.5v909h162v-925q0 -128 -40.5 -229t-112.5 -165.5t-169.5 -98.5t-213.5 -34q-240 0 -388.5 137t-148.5 390zM758 1235q-100 0 -172.5 52t-85.5 140h131q30 -67 127 -67t127 67h131
q-13 -88 -85.5 -140t-172.5 -52z" />
    <glyph glyph-name="Uring.alt1" horiz-adv-x="1505" 
d="M217 502v925h162v-909q0 -192 100 -292.5t275 -100.5q174 0 274 100.5t100 292.5v909h162v-925q0 -128 -40.5 -229t-112.5 -165.5t-169.5 -98.5t-213.5 -34q-240 0 -388.5 137t-148.5 390zM756 1092q-84 0 -143.5 58.5t-59.5 141.5t60 142t143 59q82 0 140 -59t58 -142
t-57.5 -141.5t-140.5 -58.5zM756 1198q38 0 66 28.5t28 65.5q0 38 -28 66t-66 28q-39 0 -68 -28t-29 -66q0 -37 29.5 -65.5t67.5 -28.5z" />
    <glyph glyph-name="Uhungarumlaut.alt1" horiz-adv-x="1505" 
d="M217 502v925h162v-909q0 -192 100 -292.5t275 -100.5q174 0 274 100.5t100 292.5v909h162v-925q0 -128 -40.5 -229t-112.5 -165.5t-169.5 -98.5t-213.5 -34q-240 0 -388.5 137t-148.5 390zM481 1229l109 198h182l-178 -198h-113zM762 1229l108 198h183l-179 -198h-112z
" />
    <glyph glyph-name="Uogonek.alt1" horiz-adv-x="1507" 
d="M754 102q0 74 116 146q-68 -10 -125 -10q-154 0 -271.5 58t-187 178.5t-69.5 289.5v663h162v-647q0 -194 100.5 -295.5t274.5 -101.5t274 102t100 297v645h162v-647q0 -156 -57 -270.5t-158 -181.5q-5 -3 -38.5 -23t-53.5 -34.5t-47 -36.5t-41 -45t-14 -46q0 -29 26 -44
t64 -15q59 0 119 29l-29 -113q-60 -29 -117 -29q-77 0 -133.5 35t-56.5 96z" />
    <glyph glyph-name="Wgrave.alt1" horiz-adv-x="2025" 
d="M614 -55l-524 1482h174l375 -1054l375 788q372 -788 372 -790l377 1056h172l-526 -1482l-395 852zM983 1229l-158 198h226l69 -198h-137z" />
    <glyph glyph-name="Wacute.alt1" horiz-adv-x="2025" 
d="M614 -55l-524 1482h174l375 -1054l375 788q372 -788 372 -790l377 1056h172l-526 -1482l-395 852zM911 1229l70 198h225l-157 -198h-138z" />
    <glyph glyph-name="Wcircumflex.alt1" horiz-adv-x="2025" 
d="M614 -55l-524 1482h174l375 -1054l375 788q372 -788 372 -790l377 1056h172l-526 -1482l-395 852zM748 1229l266 229l266 -229h-176l-90 108l-90 -108h-176z" />
    <glyph glyph-name="Wdieresis.alt1" horiz-adv-x="2025" 
d="M614 -55l-524 1482h174l375 -1054l375 788q372 -788 372 -790l377 1056h172l-526 -1482l-395 852zM1225 1288q-42 0 -73.5 30t-31.5 73t31.5 72.5t73.5 29.5q41 0 71.5 -29.5t30.5 -72.5t-30.5 -73t-71.5 -30zM803 1288q-41 0 -72 30t-31 73t31 72.5t72 29.5t71.5 -29.5
t30.5 -72.5t-30.5 -73t-71.5 -30z" />
    <glyph glyph-name="Ygrave.alt1" horiz-adv-x="1370" 
d="M608 0v584l-512 843h178l416 -682l412 682h174l-506 -843v-584h-162zM668 1229l-158 198h225l70 -198h-137z" />
    </font>
</defs>
</svg>
